<svg width="24" height="24" viewBox="0 0 24 24" fill="none" xmlns="http://www.w3.org/2000/svg">
<g clip-path="url(#clip0_1309_18333)">
<path d="M2 5C2 3.34315 3.34315 2 5 2H19C20.6569 2 22 3.34315 22 5V19C22 20.6569 20.6569 22 19 22H5C3.34315 22 2 20.6569 2 19V5Z" fill="url(#paint0_linear_1309_18333)"/>
<path fill-rule="evenodd" clip-rule="evenodd" d="M12.5148 7.752C13.3298 7.752 13.9904 7.09135 13.9904 6.2764C13.9904 5.46144 13.3298 4.80078 12.5148 4.80078C11.6999 4.80078 11.0392 5.46144 11.0392 6.2764C11.0392 7.09135 11.6999 7.752 12.5148 7.752ZM19.1805 12.0005C19.1805 13.6585 17.8364 15.0026 16.1784 15.0026C14.5203 15.0026 13.1763 13.6585 13.1763 12.0005C13.1763 10.3425 14.5203 8.99835 16.1784 8.99835C17.8364 8.99835 19.1805 10.3425 19.1805 12.0005ZM13.9904 17.725C13.9904 18.54 13.3298 19.2006 12.5148 19.2006C11.6999 19.2006 11.0392 18.54 11.0392 17.725C11.0392 16.91 11.6999 16.2494 12.5148 16.2494C13.3298 16.2494 13.9904 16.91 13.9904 17.725ZM4.95875 7.85345C4.52624 8.99835 5.13684 10.2959 6.28172 10.7284C7.04499 11.0082 7.85909 10.8556 8.44424 10.3722C8.97854 9.99055 9.66544 9.86335 10.3269 10.1178C10.7594 10.2704 11.0902 10.5503 11.3192 10.9065L11.3446 10.9574C11.4464 11.11 11.599 11.2627 11.8026 11.3135C12.2605 11.4916 12.7948 11.2372 12.9474 10.7793C13.1255 10.3213 12.8711 9.787 12.4132 9.63435C12.2096 9.55805 12.0061 9.55805 11.8026 9.63435C11.3955 9.7616 10.9375 9.7616 10.505 9.60895C9.86899 9.37995 9.43649 8.8711 9.25839 8.28595L9.23294 8.23505C9.23294 8.20965 9.23294 8.1842 9.20749 8.1842V8.1333C9.02944 7.42095 8.54604 6.81034 7.80824 6.55593C6.66335 6.09798 5.36582 6.68313 4.95875 7.85345ZM6.28192 13.2725C5.13704 13.7051 4.52644 15.0026 4.95895 16.1475C5.39146 17.3178 6.66355 17.9029 7.80844 17.445C8.54624 17.1906 9.02964 16.58 9.20769 15.8676V15.8167C9.23314 15.8167 9.23314 15.7913 9.23314 15.7658L9.25859 15.7149C9.43669 15.1298 9.86919 14.621 10.5052 14.392C10.9377 14.2393 11.3957 14.2393 11.8028 14.3665C12.0063 14.4429 12.2098 14.4429 12.4134 14.3665C12.8713 14.2139 13.1257 13.6796 12.9476 13.2217C12.795 12.7637 12.2607 12.5093 11.8028 12.6874C11.5992 12.7383 11.4466 12.8909 11.3448 13.0436L11.3194 13.0944C11.0904 13.4506 10.7596 13.7305 10.3271 13.8831C9.66564 14.1376 8.97874 14.0104 8.44444 13.6287C7.85929 13.1453 7.04519 12.9927 6.28192 13.2725Z" fill="white"/>
</g>
<defs>
<linearGradient id="paint0_linear_1309_18333" x1="21.3627" y1="2.38813" x2="2" y2="20.492" gradientUnits="userSpaceOnUse">
<stop stop-color="#673ECA"/>
<stop offset="1" stop-color="#502EA2"/>
</linearGradient>
<clipPath id="clip0_1309_18333">
<rect width="24" height="24" fill="white"/>
</clipPath>
</defs>
</svg>
