<svg width="24" height="24" viewBox="0 0 24 24" fill="none" xmlns="http://www.w3.org/2000/svg">
<path fill-rule="evenodd" clip-rule="evenodd" d="M10.8174 5.63781C8.0548 6.81162 6.31735 9.68247 7.32884 12.5354C7.9405 14.2606 9.17309 15.49 11.001 16.1184C14.1974 17.2174 17.5342 14.8009 17.16 11.6599C17.0011 10.325 16.3012 9.30844 14.8797 8.88782C13.8223 8.57491 12.8104 8.72111 11.9847 9.46532C11.2839 10.0963 11.0182 10.8734 11.2989 11.7766C11.4538 12.2733 11.8258 12.5824 12.332 12.7299C12.7764 12.859 13.1202 12.6722 13.385 12.3148C13.3316 12.2284 13.2848 12.134 13.2199 12.0528C12.8744 11.6202 13.1546 10.9909 13.4534 10.7289C13.8594 10.3728 14.517 10.3403 14.949 10.6353C15.6498 11.1128 15.9684 12.3828 15.5876 13.1796C14.9503 14.5124 13.3117 15.2882 11.8082 14.9108C9.43435 14.3149 8.26399 12.0446 9.03011 9.85004C10.0482 6.93388 13.4702 5.65832 16.3864 7.05699C18.7439 8.1872 19.619 10.1608 19.525 12.5101C19.371 16.3783 15.3413 19.2478 11.3007 18.5019C7.3818 17.7786 4.47178 14.1439 4.68052 10.7067C4.75731 9.43754 5.04902 8.24918 5.71937 7.15872C7.46344 4.32293 10.1802 2.98838 13.5783 2.77251C14.4728 2.71566 15.3749 2.76396 16.227 2.76439C16.1803 2.7443 16.0735 2.69343 15.9623 2.65325C14.3029 2.05138 12.588 1.85945 10.8307 2.10225C9.74106 2.2322 8.73531 2.51732 7.82091 2.92512C7.80414 2.92768 7.78428 2.93324 7.76001 2.94307C7.3487 3.11278 7.27986 2.72293 7.13378 2.60495C6.99168 2.49039 7.01022 2.63273 7.01022 2.63273C7.13422 3.20425 6.82354 3.43466 6.78161 3.46287C6.52256 3.61804 6.2741 3.7856 6.03403 3.96172C6.02697 3.96471 6.02167 3.96471 6.01417 3.96813C5.44708 4.21863 5.21142 3.79544 4.9506 3.66677C4.67478 3.53084 4.77893 3.75397 4.77893 3.75397C5.12051 4.41141 4.82571 4.97395 4.77055 5.06885C4.52871 5.32148 4.30232 5.58694 4.09048 5.86265C4.06842 5.87633 4.04679 5.88916 4.02164 5.91096C3.4647 6.39869 3.03133 6.01269 2.68711 5.94002C2.30758 5.86052 2.5225 6.10118 2.5225 6.10118C3.22463 6.79752 3.00265 7.63492 3.00265 7.63492L3.00441 7.63577C2.10237 9.52388 1.77844 11.7091 2.15312 13.9028C3.38482 21.1137 12.5416 24.5193 18.5439 19.8741C20.4932 18.3656 21.8454 15.4597 21.988 13.0556C22.0895 11.3483 21.5444 9.79874 20.5396 8.39581C18.4076 5.41894 14.1463 4.22333 10.8174 5.63781" fill="#5D42FF"/>
</svg>
