<svg width="194" height="216" viewBox="0 0 194 216" fill="none" xmlns="http://www.w3.org/2000/svg">
<path d="M7.97397 43.8594C7.46876 43.8438 7.03126 43.7266 6.66147 43.5078C6.29168 43.2891 5.98439 43 5.73959 42.6406C5.50522 42.2969 5.32814 41.9115 5.20834 41.4844C5.08855 41.0625 5.02866 40.6432 5.02866 40.2266V38.9062C5.02866 38.1562 4.84897 37.612 4.48959 37.2734C4.13543 36.9349 3.59116 36.763 2.85678 36.7578V35.625C3.59116 35.625 4.13543 35.4583 4.48959 35.125C4.84897 34.7865 5.02866 34.2396 5.02866 33.4844V32.1562C5.02866 31.7344 5.08334 31.3047 5.19272 30.8672C5.3073 30.4245 5.48699 30.0286 5.73178 29.6797C5.96095 29.3464 6.26043 29.0755 6.63022 28.8672C7.00001 28.6536 7.44793 28.5391 7.97397 28.5234L8.13803 29.4219C7.76303 29.4323 7.46355 29.5208 7.23959 29.6875C7.02084 29.8542 6.85678 30.0651 6.74741 30.3203C6.63282 30.5807 6.55991 30.8724 6.52866 31.1953C6.49741 31.5182 6.48178 31.8385 6.48178 32.1562V33.4844C6.48178 34.1094 6.33595 34.6589 6.04428 35.1328C5.75782 35.6016 5.31251 35.9583 4.70834 36.2031C5.31251 36.4427 5.75782 36.7995 6.04428 37.2734C6.33074 37.7422 6.47657 38.2865 6.48178 38.9062V40.2266C6.48178 40.5495 6.50782 40.8698 6.55991 41.1875C6.61199 41.5104 6.70314 41.7995 6.83334 42.0547C6.95834 42.3151 7.12501 42.5286 7.33334 42.6953C7.54689 42.862 7.81511 42.9505 8.13803 42.9609L7.97397 43.8594ZM24.3333 51.5V53.5469H27.5521V54.6641H24.3333V59.2578C24.3333 59.5859 24.375 59.8568 24.4583 60.0703C24.5417 60.2839 24.6563 60.4531 24.8021 60.5781C24.9479 60.7083 25.1146 60.7995 25.3021 60.8516C25.4948 60.9036 25.6979 60.9297 25.9115 60.9297C26.0677 60.9297 26.2292 60.9219 26.3958 60.9062C26.5625 60.8854 26.7266 60.862 26.888 60.8359C27.0443 60.8099 27.1901 60.7839 27.3255 60.7578C27.4662 60.7266 27.5807 60.7005 27.6693 60.6797L27.8724 61.7031C27.7526 61.776 27.6068 61.8411 27.4349 61.8984C27.263 61.9505 27.0755 61.9948 26.8724 62.0312C26.6693 62.0729 26.4531 62.1042 26.224 62.125C26 62.1458 25.7761 62.1562 25.5521 62.1562C25.1771 62.1562 24.8255 62.1042 24.4974 62C24.1745 61.8906 23.8932 61.7188 23.6537 61.4844C23.4141 61.2552 23.224 60.9583 23.0833 60.5938C22.9479 60.224 22.8802 59.7786 22.8802 59.2578V54.6641H20.6615V53.5469H22.8802V51.5H24.3333ZM30.1146 57.6953C30.1146 57.0859 30.2031 56.5208 30.3802 56C30.5573 55.474 30.8125 55.0182 31.1458 54.6328C31.474 54.2474 31.875 53.9453 32.349 53.7266C32.8229 53.5026 33.3568 53.3906 33.9505 53.3906C34.5495 53.3906 35.0859 53.5026 35.5599 53.7266C36.0391 53.9453 36.4453 54.2474 36.7787 54.6328C37.1068 55.0182 37.3594 55.474 37.5365 56C37.7136 56.5208 37.8021 57.0859 37.8021 57.6953V57.8672C37.8021 58.4766 37.7136 59.0417 37.5365 59.5625C37.3594 60.0833 37.1068 60.5365 36.7787 60.9219C36.4453 61.3073 36.0417 61.6094 35.5677 61.8281C35.0938 62.0469 34.5599 62.1562 33.9662 62.1562C33.3672 62.1562 32.8281 62.0469 32.349 61.8281C31.875 61.6094 31.474 61.3073 31.1458 60.9219C30.8125 60.5365 30.5573 60.0833 30.3802 59.5625C30.2031 59.0417 30.1146 58.4766 30.1146 57.8672V57.6953ZM31.5599 57.8672C31.5599 58.2839 31.6094 58.6823 31.7083 59.0625C31.8073 59.4375 31.9583 59.7682 32.1615 60.0547C32.3594 60.3411 32.6094 60.5677 32.9115 60.7344C33.2136 60.901 33.5651 60.9844 33.9662 60.9844C34.362 60.9844 34.7083 60.901 35.0052 60.7344C35.3073 60.5677 35.5599 60.3411 35.763 60.0547C35.9609 59.7682 36.1094 59.4375 36.2083 59.0625C36.3073 58.6823 36.3568 58.2839 36.3568 57.8672V57.6953C36.3568 57.2839 36.3047 56.8906 36.2005 56.5156C36.1016 56.1354 35.9531 55.8021 35.7552 55.5156C35.5521 55.2292 35.2995 55.0026 34.9974 54.8359C34.7005 54.6641 34.3516 54.5781 33.9505 54.5781C33.5495 54.5781 33.2005 54.6641 32.9037 54.8359C32.6068 55.0026 32.3594 55.2292 32.1615 55.5156C31.9583 55.8021 31.8073 56.1354 31.7083 56.5156C31.6094 56.8906 31.5599 57.2839 31.5599 57.6953V57.8672ZM42.6615 58.0547L41.599 59.0781V62H40.1458V50H41.599V57.3438L42.5443 56.3281L45.3177 53.5469H47.0755L43.6537 57.0703L47.599 62H45.763L42.6615 58.0547ZM53.474 62.1562C52.8802 62.1562 52.3333 62.0547 51.8333 61.8516C51.3386 61.6484 50.9141 61.3646 50.5599 61C50.2057 60.6354 49.9297 60.2031 49.7318 59.7031C49.5339 59.2031 49.4349 58.6589 49.4349 58.0703V57.7422C49.4349 57.0599 49.5443 56.4505 49.763 55.9141C49.9818 55.3724 50.2734 54.9141 50.638 54.5391C50.9974 54.1693 51.4063 53.8854 51.8646 53.6875C52.3281 53.4896 52.8021 53.3906 53.2865 53.3906C53.8958 53.3906 54.4271 53.4974 54.8802 53.7109C55.3386 53.9193 55.7188 54.2083 56.0208 54.5781C56.3229 54.9531 56.5469 55.3932 56.6927 55.8984C56.8438 56.4036 56.9193 56.9505 56.9193 57.5391V58.1875H50.8802V58.2422C50.9167 58.6536 50.9974 59.0156 51.1224 59.3281C51.2526 59.6406 51.4297 59.9167 51.6537 60.1562C51.8828 60.4115 52.1589 60.612 52.4818 60.7578C52.8047 60.9036 53.1615 60.9766 53.5521 60.9766C54.0677 60.9766 54.5261 60.8724 54.9271 60.6641C55.3281 60.4557 55.6615 60.1797 55.9271 59.8359L56.8099 60.5234C56.5287 60.9505 56.1068 61.3307 55.5443 61.6641C54.987 61.9922 54.2969 62.1562 53.474 62.1562ZM53.2865 54.5781C52.9948 54.5781 52.7188 54.6328 52.4583 54.7422C52.1979 54.8464 51.9636 55 51.7552 55.2031C51.5469 55.4115 51.3698 55.6667 51.224 55.9688C51.0833 56.2656 50.9844 56.6094 50.9271 57H55.474V56.9297C55.474 56.6693 55.4245 56.3906 55.3255 56.0938C55.2266 55.7917 55.0886 55.5312 54.9115 55.3125C54.7344 55.0938 54.5104 54.9167 54.2396 54.7812C53.974 54.6458 53.6563 54.5781 53.2865 54.5781ZM59.349 62V53.5469H60.6458L60.7474 54.7969C60.8724 54.6198 61.0078 54.4583 61.1537 54.3125C61.3047 54.1615 61.4636 54.0312 61.6302 53.9219C61.8802 53.7552 62.1511 53.6276 62.4427 53.5391C62.7396 53.4453 63.0521 53.3958 63.3802 53.3906C63.8229 53.3906 64.224 53.4531 64.5833 53.5781C64.9479 53.7031 65.2578 53.8984 65.513 54.1641C65.7682 54.4297 65.9636 54.7682 66.099 55.1797C66.2396 55.5859 66.3099 56.0703 66.3099 56.6328V62H64.8646V56.6641C64.8646 56.2891 64.8229 55.9714 64.7396 55.7109C64.6563 55.4505 64.5339 55.2396 64.3724 55.0781C64.2057 54.9167 64.0026 54.7995 63.763 54.7266C63.5287 54.6536 63.2578 54.6172 62.9505 54.6172C62.6849 54.6172 62.4375 54.6562 62.2083 54.7344C61.9792 54.8073 61.7682 54.9089 61.5755 55.0391C61.4193 55.1536 61.2734 55.2865 61.138 55.4375C61.0078 55.5885 60.8932 55.7552 60.7943 55.9375V62H59.349ZM74.5755 59.7578C74.5755 59.5859 74.5417 59.4323 74.474 59.2969C74.4063 59.1562 74.2917 59.0286 74.1302 58.9141C73.9688 58.7995 73.7552 58.6953 73.4896 58.6016C73.224 58.5026 72.8932 58.4141 72.4974 58.3359C72.013 58.237 71.5703 58.1172 71.1693 57.9766C70.7734 57.8359 70.4349 57.6667 70.1537 57.4688C69.8672 57.276 69.6458 57.0495 69.4896 56.7891C69.3333 56.5234 69.2552 56.2161 69.2552 55.8672C69.2552 55.5234 69.3359 55.2031 69.4974 54.9062C69.6589 54.6042 69.8854 54.3411 70.1771 54.1172C70.4688 53.8932 70.8151 53.7161 71.2162 53.5859C71.6224 53.4557 72.0677 53.3906 72.5521 53.3906C73.0729 53.3906 73.5417 53.4583 73.9583 53.5938C74.375 53.7292 74.7292 53.9167 75.0208 54.1562C75.3125 54.3958 75.5365 54.6771 75.6927 55C75.8542 55.3177 75.9349 55.6615 75.9349 56.0312H74.4896C74.4896 55.849 74.4427 55.6719 74.349 55.5C74.2552 55.3229 74.125 55.1667 73.9583 55.0312C73.7917 54.8958 73.5886 54.7865 73.349 54.7031C73.1146 54.6198 72.849 54.5781 72.5521 54.5781C72.2448 54.5781 71.974 54.612 71.7396 54.6797C71.5104 54.7474 71.3203 54.8385 71.1693 54.9531C71.013 55.0677 70.8958 55.2005 70.8177 55.3516C70.7396 55.5026 70.7005 55.6589 70.7005 55.8203C70.7005 55.987 70.7318 56.1354 70.7943 56.2656C70.8568 56.3958 70.9662 56.513 71.1224 56.6172C71.2734 56.7214 71.4766 56.8151 71.7318 56.8984C71.9922 56.9818 72.3203 57.0625 72.7162 57.1406C73.237 57.25 73.7031 57.3776 74.1146 57.5234C74.5261 57.6641 74.8724 57.8333 75.1537 58.0312C75.4349 58.2344 75.6484 58.4688 75.7943 58.7344C75.9453 59 76.0208 59.3073 76.0208 59.6562C76.0208 60.0312 75.9349 60.3724 75.763 60.6797C75.5964 60.987 75.362 61.25 75.0599 61.4688C74.7578 61.6875 74.3958 61.8568 73.974 61.9766C73.5521 62.0964 73.0912 62.1562 72.5912 62.1562C72.0182 62.1562 71.5078 62.0807 71.0599 61.9297C70.612 61.7734 70.2344 61.5677 69.9271 61.3125C69.6146 61.0625 69.375 60.7708 69.2083 60.4375C69.0469 60.1042 68.9662 59.7578 68.9662 59.3984H70.4115C70.4323 59.6953 70.5104 59.9453 70.6458 60.1484C70.7865 60.3516 70.9609 60.5156 71.1693 60.6406C71.3724 60.7656 71.599 60.8542 71.849 60.9062C72.099 60.9583 72.3464 60.9844 72.5912 60.9844C72.9766 60.9844 73.3125 60.9401 73.599 60.8516C73.8854 60.7578 74.1094 60.6302 74.2708 60.4688C74.3698 60.3698 74.4453 60.2604 74.4974 60.1406C74.5495 60.0208 74.5755 59.8932 74.5755 59.7578ZM79.9974 57.3828C79.9974 56.638 80.0547 55.9375 80.1693 55.2812C80.2891 54.625 80.4479 54.0156 80.6458 53.4531C80.8438 52.8958 81.0703 52.3854 81.3255 51.9219C81.5859 51.4583 81.8594 51.0469 82.1458 50.6875C82.4271 50.3281 82.7109 50.0208 82.9974 49.7656C83.2839 49.5104 83.5573 49.3099 83.8177 49.1641L84.1224 50.1172C83.9557 50.2422 83.7865 50.3932 83.6146 50.5703C83.4479 50.7474 83.2839 50.9453 83.1224 51.1641C82.8828 51.5026 82.6537 51.901 82.4349 52.3594C82.2162 52.8125 82.0339 53.3099 81.888 53.8516C81.7474 54.3411 81.638 54.8802 81.5599 55.4688C81.4818 56.0573 81.4427 56.6901 81.4427 57.3672V57.4766C81.4427 58.1276 81.4792 58.737 81.5521 59.3047C81.625 59.8724 81.724 60.3958 81.849 60.875C81.9844 61.3594 82.1406 61.8073 82.3177 62.2188C82.4948 62.6354 82.6797 63.0078 82.8724 63.3359C83.0703 63.6484 83.2734 63.9245 83.4818 64.1641C83.6953 64.4089 83.9089 64.6172 84.1224 64.7891L83.8177 65.6719C83.5573 65.526 83.2813 65.3255 82.9896 65.0703C82.7031 64.8203 82.4193 64.513 82.138 64.1484C81.8516 63.7891 81.5781 63.3776 81.3177 62.9141C81.0625 62.4557 80.8386 61.9453 80.6458 61.3828C80.4479 60.8255 80.2891 60.2188 80.1693 59.5625C80.0547 58.9062 79.9974 58.2057 79.9974 57.4609V57.3828ZM139.13 61.0625C139.13 60.7552 139.224 60.4922 139.411 60.2734C139.599 60.0547 139.883 59.9453 140.263 59.9453C140.638 59.9453 140.922 60.0547 141.115 60.2734C141.313 60.487 141.411 60.75 141.411 61.0625C141.411 61.3698 141.313 61.6276 141.115 61.8359C140.917 62.0443 140.633 62.1484 140.263 62.1484C139.888 62.1484 139.604 62.0443 139.411 61.8359C139.224 61.6224 139.13 61.3646 139.13 61.0625ZM139.13 54.2188C139.13 53.9115 139.224 53.6484 139.411 53.4297C139.599 53.2109 139.883 53.1016 140.263 53.1016C140.638 53.1016 140.922 53.2109 141.115 53.4297C141.313 53.6432 141.411 53.9062 141.411 54.2188C141.411 54.526 141.313 54.7839 141.115 54.9922C140.917 55.2005 140.633 55.3047 140.263 55.3047C139.888 55.3047 139.604 55.2005 139.411 54.9922C139.224 54.7786 139.13 54.5208 139.13 54.2188ZM170.326 57.4609C170.326 58.2057 170.266 58.9062 170.146 59.5625C170.031 60.2188 169.875 60.8255 169.677 61.3828C169.479 61.9453 169.25 62.4557 168.99 62.9141C168.734 63.3776 168.466 63.7891 168.185 64.1484C167.898 64.513 167.609 64.8203 167.318 65.0703C167.031 65.3255 166.758 65.526 166.497 65.6719L166.193 64.7891C166.411 64.6276 166.633 64.4193 166.857 64.1641C167.081 63.9089 167.294 63.6146 167.497 63.2812C167.69 62.9427 167.875 62.5599 168.052 62.1328C168.234 61.7109 168.383 61.2474 168.497 60.7422C168.617 60.2734 168.708 59.7682 168.771 59.2266C168.839 58.6797 168.872 58.0964 168.872 57.4766V57.3672C168.872 56.6641 168.828 56.026 168.74 55.4531C168.656 54.8802 168.563 54.3932 168.458 53.9922C168.307 53.4193 168.125 52.9062 167.911 52.4531C167.698 51.9948 167.479 51.5964 167.255 51.2578C167.083 50.9922 166.906 50.7604 166.724 50.5625C166.542 50.3594 166.365 50.1875 166.193 50.0469L166.497 49.1641C166.758 49.3099 167.034 49.5104 167.326 49.7656C167.617 50.0208 167.904 50.3281 168.185 50.6875C168.477 51.0573 168.75 51.4688 169.005 51.9219C169.26 52.375 169.484 52.8854 169.677 53.4531C169.865 54 170.018 54.5938 170.138 55.2344C170.263 55.8698 170.326 56.5859 170.326 57.3828V57.4609ZM190.552 64.8594C190.047 64.8438 189.609 64.7266 189.24 64.5078C188.87 64.2891 188.563 64 188.318 63.6406C188.083 63.2969 187.906 62.9115 187.786 62.4844C187.667 62.0625 187.607 61.6432 187.607 61.2266V59.9062C187.607 59.1562 187.427 58.612 187.068 58.2734C186.714 57.9349 186.169 57.763 185.435 57.7578V56.625C186.169 56.625 186.714 56.4583 187.068 56.125C187.427 55.7865 187.607 55.2396 187.607 54.4844V53.1562C187.607 52.7344 187.661 52.3047 187.771 51.8672C187.885 51.4245 188.065 51.0286 188.31 50.6797C188.539 50.3464 188.839 50.0755 189.208 49.8672C189.578 49.6536 190.026 49.5391 190.552 49.5234L190.716 50.4219C190.341 50.4323 190.042 50.5208 189.818 50.6875C189.599 50.8542 189.435 51.0651 189.326 51.3203C189.211 51.5807 189.138 51.8724 189.107 52.1953C189.076 52.5182 189.06 52.8385 189.06 53.1562V54.4844C189.06 55.1094 188.914 55.6589 188.622 56.1328C188.336 56.6016 187.891 56.9583 187.286 57.2031C187.891 57.4427 188.336 57.7995 188.622 58.2734C188.909 58.7422 189.055 59.2865 189.06 59.9062V61.2266C189.06 61.5495 189.086 61.8698 189.138 62.1875C189.19 62.5104 189.281 62.7995 189.411 63.0547C189.536 63.3151 189.703 63.5286 189.911 63.6953C190.125 63.862 190.393 63.9505 190.716 63.9609L190.552 64.8594ZM40.3568 74.5469H44.6771V81.75H47.4349V83H40.3568V81.75H43.2318V75.8047H40.3568V74.5469ZM43.0443 72.3281C43.0443 72.2031 43.0625 72.0859 43.099 71.9766C43.1406 71.8672 43.2031 71.7734 43.2865 71.6953C43.3542 71.6276 43.4401 71.5755 43.5443 71.5391C43.6537 71.4974 43.7761 71.4766 43.9115 71.4766C44.0469 71.4766 44.1667 71.4974 44.2708 71.5391C44.375 71.5755 44.4609 71.6276 44.5287 71.6953C44.612 71.7682 44.6745 71.8594 44.7162 71.9688C44.7578 72.0781 44.7787 72.1979 44.7787 72.3281C44.7787 72.5625 44.7057 72.7578 44.5599 72.9141C44.4141 73.0703 44.1979 73.1484 43.9115 73.1484C43.6198 73.1484 43.4011 73.0703 43.2552 72.9141C43.1146 72.7578 43.0443 72.5625 43.0443 72.3281ZM49.4662 78.7031C49.4662 78.0729 49.5443 77.4948 49.7005 76.9688C49.862 76.4375 50.0912 75.9818 50.388 75.6016C50.6797 75.2214 51.0339 74.9245 51.4505 74.7109C51.8672 74.4974 52.3333 74.3906 52.849 74.3906C53.3542 74.3906 53.7943 74.4766 54.1693 74.6484C54.5495 74.8151 54.8776 75.0599 55.1537 75.3828V71H56.599V83H55.2708L55.2083 82.1094C54.9271 82.4531 54.5912 82.7135 54.2005 82.8906C53.8099 83.0677 53.3542 83.1562 52.8333 83.1562C52.3229 83.1562 51.8594 83.0469 51.4427 82.8281C51.0313 82.6094 50.6797 82.3073 50.388 81.9219C50.0964 81.5365 49.8698 81.0833 49.7083 80.5625C49.5469 80.0365 49.4662 79.4714 49.4662 78.8672V78.7031ZM50.9115 78.8672C50.9115 79.2786 50.9557 79.6693 51.0443 80.0391C51.1328 80.4089 51.2708 80.7344 51.4583 81.0156C51.6406 81.2969 51.875 81.5208 52.1615 81.6875C52.4479 81.849 52.7917 81.9297 53.1927 81.9297C53.6771 81.9297 54.0781 81.8203 54.3958 81.6016C54.7136 81.3828 54.9662 81.0885 55.1537 80.7188V76.7969C54.9662 76.4531 54.7136 76.1719 54.3958 75.9531C54.0781 75.7292 53.6823 75.6172 53.2083 75.6172C52.8021 75.6172 52.4531 75.7005 52.1615 75.8672C51.875 76.0339 51.6406 76.2578 51.4583 76.5391C51.2708 76.8255 51.1328 77.1562 51.0443 77.5312C50.9557 77.901 50.9115 78.2917 50.9115 78.7031V78.8672ZM40.1302 104V95.5469H41.4271L41.5287 96.7969C41.6537 96.6198 41.7891 96.4583 41.9349 96.3125C42.0859 96.1615 42.2448 96.0312 42.4115 95.9219C42.6615 95.7552 42.9323 95.6276 43.224 95.5391C43.5208 95.4453 43.8333 95.3958 44.1615 95.3906C44.6042 95.3906 45.0052 95.4531 45.3646 95.5781C45.7292 95.7031 46.0391 95.8984 46.2943 96.1641C46.5495 96.4297 46.7448 96.7682 46.8802 97.1797C47.0208 97.5859 47.0912 98.0703 47.0912 98.6328V104H45.6458V98.6641C45.6458 98.2891 45.6042 97.9714 45.5208 97.7109C45.4375 97.4505 45.3151 97.2396 45.1537 97.0781C44.987 96.9167 44.7839 96.7995 44.5443 96.7266C44.3099 96.6536 44.0391 96.6172 43.7318 96.6172C43.4662 96.6172 43.2188 96.6562 42.9896 96.7344C42.7604 96.8073 42.5495 96.9089 42.3568 97.0391C42.2005 97.1536 42.0547 97.2865 41.9193 97.4375C41.7891 97.5885 41.6745 97.7552 41.5755 97.9375V104H40.1302ZM55.2943 104C55.237 103.891 55.1901 103.755 55.1537 103.594C55.1224 103.427 55.099 103.255 55.0833 103.078C54.9375 103.224 54.7734 103.362 54.5912 103.492C54.4141 103.622 54.2188 103.737 54.0052 103.836C53.7865 103.935 53.5547 104.013 53.3099 104.07C53.0651 104.128 52.8047 104.156 52.5287 104.156C52.0807 104.156 51.6745 104.091 51.3099 103.961C50.9505 103.831 50.6458 103.654 50.3958 103.43C50.1406 103.211 49.9427 102.951 49.8021 102.648C49.6667 102.341 49.599 102.01 49.599 101.656C49.599 101.193 49.6901 100.786 49.8724 100.438C50.0599 100.089 50.3229 99.7969 50.6615 99.5625C51 99.3333 51.4063 99.1615 51.8802 99.0469C52.3594 98.9323 52.8932 98.875 53.4818 98.875H55.0599V98.2109C55.0599 97.9557 55.013 97.7266 54.9193 97.5234C54.8255 97.3203 54.6927 97.1458 54.5208 97C54.349 96.8594 54.138 96.75 53.888 96.6719C53.6432 96.5938 53.3672 96.5547 53.0599 96.5547C52.7734 96.5547 52.5156 96.5911 52.2865 96.6641C52.0625 96.737 51.8724 96.8333 51.7162 96.9531C51.5599 97.0729 51.4375 97.2161 51.349 97.3828C51.2656 97.5443 51.224 97.7135 51.224 97.8906H49.7708C49.7761 97.5833 49.8542 97.2812 50.0052 96.9844C50.1615 96.6875 50.3854 96.4193 50.6771 96.1797C50.9636 95.9453 51.3125 95.7552 51.724 95.6094C52.1406 95.4635 52.612 95.3906 53.138 95.3906C53.6172 95.3906 54.0625 95.4505 54.474 95.5703C54.8854 95.6849 55.2422 95.8594 55.5443 96.0938C55.8412 96.3333 56.0755 96.6302 56.2474 96.9844C56.4193 97.3385 56.5052 97.7526 56.5052 98.2266V102.156C56.5052 102.438 56.5313 102.737 56.5833 103.055C56.6354 103.367 56.7083 103.641 56.8021 103.875V104H55.2943ZM52.7396 102.898C53.0208 102.898 53.2839 102.862 53.5287 102.789C53.7734 102.716 53.9974 102.62 54.2005 102.5C54.3984 102.38 54.5703 102.245 54.7162 102.094C54.862 101.938 54.9766 101.776 55.0599 101.609V99.8984H53.7162C53.2162 99.8984 52.7787 99.9427 52.4037 100.031C52.0339 100.115 51.7396 100.245 51.5208 100.422C51.3646 100.547 51.2448 100.695 51.1615 100.867C51.0833 101.039 51.0443 101.234 51.0443 101.453C51.0443 101.661 51.0781 101.854 51.1458 102.031C51.2188 102.208 51.3255 102.359 51.4662 102.484C51.6068 102.615 51.7839 102.716 51.9974 102.789C52.2109 102.862 52.4583 102.898 52.7396 102.898ZM60.013 95.5469L60.0521 96.3438C60.224 96.0469 60.4479 95.8151 60.724 95.6484C61.0052 95.4818 61.3438 95.3958 61.7396 95.3906C61.9636 95.3906 62.1641 95.4167 62.3412 95.4688C62.5234 95.5156 62.6823 95.5859 62.8177 95.6797C62.9167 95.7526 63.0052 95.8411 63.0833 95.9453C63.1667 96.0495 63.237 96.1667 63.2943 96.2969C63.3672 96.1771 63.4531 96.0651 63.5521 95.9609C63.6511 95.8568 63.7578 95.7656 63.8724 95.6875C64.0182 95.599 64.1797 95.5286 64.3568 95.4766C64.5391 95.4245 64.737 95.3958 64.9505 95.3906C65.2422 95.3906 65.5052 95.4349 65.7396 95.5234C65.974 95.6068 66.1719 95.7318 66.3333 95.8984C66.5104 96.0859 66.6458 96.3307 66.7396 96.6328C66.8333 96.9297 66.8802 97.2812 66.8802 97.6875V104H65.5052V97.6719C65.5052 97.4948 65.4844 97.3385 65.4427 97.2031C65.4011 97.0677 65.3412 96.9557 65.263 96.8672C65.1797 96.7839 65.0755 96.7214 64.9505 96.6797C64.8307 96.638 64.6901 96.6172 64.5287 96.6172C64.3568 96.6172 64.2083 96.6406 64.0833 96.6875C63.9583 96.7344 63.8542 96.7969 63.7708 96.875C63.6875 96.9583 63.6224 97.0547 63.5755 97.1641C63.5287 97.2682 63.4974 97.3854 63.4818 97.5156C63.4818 97.5417 63.4818 97.5677 63.4818 97.5938C63.4818 97.6146 63.4818 97.6406 63.4818 97.6719V104H62.1068V97.6641C62.1068 97.487 62.0859 97.3307 62.0443 97.1953C62.0078 97.0599 61.9479 96.9479 61.8646 96.8594C61.7865 96.776 61.6875 96.7161 61.5677 96.6797C61.4531 96.638 61.3177 96.6172 61.1615 96.6172C60.9896 96.6172 60.8386 96.638 60.7083 96.6797C60.5833 96.7161 60.4766 96.7708 60.388 96.8438C60.3203 96.901 60.2604 96.9661 60.2083 97.0391C60.1615 97.112 60.1224 97.1901 60.0912 97.2734V104H58.7162V95.5469H60.013ZM72.6927 104.156C72.099 104.156 71.5521 104.055 71.0521 103.852C70.5573 103.648 70.1328 103.365 69.7787 103C69.4245 102.635 69.1484 102.203 68.9505 101.703C68.7526 101.203 68.6537 100.659 68.6537 100.07V99.7422C68.6537 99.0599 68.763 98.4505 68.9818 97.9141C69.2005 97.3724 69.4922 96.9141 69.8568 96.5391C70.2162 96.1693 70.625 95.8854 71.0833 95.6875C71.5469 95.4896 72.0208 95.3906 72.5052 95.3906C73.1146 95.3906 73.6458 95.4974 74.099 95.7109C74.5573 95.9193 74.9375 96.2083 75.2396 96.5781C75.5417 96.9531 75.7656 97.3932 75.9115 97.8984C76.0625 98.4036 76.138 98.9505 76.138 99.5391V100.188H70.099V100.242C70.1354 100.654 70.2162 101.016 70.3412 101.328C70.4714 101.641 70.6484 101.917 70.8724 102.156C71.1016 102.411 71.3776 102.612 71.7005 102.758C72.0234 102.904 72.3802 102.977 72.7708 102.977C73.2865 102.977 73.7448 102.872 74.1458 102.664C74.5469 102.456 74.8802 102.18 75.1458 101.836L76.0287 102.523C75.7474 102.951 75.3255 103.331 74.763 103.664C74.2057 103.992 73.5156 104.156 72.6927 104.156ZM72.5052 96.5781C72.2136 96.5781 71.9375 96.6328 71.6771 96.7422C71.4167 96.8464 71.1823 97 70.974 97.2031C70.7656 97.4115 70.5886 97.6667 70.4427 97.9688C70.3021 98.2656 70.2031 98.6094 70.1458 99H74.6927V98.9297C74.6927 98.6693 74.6432 98.3906 74.5443 98.0938C74.4453 97.7917 74.3073 97.5312 74.1302 97.3125C73.9531 97.0938 73.7292 96.9167 73.4583 96.7812C73.1927 96.6458 72.875 96.5781 72.5052 96.5781ZM45.7474 122.758C45.7474 122.586 45.7136 122.432 45.6458 122.297C45.5781 122.156 45.4636 122.029 45.3021 121.914C45.1406 121.799 44.9271 121.695 44.6615 121.602C44.3958 121.503 44.0651 121.414 43.6693 121.336C43.1849 121.237 42.7422 121.117 42.3412 120.977C41.9453 120.836 41.6068 120.667 41.3255 120.469C41.0391 120.276 40.8177 120.049 40.6615 119.789C40.5052 119.523 40.4271 119.216 40.4271 118.867C40.4271 118.523 40.5078 118.203 40.6693 117.906C40.8307 117.604 41.0573 117.341 41.349 117.117C41.6406 116.893 41.987 116.716 42.388 116.586C42.7943 116.456 43.2396 116.391 43.724 116.391C44.2448 116.391 44.7136 116.458 45.1302 116.594C45.5469 116.729 45.9011 116.917 46.1927 117.156C46.4844 117.396 46.7083 117.677 46.8646 118C47.0261 118.318 47.1068 118.661 47.1068 119.031H45.6615C45.6615 118.849 45.6146 118.672 45.5208 118.5C45.4271 118.323 45.2969 118.167 45.1302 118.031C44.9636 117.896 44.7604 117.786 44.5208 117.703C44.2865 117.62 44.0208 117.578 43.724 117.578C43.4167 117.578 43.1458 117.612 42.9115 117.68C42.6823 117.747 42.4922 117.839 42.3412 117.953C42.1849 118.068 42.0677 118.201 41.9896 118.352C41.9115 118.503 41.8724 118.659 41.8724 118.82C41.8724 118.987 41.9037 119.135 41.9662 119.266C42.0287 119.396 42.138 119.513 42.2943 119.617C42.4453 119.721 42.6484 119.815 42.9037 119.898C43.1641 119.982 43.4922 120.062 43.888 120.141C44.4089 120.25 44.875 120.378 45.2865 120.523C45.6979 120.664 46.0443 120.833 46.3255 121.031C46.6068 121.234 46.8203 121.469 46.9662 121.734C47.1172 122 47.1927 122.307 47.1927 122.656C47.1927 123.031 47.1068 123.372 46.9349 123.68C46.7682 123.987 46.5339 124.25 46.2318 124.469C45.9297 124.688 45.5677 124.857 45.1458 124.977C44.724 125.096 44.263 125.156 43.763 125.156C43.1901 125.156 42.6797 125.081 42.2318 124.93C41.7839 124.773 41.4063 124.568 41.099 124.312C40.7865 124.062 40.5469 123.771 40.3802 123.438C40.2188 123.104 40.138 122.758 40.138 122.398H41.5833C41.6042 122.695 41.6823 122.945 41.8177 123.148C41.9583 123.352 42.1328 123.516 42.3412 123.641C42.5443 123.766 42.7708 123.854 43.0208 123.906C43.2708 123.958 43.5182 123.984 43.763 123.984C44.1484 123.984 44.4844 123.94 44.7708 123.852C45.0573 123.758 45.2813 123.63 45.4427 123.469C45.5417 123.37 45.6172 123.26 45.6693 123.141C45.7214 123.021 45.7474 122.893 45.7474 122.758ZM50.4193 128.414C50.2839 128.414 50.125 128.398 49.9427 128.367C49.7604 128.336 49.6224 128.31 49.5287 128.289L49.763 127.109C49.8932 127.12 50.0208 127.128 50.1458 127.133C50.2761 127.143 50.3776 127.148 50.4505 127.148C50.6484 127.148 50.8281 127.094 50.9896 126.984C51.1563 126.875 51.3047 126.745 51.4349 126.594C51.5599 126.443 51.6667 126.286 51.7552 126.125C51.849 125.964 51.9219 125.831 51.974 125.727L52.5521 124.602L48.9115 116.547H50.5287L52.849 122L53.224 123.023L53.6224 122.031L55.8021 116.547H57.4193L53.1302 126.305C53.0313 126.523 52.9037 126.755 52.7474 127C52.5964 127.245 52.4115 127.471 52.1927 127.68C51.974 127.888 51.7188 128.062 51.4271 128.203C51.1354 128.344 50.7995 128.414 50.4193 128.414ZM60.013 116.547L60.0521 117.344C60.224 117.047 60.4479 116.815 60.724 116.648C61.0052 116.482 61.3438 116.396 61.7396 116.391C61.9636 116.391 62.1641 116.417 62.3412 116.469C62.5234 116.516 62.6823 116.586 62.8177 116.68C62.9167 116.753 63.0052 116.841 63.0833 116.945C63.1667 117.049 63.237 117.167 63.2943 117.297C63.3672 117.177 63.4531 117.065 63.5521 116.961C63.6511 116.857 63.7578 116.766 63.8724 116.688C64.0182 116.599 64.1797 116.529 64.3568 116.477C64.5391 116.424 64.737 116.396 64.9505 116.391C65.2422 116.391 65.5052 116.435 65.7396 116.523C65.974 116.607 66.1719 116.732 66.3333 116.898C66.5104 117.086 66.6458 117.331 66.7396 117.633C66.8333 117.93 66.8802 118.281 66.8802 118.688V125H65.5052V118.672C65.5052 118.495 65.4844 118.339 65.4427 118.203C65.4011 118.068 65.3412 117.956 65.263 117.867C65.1797 117.784 65.0755 117.721 64.9505 117.68C64.8307 117.638 64.6901 117.617 64.5287 117.617C64.3568 117.617 64.2083 117.641 64.0833 117.688C63.9583 117.734 63.8542 117.797 63.7708 117.875C63.6875 117.958 63.6224 118.055 63.5755 118.164C63.5287 118.268 63.4974 118.385 63.4818 118.516C63.4818 118.542 63.4818 118.568 63.4818 118.594C63.4818 118.615 63.4818 118.641 63.4818 118.672V125H62.1068V118.664C62.1068 118.487 62.0859 118.331 62.0443 118.195C62.0078 118.06 61.9479 117.948 61.8646 117.859C61.7865 117.776 61.6875 117.716 61.5677 117.68C61.4531 117.638 61.3177 117.617 61.1615 117.617C60.9896 117.617 60.8386 117.638 60.7083 117.68C60.5833 117.716 60.4766 117.771 60.388 117.844C60.3203 117.901 60.2604 117.966 60.2083 118.039C60.1615 118.112 60.1224 118.19 60.0912 118.273V125H58.7162V116.547H60.013ZM76.1224 120.867C76.1224 121.237 76.0938 121.594 76.0365 121.938C75.9844 122.276 75.9063 122.594 75.8021 122.891C75.6615 123.281 75.4766 123.633 75.2474 123.945C75.0234 124.253 74.7526 124.508 74.4349 124.711C74.2057 124.852 73.9531 124.961 73.6771 125.039C73.4063 125.117 73.112 125.156 72.7943 125.156C72.4297 125.156 72.0964 125.112 71.7943 125.023C71.4974 124.935 71.2292 124.807 70.9896 124.641C70.875 124.557 70.7656 124.466 70.6615 124.367C70.5573 124.268 70.4583 124.159 70.3646 124.039L70.2943 125H68.9662V113H70.4115V117.453C70.5313 117.302 70.6641 117.167 70.8099 117.047C70.9557 116.922 71.112 116.815 71.2787 116.727C71.487 116.617 71.7162 116.534 71.9662 116.477C72.2162 116.419 72.487 116.391 72.7787 116.391C73.1432 116.391 73.4792 116.44 73.7865 116.539C74.0938 116.638 74.3724 116.776 74.6224 116.953C74.8464 117.12 75.0469 117.323 75.224 117.562C75.4011 117.797 75.5573 118.06 75.6927 118.352C75.8333 118.68 75.9401 119.044 76.013 119.445C76.0859 119.841 76.1224 120.26 76.1224 120.703V120.867ZM74.6771 120.703C74.6771 120.438 74.6589 120.18 74.6224 119.93C74.5912 119.674 74.5417 119.435 74.474 119.211C74.3802 118.935 74.2578 118.682 74.1068 118.453C73.9557 118.224 73.7708 118.044 73.5521 117.914C73.4011 117.82 73.2318 117.747 73.0443 117.695C72.8568 117.643 72.6484 117.617 72.4193 117.617C72.1693 117.617 71.9401 117.651 71.7318 117.719C71.5234 117.781 71.3386 117.87 71.1771 117.984C71.0104 118.104 70.862 118.245 70.7318 118.406C70.6068 118.562 70.5 118.734 70.4115 118.922V122.617C70.5052 122.805 70.6146 122.979 70.7396 123.141C70.8698 123.297 71.0182 123.435 71.1849 123.555C71.3516 123.674 71.5391 123.768 71.7474 123.836C71.9557 123.898 72.1849 123.93 72.4349 123.93C72.6745 123.93 72.8932 123.901 73.0912 123.844C73.2891 123.781 73.4662 123.693 73.6224 123.578C73.8307 123.432 74.0052 123.247 74.1458 123.023C74.2865 122.799 74.3984 122.549 74.4818 122.273C74.5495 122.065 74.599 121.841 74.6302 121.602C74.6615 121.362 74.6771 121.117 74.6771 120.867V120.703ZM78.1615 120.695C78.1615 120.086 78.25 119.521 78.4271 119C78.6042 118.474 78.8594 118.018 79.1927 117.633C79.5208 117.247 79.9219 116.945 80.3958 116.727C80.8698 116.503 81.4037 116.391 81.9974 116.391C82.5964 116.391 83.1328 116.503 83.6068 116.727C84.0859 116.945 84.4922 117.247 84.8255 117.633C85.1537 118.018 85.4063 118.474 85.5833 119C85.7604 119.521 85.849 120.086 85.849 120.695V120.867C85.849 121.477 85.7604 122.042 85.5833 122.562C85.4063 123.083 85.1537 123.536 84.8255 123.922C84.4922 124.307 84.0886 124.609 83.6146 124.828C83.1406 125.047 82.6068 125.156 82.013 125.156C81.4141 125.156 80.875 125.047 80.3958 124.828C79.9219 124.609 79.5208 124.307 79.1927 123.922C78.8594 123.536 78.6042 123.083 78.4271 122.562C78.25 122.042 78.1615 121.477 78.1615 120.867V120.695ZM79.6068 120.867C79.6068 121.284 79.6563 121.682 79.7552 122.062C79.8542 122.438 80.0052 122.768 80.2083 123.055C80.4063 123.341 80.6563 123.568 80.9583 123.734C81.2604 123.901 81.612 123.984 82.013 123.984C82.4089 123.984 82.7552 123.901 83.0521 123.734C83.3542 123.568 83.6068 123.341 83.8099 123.055C84.0078 122.768 84.1563 122.438 84.2552 122.062C84.3542 121.682 84.4037 121.284 84.4037 120.867V120.695C84.4037 120.284 84.3516 119.891 84.2474 119.516C84.1484 119.135 84 118.802 83.8021 118.516C83.599 118.229 83.3464 118.003 83.0443 117.836C82.7474 117.664 82.3984 117.578 81.9974 117.578C81.5964 117.578 81.2474 117.664 80.9505 117.836C80.6537 118.003 80.4063 118.229 80.2083 118.516C80.0052 118.802 79.8542 119.135 79.7552 119.516C79.6563 119.891 79.6068 120.284 79.6068 120.695V120.867ZM88.4037 113H92.724V123.75H95.4818V125H88.4037V123.75H91.2787V114.258H88.4037V113ZM39.8568 141.703C39.8568 141.073 39.9349 140.495 40.0912 139.969C40.2526 139.438 40.4818 138.982 40.7787 138.602C41.0703 138.221 41.4245 137.924 41.8412 137.711C42.2578 137.497 42.724 137.391 43.2396 137.391C43.7448 137.391 44.1849 137.477 44.5599 137.648C44.9401 137.815 45.2682 138.06 45.5443 138.383V134H46.9896V146H45.6615L45.599 145.109C45.3177 145.453 44.9818 145.714 44.5912 145.891C44.2005 146.068 43.7448 146.156 43.224 146.156C42.7136 146.156 42.25 146.047 41.8333 145.828C41.4219 145.609 41.0703 145.307 40.7787 144.922C40.487 144.536 40.2604 144.083 40.099 143.562C39.9375 143.036 39.8568 142.471 39.8568 141.867V141.703ZM41.3021 141.867C41.3021 142.279 41.3464 142.669 41.4349 143.039C41.5234 143.409 41.6615 143.734 41.849 144.016C42.0313 144.297 42.2656 144.521 42.5521 144.688C42.8386 144.849 43.1823 144.93 43.5833 144.93C44.0677 144.93 44.4688 144.82 44.7865 144.602C45.1042 144.383 45.3568 144.089 45.5443 143.719V139.797C45.3568 139.453 45.1042 139.172 44.7865 138.953C44.4688 138.729 44.0729 138.617 43.599 138.617C43.1927 138.617 42.8438 138.701 42.5521 138.867C42.2656 139.034 42.0313 139.258 41.849 139.539C41.6615 139.826 41.5234 140.156 41.4349 140.531C41.3464 140.901 41.3021 141.292 41.3021 141.703V141.867ZM53.474 146.156C52.8802 146.156 52.3333 146.055 51.8333 145.852C51.3386 145.648 50.9141 145.365 50.5599 145C50.2057 144.635 49.9297 144.203 49.7318 143.703C49.5339 143.203 49.4349 142.659 49.4349 142.07V141.742C49.4349 141.06 49.5443 140.451 49.763 139.914C49.9818 139.372 50.2734 138.914 50.638 138.539C50.9974 138.169 51.4063 137.885 51.8646 137.688C52.3281 137.49 52.8021 137.391 53.2865 137.391C53.8958 137.391 54.4271 137.497 54.8802 137.711C55.3386 137.919 55.7188 138.208 56.0208 138.578C56.3229 138.953 56.5469 139.393 56.6927 139.898C56.8438 140.404 56.9193 140.951 56.9193 141.539V142.188H50.8802V142.242C50.9167 142.654 50.9974 143.016 51.1224 143.328C51.2526 143.641 51.4297 143.917 51.6537 144.156C51.8828 144.411 52.1589 144.612 52.4818 144.758C52.8047 144.904 53.1615 144.977 53.5521 144.977C54.0677 144.977 54.5261 144.872 54.9271 144.664C55.3281 144.456 55.6615 144.18 55.9271 143.836L56.8099 144.523C56.5287 144.951 56.1068 145.331 55.5443 145.664C54.987 145.992 54.2969 146.156 53.474 146.156ZM53.2865 138.578C52.9948 138.578 52.7188 138.633 52.4583 138.742C52.1979 138.846 51.9636 139 51.7552 139.203C51.5469 139.411 51.3698 139.667 51.224 139.969C51.0833 140.266 50.9844 140.609 50.9271 141H55.474V140.93C55.474 140.669 55.4245 140.391 55.3255 140.094C55.2266 139.792 55.0886 139.531 54.9115 139.312C54.7344 139.094 54.5104 138.917 54.2396 138.781C53.974 138.646 53.6563 138.578 53.2865 138.578ZM62.9505 144.984C63.2109 144.984 63.4636 144.943 63.7083 144.859C63.9583 144.776 64.1797 144.659 64.3724 144.508C64.5651 144.362 64.7188 144.19 64.8333 143.992C64.9531 143.789 65.0156 143.57 65.0208 143.336H66.388C66.3828 143.711 66.2839 144.07 66.0912 144.414C65.9037 144.753 65.6511 145.049 65.3333 145.305C65.0156 145.565 64.6511 145.773 64.2396 145.93C63.8281 146.081 63.3984 146.156 62.9505 146.156C62.3099 146.156 61.75 146.042 61.2708 145.812C60.7917 145.583 60.3932 145.273 60.0755 144.883C59.7526 144.497 59.5104 144.052 59.349 143.547C59.1875 143.036 59.1068 142.5 59.1068 141.938V141.609C59.1068 141.052 59.1875 140.518 59.349 140.008C59.5104 139.497 59.7526 139.047 60.0755 138.656C60.3932 138.271 60.7917 137.964 61.2708 137.734C61.75 137.505 62.3099 137.391 62.9505 137.391C63.4505 137.391 63.9089 137.471 64.3255 137.633C64.7474 137.789 65.112 138.003 65.4193 138.273C65.7214 138.549 65.9583 138.875 66.1302 139.25C66.3021 139.625 66.388 140.026 66.388 140.453H65.0208C65.0156 140.198 64.9583 139.958 64.849 139.734C64.7448 139.505 64.6016 139.305 64.4193 139.133C64.237 138.961 64.0182 138.826 63.763 138.727C63.513 138.628 63.2422 138.578 62.9505 138.578C62.5026 138.578 62.125 138.669 61.8177 138.852C61.5156 139.029 61.2708 139.26 61.0833 139.547C60.8958 139.839 60.7604 140.164 60.6771 140.523C60.599 140.883 60.5599 141.245 60.5599 141.609V141.938C60.5599 142.307 60.599 142.674 60.6771 143.039C60.7604 143.398 60.8958 143.721 61.0833 144.008C61.2656 144.299 61.5078 144.536 61.8099 144.719C62.1172 144.896 62.4974 144.984 62.9505 144.984ZM69.1849 137.547H73.5052V144.75H76.263V146H69.1849V144.75H72.0599V138.805H69.1849V137.547ZM71.8724 135.328C71.8724 135.203 71.8906 135.086 71.9271 134.977C71.9688 134.867 72.0313 134.773 72.1146 134.695C72.1823 134.628 72.2682 134.576 72.3724 134.539C72.4818 134.497 72.6042 134.477 72.7396 134.477C72.875 134.477 72.9948 134.497 73.099 134.539C73.2031 134.576 73.2891 134.628 73.3568 134.695C73.4401 134.768 73.5026 134.859 73.5443 134.969C73.5859 135.078 73.6068 135.198 73.6068 135.328C73.6068 135.562 73.5339 135.758 73.388 135.914C73.2422 136.07 73.0261 136.148 72.7396 136.148C72.4479 136.148 72.2292 136.07 72.0833 135.914C71.9427 135.758 71.8724 135.562 71.8724 135.328ZM79.2318 137.547L79.2708 138.344C79.4427 138.047 79.6667 137.815 79.9427 137.648C80.224 137.482 80.5625 137.396 80.9583 137.391C81.1823 137.391 81.3828 137.417 81.5599 137.469C81.7422 137.516 81.9011 137.586 82.0365 137.68C82.1354 137.753 82.224 137.841 82.3021 137.945C82.3854 138.049 82.4557 138.167 82.513 138.297C82.5859 138.177 82.6719 138.065 82.7708 137.961C82.8698 137.857 82.9766 137.766 83.0912 137.688C83.237 137.599 83.3984 137.529 83.5755 137.477C83.7578 137.424 83.9557 137.396 84.1693 137.391C84.4609 137.391 84.724 137.435 84.9583 137.523C85.1927 137.607 85.3906 137.732 85.5521 137.898C85.7292 138.086 85.8646 138.331 85.9583 138.633C86.0521 138.93 86.099 139.281 86.099 139.688V146H84.724V139.672C84.724 139.495 84.7031 139.339 84.6615 139.203C84.6198 139.068 84.5599 138.956 84.4818 138.867C84.3984 138.784 84.2943 138.721 84.1693 138.68C84.0495 138.638 83.9089 138.617 83.7474 138.617C83.5755 138.617 83.4271 138.641 83.3021 138.688C83.1771 138.734 83.0729 138.797 82.9896 138.875C82.9063 138.958 82.8412 139.055 82.7943 139.164C82.7474 139.268 82.7162 139.385 82.7005 139.516C82.7005 139.542 82.7005 139.568 82.7005 139.594C82.7005 139.615 82.7005 139.641 82.7005 139.672V146H81.3255V139.664C81.3255 139.487 81.3047 139.331 81.263 139.195C81.2266 139.06 81.1667 138.948 81.0833 138.859C81.0052 138.776 80.9063 138.716 80.7865 138.68C80.6719 138.638 80.5365 138.617 80.3802 138.617C80.2083 138.617 80.0573 138.638 79.9271 138.68C79.8021 138.716 79.6953 138.771 79.6068 138.844C79.5391 138.901 79.4792 138.966 79.4271 139.039C79.3802 139.112 79.3412 139.19 79.3099 139.273V146H77.9349V137.547H79.2318ZM93.7318 146C93.6745 145.891 93.6276 145.755 93.5912 145.594C93.5599 145.427 93.5365 145.255 93.5208 145.078C93.375 145.224 93.2109 145.362 93.0287 145.492C92.8516 145.622 92.6563 145.737 92.4427 145.836C92.224 145.935 91.9922 146.013 91.7474 146.07C91.5026 146.128 91.2422 146.156 90.9662 146.156C90.5182 146.156 90.112 146.091 89.7474 145.961C89.388 145.831 89.0833 145.654 88.8333 145.43C88.5781 145.211 88.3802 144.951 88.2396 144.648C88.1042 144.341 88.0365 144.01 88.0365 143.656C88.0365 143.193 88.1276 142.786 88.3099 142.438C88.4974 142.089 88.7604 141.797 89.099 141.562C89.4375 141.333 89.8438 141.161 90.3177 141.047C90.7969 140.932 91.3307 140.875 91.9193 140.875H93.4974V140.211C93.4974 139.956 93.4505 139.727 93.3568 139.523C93.263 139.32 93.1302 139.146 92.9583 139C92.7865 138.859 92.5755 138.75 92.3255 138.672C92.0807 138.594 91.8047 138.555 91.4974 138.555C91.2109 138.555 90.9531 138.591 90.724 138.664C90.5 138.737 90.3099 138.833 90.1537 138.953C89.9974 139.073 89.875 139.216 89.7865 139.383C89.7031 139.544 89.6615 139.714 89.6615 139.891H88.2083C88.2136 139.583 88.2917 139.281 88.4427 138.984C88.599 138.688 88.8229 138.419 89.1146 138.18C89.4011 137.945 89.75 137.755 90.1615 137.609C90.5781 137.464 91.0495 137.391 91.5755 137.391C92.0547 137.391 92.5 137.451 92.9115 137.57C93.3229 137.685 93.6797 137.859 93.9818 138.094C94.2787 138.333 94.513 138.63 94.6849 138.984C94.8568 139.339 94.9427 139.753 94.9427 140.227V144.156C94.9427 144.438 94.9688 144.737 95.0208 145.055C95.0729 145.367 95.1458 145.641 95.2396 145.875V146H93.7318ZM91.1771 144.898C91.4583 144.898 91.7214 144.862 91.9662 144.789C92.2109 144.716 92.4349 144.62 92.638 144.5C92.8359 144.38 93.0078 144.245 93.1537 144.094C93.2995 143.938 93.4141 143.776 93.4974 143.609V141.898H92.1537C91.6537 141.898 91.2162 141.943 90.8412 142.031C90.4714 142.115 90.1771 142.245 89.9583 142.422C89.8021 142.547 89.6823 142.695 89.599 142.867C89.5208 143.039 89.4818 143.234 89.4818 143.453C89.4818 143.661 89.5156 143.854 89.5833 144.031C89.6563 144.208 89.763 144.359 89.9037 144.484C90.0443 144.615 90.2214 144.716 90.4349 144.789C90.6484 144.862 90.8958 144.898 91.1771 144.898ZM98.013 134H102.333V144.75H105.091V146H98.013V144.75H100.888V135.258H98.013V134ZM113.013 143.758C113.013 143.586 112.979 143.432 112.911 143.297C112.844 143.156 112.729 143.029 112.568 142.914C112.406 142.799 112.193 142.695 111.927 142.602C111.661 142.503 111.331 142.414 110.935 142.336C110.451 142.237 110.008 142.117 109.607 141.977C109.211 141.836 108.872 141.667 108.591 141.469C108.305 141.276 108.083 141.049 107.927 140.789C107.771 140.523 107.693 140.216 107.693 139.867C107.693 139.523 107.773 139.203 107.935 138.906C108.096 138.604 108.323 138.341 108.615 138.117C108.906 137.893 109.253 137.716 109.654 137.586C110.06 137.456 110.505 137.391 110.99 137.391C111.51 137.391 111.979 137.458 112.396 137.594C112.813 137.729 113.167 137.917 113.458 138.156C113.75 138.396 113.974 138.677 114.13 139C114.292 139.318 114.372 139.661 114.372 140.031H112.927C112.927 139.849 112.88 139.672 112.786 139.5C112.693 139.323 112.563 139.167 112.396 139.031C112.229 138.896 112.026 138.786 111.786 138.703C111.552 138.62 111.286 138.578 110.99 138.578C110.682 138.578 110.411 138.612 110.177 138.68C109.948 138.747 109.758 138.839 109.607 138.953C109.451 139.068 109.333 139.201 109.255 139.352C109.177 139.503 109.138 139.659 109.138 139.82C109.138 139.987 109.169 140.135 109.232 140.266C109.294 140.396 109.404 140.513 109.56 140.617C109.711 140.721 109.914 140.815 110.169 140.898C110.43 140.982 110.758 141.062 111.154 141.141C111.674 141.25 112.141 141.378 112.552 141.523C112.964 141.664 113.31 141.833 113.591 142.031C113.872 142.234 114.086 142.469 114.232 142.734C114.383 143 114.458 143.307 114.458 143.656C114.458 144.031 114.372 144.372 114.201 144.68C114.034 144.987 113.799 145.25 113.497 145.469C113.195 145.688 112.833 145.857 112.411 145.977C111.99 146.096 111.529 146.156 111.029 146.156C110.456 146.156 109.945 146.081 109.497 145.93C109.049 145.773 108.672 145.568 108.365 145.312C108.052 145.062 107.813 144.771 107.646 144.438C107.484 144.104 107.404 143.758 107.404 143.398H108.849C108.87 143.695 108.948 143.945 109.083 144.148C109.224 144.352 109.398 144.516 109.607 144.641C109.81 144.766 110.036 144.854 110.286 144.906C110.536 144.958 110.784 144.984 111.029 144.984C111.414 144.984 111.75 144.94 112.036 144.852C112.323 144.758 112.547 144.63 112.708 144.469C112.807 144.37 112.883 144.26 112.935 144.141C112.987 144.021 113.013 143.893 113.013 143.758ZM22.0755 168.961C22.3932 168.951 22.6589 168.862 22.8724 168.695C23.0859 168.529 23.2578 168.315 23.388 168.055C23.513 167.799 23.6016 167.51 23.6537 167.188C23.7109 166.87 23.7396 166.549 23.7396 166.227V164.906C23.7396 164.495 23.7995 164.115 23.9193 163.766C24.0443 163.417 24.2344 163.115 24.4896 162.859C24.625 162.724 24.7761 162.602 24.9427 162.492C25.1146 162.383 25.3021 162.286 25.5052 162.203C25.2969 162.12 25.1042 162.021 24.9271 161.906C24.7552 161.792 24.6042 161.664 24.474 161.523C24.224 161.263 24.0391 160.961 23.9193 160.617C23.7995 160.268 23.7396 159.891 23.7396 159.484V158.156C23.7396 157.839 23.7214 157.518 23.6849 157.195C23.6537 156.872 23.5833 156.581 23.474 156.32C23.3594 156.065 23.1927 155.854 22.974 155.688C22.7552 155.521 22.4583 155.432 22.0833 155.422L22.2396 154.523C22.7448 154.539 23.1771 154.646 23.5365 154.844C23.9011 155.042 24.2005 155.299 24.4349 155.617C24.7005 155.977 24.8906 156.38 25.0052 156.828C25.125 157.276 25.1849 157.719 25.1849 158.156V159.484C25.1849 159.797 25.2136 160.073 25.2708 160.312C25.3333 160.547 25.4245 160.75 25.5443 160.922C25.7162 161.167 25.9531 161.346 26.2552 161.461C26.5625 161.57 26.9297 161.625 27.3568 161.625V162.758C26.9818 162.763 26.6537 162.81 26.3724 162.898C26.0964 162.982 25.8698 163.115 25.6927 163.297C25.5208 163.474 25.3932 163.695 25.3099 163.961C25.2266 164.227 25.1849 164.542 25.1849 164.906V166.227C25.1849 166.643 25.1276 167.062 25.013 167.484C24.8984 167.911 24.7214 168.299 24.4818 168.648C24.237 168.997 23.9297 169.284 23.5599 169.508C23.1901 169.732 22.75 169.849 22.2396 169.859L22.0755 168.961ZM2.85678 189.961C3.17449 189.951 3.44011 189.862 3.65366 189.695C3.8672 189.529 4.03907 189.315 4.16928 189.055C4.29428 188.799 4.38282 188.51 4.43491 188.188C4.4922 187.87 4.52084 187.549 4.52084 187.227V185.906C4.52084 185.495 4.58074 185.115 4.70053 184.766C4.82553 184.417 5.01564 184.115 5.27084 183.859C5.40626 183.724 5.5573 183.602 5.72397 183.492C5.89584 183.383 6.08334 183.286 6.28647 183.203C6.07814 183.12 5.88543 183.021 5.70834 182.906C5.53647 182.792 5.38543 182.664 5.25522 182.523C5.00522 182.263 4.82032 181.961 4.70053 181.617C4.58074 181.268 4.52084 180.891 4.52084 180.484V179.156C4.52084 178.839 4.50261 178.518 4.46616 178.195C4.43491 177.872 4.36459 177.581 4.25522 177.32C4.14064 177.065 3.97397 176.854 3.75522 176.688C3.53647 176.521 3.23959 176.432 2.86459 176.422L3.02084 175.523C3.52605 175.539 3.95834 175.646 4.31772 175.844C4.6823 176.042 4.98178 176.299 5.21616 176.617C5.48178 176.977 5.67189 177.38 5.78647 177.828C5.90626 178.276 5.96616 178.719 5.96616 179.156V180.484C5.96616 180.797 5.9948 181.073 6.05209 181.312C6.11459 181.547 6.20574 181.75 6.32553 181.922C6.49741 182.167 6.73439 182.346 7.03647 182.461C7.34376 182.57 7.71095 182.625 8.13803 182.625V183.758C7.76303 183.763 7.43491 183.81 7.15366 183.898C6.87761 183.982 6.65105 184.115 6.47397 184.297C6.30209 184.474 6.17449 184.695 6.09116 184.961C6.00782 185.227 5.96616 185.542 5.96616 185.906V187.227C5.96616 187.643 5.90886 188.062 5.79428 188.484C5.6797 188.911 5.50261 189.299 5.26303 189.648C5.01824 189.997 4.71095 190.284 4.34116 190.508C3.97136 190.732 3.53126 190.849 3.02084 190.859L2.85678 189.961Z" fill="#46BAEB"/>
<path d="M90.3333 62V54.6641H88.0052V53.5469H90.3333V52.9531C90.3333 52.4115 90.4115 51.9375 90.5677 51.5312C90.7292 51.1198 90.9557 50.776 91.2474 50.5C91.5339 50.224 91.8802 50.0156 92.2865 49.875C92.6927 49.7344 93.1458 49.6641 93.6458 49.6641C93.8542 49.6641 94.0599 49.6771 94.263 49.7031C94.4662 49.724 94.6667 49.7526 94.8646 49.7891C94.9948 49.8151 95.125 49.8438 95.2552 49.875C95.3854 49.901 95.5182 49.9323 95.6537 49.9688L95.4818 51.1641C95.2682 51.0911 95.0182 51.0286 94.7318 50.9766C94.4505 50.9193 94.1484 50.8906 93.8255 50.8906C93.4974 50.8906 93.2057 50.9323 92.9505 51.0156C92.7005 51.0938 92.4922 51.2135 92.3255 51.375C92.1484 51.5417 92.013 51.7578 91.9193 52.0234C91.8307 52.2891 91.7865 52.599 91.7865 52.9531V53.5469H95.0443V54.6641H91.7865V62H90.3333ZM98.013 53.5469H102.333V60.75H105.091V62H98.013V60.75H100.888V54.8047H98.013V53.5469ZM100.701 51.3281C100.701 51.2031 100.719 51.0859 100.755 50.9766C100.797 50.8672 100.859 50.7734 100.943 50.6953C101.01 50.6276 101.096 50.5755 101.201 50.5391C101.31 50.4974 101.432 50.4766 101.568 50.4766C101.703 50.4766 101.823 50.4974 101.927 50.5391C102.031 50.5755 102.117 50.6276 102.185 50.6953C102.268 50.7682 102.331 50.8594 102.372 50.9688C102.414 51.0781 102.435 51.1979 102.435 51.3281C102.435 51.5625 102.362 51.7578 102.216 51.9141C102.07 52.0703 101.854 52.1484 101.568 52.1484C101.276 52.1484 101.057 52.0703 100.911 51.9141C100.771 51.7578 100.701 51.5625 100.701 51.3281ZM112.935 53.3906C113.201 53.3906 113.477 53.4089 113.763 53.4453C114.055 53.4818 114.273 53.5312 114.419 53.5938L114.224 55.0078C113.943 54.9453 113.674 54.901 113.419 54.875C113.169 54.8438 112.906 54.8281 112.63 54.8281C112.276 54.8281 111.956 54.8724 111.669 54.9609C111.383 55.0443 111.133 55.1693 110.919 55.3359C110.727 55.4818 110.557 55.6615 110.411 55.875C110.271 56.0833 110.154 56.3177 110.06 56.5781V62H108.607V53.5469H109.982L110.044 54.6797L110.052 54.8906C110.396 54.4271 110.807 54.0625 111.286 53.7969C111.771 53.526 112.32 53.3906 112.935 53.3906ZM122.622 59.7578C122.622 59.5859 122.589 59.4323 122.521 59.2969C122.453 59.1562 122.339 59.0286 122.177 58.9141C122.016 58.7995 121.802 58.6953 121.536 58.6016C121.271 58.5026 120.94 58.4141 120.544 58.3359C120.06 58.237 119.617 58.1172 119.216 57.9766C118.82 57.8359 118.482 57.6667 118.201 57.4688C117.914 57.276 117.693 57.0495 117.536 56.7891C117.38 56.5234 117.302 56.2161 117.302 55.8672C117.302 55.5234 117.383 55.2031 117.544 54.9062C117.706 54.6042 117.932 54.3411 118.224 54.1172C118.516 53.8932 118.862 53.7161 119.263 53.5859C119.669 53.4557 120.115 53.3906 120.599 53.3906C121.12 53.3906 121.589 53.4583 122.005 53.5938C122.422 53.7292 122.776 53.9167 123.068 54.1562C123.359 54.3958 123.583 54.6771 123.74 55C123.901 55.3177 123.982 55.6615 123.982 56.0312H122.536C122.536 55.849 122.49 55.6719 122.396 55.5C122.302 55.3229 122.172 55.1667 122.005 55.0312C121.839 54.8958 121.635 54.7865 121.396 54.7031C121.161 54.6198 120.896 54.5781 120.599 54.5781C120.292 54.5781 120.021 54.612 119.786 54.6797C119.557 54.7474 119.367 54.8385 119.216 54.9531C119.06 55.0677 118.943 55.2005 118.865 55.3516C118.786 55.5026 118.747 55.6589 118.747 55.8203C118.747 55.987 118.779 56.1354 118.841 56.2656C118.904 56.3958 119.013 56.513 119.169 56.6172C119.32 56.7214 119.523 56.8151 119.779 56.8984C120.039 56.9818 120.367 57.0625 120.763 57.1406C121.284 57.25 121.75 57.3776 122.161 57.5234C122.573 57.6641 122.919 57.8333 123.201 58.0312C123.482 58.2344 123.695 58.4688 123.841 58.7344C123.992 59 124.068 59.3073 124.068 59.6562C124.068 60.0312 123.982 60.3724 123.81 60.6797C123.643 60.987 123.409 61.25 123.107 61.4688C122.805 61.6875 122.443 61.8568 122.021 61.9766C121.599 62.0964 121.138 62.1562 120.638 62.1562C120.065 62.1562 119.555 62.0807 119.107 61.9297C118.659 61.7734 118.281 61.5677 117.974 61.3125C117.661 61.0625 117.422 60.7708 117.255 60.4375C117.094 60.1042 117.013 59.7578 117.013 59.3984H118.458C118.479 59.6953 118.557 59.9453 118.693 60.1484C118.833 60.3516 119.008 60.5156 119.216 60.6406C119.419 60.7656 119.646 60.8542 119.896 60.9062C120.146 60.9583 120.393 60.9844 120.638 60.9844C121.023 60.9844 121.359 60.9401 121.646 60.8516C121.932 60.7578 122.156 60.6302 122.318 60.4688C122.417 60.3698 122.492 60.2604 122.544 60.1406C122.596 60.0208 122.622 59.8932 122.622 59.7578ZM130.036 51.5V53.5469H133.255V54.6641H130.036V59.2578C130.036 59.5859 130.078 59.8568 130.161 60.0703C130.245 60.2839 130.359 60.4531 130.505 60.5781C130.651 60.7083 130.818 60.7995 131.005 60.8516C131.198 60.9036 131.401 60.9297 131.615 60.9297C131.771 60.9297 131.932 60.9219 132.099 60.9062C132.266 60.8854 132.43 60.862 132.591 60.8359C132.747 60.8099 132.893 60.7839 133.029 60.7578C133.169 60.7266 133.284 60.7005 133.372 60.6797L133.576 61.7031C133.456 61.776 133.31 61.8411 133.138 61.8984C132.966 61.9505 132.779 61.9948 132.576 62.0312C132.372 62.0729 132.156 62.1042 131.927 62.125C131.703 62.1458 131.479 62.1562 131.255 62.1562C130.88 62.1562 130.529 62.1042 130.201 62C129.878 61.8906 129.596 61.7188 129.357 61.4844C129.117 61.2552 128.927 60.9583 128.786 60.5938C128.651 60.224 128.583 59.7786 128.583 59.2578V54.6641H126.365V53.5469H128.583V51.5H130.036Z" fill="#48B685"/>
<path d="M155.958 56.2969L156.529 50.625H162.365V52.0312H157.747L157.427 55.0625C157.651 54.9323 157.919 54.8177 158.232 54.7188C158.544 54.6198 158.906 54.5703 159.318 54.5703C159.844 54.5703 160.315 54.6615 160.732 54.8438C161.148 55.026 161.503 55.2812 161.794 55.6094C162.086 55.9427 162.31 56.3438 162.466 56.8125C162.622 57.2812 162.701 57.8021 162.701 58.375C162.701 58.9167 162.628 59.4193 162.482 59.8828C162.336 60.3464 162.117 60.7448 161.826 61.0781C161.529 61.4167 161.156 61.6823 160.708 61.875C160.26 62.0625 159.734 62.1562 159.13 62.1562C158.667 62.1562 158.229 62.0911 157.818 61.9609C157.406 61.8307 157.042 61.6354 156.724 61.375C156.401 61.1146 156.135 60.7865 155.927 60.3906C155.724 59.9948 155.596 59.5339 155.544 59.0078H156.919C157.008 59.6536 157.245 60.1432 157.63 60.4766C158.021 60.8099 158.521 60.9766 159.13 60.9766C159.474 60.9766 159.779 60.9167 160.044 60.7969C160.31 60.6719 160.534 60.4948 160.716 60.2656C160.893 60.0417 161.026 59.7708 161.115 59.4531C161.208 59.1354 161.255 58.7812 161.255 58.3906C161.255 58.0365 161.203 57.7057 161.099 57.3984C161 57.0911 160.854 56.8229 160.661 56.5938C160.469 56.3698 160.232 56.1927 159.951 56.0625C159.669 55.9323 159.346 55.8672 158.982 55.8672C158.742 55.8672 158.534 55.8854 158.357 55.9219C158.185 55.9531 158.029 56 157.888 56.0625C157.747 56.125 157.615 56.2005 157.49 56.2891C157.37 56.3776 157.245 56.4792 157.115 56.5938L155.958 56.2969Z" fill="#F99B15"/>
</svg>
