<svg width="160" height="24" viewBox="0 0 160 24" fill="none" xmlns="http://www.w3.org/2000/svg">
<path d="M30.4508 17.3635C30.6844 18.591 32.7727 19.2545 34.9281 19.2545C36.552 19.2545 38.1116 19.123 39.8026 18.5911L40.5999 22.7064C38.3773 23.6037 36.1548 23.8346 34.0665 23.8346C27.9624 23.8346 24.5131 20.5494 24.5131 15.3701C24.5131 12.1491 26.7357 6.70679 33.4678 6.70679C39.3061 6.70679 41.5287 11.056 41.5287 15.2035C41.5287 16.0657 41.3973 16.9952 41.298 17.3605H30.4508V17.3635ZM35.7254 13.1487C35.7254 12.418 35.2289 10.6935 33.1728 10.6935C31.2481 10.6935 30.4858 12.2193 30.3544 13.1487H35.7283H35.7254Z" fill="#195ED8"/>
<path d="M15.6224 1.46338H7.065L0 23.8377H6.60062L11.0458 5.68103L16.1861 23.8377H23.1518L15.6224 1.46338Z" fill="#195ED8"/>
<path d="M148.815 23.6338V12.7822C148.815 10.1858 148.748 8.62131 148.682 7.25654H153.808L154.007 10.2191H154.141C155.006 7.72256 157.103 6.89038 158.501 6.89038C159.034 6.89038 159.267 6.89038 159.7 6.99024V12.6158C159.267 12.5159 158.801 12.4493 158.168 12.4493C156.404 12.4493 155.206 13.1816 154.906 14.5131C154.84 14.8127 154.806 15.1456 154.806 15.545V23.6338H148.815Z" fill="#3A3A3A"/>
<path d="M145.85 17.5423H135.731C135.93 18.8405 137.828 19.5728 139.925 19.5728C141.489 19.5728 142.954 19.4063 144.419 18.9403L145.184 22.9348C143.22 23.7337 141.09 23.9667 139.059 23.9667C133.301 23.9667 130.039 20.8044 130.039 15.6116C130.039 11.7836 132.502 6.89038 138.527 6.89038C143.819 6.89038 146.083 10.785 146.083 15.2787C146.083 16.2773 145.95 17.1428 145.85 17.5423ZM135.664 13.4812H140.557C140.557 12.5492 140.125 10.8183 138.227 10.8183C136.463 10.8183 135.764 12.4493 135.664 13.4812Z" fill="#3A3A3A"/>
<path d="M111.845 7.25635H118.536L119.834 9.65302C120.267 10.4519 120.667 11.2508 121.033 12.0164H121.133C121.499 11.1509 121.832 10.352 122.198 9.55316L123.296 7.25635H129.787L124.495 15.0122L129.82 23.6336H123.03L121.732 21.0039C121.332 20.2383 120.966 19.4727 120.667 18.6738H120.567C120.201 19.506 119.834 20.2716 119.535 21.0039L118.336 23.6336H111.779L117.205 15.2785L111.845 7.25635Z" fill="#3A3A3A"/>
<path d="M111.165 17.5423H101.046C101.246 18.8405 103.143 19.5728 105.24 19.5728C106.804 19.5728 108.269 19.4063 109.734 18.9403L110.499 22.9348C108.535 23.7337 106.405 23.9667 104.375 23.9667C98.6159 23.9667 95.3537 20.8044 95.3537 15.6116C95.3537 11.7836 97.817 6.89038 103.842 6.89038C109.135 6.89038 111.398 10.785 111.398 15.2787C111.398 16.2773 111.265 17.1428 111.165 17.5423ZM100.979 13.4812H105.872C105.872 12.5492 105.44 10.8183 103.542 10.8183C101.778 10.8183 101.079 12.4493 100.979 13.4812Z" fill="#3A3A3A"/>
<path d="M86.4544 0H92.4461V18.4411C92.4461 20.4716 92.5126 22.5354 92.5792 23.6338H87.2533L87.0203 21.4036H86.9537C85.8552 23.2677 83.8913 24 81.9939 24C78.1992 24 75.0369 20.7046 75.0369 15.5451C75.0036 10.0527 78.4988 6.89043 82.3601 6.89043C84.1576 6.89043 85.6555 7.42302 86.3878 8.45492H86.4544V0ZM86.4544 16.1775V14.3135C86.4544 14.0804 86.4544 13.8141 86.4211 13.5479C86.1881 12.4161 85.2893 11.4508 84.0244 11.4508C82.0272 11.4508 81.1285 13.2483 81.1285 15.4119C81.1285 17.9085 82.3601 19.2399 84.0244 19.2399C85.2228 19.2399 86.1548 18.3745 86.3545 17.276C86.4211 16.9431 86.4544 16.5437 86.4544 16.1775Z" fill="#3A3A3A"/>
<path d="M55.9423 23.6338V12.8155C55.9423 10.6518 55.8757 8.75446 55.8092 7.25654H60.9687L61.235 9.35363H61.3681C61.9673 8.48816 63.5318 6.89038 66.2613 6.89038C70.0893 6.89038 72.1531 9.48678 72.1531 13.9805V23.6338H66.1615V14.7128C66.1615 12.8155 65.4957 11.717 64.0644 11.717C62.8993 11.717 62.3667 12.5159 62.1004 13.1484C61.9673 13.4479 61.934 13.914 61.934 14.3467V23.6338H55.9423Z" fill="#3A3A3A"/>
<path d="M45.9999 1.19824H52.0249V23.6337H45.9999V1.19824Z" fill="#3A3A3A"/>
</svg>
