<svg width="288" height="47" viewBox="0 0 288 47" fill="none" xmlns="http://www.w3.org/2000/svg">
<path d="M59.633 34.0033C60.0906 36.4074 64.1801 37.7067 68.4011 37.7067C71.5812 37.7067 74.6354 37.4491 77.9471 36.4074L79.5085 44.4666C75.1559 46.2239 70.8033 46.676 66.7138 46.676C54.7599 46.676 48.0051 40.2424 48.0051 30.0997C48.0051 23.7919 52.3577 13.134 65.5413 13.134C76.9747 13.134 81.3273 21.6512 81.3273 29.7734C81.3273 31.4619 81.0699 33.2821 80.8755 33.9976H59.633V34.0033ZM69.9625 25.7495C69.9625 24.3185 68.9902 20.9414 64.9636 20.9414C61.1944 20.9414 59.7016 23.9293 59.4443 25.7495H69.9683H69.9625Z" fill="#195ED8"/>
<path d="M123.818 46.6818V14.6967H136.092V46.6818H123.818ZM136.092 6.4543C136.092 9.84856 133.347 12.596 129.955 12.596C126.563 12.596 123.818 9.84856 123.818 6.4543C123.818 3.06003 126.563 0.312561 129.955 0.312561C133.347 0.312561 136.092 3.06003 136.092 6.4543Z" fill="#3A3A3A"/>
<path d="M143.888 25.8124C143.888 21.2619 143.757 17.5585 143.631 14.6966H154.218L154.739 18.9208H154.996C155.968 17.5528 159.085 13.9182 165.131 13.9182C172.795 13.9182 177.537 18.8579 177.537 28.2164V46.676H165.263V30.0366C165.263 25.8754 163.77 23.6659 160.715 23.6659C158.05 23.6659 156.946 25.5491 156.426 26.7855C156.168 27.3693 156.168 28.2164 156.168 28.9319V46.676H143.894V25.8067L143.888 25.8124Z" fill="#3A3A3A"/>
<path d="M237.82 34.0033C238.278 36.4074 242.367 37.7067 246.588 37.7067C249.768 37.7067 252.823 37.4491 256.134 36.4074L257.696 44.4666C253.343 46.2239 248.991 46.676 244.901 46.676C232.947 46.676 226.192 40.2424 226.192 30.0997C226.192 23.7919 230.545 13.134 243.729 13.134C255.162 13.134 259.515 21.6512 259.515 29.7734C259.515 31.4619 259.257 33.2821 259.063 33.9976H237.82V34.0033ZM248.15 25.7495C248.15 24.3185 247.177 20.9414 243.151 20.9414C239.382 20.9414 237.889 23.9293 237.632 25.7495H248.156H248.15Z" fill="#3A3A3A"/>
<path d="M265.103 25.6808C265.103 20.0256 265.04 17.1637 264.845 14.6967H275.301L275.69 20.8727H275.947C277.703 15.6068 282.25 13.9182 285.235 13.9182C286.276 13.9182 286.728 13.9182 287.638 14.1128V25.4919C286.728 25.2973 285.756 25.1027 284.389 25.1027C280.168 25.1027 277.892 26.8599 277.44 29.264C277.377 29.7848 277.377 30.3057 277.377 30.8266V46.6875H265.103V25.6923V25.6808Z" fill="#3A3A3A"/>
<path d="M30.5942 2.86542H13.8359L0.000244141 46.6818H12.9265L21.6316 11.125L31.6981 46.6818H45.3392L30.5942 2.86542Z" fill="#195ED8"/>
<path d="M87.1789 20.3461L87.1675 46.6703L99.4417 46.676L99.4531 30.2313L116.863 30.2427V20.3633L99.4588 20.3519L87.1789 20.3461Z" fill="#3A3A3A"/>
<path d="M117.978 2.87679L87.1898 2.85962L87.1841 12.596H117.973L117.978 2.87679Z" fill="#3A3A3A"/>
<path d="M220.216 0.3125H207.936V16.2593H207.805C206.117 13.9869 202.737 13.1397 199.037 13.1397C190.852 13.1397 183.445 19.5104 183.514 30.1683C183.514 40.8319 190.789 46.6817 198.259 46.6817C202.222 46.6817 206.506 45.3137 208.914 41.2841H209.046L209.503 45.8976H220.479C220.348 44.209 220.222 39.9848 220.222 35.8235V0.3125H220.216ZM207.936 30.2313C207.936 30.9468 207.936 31.7252 207.805 32.4407C207.416 34.9134 205.271 36.9912 202.411 36.9912C198.711 36.9912 196.045 34.3239 196.045 29.7104C196.045 25.6808 198.059 22.235 202.474 22.235C205.265 22.235 207.41 24.2498 207.868 26.7855C207.93 27.2377 207.93 27.7586 207.93 28.2165V30.2313H207.936Z" fill="#3A3A3A"/>
</svg>
