<svg width="120" height="120" viewBox="0 0 120 120" fill="none" xmlns="http://www.w3.org/2000/svg">
<rect width="120" height="120" rx="8" fill="url(#paint0_linear_1150_1499)"/>
<g clip-path="url(#clip0_1150_1499)">
<path d="M59.9963 100.5L30 83.236L59.9963 65.9722L90 83.236L59.9963 100.5Z" fill="#312A91"/>
<path d="M59.9963 95.5311L30 78.2673L59.9963 61.0107L90 78.2673L59.9963 95.5311Z" fill="#312A91"/>
<g opacity="0.9">
<path d="M59.9964 64.8704L36.8384 51.5395L59.9964 38.2158L83.1617 51.5395L59.9964 64.8704Z" fill="url(#paint1_linear_1150_1499)"/>
<path d="M83.1617 51.5396V78.2671L59.9963 91.5981V64.8705L83.1617 51.5396Z" fill="url(#paint2_linear_1150_1499)"/>
<path d="M36.8384 51.5396V78.2671L59.9964 91.5981V64.8705L36.8384 51.5396Z" fill="url(#paint3_linear_1150_1499)"/>
</g>
<path style="mix-blend-mode:lighten" opacity="0.7" d="M59.9964 91.598L36.8384 78.267L59.9964 64.9434L83.1617 78.267L59.9964 91.598Z" fill="url(#paint4_linear_1150_1499)"/>
<path d="M90 78.2671V83.2361L59.9963 100.5V95.5309L90 78.2671Z" fill="url(#paint5_linear_1150_1499)"/>
<path d="M30 78.2671V83.2361L59.9963 100.5V95.5309L30 78.2671Z" fill="#312A91"/>
<path style="mix-blend-mode:lighten" opacity="0.7" d="M30 78.2671V83.2361L59.9963 100.5V95.5309L30 78.2671Z" fill="url(#paint6_linear_1150_1499)"/>
<path d="M59.9963 58.9896L30 41.7258L59.9963 24.4619L90 41.7258L59.9963 58.9896Z" fill="#312A91"/>
<path d="M30 36.7637V41.7254L59.9963 58.9892V54.0202L30 36.7637Z" fill="#312A91"/>
<path opacity="0.3" d="M59.9963 58.9894V95.531L30 78.2672V41.7256L59.9963 58.9894Z" fill="#42E8E0"/>
<path opacity="0.3" d="M36.8384 45.6587V78.2674L59.9964 91.5983L83.1617 78.2674V45.6587L59.9964 58.9897L36.8384 45.6587Z" fill="#42E8E0"/>
<path opacity="0.3" d="M59.9964 58.9897V91.5983L36.8384 78.2674V45.6587L59.9964 58.9897Z" fill="#42E8E0"/>
<path opacity="0.5" d="M30 41.7256V78.2672L59.9963 95.531L90 78.2672V41.7256L59.9963 58.9894L30 41.7256Z" fill="#5CFFF3"/>
<path d="M59.9963 54.0204L30 36.7639L59.9963 19.5L90 36.7639L59.9963 54.0204Z" fill="#312A91"/>
<path style="mix-blend-mode:lighten" opacity="0.7" d="M59.9963 54.0204L30 36.7639L59.9963 19.5L90 36.7639L59.9963 54.0204Z" fill="url(#paint7_linear_1150_1499)"/>
<path d="M90 36.7637V41.7254L59.9963 58.9892V54.0202L90 36.7637Z" fill="url(#paint8_linear_1150_1499)"/>
<path style="mix-blend-mode:lighten" opacity="0.7" d="M30 36.7637V41.7254L59.9963 58.9892V54.0202L30 36.7637Z" fill="url(#paint9_linear_1150_1499)"/>
<path style="mix-blend-mode:lighten" d="M30.7102 36.7639L60.3551 19.7043L59.9963 19.5L30 36.7639L59.9963 54.0204L60.3551 53.8161L30.7102 36.7639Z" fill="url(#paint10_linear_1150_1499)"/>
<path d="M59.9964 52.3857L32.7456 36.7052L59.9964 24.3447L87.2471 36.7052L59.9964 52.3857Z" fill="#312A91"/>
<path d="M32.7456 35.5161V36.7055L59.9964 52.3859V51.1966L32.7456 35.5161Z" fill="#312A91"/>
<path d="M59.9964 51.1964L32.7456 35.5159L59.9964 19.8354L87.2471 35.5159L59.9964 51.1964Z" fill="#312A91"/>
<path style="mix-blend-mode:lighten" opacity="0.7" d="M59.9964 51.1964L32.7456 35.5159L59.9964 19.8354L87.2471 35.5159L59.9964 51.1964Z" fill="url(#paint11_linear_1150_1499)"/>
<path d="M87.2471 35.5161V36.7055L59.9963 52.3859V51.1966L87.2471 35.5161Z" fill="url(#paint12_linear_1150_1499)"/>
<path style="mix-blend-mode:lighten" opacity="0.7" d="M32.7456 35.5161V36.7055L59.9964 52.3859V51.1966L32.7456 35.5161Z" fill="url(#paint13_linear_1150_1499)"/>
<path style="mix-blend-mode:lighten" d="M33.3899 35.5159L60.3185 20.0252L59.9964 19.8354L32.7456 35.5159L59.9964 51.1964L60.3185 51.014L33.3899 35.5159Z" fill="url(#paint14_linear_1150_1499)"/>
<path d="M41.4728 36.1071L40.4478 35.5161L59.9963 24.2646L61.0286 24.8557L41.4728 36.1071Z" fill="#42E8E0"/>
<path d="M43.5301 37.2965L42.5051 36.7055L62.0536 25.4541L63.086 26.0451L43.5301 37.2965Z" fill="#42E8E0"/>
<path d="M45.5875 38.4787L44.5625 37.8876L64.1183 26.6362L65.1433 27.2273L45.5875 38.4787Z" fill="#42E8E0"/>
<path d="M47.6522 39.6603L46.6199 39.0693L66.1757 27.8179L67.2007 28.4089L47.6522 39.6603Z" fill="#42E8E0"/>
<path d="M49.7096 40.8498L48.6772 40.2514L68.2331 29.0073L69.2581 29.5984L49.7096 40.8498Z" fill="#42E8E0"/>
<path d="M51.767 42.0319L50.7346 41.4409L70.2904 30.1895L71.3155 30.7805L51.767 42.0319Z" fill="#42E8E0"/>
<path d="M53.8241 43.214L52.7917 42.623L72.3476 31.3716L73.3799 31.9626L53.8241 43.214Z" fill="#42E8E0"/>
<path d="M55.8815 44.4035L54.8564 43.8051L74.405 32.5537L75.4373 33.152L55.8815 44.4035Z" fill="#42E8E0"/>
<path d="M57.9388 45.5856L56.9138 44.9946L76.4623 33.7432L77.4947 34.3342L57.9388 45.5856Z" fill="#42E8E0"/>
<path d="M59.9962 46.7673L58.9712 46.1762L78.5197 34.9248L79.552 35.5158L59.9962 46.7673Z" fill="#42E8E0"/>
<path d="M59.9963 24.2646L61.0287 24.8557L59.9963 25.454V24.2646Z" fill="#73FFF5"/>
<path d="M62.0537 25.4541L63.086 26.0451L62.0537 26.6362V25.4541Z" fill="#73FFF5"/>
<path d="M64.1184 26.6362L65.1434 27.2273L64.1184 27.8183V26.6362Z" fill="#73FFF5"/>
<path d="M66.1758 27.8184L67.2008 28.4094L66.1758 29.0077V27.8184Z" fill="#73FFF5"/>
<path d="M68.2332 29.0073L69.2582 29.5984L68.2332 30.1894V29.0073Z" fill="#73FFF5"/>
<path d="M70.2905 30.1895L71.3155 30.7805L70.2905 31.3715V30.1895Z" fill="#73FFF5"/>
<path d="M72.3477 31.3716L73.38 31.9626L72.3477 32.5536V31.3716Z" fill="#73FFF5"/>
<path d="M74.405 32.5537L75.4374 33.152L74.405 33.7431V32.5537Z" fill="#73FFF5"/>
<path d="M76.4624 33.7432L77.4947 34.3342L76.4624 34.9252V33.7432Z" fill="#73FFF5"/>
<path d="M78.5198 34.9253L79.5521 35.5163L78.5198 36.1073V34.9253Z" fill="#73FFF5"/>
<g opacity="0.4">
<path d="M41.4728 36.1071L40.4478 35.5161L59.9963 24.2646L61.0286 24.8557L41.4728 36.1071Z" fill="#7979D3"/>
<path d="M43.5301 37.2965L42.5051 36.7055L62.0536 25.4541L63.086 26.0451L43.5301 37.2965Z" fill="#7979D3"/>
<path d="M45.5875 38.4787L44.5625 37.8876L64.1183 26.6362L65.1433 27.2273L45.5875 38.4787Z" fill="#7979D3"/>
<path d="M47.6522 39.6603L46.6199 39.0693L66.1757 27.8179L67.2007 28.4089L47.6522 39.6603Z" fill="#7979D3"/>
<path d="M49.7096 40.8498L48.6772 40.2514L68.2331 29.0073L69.2581 29.5984L49.7096 40.8498Z" fill="#7979D3"/>
<path d="M51.767 42.0319L50.7346 41.4409L70.2904 30.1895L71.3155 30.7805L51.767 42.0319Z" fill="#7979D3"/>
<path d="M53.8241 43.214L52.7917 42.623L72.3476 31.3716L73.3799 31.9626L53.8241 43.214Z" fill="#7979D3"/>
<path d="M55.8815 44.4035L54.8564 43.8051L74.405 32.5537L75.4373 33.152L55.8815 44.4035Z" fill="#7979D3"/>
<path d="M57.9388 45.5856L56.9138 44.9946L76.4623 33.7432L77.4947 34.3342L57.9388 45.5856Z" fill="#7979D3"/>
<path d="M59.9962 46.7673L58.9712 46.1762L78.5197 34.9248L79.552 35.5158L59.9962 46.7673Z" fill="#7979D3"/>
</g>
<path opacity="0.5" d="M30 41.7256V78.2672L30.41 78.5079V41.9664L30 41.7256Z" fill="#42E8E0"/>
<path opacity="0.5" d="M90.0001 41.7256V78.2672L89.5828 78.5079V41.9664L90.0001 41.7256Z" fill="#42E8E0"/>
<path opacity="0.5" d="M59.9963 58.9892L59.2935 58.5806V95.1294L59.9963 95.5307L60.7065 95.1294V58.5806L59.9963 58.9892Z" fill="#42E8E0"/>
<path opacity="0.5" d="M30.4099 74.6698L57.69 57.654L38.244 46.4683L30.4099 50.7295V74.6698Z" fill="#5CFFF3"/>
<path opacity="0.5" d="M36.5308 82.025L59.2934 69.1318V78.508L44.233 86.4614L36.5308 82.025Z" fill="#5CFFF3"/>
<g opacity="0.1">
<path d="M31.8596 46.2202L57.7266 61.0981V59.9306L31.8596 45.0601V46.2202Z" fill="#0B0244"/>
<path d="M31.8596 48.9492L57.7266 63.8271V62.6669L31.8596 47.7891V48.9492Z" fill="#0B0244"/>
<path d="M31.8596 51.6855L57.7266 66.5561V65.3959L31.8596 50.5181V51.6855Z" fill="#0B0244"/>
<path d="M31.8596 54.4145L57.7266 69.2851V68.1249L31.8596 53.2471V54.4145Z" fill="#0B0244"/>
<path d="M31.8596 57.1435L57.7266 72.0141V70.8539L31.8596 55.9761V57.1435Z" fill="#0B0244"/>
<path d="M31.8596 59.8721L57.7266 74.7426V73.5824L31.8596 58.7046V59.8721Z" fill="#0B0244"/>
<path d="M31.8596 62.6011L57.7266 77.4716V76.3114L31.8596 61.4336V62.6011Z" fill="#0B0244"/>
<path d="M31.8596 65.3301L57.7266 80.2006V79.0404L31.8596 64.1626V65.3301Z" fill="#0B0244"/>
<path d="M31.8596 68.0591L57.7266 82.9296V81.7695L31.8596 66.8916V68.0591Z" fill="#0B0244"/>
<path d="M31.8596 70.7881L57.7266 85.6586V84.4985L31.8596 69.6279V70.7881Z" fill="#0B0244"/>
<path d="M31.8596 73.5171L57.7266 88.3877V87.2275L31.8596 72.3569V73.5171Z" fill="#0B0244"/>
<path d="M31.8596 76.2461L57.7266 91.1167V89.9565L31.8596 75.0859V76.2461Z" fill="#0B0244"/>
</g>
</g>
<defs>
<linearGradient id="paint0_linear_1150_1499" x1="60" y1="0" x2="60" y2="120" gradientUnits="userSpaceOnUse">
<stop stop-color="#0B2045"/>
<stop offset="1" stop-color="#002D7C"/>
</linearGradient>
<linearGradient id="paint1_linear_1150_1499" x1="119.008" y1="63.6373" x2="32.7549" y2="45.8343" gradientUnits="userSpaceOnUse">
<stop stop-color="#180D5B"/>
<stop offset="0.09" stop-color="#191560"/>
<stop offset="0.25" stop-color="#1E2C6E"/>
<stop offset="0.44" stop-color="#255285"/>
<stop offset="0.66" stop-color="#2F87A5"/>
<stop offset="0.9" stop-color="#3CC9CD"/>
<stop offset="1" stop-color="#42E8E0"/>
</linearGradient>
<linearGradient id="paint2_linear_1150_1499" x1="92.7456" y1="85.2719" x2="34.2553" y2="47.1474" gradientUnits="userSpaceOnUse">
<stop stop-color="#180D5B"/>
<stop offset="0.09" stop-color="#191560"/>
<stop offset="0.25" stop-color="#1E2C6E"/>
<stop offset="0.44" stop-color="#255285"/>
<stop offset="0.66" stop-color="#2F87A5"/>
<stop offset="0.9" stop-color="#3CC9CD"/>
<stop offset="1" stop-color="#42E8E0"/>
</linearGradient>
<linearGradient id="paint3_linear_1150_1499" x1="76.3234" y1="86.4029" x2="28.9955" y2="61.0737" gradientUnits="userSpaceOnUse">
<stop stop-color="#180D5B"/>
<stop offset="0.09" stop-color="#191560"/>
<stop offset="0.25" stop-color="#1E2C6E"/>
<stop offset="0.44" stop-color="#255285"/>
<stop offset="0.66" stop-color="#2F87A5"/>
<stop offset="0.9" stop-color="#3CC9CD"/>
<stop offset="1" stop-color="#42E8E0"/>
</linearGradient>
<linearGradient id="paint4_linear_1150_1499" x1="99.7084" y1="99.9745" x2="38.1437" y2="66.0945" gradientUnits="userSpaceOnUse">
<stop stop-color="#180D5B"/>
<stop offset="0.09" stop-color="#191560"/>
<stop offset="0.25" stop-color="#1E2C6E"/>
<stop offset="0.44" stop-color="#255285"/>
<stop offset="0.66" stop-color="#2F87A5"/>
<stop offset="0.9" stop-color="#3CC9CD"/>
<stop offset="1" stop-color="#42E8E0"/>
</linearGradient>
<linearGradient id="paint5_linear_1150_1499" x1="50.0244" y1="89.3799" x2="92.914" y2="89.3799" gradientUnits="userSpaceOnUse">
<stop stop-color="#2B237C"/>
<stop offset="1" stop-color="#180D5B"/>
</linearGradient>
<linearGradient id="paint6_linear_1150_1499" x1="63.1373" y1="99.6608" x2="24.142" y2="77.416" gradientUnits="userSpaceOnUse">
<stop stop-color="#180D5B"/>
<stop offset="0.1" stop-color="#191560"/>
<stop offset="0.25" stop-color="#1D2C6E"/>
<stop offset="0.28" stop-color="#1F3372"/>
<stop offset="0.38" stop-color="#22447C"/>
<stop offset="0.57" stop-color="#2A7097"/>
<stop offset="0.83" stop-color="#38B7C2"/>
<stop offset="1" stop-color="#42E8E0"/>
</linearGradient>
<linearGradient id="paint7_linear_1150_1499" x1="79.9988" y1="49.7081" x2="29.787" y2="16.9796" gradientUnits="userSpaceOnUse">
<stop stop-color="#180D5B"/>
<stop offset="0.09" stop-color="#191560"/>
<stop offset="0.25" stop-color="#1E2C6E"/>
<stop offset="0.44" stop-color="#255285"/>
<stop offset="0.66" stop-color="#2F87A5"/>
<stop offset="0.9" stop-color="#3CC9CD"/>
<stop offset="1" stop-color="#42E8E0"/>
</linearGradient>
<linearGradient id="paint8_linear_1150_1499" x1="30" y1="47.8765" x2="30.7322" y2="47.8765" gradientUnits="userSpaceOnUse">
<stop stop-color="#2B237C"/>
<stop offset="1" stop-color="#180D5B"/>
</linearGradient>
<linearGradient id="paint9_linear_1150_1499" x1="58.1367" y1="55.2534" x2="23.0511" y2="35.4064" gradientUnits="userSpaceOnUse">
<stop stop-color="#180D5B"/>
<stop offset="0.1" stop-color="#191560"/>
<stop offset="0.25" stop-color="#1D2C6E"/>
<stop offset="0.28" stop-color="#1F3372"/>
<stop offset="0.38" stop-color="#22447C"/>
<stop offset="0.57" stop-color="#2A7097"/>
<stop offset="0.83" stop-color="#38B7C2"/>
<stop offset="1" stop-color="#42E8E0"/>
</linearGradient>
<linearGradient id="paint10_linear_1150_1499" x1="69.9976" y1="39.0112" x2="29.5595" y2="29.8458" gradientUnits="userSpaceOnUse">
<stop stop-color="#180D5B"/>
<stop offset="0.09" stop-color="#191560"/>
<stop offset="0.25" stop-color="#1E2C6E"/>
<stop offset="0.44" stop-color="#255285"/>
<stop offset="0.66" stop-color="#2F87A5"/>
<stop offset="0.9" stop-color="#3CC9CD"/>
<stop offset="1" stop-color="#42E8E0"/>
</linearGradient>
<linearGradient id="paint11_linear_1150_1499" x1="78.1684" y1="47.2781" x2="32.5526" y2="17.5483" gradientUnits="userSpaceOnUse">
<stop stop-color="#180D5B"/>
<stop offset="0.09" stop-color="#191560"/>
<stop offset="0.25" stop-color="#1E2C6E"/>
<stop offset="0.44" stop-color="#255285"/>
<stop offset="0.66" stop-color="#2F87A5"/>
<stop offset="0.9" stop-color="#3CC9CD"/>
<stop offset="1" stop-color="#42E8E0"/>
</linearGradient>
<linearGradient id="paint12_linear_1150_1499" x1="50.9396" y1="43.951" x2="89.8975" y2="43.951" gradientUnits="userSpaceOnUse">
<stop stop-color="#2B237C"/>
<stop offset="1" stop-color="#180D5B"/>
</linearGradient>
<linearGradient id="paint13_linear_1150_1499" x1="57.734" y1="50.3356" x2="27.3997" y2="33.173" gradientUnits="userSpaceOnUse">
<stop stop-color="#180D5B"/>
<stop offset="0.1" stop-color="#191560"/>
<stop offset="0.25" stop-color="#1D2C6E"/>
<stop offset="0.28" stop-color="#1F3372"/>
<stop offset="0.38" stop-color="#22447C"/>
<stop offset="0.57" stop-color="#2A7097"/>
<stop offset="0.83" stop-color="#38B7C2"/>
<stop offset="1" stop-color="#42E8E0"/>
</linearGradient>
<linearGradient id="paint14_linear_1150_1499" x1="69.0824" y1="37.559" x2="32.3478" y2="29.2381" gradientUnits="userSpaceOnUse">
<stop stop-color="#180D5B"/>
<stop offset="0.09" stop-color="#191560"/>
<stop offset="0.25" stop-color="#1E2C6E"/>
<stop offset="0.44" stop-color="#255285"/>
<stop offset="0.66" stop-color="#2F87A5"/>
<stop offset="0.9" stop-color="#3CC9CD"/>
<stop offset="1" stop-color="#42E8E0"/>
</linearGradient>
<clipPath id="clip0_1150_1499">
<rect width="60" height="81" fill="white" transform="translate(30 19.5)"/>
</clipPath>
</defs>
</svg>
