<svg width="410" height="292" viewBox="0 0 410 292" fill="none" xmlns="http://www.w3.org/2000/svg">
<path d="M302.419 199.574L235.841 238.885L159.614 194.097L226.191 155.108L302.419 199.574Z" stroke="#263238" stroke-width="1.24281" stroke-miterlimit="10" stroke-linecap="round" stroke-linejoin="round"/>
<path d="M283.041 199.574L236.002 227.365L179.073 194.016L226.594 165.5L283.041 199.574Z" stroke="#263238" stroke-width="1.24281" stroke-miterlimit="10" stroke-linecap="round" stroke-linejoin="round"/>
<path d="M105.835 91.0454C105.84 91.1164 105.844 91.1865 105.851 91.2565C105.855 91.3056 105.857 91.3568 105.861 91.4059C105.881 91.6034 105.906 91.7978 105.936 91.9901C105.937 91.9974 105.939 92.0037 105.94 92.0099C105.944 92.0329 105.95 92.0559 105.953 92.0789C105.979 92.2367 106.007 92.3934 106.039 92.547C106.054 92.6129 106.072 92.6766 106.087 92.7425C106.102 92.8031 106.116 92.8626 106.132 92.9233C106.146 92.9765 106.157 93.0309 106.172 93.0842C106.221 93.2618 106.275 93.4364 106.333 93.6067L106.335 93.6098C106.336 93.614 106.338 93.6171 106.339 93.6203C106.398 93.7917 106.462 93.9599 106.531 94.1229C106.548 94.1658 106.57 94.2065 106.589 94.2494C106.618 94.3142 106.648 94.3779 106.679 94.4416C106.711 94.5085 106.739 94.5785 106.774 94.6444C106.812 94.7196 106.856 94.7896 106.897 94.8628C106.937 94.937 106.978 95.0112 107.022 95.0833C107.043 95.1178 107.061 95.1554 107.082 95.1899C107.175 95.3393 107.274 95.4835 107.377 95.6235C107.42 95.6831 107.465 95.7416 107.511 95.8002C107.563 95.866 107.621 95.9245 107.675 95.9882C107.732 96.0551 107.789 96.1241 107.849 96.1879C107.936 96.2809 108.027 96.3676 108.119 96.4543C108.179 96.5108 108.236 96.5693 108.299 96.6226C108.404 96.7135 108.516 96.7981 108.626 96.8807C108.68 96.9214 108.733 96.9664 108.788 97.005C108.958 97.1231 109.134 97.2339 109.317 97.3332L112.269 98.9414C112.189 98.8986 112.118 98.8463 112.04 98.8004C112.992 99.3783 114.119 99.6928 115.386 99.6625C115.565 99.6583 115.739 99.6479 115.925 99.6301C116.435 99.5778 117.1 99.3312 117.949 98.9488C118.79 98.559 119.79 98.0281 120.908 97.4011C123.137 96.1346 125.807 94.4615 128.469 92.7425C133.799 89.2981 139.106 85.6302 140.711 84.629C140.918 84.4984 141.072 84.4096 141.111 84.3887C143.708 83.4294 145.874 82.1116 147.444 80.3602C149.012 78.6098 149.974 76.4195 150.158 73.807C150.32 71.3899 149.679 69.3417 148.497 67.8923C147.955 67.2308 147.292 66.7051 146.546 66.3258C146.597 66.3509 146.651 66.3697 146.7 66.3958L143.748 64.7875C143.526 64.6663 143.295 64.5587 143.057 64.4667C143.053 64.4646 143.049 64.4646 143.045 64.4625C143.01 64.4489 142.974 64.4406 142.939 64.4281C142.763 64.3633 142.585 64.3016 142.401 64.2535C142.376 64.2473 142.349 64.2431 142.323 64.2368C142.273 64.2243 142.222 64.2149 142.171 64.2044C142.067 64.1814 141.965 64.1553 141.861 64.1386C141.758 64.1219 141.651 64.1104 141.546 64.0989C141.51 64.0947 141.475 64.0884 141.439 64.0853C141.418 64.0832 141.397 64.079 141.375 64.0769C141.224 64.0634 141.071 64.055 140.916 64.0529C140.823 64.0508 140.729 64.0519 140.635 64.0539C140.588 64.055 140.54 64.0571 140.493 64.0592C140.364 64.0654 140.231 64.0759 140.099 64.0905C140.044 64.0968 139.988 64.1031 139.933 64.1114C139.826 64.125 139.717 64.1407 139.61 64.1595C139.479 64.1814 139.349 64.2086 139.221 64.2379C139.209 64.24 139.199 64.242 139.187 64.2441C139.183 64.2452 139.178 64.2462 139.174 64.2473C139.026 64.2818 138.879 64.3204 138.733 64.3633C138.67 64.3821 138.607 64.404 138.545 64.4239C138.498 64.4385 138.452 64.4531 138.405 64.4688C138.363 64.4834 138.321 64.4949 138.278 64.5096C138.119 64.566 137.962 64.6277 137.805 64.6935C137.795 64.6977 137.785 64.7029 137.775 64.7071C137.743 64.7207 137.711 64.7374 137.679 64.751C137.554 64.8063 137.429 64.8617 137.306 64.9234C137.256 64.9485 137.206 64.9777 137.157 65.0028C137.087 65.0394 137.017 65.0781 136.946 65.1167C136.886 65.1502 136.825 65.1794 136.765 65.2139C136.691 65.2567 136.62 65.3059 136.547 65.3508C136.459 65.4051 136.37 65.4595 136.283 65.5169C136.244 65.5431 136.204 65.565 136.164 65.5911C136.099 65.6361 136.036 65.6873 135.971 65.7333C135.843 65.8242 135.717 65.9161 135.592 66.0133C135.551 66.0447 135.508 66.0718 135.469 66.1042C135.43 66.1345 135.396 66.1722 135.357 66.2035C135.106 66.4104 134.861 66.6267 134.625 66.8577C134.619 66.864 134.612 66.8682 134.606 66.8744L133.385 66.2087C133.113 66.0614 132.833 65.9308 132.542 65.8179C132.536 65.8158 132.531 65.8148 132.527 65.8127C132.484 65.796 132.439 65.7866 132.397 65.7709C132.183 65.6935 131.968 65.6183 131.745 65.5608C131.712 65.5525 131.678 65.5483 131.646 65.5399C131.584 65.5243 131.52 65.5138 131.458 65.4992C131.335 65.472 131.213 65.4407 131.087 65.4198C130.956 65.3978 130.823 65.3842 130.69 65.3696C130.647 65.3644 130.606 65.3581 130.562 65.3529C130.537 65.3508 130.513 65.3456 130.488 65.3435C130.301 65.3268 130.112 65.3174 129.921 65.3132C129.806 65.3111 129.688 65.3111 129.571 65.3142C129.517 65.3153 129.462 65.3173 129.408 65.3205C129.186 65.3309 128.961 65.3518 128.734 65.3769C128.717 65.379 128.7 65.3811 128.683 65.3821C128.545 65.3999 128.408 65.4198 128.27 65.4438C128.15 65.4647 128.03 65.4908 127.91 65.5159C127.864 65.5253 127.817 65.5337 127.77 65.5441C127.748 65.5493 127.725 65.5525 127.701 65.5577C127.507 65.6026 127.314 65.6528 127.121 65.7092C127.085 65.7197 127.05 65.7333 127.015 65.7437C126.953 65.7625 126.89 65.7845 126.826 65.8054C126.724 65.8388 126.622 65.8681 126.521 65.9046C126.425 65.9391 126.331 65.9788 126.235 66.0165C126.161 66.0447 126.088 66.0729 126.014 66.1032C125.973 66.1199 125.931 66.1335 125.89 66.1513C125.712 66.2265 125.537 66.3101 125.363 66.3937C125.321 66.4136 125.28 66.4303 125.238 66.4512C125.231 66.4554 125.222 66.4585 125.215 66.4616C124.966 66.585 124.719 66.7187 124.474 66.8598C124.467 66.864 124.461 66.8692 124.453 66.8723C124.249 66.9914 124.049 67.1221 123.848 67.2527C123.781 67.2976 123.711 67.3363 123.643 67.3823C123.641 67.3833 123.639 67.3854 123.637 67.3875C123.336 67.5913 123.043 67.8107 122.753 68.0406C122.729 68.0595 122.703 68.0762 122.679 68.096C122.54 68.2068 122.406 68.3259 122.269 68.443C122.199 68.5025 122.128 68.56 122.058 68.6217C121.829 68.8254 121.603 69.0365 121.382 69.2549C121.38 69.257 121.378 69.2602 121.376 69.2622C121.043 69.5935 120.725 69.9457 120.415 70.3083C120.347 70.3888 120.278 70.4703 120.21 70.5518C119.91 70.9165 119.62 71.2917 119.345 71.6825C119.308 71.7358 119.273 71.7922 119.236 71.8466C118.989 72.2081 118.754 72.5801 118.532 72.9605C118.483 73.0431 118.433 73.1246 118.386 73.2092C118.15 73.6272 117.929 74.0567 117.725 74.4946C117.71 74.5291 117.69 74.5604 117.673 74.5949C117.571 74.8175 117.473 75.0422 117.38 75.27C117.23 75.2878 117.08 75.3086 116.929 75.3337C116.772 75.3609 116.614 75.3922 116.458 75.4288C116.453 75.4299 116.447 75.4309 116.441 75.432C116.438 75.433 116.436 75.433 116.433 75.4341C116.264 75.4727 116.095 75.5177 115.927 75.5668C115.817 75.5992 115.708 75.6368 115.598 75.6734C115.559 75.6859 115.52 75.6984 115.481 75.711C115.454 75.7204 115.427 75.7277 115.401 75.7371C115.217 75.8029 115.033 75.875 114.85 75.9524C114.799 75.9743 114.748 76.0004 114.697 76.0234C114.634 76.0516 114.57 76.082 114.505 76.1112C114.423 76.1499 114.339 76.1844 114.258 76.2251C114.123 76.292 113.992 76.3672 113.86 76.4394C113.799 76.4728 113.739 76.502 113.679 76.5365C113.656 76.5491 113.633 76.5606 113.61 76.5742C113.362 76.7173 113.118 76.872 112.876 77.035C112.874 77.036 112.872 77.0381 112.87 77.0392C112.58 77.2356 112.295 77.4467 112.015 77.6704C112.011 77.6735 112.007 77.6756 112.003 77.6798C111.988 77.6913 111.975 77.7059 111.96 77.7174C111.616 77.9954 111.283 78.2984 110.958 78.614C110.914 78.6568 110.866 78.6924 110.822 78.7352C110.7 78.8564 110.579 78.9808 110.46 79.1062C110.172 79.4103 109.896 79.7322 109.628 80.0624C109.544 80.1648 109.466 80.2714 109.385 80.3759C109.199 80.6152 109.018 80.8597 108.844 81.1116C108.76 81.2328 108.677 81.355 108.595 81.4784C108.421 81.7438 108.254 82.0155 108.092 82.2924C108.031 82.398 107.966 82.5014 107.905 82.6091C107.692 82.9926 107.49 83.3855 107.306 83.7878C107.3 83.7993 107.294 83.8098 107.289 83.8213C107.151 84.1212 107.025 84.4263 106.904 84.7346C106.871 84.8203 106.84 84.9081 106.808 84.9938C106.75 85.1516 106.688 85.3073 106.634 85.4661C106.612 85.5309 106.596 85.5988 106.575 85.6636C106.5 85.8956 106.434 86.1286 106.368 86.3638C106.337 86.4766 106.297 86.5874 106.268 86.7013C106.241 86.8079 106.215 86.9134 106.191 87.02C106.135 87.2614 106.086 87.5007 106.042 87.7379C106.025 87.8341 106.014 87.9271 105.999 88.0211C105.979 88.1392 105.961 88.2573 105.944 88.3743C105.932 88.4642 105.914 88.5562 105.903 88.645C105.873 88.8843 105.852 89.1215 105.835 89.3556C105.834 89.3723 105.833 89.3901 105.832 89.4068C105.816 89.6493 105.808 89.8896 105.806 90.1258C105.806 90.1561 105.808 90.1864 105.808 90.2167C105.808 90.2857 105.811 90.3536 105.812 90.4215C105.814 90.5438 105.813 90.6681 105.819 90.7883C105.819 90.875 105.829 90.9586 105.835 91.0454ZM146.139 66.1356C146.047 66.0969 145.954 66.0604 145.86 66.0259C145.871 66.029 145.881 66.0321 145.89 66.0353C145.925 66.0478 145.962 66.0562 145.996 66.0698C146.045 66.0886 146.09 66.1157 146.139 66.1356ZM111.8 98.6478C111.782 98.6353 111.761 98.6248 111.742 98.6112C111.686 98.5726 111.634 98.5276 111.579 98.4869C111.543 98.4597 111.507 98.4304 111.472 98.4022C111.578 98.4858 111.687 98.5705 111.8 98.6478Z" fill="white"/>
<path d="M105.835 91.0454C105.84 91.1164 105.844 91.1864 105.851 91.2565C105.855 91.3056 105.857 91.3568 105.861 91.4059C105.881 91.6034 105.906 91.7978 105.936 91.9901C105.937 91.9974 105.939 92.0037 105.94 92.0099C105.944 92.0329 105.95 92.0559 105.953 92.0789C105.979 92.2367 106.007 92.3934 106.039 92.547C106.054 92.6129 106.072 92.6766 106.087 92.7425C106.102 92.8031 106.116 92.8626 106.132 92.9232C106.146 92.9765 106.157 93.0309 106.172 93.0842C106.221 93.2618 106.275 93.4364 106.333 93.6067L106.335 93.6098C106.336 93.614 106.338 93.6171 106.339 93.6203C106.398 93.7917 106.462 93.9599 106.531 94.1229C106.548 94.1658 106.57 94.2065 106.589 94.2494C106.618 94.3142 106.648 94.3779 106.679 94.4416C106.711 94.5085 106.739 94.5785 106.774 94.6444C106.812 94.7196 106.856 94.7896 106.897 94.8628C106.937 94.937 106.978 95.0112 107.022 95.0833C107.043 95.1178 107.061 95.1554 107.082 95.1899C107.175 95.3393 107.274 95.4835 107.377 95.6235C107.42 95.6831 107.465 95.7416 107.511 95.8002C107.563 95.866 107.621 95.9245 107.675 95.9882C107.732 96.0551 107.789 96.1241 107.849 96.1879C107.936 96.2809 108.027 96.3676 108.119 96.4543C108.179 96.5108 108.236 96.5693 108.299 96.6226C108.404 96.7135 108.516 96.7981 108.626 96.8807C108.68 96.9214 108.733 96.9664 108.788 97.005C108.958 97.1231 109.134 97.2339 109.317 97.3332L112.269 98.9414C112.189 98.8986 112.118 98.8463 112.04 98.8004C112.992 99.3783 114.119 99.6928 115.386 99.6625C115.565 99.6583 115.739 99.6479 115.925 99.6301C116.435 99.5778 117.1 99.3312 117.949 98.9488C118.79 98.559 119.79 98.0281 120.908 97.4011C123.137 96.1346 125.807 94.4615 128.469 92.7425C133.799 89.2981 139.106 85.6302 140.711 84.629C140.918 84.4984 141.072 84.4096 141.111 84.3887C143.708 83.4294 145.874 82.1116 147.444 80.3602C149.012 78.6098 149.974 76.4195 150.158 73.807C150.32 71.3899 149.679 69.3417 148.497 67.8923C147.955 67.2308 147.292 66.7051 146.546 66.3258C146.597 66.3509 146.651 66.3697 146.7 66.3958L143.748 64.7875C143.526 64.6663 143.295 64.5587 143.057 64.4667C143.053 64.4646 143.049 64.4646 143.045 64.4625C143.01 64.4489 142.974 64.4406 142.939 64.4281C142.763 64.3633 142.585 64.3016 142.401 64.2535C142.376 64.2473 142.349 64.2431 142.323 64.2368C142.273 64.2243 142.222 64.2149 142.171 64.2044C142.067 64.1814 141.965 64.1553 141.861 64.1386C141.758 64.1219 141.651 64.1104 141.546 64.0989C141.51 64.0947 141.475 64.0884 141.439 64.0853C141.418 64.0832 141.397 64.079 141.375 64.0769C141.224 64.0634 141.071 64.055 140.916 64.0529C140.823 64.0508 140.729 64.0519 140.635 64.0539C140.588 64.055 140.54 64.0571 140.493 64.0592C140.364 64.0654 140.231 64.0759 140.099 64.0905C140.044 64.0968 139.988 64.1031 139.933 64.1114C139.826 64.125 139.717 64.1407 139.61 64.1595C139.479 64.1814 139.349 64.2086 139.221 64.2379C139.209 64.24 139.199 64.242 139.187 64.2441C139.183 64.2452 139.178 64.2462 139.174 64.2473C139.026 64.2818 138.879 64.3204 138.733 64.3633C138.67 64.3821 138.607 64.404 138.545 64.4239C138.498 64.4385 138.452 64.4531 138.405 64.4688C138.363 64.4834 138.321 64.4949 138.278 64.5096C138.119 64.566 137.962 64.6277 137.805 64.6935C137.795 64.6977 137.785 64.7029 137.775 64.7071C137.743 64.7207 137.711 64.7374 137.679 64.751C137.554 64.8063 137.429 64.8617 137.306 64.9234C137.256 64.9485 137.206 64.9777 137.157 65.0028C137.087 65.0394 137.017 65.0781 136.946 65.1167C136.886 65.1502 136.825 65.1794 136.765 65.2139C136.691 65.2567 136.62 65.3059 136.547 65.3508C136.459 65.4051 136.37 65.4595 136.283 65.5169C136.244 65.5431 136.204 65.565 136.164 65.5911C136.099 65.6361 136.036 65.6873 135.971 65.7333C135.843 65.8242 135.717 65.9161 135.592 66.0133C135.551 66.0447 135.508 66.0718 135.469 66.1042C135.43 66.1345 135.396 66.1722 135.357 66.2035C135.106 66.4104 134.861 66.6267 134.625 66.8577C134.619 66.864 134.612 66.8682 134.606 66.8744L133.385 66.2087C133.113 66.0614 132.833 65.9308 132.542 65.8179C132.536 65.8158 132.531 65.8148 132.527 65.8127C132.484 65.796 132.439 65.7866 132.397 65.7709C132.183 65.6935 131.968 65.6183 131.745 65.5608C131.712 65.5525 131.678 65.5483 131.646 65.5399C131.584 65.5243 131.52 65.5138 131.458 65.4992C131.335 65.472 131.213 65.4407 131.087 65.4198C130.956 65.3978 130.823 65.3842 130.69 65.3696C130.647 65.3644 130.606 65.3581 130.562 65.3529C130.537 65.3508 130.513 65.3456 130.488 65.3435C130.301 65.3268 130.112 65.3174 129.921 65.3132C129.806 65.3111 129.688 65.3111 129.571 65.3142C129.517 65.3153 129.462 65.3173 129.408 65.3205C129.186 65.3309 128.961 65.3518 128.734 65.3769C128.717 65.379 128.7 65.3811 128.683 65.3821C128.545 65.3999 128.408 65.4198 128.27 65.4438C128.15 65.4647 128.03 65.4908 127.91 65.5159C127.864 65.5253 127.817 65.5337 127.77 65.5441C127.748 65.5493 127.725 65.5525 127.701 65.5577C127.507 65.6026 127.314 65.6528 127.121 65.7092C127.085 65.7197 127.05 65.7333 127.015 65.7437C126.953 65.7625 126.89 65.7845 126.826 65.8054C126.724 65.8388 126.622 65.8681 126.521 65.9046C126.425 65.9391 126.331 65.9788 126.235 66.0165C126.161 66.0447 126.088 66.0729 126.014 66.1032C125.973 66.1199 125.931 66.1335 125.89 66.1513C125.712 66.2265 125.537 66.3101 125.363 66.3937C125.321 66.4136 125.28 66.4303 125.238 66.4512C125.231 66.4554 125.222 66.4585 125.215 66.4616C124.966 66.585 124.719 66.7187 124.474 66.8598C124.467 66.864 124.461 66.8692 124.453 66.8723C124.249 66.9914 124.049 67.1221 123.848 67.2527C123.781 67.2976 123.711 67.3363 123.643 67.3823C123.641 67.3833 123.639 67.3854 123.637 67.3875C123.336 67.5913 123.043 67.8107 122.753 68.0406C122.729 68.0595 122.703 68.0762 122.679 68.096C122.54 68.2068 122.406 68.3259 122.269 68.443C122.199 68.5025 122.128 68.56 122.058 68.6217C121.829 68.8254 121.603 69.0365 121.382 69.2549C121.38 69.257 121.378 69.2602 121.376 69.2622C121.043 69.5935 120.725 69.9457 120.415 70.3083C120.347 70.3888 120.278 70.4703 120.21 70.5518C119.91 70.9165 119.62 71.2917 119.345 71.6825C119.308 71.7358 119.273 71.7922 119.236 71.8466C118.989 72.2081 118.754 72.5801 118.532 72.9605C118.483 73.0431 118.433 73.1246 118.386 73.2092C118.15 73.6272 117.929 74.0567 117.725 74.4946C117.71 74.5291 117.69 74.5604 117.673 74.5949C117.571 74.8175 117.473 75.0422 117.38 75.27C117.23 75.2878 117.08 75.3086 116.929 75.3337C116.772 75.3609 116.614 75.3922 116.458 75.4288C116.453 75.4299 116.447 75.4309 116.441 75.432C116.438 75.433 116.436 75.433 116.433 75.4341C116.264 75.4727 116.095 75.5177 115.927 75.5668C115.817 75.5992 115.708 75.6368 115.598 75.6734C115.559 75.6859 115.52 75.6984 115.481 75.711C115.454 75.7204 115.427 75.7277 115.401 75.7371C115.217 75.8029 115.033 75.875 114.85 75.9524C114.799 75.9743 114.748 76.0004 114.697 76.0234C114.634 76.0516 114.57 76.0819 114.505 76.1112C114.423 76.1499 114.339 76.1844 114.258 76.2251C114.123 76.292 113.992 76.3672 113.86 76.4394C113.799 76.4728 113.739 76.502 113.679 76.5365C113.656 76.5491 113.633 76.5606 113.61 76.5742C113.362 76.7173 113.118 76.872 112.876 77.035C112.874 77.036 112.872 77.0381 112.87 77.0392C112.58 77.2356 112.295 77.4467 112.015 77.6704C112.011 77.6735 112.007 77.6756 112.003 77.6798C111.988 77.6913 111.975 77.7059 111.96 77.7174C111.616 77.9954 111.283 78.2984 110.958 78.614C110.914 78.6568 110.866 78.6924 110.822 78.7352C110.7 78.8564 110.579 78.9808 110.46 79.1062C110.172 79.4103 109.896 79.7322 109.628 80.0624C109.544 80.1648 109.466 80.2714 109.385 80.3759C109.199 80.6152 109.018 80.8597 108.844 81.1116C108.76 81.2328 108.677 81.355 108.595 81.4784C108.421 81.7438 108.254 82.0155 108.092 82.2924C108.031 82.398 107.966 82.5014 107.905 82.6091C107.692 82.9926 107.49 83.3855 107.306 83.7878C107.3 83.7993 107.294 83.8098 107.289 83.8213C107.151 84.1212 107.025 84.4263 106.904 84.7346C106.871 84.8203 106.84 84.9081 106.808 84.9938C106.75 85.1515 106.688 85.3072 106.634 85.4661C106.612 85.5309 106.596 85.5988 106.575 85.6636C106.5 85.8956 106.434 86.1286 106.368 86.3638C106.337 86.4766 106.297 86.5874 106.268 86.7013C106.241 86.8079 106.215 86.9134 106.191 87.02C106.135 87.2614 106.086 87.5007 106.042 87.7379C106.025 87.8341 106.014 87.9271 105.999 88.0211C105.979 88.1392 105.961 88.2573 105.944 88.3743C105.932 88.4642 105.914 88.5562 105.903 88.645C105.873 88.8843 105.852 89.1215 105.835 89.3556C105.834 89.3723 105.833 89.3901 105.832 89.4068C105.816 89.6493 105.808 89.8896 105.806 90.1258C105.806 90.1561 105.808 90.1864 105.808 90.2167C105.808 90.2857 105.811 90.3536 105.812 90.4215C105.814 90.5438 105.813 90.6681 105.819 90.7883C105.819 90.875 105.829 90.9586 105.835 91.0454ZM146.139 66.1356C146.047 66.0969 145.954 66.0603 145.86 66.0259C145.871 66.029 145.881 66.0321 145.89 66.0353C145.925 66.0478 145.962 66.0562 145.996 66.0698C146.045 66.0886 146.09 66.1157 146.139 66.1356ZM111.8 98.6478C111.782 98.6353 111.761 98.6248 111.742 98.6112C111.686 98.5726 111.634 98.5276 111.579 98.4869C111.543 98.4597 111.507 98.4304 111.472 98.4022C111.578 98.4858 111.687 98.5705 111.8 98.6478Z" stroke="#C6D7FF" stroke-width="0.766394" stroke-miterlimit="10" stroke-linecap="round" stroke-linejoin="round"/>
<path d="M144.035 66.8314C143.825 66.8366 143.614 66.8544 143.396 66.8794C141.508 67.1156 139.663 68.1752 138.187 69.7407C138.114 69.818 138.022 69.8587 137.931 69.8608C137.856 69.8629 137.781 69.8378 137.719 69.7856C136.459 68.6685 134.833 68.0477 132.97 68.0927C132.698 68.0989 132.425 68.1188 132.15 68.1585C127.764 68.6925 123.356 72.6876 121.363 77.7861C121.305 77.9262 121.174 78.0276 121.037 78.038C120.919 78.0474 120.826 78.0432 120.752 78.0516C118.547 78.3087 116.265 79.6431 114.368 81.6464C112.473 83.6434 110.972 86.3103 110.303 89.1746C110.128 89.9375 110.016 90.6784 109.969 91.3848C109.811 93.7423 110.343 95.7676 111.385 97.1794C112.427 98.5922 113.979 99.4115 115.935 99.3645C116.096 99.3603 116.257 99.3498 116.425 99.3331C116.804 99.3038 117.513 99.0499 118.413 98.6256C121.572 97.1386 127.125 93.5971 131.961 90.3952C134.38 88.7942 136.632 87.2769 138.328 86.142C139.176 85.5746 139.881 85.1022 140.404 84.7605C140.669 84.5891 140.888 84.446 141.056 84.3498C141.231 84.2401 141.328 84.1785 141.441 84.1367C143.957 83.2056 146.013 81.9432 147.463 80.3203C148.919 78.6901 149.795 76.7108 149.972 74.2467C150.122 72.0146 149.53 70.1492 148.462 68.843C147.387 67.5357 145.843 66.7948 144.035 66.8314Z" fill="#407BFF"/>
<path d="M110.303 89.1746C110.972 86.3103 112.473 83.6434 114.368 81.6464C116.265 79.6431 118.547 78.3087 120.752 78.0516C120.826 78.0432 120.919 78.0474 121.037 78.038C121.174 78.0276 121.305 77.9262 121.363 77.7861C123.356 72.6876 127.764 68.6925 132.15 68.1585C132.425 68.1188 132.698 68.0989 132.97 68.0927C134.833 68.0477 136.459 68.6685 137.719 69.7856C137.781 69.8378 137.856 69.8629 137.931 69.8608C138.022 69.8587 138.114 69.818 138.187 69.7407C139.663 68.1752 141.508 67.1156 143.396 66.8794C143.614 66.8544 143.825 66.8366 144.035 66.8314C145.843 66.7948 147.387 67.5357 148.462 68.843C149.53 70.1492 150.122 72.0146 149.972 74.2467C149.795 76.7108 148.919 78.6901 147.463 80.3203C146.013 81.9432 143.957 83.2056 141.441 84.1367C141.328 84.1785 141.231 84.2401 141.056 84.3498C140.888 84.446 140.669 84.5891 140.404 84.7605C139.881 85.1022 139.176 85.5746 138.328 86.142C136.632 87.2769 134.38 88.7942 131.961 90.3952C127.125 93.5971 121.572 97.1386 118.413 98.6256C117.513 99.0499 116.804 99.3038 116.425 99.3331C116.257 99.3498 116.096 99.3603 115.935 99.3645C113.979 99.4115 112.427 98.5922 111.385 97.1794C110.343 95.7676 109.811 93.7423 109.969 91.3848C110.016 90.6784 110.128 89.9375 110.303 89.1746ZM110.303 89.1746L110.272 89.1976" stroke="#C6D7FF" stroke-width="0.766394" stroke-miterlimit="10" stroke-linecap="round" stroke-linejoin="round"/>
<path d="M37.1971 184.294C37.2023 184.365 37.2065 184.435 37.2127 184.506C37.2169 184.555 37.219 184.606 37.2242 184.655C37.244 184.853 37.2691 185.047 37.2993 185.239C37.3004 185.247 37.3025 185.253 37.3035 185.259C37.3077 185.282 37.3129 185.305 37.316 185.328C37.3421 185.486 37.3703 185.643 37.4026 185.796C37.4172 185.862 37.4349 185.926 37.4506 185.992C37.4652 186.052 37.4798 186.112 37.4954 186.173C37.509 186.226 37.5205 186.28 37.5351 186.334C37.5841 186.511 37.6383 186.686 37.6967 186.856L37.6978 186.859C37.6988 186.862 37.7009 186.867 37.702 186.87C37.7614 187.041 37.825 187.209 37.8939 187.372C37.9116 187.415 37.9335 187.456 37.9523 187.499C37.9815 187.564 38.0107 187.627 38.041 187.691C38.0733 187.758 38.1015 187.828 38.1359 187.894C38.1745 187.969 38.2183 188.039 38.259 188.112C38.2997 188.186 38.3403 188.261 38.3841 188.333C38.405 188.367 38.4228 188.405 38.4447 188.439C38.5375 188.589 38.6355 188.733 38.7388 188.873C38.7826 188.932 38.8275 188.991 38.8734 189.05C38.9255 189.115 38.9829 189.174 39.0371 189.238C39.0945 189.305 39.1508 189.374 39.2113 189.437C39.2979 189.53 39.3897 189.617 39.4815 189.704C39.541 189.76 39.5983 189.819 39.6609 189.872C39.7663 189.963 39.8768 190.048 39.9885 190.13C40.0427 190.171 40.0949 190.215 40.1502 190.254C40.3202 190.373 40.4965 190.483 40.679 190.583L43.631 192.191C43.5517 192.148 43.4798 192.096 43.4036 192.05C44.3549 192.628 45.4825 192.942 46.7489 192.912C46.9283 192.908 47.1025 192.897 47.2882 192.879C47.7983 192.828 48.4638 192.581 49.3118 192.198C50.1536 191.808 51.1529 191.277 52.2711 190.65C54.5003 189.384 57.1706 187.711 59.8326 185.993C65.1619 182.549 70.4693 178.881 72.0746 177.879C72.2811 177.749 72.4355 177.66 72.4741 177.639C75.0725 176.68 77.237 175.362 78.8069 173.611C80.3757 171.86 81.3374 169.67 81.521 167.057C81.6838 164.64 81.0423 162.592 79.8604 161.144C79.318 160.482 78.6556 159.957 77.9098 159.577C77.9598 159.602 78.0141 159.621 78.0631 159.648L75.1111 158.04C74.8889 157.919 74.6584 157.812 74.4206 157.719C74.4164 157.718 74.4122 157.717 74.4081 157.715C74.3736 157.701 74.3371 157.693 74.3027 157.681C74.1264 157.616 73.948 157.554 73.7644 157.506C73.7394 157.5 73.7123 157.496 73.6862 157.489C73.6362 157.477 73.5851 157.468 73.5339 157.457C73.4307 157.434 73.3285 157.408 73.2241 157.391C73.1209 157.373 73.0145 157.363 72.9091 157.35C72.8737 157.346 72.8382 157.34 72.8027 157.337C72.7808 157.335 72.76 157.33 72.738 157.328C72.5868 157.315 72.4345 157.306 72.2791 157.304C72.1862 157.302 72.0923 157.303 71.9985 157.305C71.9515 157.306 71.9036 157.309 71.8566 157.311C71.7262 157.317 71.5948 157.327 71.4623 157.342C71.407 157.348 71.3517 157.355 71.2964 157.362C71.188 157.375 71.0805 157.391 70.9731 157.41C70.8427 157.432 70.7134 157.459 70.584 157.488C70.5725 157.491 70.5621 157.492 70.5506 157.496C70.5465 157.497 70.5412 157.497 70.5371 157.498C70.3889 157.532 70.2419 157.571 70.0958 157.614C70.0332 157.633 69.9707 157.654 69.9081 157.674C69.8611 157.689 69.8142 157.704 69.7683 157.719C69.7266 157.734 69.6838 157.745 69.641 157.76C69.4825 157.816 69.325 157.878 69.1685 157.944C69.1581 157.948 69.1487 157.953 69.1382 157.957C69.1059 157.971 69.0746 157.988 69.0423 158.001C68.9171 158.057 68.792 158.112 68.6689 158.174C68.6188 158.199 68.5698 158.228 68.5207 158.253C68.4498 158.29 68.3799 158.328 68.31 158.367C68.2505 158.4 68.189 158.43 68.1296 158.464C68.0555 158.507 67.9846 158.556 67.9115 158.601C67.8229 158.656 67.7342 158.71 67.6477 158.767C67.608 158.794 67.5673 158.815 67.5287 158.842C67.463 158.887 67.4004 158.938 67.3357 158.984C67.2074 159.075 67.0812 159.167 66.9561 159.264C66.9154 159.295 66.8726 159.322 66.833 159.355C66.7944 159.385 66.76 159.423 66.7214 159.454C66.47 159.661 66.2248 159.877 65.9891 160.108C65.9828 160.114 65.9766 160.119 65.9703 160.125L64.7488 159.459C64.4776 159.312 64.197 159.181 63.906 159.068C63.9008 159.066 63.8956 159.065 63.8914 159.063C63.8486 159.046 63.8038 159.037 63.761 159.021C63.5472 158.944 63.3323 158.869 63.1091 158.811C63.0767 158.803 63.0423 158.798 63.01 158.79C62.9474 158.775 62.8848 158.764 62.8212 158.751C62.6981 158.723 62.576 158.692 62.4498 158.671C62.3194 158.649 62.1859 158.636 62.0534 158.621C62.0107 158.616 61.969 158.609 61.9251 158.604C61.9001 158.602 61.8761 158.597 61.8511 158.595C61.6643 158.578 61.4755 158.569 61.2847 158.565C61.1689 158.563 61.051 158.563 60.9342 158.566C60.8799 158.567 60.8257 158.569 60.7714 158.572C60.5493 158.582 60.3229 158.603 60.0976 158.627C60.0799 158.629 60.0632 158.632 60.0465 158.633C59.9088 158.65 59.7711 158.67 59.6334 158.694C59.5134 158.715 59.3935 158.741 59.2735 158.766C59.2276 158.776 59.1807 158.784 59.1337 158.795C59.1108 158.8 59.0879 158.803 59.0639 158.808C58.8699 158.853 58.6758 158.903 58.4839 158.96C58.4484 158.97 58.414 158.984 58.3785 158.994C58.3159 159.013 58.2534 159.035 58.1897 159.055C58.0875 159.088 57.9853 159.117 57.8841 159.154C57.7881 159.189 57.6932 159.228 57.5983 159.266C57.5242 159.294 57.4512 159.322 57.3772 159.352C57.3365 159.368 57.2948 159.383 57.253 159.4C57.0757 159.475 56.9005 159.558 56.7263 159.642C56.6845 159.662 56.6428 159.679 56.6011 159.7C56.5938 159.704 56.5854 159.707 56.5781 159.71C56.3288 159.833 56.0826 159.967 55.8386 160.108C55.8313 160.112 55.825 160.118 55.8177 160.121C55.6133 160.24 55.413 160.37 55.2127 160.501C55.1449 160.546 55.0739 160.585 55.0061 160.631C55.0041 160.632 55.002 160.634 54.9999 160.636C54.6995 160.84 54.4053 161.059 54.1164 161.289C54.0924 161.308 54.0663 161.324 54.0423 161.344C53.9036 161.455 53.769 161.574 53.6324 161.691C53.5625 161.751 53.4916 161.808 53.4217 161.87C53.1922 162.074 52.9658 162.285 52.7457 162.503C52.7436 162.505 52.7416 162.508 52.7395 162.511C52.4067 162.842 52.0886 163.194 51.7788 163.557C51.7099 163.637 51.6411 163.719 51.5733 163.8C51.2729 164.165 50.9829 164.54 50.7085 164.931C50.671 164.984 50.6366 165.041 50.599 165.095C50.3518 165.456 50.1171 165.828 49.8949 166.209C49.8459 166.291 49.7958 166.373 49.7489 166.458C49.5131 166.876 49.292 167.305 49.0886 167.743C49.073 167.777 49.0531 167.809 49.0364 167.843C48.9342 168.066 48.8361 168.291 48.7433 168.518C48.5931 168.535 48.4419 168.557 48.2927 168.582C48.1352 168.609 47.9777 168.641 47.8202 168.677C47.815 168.678 47.8097 168.679 47.8035 168.68C47.8003 168.681 47.7982 168.681 47.7951 168.682C47.6261 168.721 47.4572 168.766 47.2892 168.815C47.1797 168.848 47.0702 168.885 46.9606 168.922C46.921 168.934 46.8824 168.947 46.8428 168.959C46.8167 168.969 46.7896 168.976 46.7635 168.985C46.5789 169.051 46.3953 169.123 46.2127 169.201C46.1616 169.223 46.1105 169.249 46.0594 169.272C45.9957 169.3 45.9321 169.33 45.8675 169.36C45.785 169.398 45.7016 169.433 45.6202 169.473C45.4857 169.54 45.3543 169.616 45.2218 169.688C45.1613 169.721 45.1008 169.75 45.0413 169.785C45.0184 169.797 44.9954 169.809 44.9725 169.821C44.7242 169.965 44.4801 170.119 44.2381 170.282C44.236 170.283 44.2339 170.285 44.2319 170.286C43.9419 170.483 43.6571 170.694 43.3775 170.918C43.3734 170.921 43.3692 170.924 43.365 170.927C43.3504 170.939 43.3369 170.953 43.3223 170.965C42.978 171.243 42.6453 171.546 42.3198 171.861C42.276 171.904 42.228 171.94 42.1842 171.983C42.0622 172.104 41.9412 172.228 41.8223 172.353C41.5344 172.658 41.2579 172.979 40.9888 173.31C40.9054 173.412 40.8271 173.519 40.7458 173.623C40.5601 173.862 40.3796 174.107 40.2054 174.358C40.1209 174.479 40.0385 174.601 39.9572 174.725C39.783 174.99 39.6161 175.262 39.4544 175.539C39.3928 175.644 39.3282 175.748 39.2687 175.855C39.0559 176.239 38.8536 176.632 38.6689 177.034C38.6637 177.046 38.6575 177.056 38.6522 177.068C38.5146 177.367 38.3883 177.673 38.2673 177.981C38.2339 178.067 38.2037 178.154 38.1714 178.24C38.113 178.398 38.0514 178.553 37.9972 178.713C37.9752 178.778 37.9596 178.846 37.9387 178.911C37.8636 179.142 37.7959 179.376 37.7312 179.611C37.6999 179.724 37.6602 179.835 37.631 179.949C37.6039 180.055 37.5778 180.161 37.5528 180.267C37.4975 180.509 37.4485 180.748 37.4047 180.985C37.3869 181.08 37.3765 181.174 37.3609 181.268C37.341 181.387 37.3233 181.505 37.3066 181.622C37.2941 181.712 37.2764 181.803 37.2649 181.892C37.2357 182.132 37.2138 182.369 37.1981 182.603C37.1971 182.62 37.1961 182.637 37.195 182.654C37.1794 182.897 37.171 183.137 37.1689 183.373C37.1689 183.403 37.171 183.434 37.171 183.464C37.171 183.533 37.1741 183.601 37.1752 183.669C37.1773 183.791 37.1762 183.915 37.1825 184.036C37.1815 184.123 37.1908 184.208 37.1971 184.294ZM77.5009 159.384C77.4091 159.345 77.3162 159.309 77.2224 159.274C77.2318 159.277 77.2433 159.279 77.2526 159.284C77.2871 159.296 77.3236 159.305 77.358 159.318C77.407 159.338 77.4519 159.364 77.5009 159.384ZM43.1616 191.896C43.1428 191.884 43.122 191.873 43.1032 191.86C43.0469 191.821 42.9947 191.776 42.9405 191.735C42.904 191.708 42.8685 191.679 42.833 191.651C42.9405 191.735 43.049 191.82 43.1616 191.896Z" fill="white"/>
<path d="M37.1971 184.294C37.2023 184.365 37.2065 184.435 37.2127 184.506C37.2169 184.555 37.219 184.606 37.2242 184.655C37.244 184.853 37.2691 185.047 37.2993 185.239C37.3004 185.247 37.3025 185.253 37.3035 185.259C37.3077 185.282 37.3129 185.305 37.316 185.328C37.3421 185.486 37.3703 185.643 37.4026 185.796C37.4172 185.862 37.4349 185.926 37.4506 185.992C37.4652 186.052 37.4798 186.112 37.4954 186.173C37.509 186.226 37.5205 186.28 37.5351 186.334C37.5841 186.511 37.6383 186.686 37.6967 186.856L37.6978 186.859C37.6988 186.862 37.7009 186.867 37.702 186.87C37.7614 187.041 37.825 187.209 37.8939 187.372C37.9116 187.415 37.9335 187.456 37.9523 187.499C37.9815 187.564 38.0107 187.627 38.041 187.691C38.0733 187.758 38.1015 187.828 38.1359 187.894C38.1745 187.969 38.2183 188.039 38.259 188.112C38.2997 188.186 38.3403 188.261 38.3841 188.333C38.405 188.367 38.4228 188.405 38.4447 188.439C38.5375 188.589 38.6355 188.733 38.7388 188.873C38.7826 188.932 38.8275 188.991 38.8734 189.05C38.9255 189.115 38.9829 189.174 39.0371 189.238C39.0945 189.305 39.1508 189.373 39.2113 189.437C39.2979 189.53 39.3897 189.617 39.4815 189.704C39.541 189.76 39.5983 189.819 39.6609 189.872C39.7663 189.963 39.8768 190.048 39.9885 190.13C40.0427 190.171 40.0949 190.215 40.1502 190.254C40.3202 190.373 40.4965 190.483 40.679 190.583L43.631 192.191C43.5517 192.148 43.4798 192.096 43.4036 192.05C44.3549 192.628 45.4825 192.942 46.7489 192.912C46.9283 192.908 47.1025 192.897 47.2882 192.879C47.7983 192.828 48.4638 192.581 49.3118 192.198C50.1536 191.808 51.1529 191.277 52.2711 190.65C54.5003 189.384 57.1706 187.711 59.8326 185.993C65.1619 182.549 70.4693 178.881 72.0746 177.879C72.2811 177.749 72.4355 177.66 72.4741 177.639C75.0725 176.68 77.237 175.362 78.8069 173.611C80.3757 171.86 81.3374 169.67 81.521 167.057C81.6838 164.64 81.0423 162.592 79.8604 161.144C79.318 160.482 78.6556 159.957 77.9098 159.577C77.9598 159.602 78.0141 159.621 78.0631 159.648L75.1111 158.04C74.8889 157.919 74.6584 157.812 74.4206 157.719C74.4164 157.718 74.4122 157.717 74.4081 157.715C74.3736 157.701 74.3371 157.693 74.3027 157.681C74.1264 157.616 73.948 157.554 73.7644 157.506C73.7394 157.5 73.7123 157.496 73.6862 157.489C73.6362 157.477 73.5851 157.468 73.5339 157.457C73.4307 157.434 73.3285 157.408 73.2241 157.391C73.1209 157.373 73.0145 157.363 72.9091 157.35C72.8737 157.346 72.8382 157.34 72.8027 157.337C72.7808 157.335 72.76 157.33 72.738 157.328C72.5868 157.315 72.4345 157.306 72.2791 157.304C72.1862 157.302 72.0923 157.303 71.9985 157.305C71.9515 157.306 71.9036 157.309 71.8566 157.311C71.7262 157.317 71.5948 157.327 71.4623 157.342C71.407 157.348 71.3517 157.355 71.2964 157.362C71.188 157.375 71.0805 157.391 70.9731 157.41C70.8427 157.432 70.7134 157.459 70.584 157.488C70.5725 157.491 70.5621 157.492 70.5506 157.496C70.5465 157.497 70.5412 157.497 70.5371 157.498C70.3889 157.532 70.2419 157.571 70.0958 157.614C70.0332 157.633 69.9707 157.654 69.9081 157.674C69.8611 157.689 69.8142 157.704 69.7683 157.719C69.7266 157.734 69.6838 157.745 69.641 157.76C69.4825 157.816 69.325 157.878 69.1685 157.944C69.1581 157.948 69.1487 157.953 69.1382 157.957C69.1059 157.971 69.0746 157.988 69.0423 158.001C68.9171 158.057 68.7919 158.112 68.6689 158.174C68.6188 158.199 68.5698 158.228 68.5207 158.253C68.4498 158.29 68.3799 158.328 68.31 158.367C68.2505 158.4 68.189 158.43 68.1296 158.464C68.0555 158.507 67.9846 158.556 67.9115 158.601C67.8229 158.656 67.7342 158.71 67.6477 158.767C67.608 158.794 67.5673 158.815 67.5287 158.842C67.463 158.887 67.4004 158.938 67.3357 158.984C67.2074 159.075 67.0812 159.167 66.9561 159.264C66.9154 159.295 66.8726 159.322 66.833 159.355C66.7944 159.385 66.76 159.423 66.7214 159.454C66.47 159.661 66.2248 159.877 65.9891 160.108C65.9828 160.114 65.9766 160.119 65.9703 160.125L64.7488 159.459C64.4776 159.312 64.197 159.181 63.906 159.068C63.9008 159.066 63.8956 159.065 63.8914 159.063C63.8486 159.046 63.8038 159.037 63.761 159.021C63.5472 158.944 63.3323 158.869 63.1091 158.811C63.0767 158.803 63.0423 158.798 63.01 158.79C62.9474 158.775 62.8848 158.764 62.8212 158.751C62.6981 158.723 62.576 158.692 62.4498 158.671C62.3194 158.649 62.1859 158.636 62.0534 158.621C62.0107 158.616 61.969 158.609 61.9251 158.604C61.9001 158.602 61.8761 158.597 61.8511 158.595C61.6643 158.578 61.4755 158.569 61.2847 158.565C61.1689 158.563 61.051 158.563 60.9342 158.566C60.8799 158.567 60.8257 158.569 60.7714 158.572C60.5493 158.582 60.3229 158.603 60.0976 158.627C60.0799 158.629 60.0632 158.632 60.0465 158.633C59.9088 158.65 59.7711 158.67 59.6334 158.694C59.5134 158.715 59.3935 158.741 59.2735 158.766C59.2276 158.776 59.1807 158.784 59.1337 158.795C59.1108 158.8 59.0879 158.803 59.0639 158.808C58.8699 158.853 58.6758 158.903 58.4839 158.96C58.4484 158.97 58.414 158.984 58.3785 158.994C58.3159 159.013 58.2534 159.035 58.1897 159.055C58.0875 159.088 57.9853 159.117 57.8841 159.154C57.7881 159.189 57.6932 159.228 57.5983 159.266C57.5242 159.294 57.4512 159.322 57.3772 159.352C57.3365 159.368 57.2948 159.383 57.253 159.4C57.0757 159.475 56.9005 159.558 56.7263 159.642C56.6845 159.662 56.6428 159.679 56.6011 159.7C56.5938 159.704 56.5854 159.707 56.5781 159.71C56.3288 159.833 56.0826 159.967 55.8386 160.108C55.8313 160.112 55.825 160.118 55.8177 160.121C55.6133 160.24 55.413 160.37 55.2127 160.501C55.1449 160.546 55.074 160.585 55.0061 160.631C55.0041 160.632 55.002 160.634 54.9999 160.636C54.6995 160.84 54.4053 161.059 54.1164 161.289C54.0924 161.308 54.0663 161.324 54.0423 161.344C53.9036 161.455 53.769 161.574 53.6324 161.691C53.5625 161.751 53.4916 161.808 53.4217 161.87C53.1922 162.074 52.9658 162.285 52.7457 162.503C52.7436 162.505 52.7416 162.508 52.7395 162.511C52.4067 162.842 52.0886 163.194 51.7788 163.557C51.7099 163.637 51.6411 163.719 51.5733 163.8C51.2729 164.165 50.9829 164.54 50.7085 164.931C50.671 164.984 50.6366 165.041 50.599 165.095C50.3518 165.456 50.1171 165.828 49.8949 166.209C49.8459 166.291 49.7958 166.373 49.7489 166.458C49.5131 166.876 49.292 167.305 49.0886 167.743C49.073 167.777 49.0531 167.809 49.0364 167.843C48.9342 168.066 48.8361 168.291 48.7433 168.518C48.5931 168.535 48.4419 168.557 48.2927 168.582C48.1352 168.609 47.9777 168.641 47.8202 168.677C47.815 168.678 47.8097 168.679 47.8035 168.68C47.8003 168.681 47.7982 168.681 47.7951 168.682C47.6261 168.721 47.4572 168.766 47.2892 168.815C47.1797 168.848 47.0702 168.885 46.9606 168.922C46.921 168.934 46.8824 168.947 46.8428 168.959C46.8167 168.969 46.7896 168.976 46.7635 168.985C46.5789 169.051 46.3953 169.123 46.2127 169.201C46.1616 169.223 46.1105 169.249 46.0594 169.272C45.9957 169.3 45.9321 169.33 45.8675 169.36C45.785 169.398 45.7016 169.433 45.6202 169.473C45.4857 169.54 45.3543 169.616 45.2218 169.688C45.1613 169.721 45.1008 169.75 45.0413 169.785C45.0184 169.797 44.9954 169.809 44.9725 169.821C44.7242 169.965 44.4801 170.119 44.2381 170.282C44.236 170.283 44.2339 170.285 44.2319 170.286C43.9419 170.483 43.6571 170.694 43.3775 170.918C43.3734 170.921 43.3692 170.924 43.365 170.927C43.3504 170.939 43.3369 170.953 43.3223 170.965C42.978 171.243 42.6453 171.546 42.3198 171.861C42.276 171.904 42.228 171.94 42.1842 171.983C42.0622 172.104 41.9412 172.228 41.8223 172.353C41.5344 172.658 41.2579 172.979 40.9888 173.31C40.9054 173.412 40.8271 173.519 40.7458 173.623C40.5601 173.862 40.3796 174.107 40.2054 174.358C40.1209 174.479 40.0385 174.601 39.9572 174.725C39.783 174.99 39.6161 175.262 39.4544 175.539C39.3928 175.644 39.3282 175.748 39.2687 175.855C39.0559 176.239 38.8536 176.632 38.6689 177.034C38.6637 177.046 38.6575 177.056 38.6522 177.068C38.5146 177.367 38.3883 177.673 38.2673 177.981C38.2339 178.067 38.2037 178.154 38.1714 178.24C38.113 178.398 38.0514 178.553 37.9972 178.713C37.9752 178.778 37.9596 178.846 37.9387 178.911C37.8636 179.142 37.7959 179.376 37.7312 179.611C37.6999 179.724 37.6602 179.835 37.631 179.949C37.6039 180.055 37.5778 180.161 37.5528 180.267C37.4975 180.509 37.4485 180.748 37.4047 180.985C37.3869 181.08 37.3765 181.174 37.3609 181.268C37.341 181.387 37.3233 181.505 37.3066 181.622C37.2941 181.712 37.2764 181.803 37.2649 181.892C37.2357 182.132 37.2138 182.369 37.1981 182.603C37.1971 182.62 37.1961 182.637 37.195 182.654C37.1794 182.897 37.171 183.137 37.1689 183.373C37.1689 183.403 37.171 183.434 37.171 183.464C37.171 183.533 37.1741 183.601 37.1752 183.669C37.1773 183.791 37.1762 183.915 37.1825 184.036C37.1815 184.123 37.1908 184.208 37.1971 184.294ZM77.5009 159.384C77.4091 159.345 77.3162 159.309 77.2224 159.274C77.2318 159.277 77.2433 159.279 77.2526 159.284C77.2871 159.296 77.3236 159.305 77.358 159.318C77.407 159.338 77.4519 159.364 77.5009 159.384ZM43.1616 191.896C43.1428 191.884 43.122 191.873 43.1032 191.86C43.0469 191.821 42.9947 191.776 42.9405 191.735C42.904 191.708 42.8685 191.679 42.833 191.651C42.9405 191.735 43.049 191.82 43.1616 191.896Z" stroke="#C6D7FF" stroke-width="0.766394" stroke-miterlimit="10" stroke-linecap="round" stroke-linejoin="round"/>
<path d="M75.3982 160.08C75.1875 160.086 74.9768 160.103 74.7588 160.128C72.8707 160.365 71.0255 161.424 69.5495 162.99C69.4764 163.067 69.3847 163.108 69.2939 163.11C69.2188 163.112 69.1437 163.087 69.0822 163.035C67.8221 161.918 66.1959 161.297 64.3328 161.342C64.0606 161.348 63.7873 161.368 63.513 161.408C59.1267 161.942 54.7185 165.937 52.7262 171.035C52.6677 171.175 52.5363 171.278 52.4007 171.287C52.2828 171.296 52.19 171.292 52.1159 171.301C49.9108 171.558 47.6284 172.892 45.7321 174.895C43.8367 176.892 42.3357 179.559 41.667 182.424C41.4918 183.185 41.3812 183.927 41.3332 184.634C41.1747 186.991 41.7067 189.017 42.7488 190.428C43.7908 191.841 45.343 192.661 47.2988 192.613C47.4595 192.609 47.6212 192.599 47.7891 192.582C48.1677 192.553 48.877 192.299 49.7772 191.875C52.9358 190.388 58.4883 186.846 63.3252 183.644C65.7442 182.043 67.9963 180.526 69.6913 179.39C70.5394 178.823 71.2445 178.35 71.7681 178.009C72.0331 177.837 72.2532 177.694 72.4201 177.597C72.5943 177.487 72.6913 177.425 72.805 177.384C75.321 176.452 77.377 175.19 78.8269 173.567C80.2831 171.937 81.1572 169.958 81.3356 167.494C81.4858 165.262 80.8933 163.396 79.8262 162.09C78.7497 160.785 77.2059 160.044 75.3982 160.08Z" fill="#407BFF"/>
<path d="M41.667 182.424C42.3357 179.559 43.8367 176.892 45.7321 174.895C47.6284 172.892 49.9108 171.558 52.1159 171.301C52.19 171.292 52.2828 171.296 52.4007 171.287C52.5363 171.278 52.6677 171.175 52.7262 171.035C54.7185 165.937 59.1267 161.942 63.513 161.408C63.7873 161.368 64.0606 161.348 64.3329 161.342C66.1958 161.297 67.8221 161.918 69.0822 163.035C69.1437 163.087 69.2188 163.112 69.2939 163.11C69.3847 163.108 69.4764 163.067 69.5495 162.99C71.0255 161.424 72.8707 160.365 74.7588 160.128C74.9768 160.103 75.1875 160.086 75.3982 160.08C77.2059 160.044 78.7497 160.785 79.8262 162.09C80.8933 163.396 81.4858 165.262 81.3356 167.494C81.1572 169.958 80.2831 171.937 78.8269 173.567C77.377 175.19 75.321 176.452 72.805 177.384C72.6913 177.425 72.5943 177.487 72.4201 177.597C72.2532 177.694 72.0331 177.837 71.7681 178.009C71.2445 178.35 70.5394 178.823 69.6913 179.39C67.9963 180.526 65.7442 182.043 63.3252 183.644C58.4883 186.846 52.9358 190.388 49.7772 191.875C48.877 192.299 48.1677 192.553 47.7891 192.582C47.6212 192.599 47.4595 192.609 47.2988 192.613C45.343 192.661 43.7908 191.841 42.7488 190.428C41.7067 189.017 41.1747 186.991 41.3332 184.634C41.3812 183.927 41.4918 183.185 41.667 182.424ZM41.667 182.424L41.6358 182.447" stroke="#C6D7FF" stroke-width="0.766394" stroke-miterlimit="10" stroke-linecap="round" stroke-linejoin="round"/>
<path d="M216.428 144.438L114.229 209.559V211.972L227.802 278.299L329.999 218.519V210.594L216.428 144.438Z" fill="#F5F5F5"/>
<path d="M227.737 272.349V268.037L116.209 202.932L116.209 207.074L227.737 272.349Z" fill="#1E282D"/>
<path d="M227.737 268.038L328.095 203.95L328.095 213.351L227.737 272.183L227.737 268.038Z" fill="#263238"/>
<path d="M116.209 202.932L216.567 138.845L328.095 203.95L227.737 268.038L116.209 202.932Z" fill="white"/>
<path d="M116.209 202.932L216.567 138.845L328.095 203.95L227.737 268.038L116.209 202.932Z" fill="#E3EBFF"/>
<path d="M171.096 175.333L175.986 178.15C176.227 178.288 176.522 178.286 176.76 178.144L181.659 175.225C181.914 175.073 181.916 174.703 181.662 174.549L176.727 171.545C176.51 171.414 176.24 171.414 176.025 171.546L171.086 174.576C170.802 174.75 170.807 175.166 171.096 175.333Z" fill="#407BFF"/>
<path d="M205.621 154.987L210.511 157.804C210.752 157.942 211.047 157.94 211.286 157.799L216.184 154.879C216.439 154.727 216.441 154.357 216.187 154.203L211.252 151.199C211.037 151.068 210.766 151.068 210.55 151.2L205.612 154.23C205.326 154.404 205.332 154.82 205.621 154.987Z" fill="#407BFF"/>
<path d="M213.519 150.409L218.409 153.226C218.649 153.364 218.945 153.362 219.183 153.22L221.214 152.062C221.469 151.91 221.471 151.54 221.217 151.386L216.282 148.382C216.067 148.251 215.796 148.251 215.58 148.383L213.508 149.652C213.223 149.826 213.229 150.242 213.519 150.409Z" fill="#407BFF"/>
<path d="M220.966 154.689L225.856 157.506C226.096 157.644 226.392 157.642 226.63 157.501L228.661 156.342C228.916 156.19 228.918 155.82 228.664 155.666L223.729 152.662C223.514 152.531 223.242 152.531 223.027 152.663L220.955 153.933C220.67 154.107 220.677 154.522 220.966 154.689Z" fill="#407BFF"/>
<path d="M228.412 158.972L233.302 161.788C233.542 161.927 233.839 161.925 234.076 161.783L236.107 160.625C236.363 160.472 236.365 160.102 236.11 159.948L231.175 156.944C230.96 156.813 230.689 156.813 230.473 156.945L228.401 158.215C228.117 158.388 228.123 158.805 228.412 158.972Z" fill="#407BFF"/>
<path d="M235.859 163.251L240.749 166.068C240.989 166.206 241.286 166.204 241.523 166.063L243.554 164.904C243.809 164.752 243.811 164.382 243.557 164.228L238.622 161.224C238.405 161.093 238.135 161.093 237.92 161.225L235.848 162.495C235.563 162.668 235.568 163.084 235.859 163.251Z" fill="#407BFF"/>
<path d="M243.305 167.533L248.195 170.35C248.436 170.488 248.732 170.486 248.97 170.344L251.001 169.186C251.256 169.034 251.258 168.664 251.004 168.51L246.068 165.506C245.852 165.375 245.582 165.375 245.367 165.507L243.295 166.776C243.01 166.95 243.015 167.366 243.305 167.533Z" fill="#407BFF"/>
<path d="M289.225 193.897L294.115 196.714C294.355 196.852 294.652 196.85 294.889 196.709L296.92 195.55C297.176 195.398 297.178 195.028 296.923 194.874L291.988 191.87C291.773 191.739 291.502 191.739 291.286 191.871L289.214 193.141C288.93 193.314 288.936 193.73 289.225 193.897Z" fill="#407BFF"/>
<path d="M296.671 198.178L301.561 200.994C301.801 201.133 302.097 201.131 302.335 200.989L304.366 199.831C304.621 199.678 304.623 199.309 304.369 199.154L299.434 196.15C299.219 196.019 298.948 196.019 298.732 196.151L296.66 197.421C296.376 197.595 296.382 198.012 296.671 198.178Z" fill="#407BFF"/>
<path d="M304.118 202.459L309.008 205.276C309.248 205.414 309.544 205.412 309.782 205.271L311.813 204.112C312.068 203.96 312.071 203.59 311.816 203.436L306.881 200.432C306.665 200.301 306.395 200.301 306.179 200.433L304.107 201.703C303.822 201.876 303.828 202.292 304.118 202.459Z" fill="#407BFF"/>
<path d="M179.333 170.472L191.563 177.647C191.804 177.786 192.099 177.783 192.338 177.642L197.236 174.723C197.492 174.57 197.494 174.201 197.239 174.046L184.963 166.683C184.747 166.552 184.477 166.552 184.262 166.684L179.323 169.714C179.037 169.888 179.044 170.305 179.333 170.472Z" fill="#407BFF"/>
<path d="M187.964 165.555L198.502 171.714C198.743 171.852 199.038 171.85 199.276 171.709L204.175 168.789C204.43 168.637 204.432 168.267 204.178 168.113L193.594 161.767C193.379 161.636 193.108 161.636 192.893 161.768L187.954 164.798C187.668 164.972 187.674 165.388 187.964 165.555Z" fill="#407BFF"/>
<path d="M280.834 210.611L291.373 216.769C291.613 216.908 291.909 216.906 292.147 216.764L297.045 213.845C297.301 213.693 297.303 213.323 297.049 213.169L286.465 206.823C286.248 206.692 285.978 206.692 285.763 206.824L280.825 209.854C280.539 210.027 280.544 210.444 280.834 210.611Z" fill="#407BFF"/>
<path d="M196.426 160.553L205.102 165.609C205.343 165.748 205.638 165.745 205.876 165.604L210.775 162.685C211.03 162.532 211.032 162.162 210.778 162.008L202.055 156.764C201.84 156.633 201.569 156.633 201.354 156.765L196.415 159.795C196.13 159.969 196.137 160.386 196.426 160.553Z" fill="#407BFF"/>
<path d="M178.942 179.929L183.832 182.746C184.073 182.884 184.369 182.882 184.606 182.741L189.505 179.821C189.76 179.669 189.762 179.299 189.508 179.145L184.573 176.141C184.357 176.01 184.086 176.01 183.871 176.142L178.933 179.172C178.647 179.347 178.653 179.762 178.942 179.929Z" fill="#407BFF"/>
<path d="M186.788 184.527L191.678 187.344C191.919 187.482 192.214 187.48 192.453 187.338L197.351 184.419C197.606 184.267 197.608 183.897 197.354 183.743L192.419 180.739C192.204 180.608 191.932 180.608 191.717 180.74L186.779 183.77C186.493 183.943 186.498 184.36 186.788 184.527Z" fill="#407BFF"/>
<path d="M195.165 179.779L200.055 182.596C200.296 182.734 200.591 182.732 200.83 182.591L205.728 179.671C205.983 179.519 205.985 179.149 205.731 178.995L200.796 175.991C200.581 175.86 200.309 175.86 200.094 175.992L195.156 179.022C194.87 179.197 194.876 179.613 195.165 179.779Z" fill="#407BFF"/>
<path d="M203.373 184.527L208.263 187.344C208.504 187.482 208.799 187.48 209.038 187.338L213.936 184.419C214.191 184.267 214.193 183.897 213.939 183.743L209.004 180.739C208.788 180.608 208.517 180.608 208.302 180.74L203.364 183.77C203.078 183.943 203.084 184.36 203.373 184.527Z" fill="#407BFF"/>
<path d="M211.355 189.388L216.245 192.204C216.486 192.343 216.781 192.341 217.02 192.199L221.918 189.28C222.173 189.128 222.175 188.758 221.921 188.603L216.986 185.6C216.771 185.469 216.499 185.469 216.284 185.601L211.346 188.631C211.061 188.804 211.066 189.221 211.355 189.388Z" fill="#407BFF"/>
<path d="M219.508 194.248L224.398 197.064C224.638 197.203 224.933 197.201 225.172 197.058L230.07 194.139C230.326 193.987 230.328 193.617 230.073 193.462L225.138 190.459C224.923 190.327 224.652 190.327 224.437 190.46L219.498 193.49C219.212 193.664 219.218 194.081 219.508 194.248Z" fill="#407BFF"/>
<path d="M227.773 199.052L232.663 201.868C232.903 202.007 233.198 202.005 233.437 201.863L238.335 198.944C238.591 198.792 238.593 198.422 238.338 198.267L233.403 195.264C233.188 195.133 232.917 195.133 232.702 195.265L227.763 198.295C227.477 198.468 227.482 198.885 227.773 199.052Z" fill="#407BFF"/>
<path d="M235.811 203.685L240.701 206.502C240.941 206.641 241.237 206.639 241.475 206.497L246.373 203.578C246.629 203.425 246.631 203.056 246.377 202.901L241.441 199.897C241.226 199.766 240.955 199.766 240.74 199.899L235.801 202.929C235.515 203.102 235.522 203.518 235.811 203.685Z" fill="#407BFF"/>
<path d="M244.414 208.659L249.304 211.476C249.545 211.614 249.841 211.612 250.078 211.471L254.977 208.551C255.232 208.399 255.234 208.029 254.98 207.875L250.045 204.871C249.83 204.74 249.558 204.74 249.343 204.872L244.405 207.902C244.119 208.077 244.124 208.493 244.414 208.659Z" fill="#407BFF"/>
<path d="M201.878 173.789L206.768 176.606C207.009 176.744 207.304 176.742 207.542 176.6L212.441 173.681C212.696 173.529 212.698 173.159 212.444 173.005L207.509 170.001C207.292 169.87 207.022 169.87 206.807 170.002L201.869 173.032C201.583 173.207 201.589 173.623 201.878 173.789Z" fill="#407BFF"/>
<path d="M210.086 178.537L214.976 181.354C215.217 181.492 215.512 181.49 215.75 181.348L220.649 178.429C220.904 178.277 220.906 177.907 220.652 177.753L215.717 174.749C215.5 174.618 215.23 174.618 215.015 174.75L210.077 177.78C209.791 177.954 209.797 178.37 210.086 178.537Z" fill="#407BFF"/>
<path d="M218.069 183.397L222.959 186.214C223.199 186.352 223.496 186.35 223.733 186.208L228.632 183.289C228.887 183.137 228.889 182.767 228.635 182.613L223.7 179.609C223.484 179.478 223.213 179.478 222.998 179.61L218.059 182.64C217.774 182.814 217.779 183.23 218.069 183.397Z" fill="#407BFF"/>
<path d="M226.22 188.257L231.11 191.074C231.351 191.212 231.646 191.21 231.885 191.069L236.783 188.149C237.038 187.997 237.041 187.627 236.786 187.473L231.851 184.469C231.636 184.338 231.365 184.338 231.149 184.47L226.211 187.501C225.925 187.675 225.931 188.09 226.22 188.257Z" fill="#407BFF"/>
<path d="M234.485 193.061L239.375 195.877C239.615 196.016 239.911 196.014 240.149 195.872L245.048 192.953C245.303 192.8 245.305 192.431 245.051 192.276L240.116 189.272C239.899 189.141 239.629 189.141 239.414 189.274L234.475 192.304C234.19 192.477 234.195 192.894 234.485 193.061Z" fill="#407BFF"/>
<path d="M242.523 197.696L247.413 200.512C247.654 200.651 247.949 200.649 248.187 200.507L253.086 197.588C253.341 197.436 253.343 197.066 253.089 196.912L248.154 193.908C247.937 193.777 247.667 193.777 247.452 193.909L242.514 196.939C242.228 197.112 242.234 197.529 242.523 197.696Z" fill="#407BFF"/>
<path d="M251.127 202.668L256.017 205.485C256.258 205.623 256.554 205.621 256.791 205.478L261.69 202.559C261.945 202.407 261.947 202.037 261.693 201.883L256.758 198.879C256.542 198.748 256.271 198.748 256.056 198.88L251.118 201.91C250.832 202.086 250.837 202.502 251.127 202.668Z" fill="#407BFF"/>
<path d="M208.817 167.713L213.707 170.53C213.948 170.668 214.243 170.666 214.481 170.525L219.38 167.606C219.635 167.453 219.637 167.083 219.383 166.929L214.448 163.925C214.232 163.794 213.961 163.794 213.746 163.926L208.808 166.957C208.522 167.131 208.528 167.547 208.817 167.713Z" fill="#407BFF"/>
<path d="M217.025 172.461L221.915 175.278C222.156 175.417 222.452 175.414 222.689 175.273L227.588 172.354C227.843 172.201 227.845 171.831 227.591 171.677L222.656 168.673C222.44 168.542 222.169 168.542 221.954 168.674L217.016 171.705C216.73 171.878 216.736 172.294 217.025 172.461Z" fill="#407BFF"/>
<path d="M225.007 177.321L229.897 180.137C230.138 180.276 230.434 180.274 230.671 180.132L235.57 177.213C235.825 177.061 235.827 176.691 235.573 176.537L230.638 173.533C230.422 173.402 230.151 173.402 229.936 173.534L224.998 176.564C224.713 176.738 224.718 177.155 225.007 177.321Z" fill="#407BFF"/>
<path d="M233.159 182.181L238.049 184.998C238.29 185.136 238.585 185.134 238.824 184.993L243.722 182.073C243.977 181.921 243.98 181.551 243.725 181.397L238.79 178.393C238.575 178.262 238.304 178.262 238.088 178.394L233.15 181.424C232.864 181.598 232.87 182.014 233.159 182.181Z" fill="#407BFF"/>
<path d="M241.424 186.985L246.314 189.802C246.555 189.94 246.85 189.938 247.089 189.796L251.987 186.877C252.242 186.725 252.245 186.355 251.99 186.201L247.055 183.197C246.84 183.066 246.569 183.066 246.353 183.198L241.415 186.228C241.129 186.401 241.134 186.818 241.424 186.985Z" fill="#407BFF"/>
<path d="M249.463 191.62L254.353 194.436C254.593 194.575 254.889 194.573 255.127 194.431L260.025 191.512C260.281 191.36 260.283 190.99 260.029 190.835L255.093 187.831C254.877 187.7 254.607 187.7 254.392 187.832L249.453 190.862C249.167 191.036 249.174 191.453 249.463 191.62Z" fill="#407BFF"/>
<path d="M258.066 196.593L262.956 199.41C263.197 199.548 263.492 199.546 263.73 199.405L268.629 196.485C268.884 196.333 268.886 195.963 268.632 195.809L263.697 192.805C263.48 192.674 263.21 192.674 262.995 192.806L258.057 195.836C257.771 196.011 257.776 196.426 258.066 196.593Z" fill="#407BFF"/>
<path d="M265.568 201.397L270.458 204.213C270.699 204.352 270.994 204.35 271.232 204.207L276.131 201.288C276.386 201.135 276.388 200.766 276.134 200.611L271.199 197.607C270.983 197.476 270.712 197.476 270.497 197.608L265.559 200.639C265.273 200.813 265.279 201.23 265.568 201.397Z" fill="#407BFF"/>
<path d="M273.452 206.074L278.342 208.89C278.583 209.029 278.878 209.027 279.117 208.885L284.015 205.966C284.27 205.814 284.273 205.444 284.018 205.289L279.083 202.286C278.868 202.155 278.597 202.155 278.381 202.287L273.443 205.317C273.157 205.49 273.163 205.907 273.452 206.074Z" fill="#407BFF"/>
<path d="M213.866 159.717L218.756 162.533C218.996 162.672 219.292 162.67 219.53 162.528L224.429 159.609C224.684 159.457 224.686 159.087 224.432 158.933L219.496 155.929C219.281 155.798 219.01 155.798 218.795 155.93L213.856 158.96C213.571 159.133 213.577 159.55 213.866 159.717Z" fill="#407BFF"/>
<path d="M222.074 164.465L226.964 167.281C227.204 167.42 227.5 167.418 227.738 167.276L232.637 164.357C232.892 164.205 232.894 163.835 232.64 163.681L227.705 160.677C227.489 160.546 227.218 160.546 227.003 160.678L222.064 163.708C221.779 163.881 221.785 164.298 222.074 164.465Z" fill="#407BFF"/>
<path d="M230.056 169.324L234.946 172.14C235.186 172.279 235.482 172.277 235.72 172.135L240.619 169.216C240.874 169.064 240.876 168.694 240.622 168.539L235.686 165.536C235.471 165.405 235.2 165.405 234.985 165.537L230.046 168.567C229.76 168.741 229.767 169.157 230.056 169.324Z" fill="#407BFF"/>
<path d="M238.208 174.185L243.098 177.001C243.339 177.14 243.634 177.138 243.872 176.995L248.771 174.076C249.026 173.924 249.028 173.554 248.774 173.399L243.839 170.396C243.623 170.264 243.352 170.264 243.137 170.397L238.199 173.427C237.913 173.601 237.918 174.018 238.208 174.185Z" fill="#407BFF"/>
<path d="M246.472 178.988L251.362 181.805C251.602 181.943 251.899 181.941 252.136 181.8L257.035 178.88C257.29 178.728 257.292 178.358 257.038 178.204L252.103 175.2C251.887 175.069 251.616 175.069 251.401 175.201L246.462 178.231C246.178 178.405 246.183 178.821 246.472 178.988Z" fill="#407BFF"/>
<path d="M254.511 183.623L259.401 186.44C259.642 186.579 259.937 186.577 260.176 186.435L265.074 183.516C265.329 183.363 265.332 182.994 265.077 182.839L260.142 179.835C259.926 179.704 259.656 179.704 259.44 179.837L254.502 182.867C254.216 183.04 254.222 183.456 254.511 183.623Z" fill="#407BFF"/>
<path d="M263.114 188.596L268.004 191.413C268.244 191.551 268.54 191.549 268.778 191.408L273.677 188.488C273.932 188.336 273.934 187.966 273.68 187.812L268.745 184.808C268.528 184.677 268.258 184.677 268.043 184.809L263.104 187.839C262.819 188.013 262.825 188.429 263.114 188.596Z" fill="#407BFF"/>
<path d="M271.971 193.399L276.861 196.216C277.101 196.354 277.397 196.352 277.635 196.21L282.534 193.291C282.789 193.139 282.791 192.769 282.537 192.615L277.601 189.611C277.386 189.48 277.115 189.48 276.9 189.612L271.961 192.642C271.675 192.815 271.682 193.232 271.971 193.399Z" fill="#407BFF"/>
<path d="M280.179 198.147L285.069 200.964C285.31 201.103 285.605 201.1 285.843 200.959L290.742 198.04C290.997 197.887 290.999 197.517 290.745 197.363L285.81 194.359C285.594 194.228 285.323 194.228 285.108 194.36L280.169 197.391C279.885 197.564 279.89 197.98 280.179 198.147Z" fill="#407BFF"/>
<path d="M288.162 203.007L293.052 205.823C293.293 205.962 293.589 205.96 293.827 205.818L298.725 202.899C298.98 202.747 298.982 202.377 298.728 202.223L293.793 199.219C293.578 199.088 293.306 199.088 293.091 199.22L288.153 202.25C287.867 202.424 287.872 202.84 288.162 203.007Z" fill="#407BFF"/>
<path d="M296.313 207.868L301.203 210.684C301.444 210.823 301.739 210.821 301.978 210.678L306.876 207.759C307.131 207.607 307.133 207.237 306.879 207.082L301.944 204.079C301.727 203.948 301.457 203.948 301.242 204.08L296.304 207.11C296.018 207.284 296.024 207.701 296.313 207.868Z" fill="#407BFF"/>
<path d="M252.875 213.688L257.765 216.505C258.006 216.644 258.302 216.641 258.54 216.5L263.438 213.581C263.693 213.428 263.695 213.059 263.441 212.904L258.506 209.9C258.291 209.769 258.02 209.769 257.804 209.901L252.866 212.932C252.581 213.105 252.586 213.521 252.875 213.688Z" fill="#407BFF"/>
<path d="M194.633 189.124L200.643 192.567C200.883 192.705 201.179 192.703 201.417 192.562L206.316 189.642C206.571 189.49 206.573 189.12 206.319 188.966L200.264 185.336C200.049 185.205 199.778 185.205 199.562 185.338L194.624 188.368C194.338 188.541 194.344 188.957 194.633 189.124Z" fill="#407BFF"/>
<path d="M226.658 208.057L231.548 210.874C231.789 211.012 232.085 211.01 232.323 210.869L237.221 207.949C237.476 207.797 237.478 207.427 237.224 207.273L232.289 204.269C232.074 204.138 231.803 204.138 231.587 204.27L226.649 207.3C226.363 207.474 226.368 207.89 226.658 208.057Z" fill="#407BFF"/>
<path d="M244.792 218.585L249.682 221.402C249.922 221.541 250.218 221.538 250.456 221.397L255.354 218.478C255.61 218.325 255.612 217.955 255.358 217.801L250.422 214.797C250.207 214.666 249.936 214.666 249.721 214.798L244.782 217.829C244.496 218.003 244.503 218.419 244.792 218.585Z" fill="#263238"/>
<path d="M252.638 223.184L257.528 226C257.768 226.139 258.064 226.137 258.302 225.995L263.201 223.076C263.456 222.924 263.458 222.554 263.204 222.399L258.268 219.396C258.053 219.264 257.782 219.264 257.567 219.397L252.628 222.427C252.342 222.6 252.349 223.017 252.638 223.184Z" fill="#263238"/>
<path d="M260.927 218.512L265.817 221.329C266.058 221.467 266.354 221.465 266.591 221.323L271.49 218.403C271.745 218.251 271.747 217.881 271.493 217.727L266.558 214.723C266.342 214.592 266.071 214.592 265.856 214.724L260.918 217.754C260.633 217.929 260.638 218.345 260.927 218.512Z" fill="#263238"/>
<path d="M260.483 227.782L265.373 230.598C265.613 230.737 265.909 230.735 266.147 230.593L271.045 227.674C271.301 227.522 271.303 227.152 271.049 226.997L266.113 223.994C265.898 223.863 265.627 223.863 265.412 223.995L260.473 227.025C260.188 227.198 260.194 227.615 260.483 227.782Z" fill="#263238"/>
<path d="M234.503 212.654L240.513 216.097C240.753 216.235 241.049 216.233 241.287 216.091L246.185 213.172C246.441 213.02 246.443 212.65 246.189 212.496L240.134 208.866C239.919 208.735 239.647 208.735 239.432 208.867L234.494 211.897C234.209 212.071 234.214 212.487 234.503 212.654Z" fill="#407BFF"/>
<path d="M204.157 194.71L222.65 205.518C222.891 205.657 223.186 205.655 223.425 205.513L228.323 202.594C228.578 202.442 228.58 202.072 228.326 201.918L209.788 190.922C209.571 190.791 209.301 190.791 209.086 190.923L204.147 193.954C203.862 194.127 203.868 194.543 204.157 194.71Z" fill="#407BFF"/>
<path d="M259.565 207.852L282.11 221.709C282.35 221.848 282.647 221.846 282.884 221.704L287.782 218.785C288.038 218.633 288.04 218.263 287.786 218.108L265.196 204.064C264.981 203.933 264.709 203.933 264.494 204.065L259.556 207.095C259.27 207.269 259.276 207.685 259.565 207.852Z" fill="#407BFF"/>
<path d="M156.117 216.722C166.416 222.734 193.476 239.019 202.261 244.311C203.989 245.352 206.142 245.368 207.886 244.354L235.115 228.533C236.809 227.548 236.817 225.1 235.128 224.105L187.524 196.089C185.816 195.083 183.695 195.102 182.005 196.137L156.068 212.023C154.304 213.104 154.33 215.679 156.117 216.722Z" fill="white"/>
<path d="M328.095 203.95V102.222L216.567 36.269V138.845L328.095 203.95Z" fill="#3362CC"/>
<path d="M216.567 36.2694L218.486 35.3657L330.521 100.81L328.095 102.223L216.567 36.2694Z" fill="#263238"/>
<path d="M330.521 100.81V202.706L328.095 203.95V102.222L330.521 100.81Z" fill="#1E282D"/>
<path d="M330.521 100.81V202.706L328.095 203.95V102.222L330.521 100.81Z" fill="#1E282D"/>
<path d="M323.865 103.654V193.777L220.065 132.495V42.3726L323.865 103.654Z" fill="#E3EBFF"/>
<path d="M250.415 117.132V111.539C250.415 110.817 251.197 110.368 251.818 110.734L296.9 137.277C297.599 137.688 298.027 138.438 298.027 139.249V143.988C298.027 144.719 297.24 145.178 296.606 144.817L251.6 119.175C250.867 118.756 250.415 117.977 250.415 117.132Z" fill="#C6D7FF"/>
<path d="M238.738 101.374V93.2358L245.591 97.2204V105.19L238.738 101.374Z" fill="#C6D7FF"/>
<path d="M247.876 106.462V98.3232L254.731 102.308V110.276L247.876 106.462Z" fill="#C6D7FF"/>
<path d="M257.015 111.547V103.409L263.869 107.393V115.363L257.015 111.547Z" fill="#C6D7FF"/>
<path d="M266.154 116.634V108.496L273.008 112.48V120.449L266.154 116.634Z" fill="#C6D7FF"/>
<path d="M305.812 222.6V220.114L316.869 213.812L316.756 216.412L305.812 222.6Z" fill="#407BFF"/>
</svg>
