<svg width="12" height="12" viewBox="0 0 12 12" fill="none" xmlns="http://www.w3.org/2000/svg">
<path d="M4.5 2.00625C4.5 2.08909 4.56716 2.15625 4.65 2.15625H9.65625V8.6625C9.65625 8.74534 9.72341 8.8125 9.80625 8.8125H10.4438C10.5266 8.8125 10.5938 8.74534 10.5938 8.6625V1.59375C10.5938 1.38664 10.4259 1.21875 10.2188 1.21875H4.65C4.56716 1.21875 4.5 1.28591 4.5 1.36875V2.00625ZM2.4375 4.125V9.75H7.6875V4.125H2.4375ZM1.875 10.6875C1.66789 10.6875 1.5 10.5196 1.5 10.3125V3.5625C1.5 3.35539 1.66789 3.1875 1.875 3.1875H8.25C8.45711 3.1875 8.625 3.35539 8.625 3.5625V10.3125C8.625 10.5196 8.45711 10.6875 8.25 10.6875H1.875Z" fill="#ADADAD"/>
</svg>
