<svg width="22" height="22" viewBox="0 0 22 22" fill="none" xmlns="http://www.w3.org/2000/svg">
<path d="M13.75 3.95303C13.75 4.10491 13.6269 4.22803 13.475 4.22803H8.525C8.37312 4.22803 8.25 4.10491 8.25 3.95303V2.78428C8.25 2.6324 8.37312 2.50928 8.525 2.50928H13.475C13.6269 2.50928 13.75 2.6324 13.75 2.78428V3.95303ZM4.64062 7.04684H3.025C2.87312 7.04684 2.75 6.92372 2.75 6.77184V5.60309C2.75 5.45122 2.87312 5.32809 3.025 5.32809H18.975C19.1269 5.32809 19.25 5.45122 19.25 5.60309V6.77184C19.25 6.92372 19.1269 7.04684 18.975 7.04684H17.3594V18.7729C17.3594 19.1526 17.0516 19.4604 16.6719 19.4604H5.32812C4.94843 19.4604 4.64062 19.1526 4.64062 18.7729V7.04684ZM6.35938 7.04684V17.7417H15.6406V7.04684H6.35938ZM9.86563 9.7626C10.0175 9.7626 10.1406 9.88573 10.1406 10.0376V14.9876C10.1406 15.1395 10.0175 15.2626 9.86563 15.2626H8.69687C8.545 15.2626 8.42188 15.1395 8.42188 14.9876V10.0376C8.42188 9.88573 8.545 9.7626 8.69687 9.7626H9.86563ZM13.3031 15.2626C13.455 15.2626 13.5781 15.1395 13.5781 14.9876V10.0376C13.5781 9.88573 13.455 9.7626 13.3031 9.7626H12.1344C11.9825 9.7626 11.8594 9.88573 11.8594 10.0376V14.9876C11.8594 15.1395 11.9825 15.2626 12.1344 15.2626H13.3031Z" fill="#808080"/>
</svg>
