<svg width="49" height="48" viewBox="0 0 49 48" fill="none" xmlns="http://www.w3.org/2000/svg">
<mask id="mask0_2522_21643" style="mask-type:alpha" maskUnits="userSpaceOnUse" x="0" y="0" width="49" height="48">
<rect x="0.5" width="48" height="48" fill="#D9D9D9"/>
</mask>
<g mask="url(#mask0_2522_21643)">
<path d="M24.5002 44.0531C23.9669 44.0531 23.4585 43.9531 22.9752 43.7531C22.4919 43.5531 22.0502 43.2698 21.6502 42.9031L5.6002 26.8531C5.23353 26.4531 4.9502 26.0115 4.7502 25.5281C4.5502 25.0448 4.4502 24.5365 4.4502 24.0031C4.4502 23.4698 4.5502 22.9531 4.7502 22.4531C4.9502 21.9531 5.23353 21.5198 5.6002 21.1531L21.6502 5.10313C22.0502 4.70313 22.4919 4.41146 22.9752 4.22813C23.4585 4.04479 23.9669 3.95312 24.5002 3.95312C25.0335 3.95312 25.5502 4.04479 26.0502 4.22813C26.5502 4.41146 26.9835 4.70313 27.3502 5.10313L43.4002 21.1531C43.8002 21.5198 44.0919 21.9531 44.2752 22.4531C44.4585 22.9531 44.5502 23.4698 44.5502 24.0031C44.5502 24.5365 44.4585 25.0448 44.2752 25.5281C44.0919 26.0115 43.8002 26.4531 43.4002 26.8531L27.3502 42.9031C26.9835 43.2698 26.5502 43.5531 26.0502 43.7531C25.5502 43.9531 25.0335 44.0531 24.5002 44.0531ZM22.5002 26.0031H26.5002V14.0031H22.5002V26.0031ZM24.5002 32.0031C25.0669 32.0031 25.5419 31.8115 25.9252 31.4281C26.3085 31.0448 26.5002 30.5698 26.5002 30.0031C26.5002 29.4365 26.3085 28.9615 25.9252 28.5781C25.5419 28.1948 25.0669 28.0031 24.5002 28.0031C23.9335 28.0031 23.4585 28.1948 23.0752 28.5781C22.6919 28.9615 22.5002 29.4365 22.5002 30.0031C22.5002 30.5698 22.6919 31.0448 23.0752 31.4281C23.4585 31.8115 23.9335 32.0031 24.5002 32.0031Z" fill="#F53F3F"/>
</g>
</svg>
