<svg width="120" height="120" viewBox="0 0 120 120" fill="none" xmlns="http://www.w3.org/2000/svg">
<g clip-path="url(#clip0_2783_8076)">
<path d="M60.0006 96.5334C63.0237 96.5334 65.4743 94.0827 65.4743 91.0597C65.4743 88.0366 63.0237 85.5859 60.0006 85.5859C56.9775 85.5859 54.5269 88.0366 54.5269 91.0597C54.5269 94.0827 56.9775 96.5334 60.0006 96.5334Z" fill="#F53F3F"/>
<path d="M57.135 75.6709L55.132 29.1191C55.0163 26.4309 57.1022 24.157 59.7904 24.0413C62.6259 23.9045 65.0024 26.2849 64.8682 29.1191L62.8652 75.6709C62.5851 79.3073 57.427 79.3152 57.1337 75.6709H57.135Z" fill="#F53F3F"/>
<path d="M60.0007 120C51.9018 120 44.0437 118.413 36.6446 115.284C29.4993 112.262 23.0825 107.936 17.5733 102.427C12.064 96.9175 7.73846 90.5008 4.7162 83.3554C1.58741 75.9563 0 68.0982 0 60.0007C0 51.9032 1.58741 44.0437 4.7162 36.6446C7.73846 29.4993 12.064 23.0825 17.5733 17.5733C23.0825 12.064 29.4993 7.73846 36.6446 4.7162C44.0437 1.58741 51.9018 0 60.0007 0C68.0995 0 75.9576 1.58741 83.3568 4.7162C90.5021 7.73846 96.9188 12.064 102.428 17.5733C107.937 23.0825 112.263 29.4993 115.285 36.6446C118.415 44.0437 120.001 51.9018 120.001 60.0007C120.001 68.0995 118.414 75.9576 115.285 83.3568C112.263 90.5021 107.937 96.9188 102.428 102.428C96.9188 107.937 90.5021 112.263 83.3568 115.285C75.9576 118.415 68.0995 120.001 60.0007 120.001V120ZM60.0007 6.92963C52.8343 6.92963 45.8849 8.33291 39.3446 11.0987C33.0252 13.7711 27.3489 17.5983 22.4749 22.4736C17.5996 27.3489 13.7725 33.0239 11.1 39.3433C8.33423 45.8836 6.93094 52.833 6.93094 59.9993C6.93094 67.1657 8.33423 74.1151 11.1 80.6554C13.7725 86.9748 17.5996 92.6511 22.4749 97.5251C27.3503 102.4 33.0252 106.228 39.3446 108.9C45.8849 111.666 52.8343 113.069 60.0007 113.069C67.167 113.069 74.1164 111.666 80.6567 108.9C86.9761 106.228 92.6524 102.4 97.5264 97.5251C102.402 92.6497 106.229 86.9748 108.901 80.6554C111.667 74.1151 113.07 67.1657 113.07 59.9993C113.07 52.833 111.667 45.8836 108.901 39.3433C106.229 33.0239 102.402 27.3476 97.5264 22.4736C92.6511 17.5983 86.9748 13.7711 80.6567 11.0987C74.1164 8.33291 67.1657 6.92963 60.0007 6.92963Z" fill="#F53F3F"/>
</g>
<defs>
<clipPath id="clip0_2783_8076">
<rect width="120" height="120" fill="white"/>
</clipPath>
</defs>
</svg>
