<svg width="227" height="128" viewBox="0 0 227 128" fill="none" xmlns="http://www.w3.org/2000/svg">
<path d="M121.74 128C179.437 128 226.209 124.969 226.209 121.231C226.209 117.493 179.437 114.463 121.74 114.463C64.0433 114.463 17.271 117.493 17.271 121.231C17.271 124.969 64.0433 128 121.74 128Z" fill="#F5F5F5"/>
<path d="M184.559 54.1475H68.4697V64.9322H184.559V54.1475Z" fill="#263238"/>
<path opacity="0.2" d="M184.559 54.1475H151.607V64.9322H184.559V54.1475Z" fill="black"/>
<path d="M75.4182 64.9316H68.4697V123.158H75.4182V64.9316Z" fill="#263238"/>
<path opacity="0.2" d="M75.4182 67.9515L68.4697 66.4413V64.9316H75.4182V67.9515Z" fill="black"/>
<path d="M184.559 64.9316H177.611V123.158H184.559V64.9316Z" fill="#263238"/>
<path opacity="0.2" d="M184.559 64.9316H177.611V123.158H184.559V64.9316Z" fill="black"/>
<path d="M158.555 64.9316H151.607V123.158H158.555V64.9316Z" fill="#263238"/>
<path opacity="0.2" d="M158.555 67.9515L151.607 66.4413V64.9316H158.555V67.9515Z" fill="black"/>
<path d="M97.1736 64.9316H90.2251V123.158H97.1736V64.9316Z" fill="#263238"/>
<path opacity="0.2" d="M97.1736 64.9316H90.2251V123.158H97.1736V64.9316Z" fill="black"/>
<path d="M172.764 0H85.7335L78.0063 33.8421H165.037L172.764 0Z" fill="#263238"/>
<path d="M172.764 0H174.753L167.025 33.8421H165.037L172.764 0Z" fill="black"/>
<path d="M185.268 54.1476H59.8264C55.9419 54.1476 52.7637 50.9694 52.7637 47.0849V20.5998C52.7637 16.7153 55.9419 13.5371 59.8264 13.5371H185.268C189.152 13.5371 192.331 16.7153 192.331 20.5998V47.0849C192.331 50.9694 189.152 54.1476 185.268 54.1476Z" fill="#407BFF"/>
<path opacity="0.2" d="M185.268 54.1476H169.233C165.348 54.1476 162.17 50.9694 162.17 47.0849V20.5998C162.17 16.7153 165.348 13.5371 169.233 13.5371H185.268C189.152 13.5371 192.331 16.7153 192.331 20.5998V47.0849C192.331 50.9694 189.152 54.1476 185.268 54.1476Z" fill="black"/>
<path opacity="0.2" d="M157.014 24.0325H57.92C57.2779 24.0325 56.7529 23.5075 56.7529 22.8654C56.7529 22.2232 57.2779 21.6982 57.92 21.6982H157.014C157.656 21.6982 158.181 22.2232 158.181 22.8654C158.181 23.5075 157.656 24.0325 157.014 24.0325Z" fill="black"/>
<path d="M151.249 34.9212H157.2C157.74 34.9212 158.181 34.4798 158.181 33.9401C158.181 33.4004 157.74 32.959 157.2 32.959H151.249C150.709 32.959 150.268 33.4004 150.268 33.9401C150.268 34.4798 150.709 34.9212 151.249 34.9212Z" fill="white"/>
<path d="M151.249 39.0921H157.2C157.74 39.0921 158.181 38.6507 158.181 38.111C158.181 37.5713 157.74 37.1299 157.2 37.1299H151.249C150.709 37.1299 150.268 37.5713 150.268 38.111C150.268 38.6507 150.709 39.0921 151.249 39.0921Z" fill="white"/>
<path d="M151.249 43.262H157.2C157.74 43.262 158.181 42.8206 158.181 42.2809C158.181 41.7412 157.74 41.2998 157.2 41.2998H151.249C150.709 41.2998 150.268 41.7412 150.268 42.2809C150.268 42.8206 150.709 43.262 151.249 43.262Z" fill="white"/>
<path d="M81.0391 22.8556C82.1826 12.9278 75.0611 4.87988 65.1333 4.87988H83.109H137.652C147.58 4.87988 154.701 12.9278 153.558 22.8556H81.0391Z" fill="#407BFF"/>
<g opacity="0.3">
<path d="M81.0391 22.8556C82.1826 12.9278 75.0611 4.87988 65.1333 4.87988H83.109H137.652C147.58 4.87988 154.701 12.9278 153.558 22.8556H81.0391Z" fill="white"/>
</g>
<path d="M65.1334 4.87988H119.677H137.652C127.725 4.87988 118.75 12.9278 117.606 22.8556L109.382 94.2629C108.239 104.191 99.2638 112.239 89.3366 112.239H52.7684C42.8406 112.239 35.7197 104.191 36.8632 94.2629L45.0877 22.8556C46.2307 12.9278 55.2056 4.87988 65.1334 4.87988Z" fill="#407BFF"/>
<path opacity="0.7" d="M65.1334 4.87988H119.677H137.652C127.725 4.87988 118.75 12.9278 117.606 22.8556L109.382 94.2629C108.239 104.191 99.2638 112.239 89.3366 112.239H52.7684C42.8406 112.239 35.7197 104.191 36.8632 94.2629L45.0877 22.8556C46.2307 12.9278 55.2056 4.87988 65.1334 4.87988Z" fill="white"/>
<path d="M73.4311 94.2627C72.2876 104.19 79.4091 112.238 89.3363 112.238H71.3606H16.8172C6.88944 112.238 -0.231514 104.19 0.912053 94.2627H73.4311Z" fill="#407BFF"/>
<path opacity="0.5" d="M73.4311 94.2627C72.2876 104.19 79.4091 112.238 89.3363 112.238H71.3606H16.8172C6.88944 112.238 -0.231514 104.19 0.912053 94.2627H73.4311Z" fill="white"/>
<path d="M50.3488 29.0664H52.0545L51.42 34.5741H49.7144L50.3488 29.0664Z" fill="#407BFF"/>
<path d="M53.2874 29.0664H54.8765L56.5998 32.114L56.9506 29.0664H58.555L57.9205 34.5741H56.3161L54.6016 31.5495L54.2532 34.5741H52.6523L53.2874 29.0664Z" fill="#407BFF"/>
<path d="M59.145 29.0664H60.9242L61.7076 33.0298L63.3879 29.0664H65.1159L62.4362 34.5741H60.5917L59.145 29.0664Z" fill="#407BFF"/>
<path d="M64.8764 31.8242C64.98 30.9249 65.3113 30.2245 65.8693 29.7242C66.4284 29.2228 67.1547 28.9727 68.0493 28.9727C68.9663 28.9727 69.6443 29.2187 70.0834 29.7113C70.5218 30.2033 70.6907 30.8931 70.5889 31.7795C70.5148 32.4234 70.3453 32.9513 70.081 33.3633C69.8167 33.7753 69.4671 34.096 69.031 34.325C68.5955 34.5545 68.0717 34.6687 67.4602 34.6687C66.8386 34.6687 66.3366 34.5698 65.9523 34.3721C65.5674 34.1743 65.2737 33.8612 65.07 33.4327C64.867 33.0037 64.8022 32.4681 64.8764 31.8242ZM66.5773 31.8319C66.5132 32.3875 66.5708 32.7877 66.7498 33.0302C66.9281 33.2733 67.1953 33.3945 67.5508 33.3945C67.9163 33.3945 68.2135 33.2756 68.4413 33.0378C68.6685 32.8001 68.8185 32.3728 68.8898 31.7565C68.9492 31.238 68.8886 30.8596 68.7067 30.62C68.5248 30.3811 68.2547 30.261 67.8969 30.261C67.5537 30.261 67.2642 30.3828 67.0282 30.6253C66.7927 30.8684 66.6421 31.2704 66.5773 31.8319Z" fill="#407BFF"/>
<path d="M71.8854 29.0664H73.5911L72.9566 34.5741H71.251L71.8854 29.0664Z" fill="#407BFF"/>
<path d="M78.1046 32.3204L79.5442 32.7712C79.3959 33.1897 79.1976 33.5393 78.9498 33.8194C78.7026 34.1002 78.4101 34.3115 78.0746 34.4545C77.7385 34.5969 77.3242 34.6681 76.8304 34.6681C76.2318 34.6681 75.7527 34.5816 75.3937 34.4074C75.0341 34.2338 74.7422 33.9277 74.5168 33.4893C74.2919 33.0514 74.2184 32.4905 74.2972 31.8072C74.402 30.8961 74.7251 30.1963 75.266 29.7066C75.8069 29.2175 76.5208 28.9727 77.4077 28.9727C78.1017 28.9727 78.6308 29.1127 78.9957 29.3935C79.3606 29.6736 79.606 30.105 79.732 30.686L78.1905 31.0202C78.157 30.8525 78.1158 30.7295 78.0675 30.6518C77.9869 30.5217 77.8827 30.4211 77.7526 30.3511C77.6226 30.281 77.4731 30.2457 77.303 30.2457C76.9175 30.2457 76.6038 30.4011 76.3625 30.7113C76.1806 30.9414 76.0617 31.3028 76.0046 31.796C75.9346 32.4063 75.9787 32.8248 76.1382 33.0514C76.2971 33.2779 76.5443 33.391 76.8804 33.391C77.2065 33.391 77.4631 33.2997 77.6508 33.1167C77.838 32.9342 77.9892 32.6682 78.1046 32.3204Z" fill="#407BFF"/>
<path d="M80.7947 29.0664H85.356L85.2207 30.2424H82.365L82.2644 31.1175H84.9135L84.784 32.2405H82.1349L82.0095 33.327H84.9476L84.804 34.5741H80.1597L80.7947 29.0664Z" fill="#407BFF"/>
<path d="M109.083 48.9488H47.6001L48.4023 41.9844H109.885L109.083 48.9488Z" fill="#407BFF"/>
<path opacity="0.8" d="M109.083 48.9482H47.6004L46.9453 54.6378H108.428L109.083 48.9482Z" fill="white"/>
<path d="M104.833 85.8439H86.1196L86.5069 82.4785H105.221L104.833 85.8439Z" fill="#407BFF"/>
<path opacity="0.8" d="M104.834 85.8438H86.1199L85.8032 88.5929H104.517L104.834 85.8438Z" fill="white"/>
<path opacity="0.5" d="M107.772 60.3273H46.29L46.9451 54.6377H108.428L107.772 60.3273Z" fill="white"/>
<path opacity="0.8" d="M107.773 60.3271H46.2904L45.6348 66.0161H107.117L107.773 60.3271Z" fill="white"/>
<path opacity="0.5" d="M106.462 71.7062H44.9795L45.6346 66.0166H107.117L106.462 71.7062Z" fill="white"/>
<path opacity="0.8" d="M106.462 71.7061H44.9794L44.3237 77.3957H105.807L106.462 71.7061Z" fill="white"/>
</svg>
