<svg width="20" height="20" viewBox="0 0 20 20" fill="none" xmlns="http://www.w3.org/2000/svg">
<path d="M3.77778 18C3.28889 18 2.87037 17.8259 2.52222 17.4778C2.17407 17.1296 2 16.7111 2 16.2222V3.77778C2 3.28889 2.17407 2.87037 2.52222 2.52222C2.87037 2.17407 3.28889 2 3.77778 2H9.11111C9.36296 2 9.57407 2.08519 9.74445 2.25556C9.91482 2.42593 10 2.63704 10 2.88889C10 3.14074 9.91482 3.35185 9.74445 3.52222C9.57407 3.69259 9.36296 3.77778 9.11111 3.77778H3.77778V16.2222H9.11111C9.36296 16.2222 9.57407 16.3074 9.74445 16.4778C9.91482 16.6481 10 16.8593 10 17.1111C10 17.363 9.91482 17.5741 9.74445 17.7444C9.57407 17.9148 9.36296 18 9.11111 18H3.77778ZM14.6 10.8889H8.22222C7.97037 10.8889 7.75926 10.8037 7.58889 10.6333C7.41852 10.463 7.33333 10.2519 7.33333 10C7.33333 9.74815 7.41852 9.53704 7.58889 9.36667C7.75926 9.1963 7.97037 9.11111 8.22222 9.11111H14.6L12.9333 7.44444C12.7704 7.28148 12.6889 7.08148 12.6889 6.84444C12.6889 6.60741 12.7704 6.4 12.9333 6.22222C13.0963 6.04444 13.3037 5.95185 13.5556 5.94444C13.8074 5.93704 14.0222 6.02222 14.2 6.2L17.3778 9.37778C17.5556 9.55556 17.6444 9.76296 17.6444 10C17.6444 10.237 17.5556 10.4444 17.3778 10.6222L14.2 13.8C14.0222 13.9778 13.8111 14.063 13.5667 14.0556C13.3222 14.0481 13.1111 13.9556 12.9333 13.7778C12.7704 13.6 12.6926 13.3889 12.7 13.1444C12.7074 12.9 12.7926 12.6963 12.9556 12.5333L14.6 10.8889Z" fill="#1A1A1A"/>
</svg>
