<svg width="16" height="16" viewBox="0 0 16 16" fill="none" xmlns="http://www.w3.org/2000/svg">
<mask id="mask0_2677_6673" style="mask-type:alpha" maskUnits="userSpaceOnUse" x="0" y="0" width="16" height="16">
<rect width="16" height="16" fill="#D9D9D9"/>
</mask>
<g mask="url(#mask0_2677_6673)">
<path d="M6.66659 7.99984C5.93325 7.99984 5.30547 7.73873 4.78325 7.2165C4.26103 6.69428 3.99992 6.0665 3.99992 5.33317C3.99992 4.59984 4.26103 3.97206 4.78325 3.44984C5.30547 2.92762 5.93325 2.6665 6.66659 2.6665C7.39992 2.6665 8.0277 2.92762 8.54992 3.44984C9.07214 3.97206 9.33325 4.59984 9.33325 5.33317C9.33325 6.0665 9.07214 6.69428 8.54992 7.2165C8.0277 7.73873 7.39992 7.99984 6.66659 7.99984ZM1.33325 13.3332V11.4665C1.33325 11.0998 1.4277 10.7554 1.61659 10.4332C1.80547 10.1109 2.06659 9.8665 2.39992 9.69984C2.96659 9.41095 3.60547 9.1665 4.31659 8.9665C5.0277 8.7665 5.81103 8.6665 6.66659 8.6665H6.89992C6.96659 8.6665 7.03325 8.67761 7.09992 8.69984C7.01103 8.89984 6.93603 9.10817 6.87492 9.32484C6.81381 9.5415 6.76659 9.7665 6.73325 9.99984H6.66659C5.8777 9.99984 5.16936 10.0998 4.54159 10.2998C3.91381 10.4998 3.39992 10.6998 2.99992 10.8998C2.89992 10.9554 2.81936 11.0332 2.75825 11.1332C2.69714 11.2332 2.66659 11.3443 2.66659 11.4665V11.9998H6.86659C6.93325 12.2332 7.02214 12.4637 7.13325 12.6915C7.24436 12.9193 7.36659 13.1332 7.49992 13.3332H1.33325ZM10.6666 13.9998L10.4666 12.9998C10.3333 12.9443 10.2083 12.8859 10.0916 12.8248C9.97492 12.7637 9.85547 12.6887 9.73325 12.5998L8.76659 12.8998L8.09992 11.7665L8.86659 11.0998C8.84436 10.9443 8.83325 10.7998 8.83325 10.6665C8.83325 10.5332 8.84436 10.3887 8.86659 10.2332L8.09992 9.5665L8.76659 8.43317L9.73325 8.73317C9.85547 8.64428 9.97492 8.56928 10.0916 8.50817C10.2083 8.44706 10.3333 8.38873 10.4666 8.33317L10.6666 7.33317H11.9999L12.1999 8.33317C12.3333 8.38873 12.4583 8.44984 12.5749 8.5165C12.6916 8.58317 12.811 8.6665 12.9333 8.7665L13.8999 8.43317L14.5666 9.59984L13.7999 10.2665C13.8221 10.3998 13.8333 10.5387 13.8333 10.6832C13.8333 10.8276 13.8221 10.9665 13.7999 11.0998L14.5666 11.7665L13.8999 12.8998L12.9333 12.5998C12.811 12.6887 12.6916 12.7637 12.5749 12.8248C12.4583 12.8859 12.3333 12.9443 12.1999 12.9998L11.9999 13.9998H10.6666ZM11.3333 11.9998C11.6999 11.9998 12.0138 11.8693 12.2749 11.6082C12.536 11.3471 12.6666 11.0332 12.6666 10.6665C12.6666 10.2998 12.536 9.98595 12.2749 9.72484C12.0138 9.46373 11.6999 9.33317 11.3333 9.33317C10.9666 9.33317 10.6527 9.46373 10.3916 9.72484C10.1305 9.98595 9.99992 10.2998 9.99992 10.6665C9.99992 11.0332 10.1305 11.3471 10.3916 11.6082C10.6527 11.8693 10.9666 11.9998 11.3333 11.9998ZM6.66659 6.6665C7.03325 6.6665 7.34714 6.53595 7.60825 6.27484C7.86936 6.01373 7.99992 5.69984 7.99992 5.33317C7.99992 4.9665 7.86936 4.65261 7.60825 4.3915C7.34714 4.13039 7.03325 3.99984 6.66659 3.99984C6.29992 3.99984 5.98603 4.13039 5.72492 4.3915C5.46381 4.65261 5.33325 4.9665 5.33325 5.33317C5.33325 5.69984 5.46381 6.01373 5.72492 6.27484C5.98603 6.53595 6.29992 6.6665 6.66659 6.6665Z" fill="white"/>
</g>
</svg>
