<svg width="16" height="16" viewBox="0 0 16 16" fill="none" xmlns="http://www.w3.org/2000/svg">
<g id="notifications">
<path id="Vector" d="M12.7636 9.75274C12.7887 9.79565 12.813 9.82866 12.8238 9.84309L12.8387 9.88757L12.8625 9.93525L13.1292 10.4686C13.2167 10.6435 13.25 10.7961 13.25 10.9332C13.25 11.4523 12.7858 11.9165 12.2667 11.9165H3.73333C3.21421 11.9165 2.75 11.4523 2.75 10.9332C2.75 10.7961 2.78334 10.6435 2.87082 10.4686L3.13749 9.93525L3.16132 9.88757L3.17615 9.84309C3.18696 9.82866 3.21134 9.79565 3.23638 9.75274C3.26409 9.70522 3.295 9.64185 3.31762 9.56344C3.33416 9.50609 3.3437 9.44963 3.34773 9.3951C3.36713 9.3375 3.41667 9.18998 3.41667 8.99984V8.99945V8.99906V8.99866V8.99827V8.99788V8.99749V8.9971V8.99671V8.99632V8.99593V8.99554V8.99515V8.99476V8.99437V8.99398V8.99358V8.99319V8.9928V8.99241V8.99202V8.99163V8.99124V8.99085V8.99045V8.99006V8.98967V8.98928V8.98889V8.9885V8.9881V8.98771V8.98732V8.98693V8.98654V8.98614V8.98575V8.98536V8.98497V8.98457V8.98418V8.98379V8.98339V8.983V8.98261V8.98221V8.98182V8.98143V8.98103V8.98064V8.98024V8.97985V8.97945V8.97906V8.97867V8.97827V8.97787V8.97748V8.97708V8.97669V8.97629V8.9759V8.9755V8.9751V8.97471V8.97431V8.97391V8.97352V8.97312V8.97272V8.97232V8.97192V8.97153V8.97113V8.97073V8.97033V8.96993V8.96953V8.96913V8.96873V8.96833V8.96793V8.96753V8.96713V8.96673V8.96633V8.96593V8.96553V8.96512V8.96472V8.96432V8.96392V8.96351V8.96311V8.96271V8.9623V8.9619V8.96149V8.96109V8.96068V8.96028V8.95987V8.95947V8.95906V8.95865V8.95825V8.95784V8.95743V8.95702V8.95662V8.95621V8.9558V8.95539V8.95498V8.95457V8.95416V8.95375V8.95334V8.95293V8.95252V8.9521V8.95169V8.95128V8.95087V8.95045V8.95004V8.94963V8.94921V8.9488V8.94838V8.94796V8.94755V8.94713V8.94672V8.9463V8.94588V8.94546V8.94504V8.94462V8.94421V8.94379V8.94337V8.94295V8.94252V8.9421V8.94168V8.94126V8.94084V8.94041V8.93999V8.93957V8.93914V8.93872V8.93829V8.93787V8.93744V8.93701V8.93659V8.93616V8.93573V8.9353V8.93487V8.93444V8.93401V8.93358V8.93315V8.93272V8.93229V8.93186V8.93142V8.93099V8.93056V8.93012V8.92969V8.92925V8.92882V8.92838V8.92794V8.9275V8.92707V8.92663V8.92619V8.92575V8.92531V8.92487V8.92443V8.92398V8.92354V8.9231V8.92266V8.92221V8.92177V8.92132V8.92088V8.92043V8.91998V8.91953V8.91909V8.91864V8.91819V8.91774V8.91729V8.91684V8.91638V8.91593V8.91548V8.91503V8.91457V8.91412V8.91366V8.91321V8.91275V8.91229V8.91183V8.91138V8.91092V8.91046V8.91V8.90953V8.90907V8.90861V8.90815V8.90768V8.90722V8.90675V8.90629V8.90582V8.90536V8.90489V8.90442V8.90395V8.90348V8.90301V8.90254V8.90207V8.90159V8.90112V8.90065V8.90017V8.8997V8.89922V8.89874V8.89827V8.89779V8.89731V8.89683V8.89635V8.89587V8.89539V8.8949V8.89442V8.89394V8.89345V8.89297V8.89248V8.89199V8.8915V8.89102V8.89053V8.89004V8.88954V8.88905V8.88856V8.88807V8.88757V8.88708V8.88658V8.88609V8.88559V8.88509V8.88459V8.88409V8.88359V8.88309V8.88259V8.88208V8.88158V8.88108V8.88057V8.88006V8.87956V8.87905V8.87854V8.87803V8.87752V8.87701V8.8765V8.87599V8.87547V8.87496V8.87444V8.87393V8.87341V8.87289V8.87237V8.87185V8.87133V8.87081V8.87029V8.86976V8.86924V8.86871V8.86819V8.86766V8.86713V8.8666V8.86607V8.86554V8.86501V8.86448V8.86395V8.86341V8.86288V8.86234V8.8618V8.86127V8.86073V8.86019V8.85965V8.8591V8.85856V8.85802V8.85747V8.85693V8.85638V8.85583V8.85528V8.85474V8.85418V8.85363V8.85308V8.85253V8.85197V8.85142V8.85086V8.8503V8.84975V8.84919V8.84863V8.84806V8.8475V8.84694V8.84637V8.84581V8.84524V8.84468V8.84411V8.84354V8.84297V8.84239V8.84182V8.84125V8.84067V8.8401V8.83952V8.83894V8.83836V8.83778V8.8372V8.83662V8.83604V8.83545V8.83487V8.83428V8.83369V8.83311V8.83252V8.83193V8.83133V8.83074V8.83015V8.82955V8.82895V8.82836V8.82776V8.82716V8.82656V8.82596V8.82535V8.82475V8.82414V8.82354V8.82293V8.82232V8.82171V8.8211V8.82049V8.81988V8.81926V8.81865V8.81803V8.81741V8.81679V8.81617V8.81555V8.81493V8.8143V8.81368V8.81305V8.81243V8.8118V8.81117V8.81054V8.80991V8.80927V8.80864V8.808V8.80737V8.80673V8.80609V8.80545V8.80481V8.80416V8.80352V8.80287V8.80223V8.80158V8.80093V8.80028V8.79963V8.79897V8.79832V8.79767V8.79701V8.79635V8.79569V8.79503V8.79437V8.79371V8.79304V8.79238V8.79171V8.79104V8.79037V8.7897V8.78903V8.78836V8.78768V8.78701V8.78633V8.78565V8.78497V8.78429V8.78361V8.78292V8.78224V8.78155V8.78086V8.78018V8.77949V8.77879V8.7781V8.77741V8.77671V8.77601V8.77532V8.77462V8.77391V8.77321V8.77251V8.7718V8.7711V8.77039V8.76968V8.76897V8.76826V8.76754V8.76683V8.76611V8.76539V8.76467V8.76395V8.76323V8.76251V8.76178V8.76106V8.76033V8.7596V8.75887V8.75814V8.75741V8.75667V8.75593V8.7552V8.75446V8.75372V8.75298V8.75223V8.75149V8.75074V8.74999V8.74924V8.74849V8.74774V8.74699V8.74623V8.74548V8.74472V8.74396V8.7432V8.74244V8.74167V8.74091V8.74014V8.73937V8.7386V8.73783V8.73706V8.73628V8.73551V8.73473V8.73395V8.73317V5.99984C3.41667 3.48072 5.48088 1.4165 8 1.4165C10.5191 1.4165 12.5833 3.48072 12.5833 5.99984V8.6665V8.93317C12.5833 9.02778 12.5951 9.10994 12.6066 9.17139C12.6171 9.22727 12.6302 9.27964 12.6378 9.3101L12.6391 9.31507C12.6454 9.3403 12.6486 9.35372 12.6505 9.36211C12.6527 9.42673 12.6625 9.49444 12.6824 9.56343C12.705 9.64185 12.7359 9.70522 12.7636 9.75274ZM8 14.5832C7.76662 14.5832 7.54869 14.5211 7.36162 14.4165H8.63838C8.45131 14.5211 8.23338 14.5832 8 14.5832Z" stroke="white" stroke-width="1.5"/>
</g>
</svg>
