<svg width="24" height="24" viewBox="0 0 24 24" fill="none" xmlns="http://www.w3.org/2000/svg">
<g id="direction/right-arrow">
<g id="Union">
<path d="M18.6356 13.05H1.95509C1.7894 13.05 1.65509 12.9157 1.65509 12.75V11.25C1.65509 11.0843 1.7894 10.95 1.95509 10.95H18.6346L13.9569 6.27235C13.8398 6.15519 13.8398 5.96524 13.9569 5.84808L15.0176 4.78742C15.1348 4.67027 15.3247 4.67027 15.4419 4.78742L22.1251 11.4697C22.418 11.7626 22.418 12.2375 22.1251 12.5304L15.4429 19.2125C15.3257 19.3297 15.1358 19.3297 15.0186 19.2125L13.958 18.1519C13.8408 18.0347 13.8408 17.8448 13.958 17.7276L18.6356 13.05Z" fill="#127FFF"/>
</g>
</g>
</svg>
