<svg width="14" height="14" viewBox="0 0 14 14" fill="none" xmlns="http://www.w3.org/2000/svg">
<path d="M4.6665 13.6668C4.29984 13.6668 3.98595 13.5363 3.72484 13.2752C3.46373 13.0141 3.33317 12.7002 3.33317 12.3335C3.33317 11.9668 3.46373 11.6529 3.72484 11.3918C3.98595 11.1307 4.29984 11.0002 4.6665 11.0002C5.03317 11.0002 5.34706 11.1307 5.60817 11.3918C5.86928 11.6529 5.99984 11.9668 5.99984 12.3335C5.99984 12.7002 5.86928 13.0141 5.60817 13.2752C5.34706 13.5363 5.03317 13.6668 4.6665 13.6668ZM11.3332 13.6668C10.9665 13.6668 10.6526 13.5363 10.3915 13.2752C10.1304 13.0141 9.99984 12.7002 9.99984 12.3335C9.99984 11.9668 10.1304 11.6529 10.3915 11.3918C10.6526 11.1307 10.9665 11.0002 11.3332 11.0002C11.6998 11.0002 12.0137 11.1307 12.2748 11.3918C12.5359 11.6529 12.6665 11.9668 12.6665 12.3335C12.6665 12.7002 12.5359 13.0141 12.2748 13.2752C12.0137 13.5363 11.6998 13.6668 11.3332 13.6668ZM4.09984 3.00016L5.69984 6.3335H10.3665L12.1998 3.00016H4.09984ZM3.4665 1.66683H13.2998C13.5554 1.66683 13.7498 1.78072 13.8832 2.0085C14.0165 2.23627 14.0221 2.46683 13.8998 2.70016L11.5332 6.96683C11.4109 7.18905 11.2471 7.36127 11.0415 7.4835C10.8359 7.60572 10.6109 7.66683 10.3665 7.66683H5.39984L4.6665 9.00016H12.6665V10.3335H4.6665C4.1665 10.3335 3.78873 10.1141 3.53317 9.67516C3.27762 9.23627 3.2665 8.80016 3.49984 8.36683L4.39984 6.7335L1.99984 1.66683H0.666504V0.333496H2.83317L3.4665 1.66683Z" fill="white"/>
</svg>
