<svg width="25" height="20" viewBox="0 0 25 20" fill="none" xmlns="http://www.w3.org/2000/svg">
<path fill-rule="evenodd" clip-rule="evenodd" d="M2.02634 8.56229C8.46878 5.75543 12.7647 3.90497 14.9142 3.01092C21.0515 0.458228 22.3268 0.0147984 23.158 0.00015612C23.3408 -0.0030643 23.7495 0.0422426 24.0143 0.257092C24.2379 0.438506 24.2994 0.683571 24.3288 0.855571C24.3583 1.02757 24.3949 1.41939 24.3658 1.72555C24.0332 5.21999 22.5941 13.7001 21.862 17.6139C21.5522 19.27 20.9423 19.8253 20.3517 19.8796C19.0684 19.9977 18.0939 19.0315 16.8509 18.2167C14.9058 16.9417 13.807 16.148 11.919 14.9038C9.7371 13.466 11.1515 12.6757 12.395 11.3842C12.7204 11.0462 18.3749 5.90304 18.4844 5.43647C18.4981 5.37812 18.5108 5.16061 18.3815 5.04576C18.2523 4.93091 18.0616 4.97018 17.924 5.00142C17.7289 5.04569 14.6217 7.09945 8.6023 11.1627C7.72033 11.7683 6.92146 12.0634 6.2057 12.0479C5.41664 12.0309 3.8988 11.6018 2.77044 11.235C1.38646 10.7851 0.286497 10.5473 0.382279 9.78325C0.432168 9.3853 0.980188 8.97831 2.02634 8.56229Z" fill="#808080"/>
</svg>
