<svg width="12" height="12" viewBox="0 0 12 12" fill="none" xmlns="http://www.w3.org/2000/svg">
<path d="M6 10.3125C8.38173 10.3125 10.3125 8.38173 10.3125 6C10.3125 3.61827 8.38173 1.6875 6 1.6875C3.61827 1.6875 1.6875 3.61827 1.6875 6C1.6875 8.38173 3.61827 10.3125 6 10.3125ZM6 11.25C3.1005 11.25 0.75 8.89949 0.75 6C0.75 3.1005 3.1005 0.75 6 0.75C8.8995 0.75 11.25 3.1005 11.25 6C11.25 8.89949 8.8995 11.25 6 11.25ZM5.65591 6.46771C5.66927 6.48039 5.68373 6.49223 5.69927 6.50312L7.84952 8.00873C7.91738 8.05625 8.01091 8.03976 8.05842 7.9719L8.42408 7.44969C8.4716 7.38183 8.4551 7.28829 8.38724 7.24078L6.46875 5.89743V3.5635C6.46875 3.48066 6.40159 3.4135 6.31875 3.4135H5.68125C5.59841 3.4135 5.53125 3.48066 5.53125 3.5635V6.18851C5.53125 6.2994 5.57939 6.39906 5.65591 6.46771Z" fill="#F53F3F"/>
</svg>
