<svg width="38" height="39" viewBox="0 0 38 39" fill="none" xmlns="http://www.w3.org/2000/svg">
<rect y="0.5" width="38" height="38" rx="19" fill="#127FFF"/>
<path d="M16.75 11.25H12.25C11.8522 11.25 11.4706 11.408 11.1893 11.6893C10.908 11.9706 10.75 12.3522 10.75 12.75V17.25C10.75 17.6478 10.908 18.0294 11.1893 18.3107C11.4706 18.592 11.8522 18.75 12.25 18.75H16.75C17.1478 18.75 17.5294 18.592 17.8107 18.3107C18.092 18.0294 18.25 17.6478 18.25 17.25V12.75C18.25 12.3522 18.092 11.9706 17.8107 11.6893C17.5294 11.408 17.1478 11.25 16.75 11.25ZM16.75 17.25H12.25V12.75H16.75V17.25ZM25.75 11.25H21.25C20.8522 11.25 20.4706 11.408 20.1893 11.6893C19.908 11.9706 19.75 12.3522 19.75 12.75V17.25C19.75 17.6478 19.908 18.0294 20.1893 18.3107C20.4706 18.592 20.8522 18.75 21.25 18.75H25.75C26.1478 18.75 26.5294 18.592 26.8107 18.3107C27.092 18.0294 27.25 17.6478 27.25 17.25V12.75C27.25 12.3522 27.092 11.9706 26.8107 11.6893C26.5294 11.408 26.1478 11.25 25.75 11.25ZM25.75 17.25H21.25V12.75H25.75V17.25ZM16.75 20.25H12.25C11.8522 20.25 11.4706 20.408 11.1893 20.6893C10.908 20.9706 10.75 21.3522 10.75 21.75V26.25C10.75 26.6478 10.908 27.0294 11.1893 27.3107C11.4706 27.592 11.8522 27.75 12.25 27.75H16.75C17.1478 27.75 17.5294 27.592 17.8107 27.3107C18.092 27.0294 18.25 26.6478 18.25 26.25V21.75C18.25 21.3522 18.092 20.9706 17.8107 20.6893C17.5294 20.408 17.1478 20.25 16.75 20.25ZM16.75 26.25H12.25V21.75H16.75V26.25ZM25.75 20.25H21.25C20.8522 20.25 20.4706 20.408 20.1893 20.6893C19.908 20.9706 19.75 21.3522 19.75 21.75V26.25C19.75 26.6478 19.908 27.0294 20.1893 27.3107C20.4706 27.592 20.8522 27.75 21.25 27.75H25.75C26.1478 27.75 26.5294 27.592 26.8107 27.3107C27.092 27.0294 27.25 26.6478 27.25 26.25V21.75C27.25 21.3522 27.092 20.9706 26.8107 20.6893C26.5294 20.408 26.1478 20.25 25.75 20.25ZM25.75 26.25H21.25V21.75H25.75V26.25Z" fill="white"/>
</svg>
