<svg width="350" height="223" viewBox="0 0 350 223" fill="none" xmlns="http://www.w3.org/2000/svg">
<g clip-path="url(#clip0_1243_4480)">
<path d="M146.62 201.229L111.133 180.73C110.431 180.329 110.517 179.613 111.333 179.141L113.838 177.695C114.654 177.223 115.885 177.18 116.587 177.581L152.074 198.08C152.776 198.481 152.69 199.197 151.874 199.669L149.369 201.115C148.553 201.587 147.322 201.63 146.62 201.229Z" fill="#999999" fill-opacity="0.3"/>
<path d="M238.967 187.372L197.21 163.28L203.995 159.357C205.083 158.727 205.198 157.783 204.253 157.253L165.33 134.878C164.399 134.334 162.753 134.406 161.679 135.036L154.951 138.915L115.312 116.054C114.768 115.739 113.795 115.782 113.165 116.14L111.777 116.941C111.147 117.313 111.075 117.857 111.619 118.187L151.258 141.048L139.434 147.877C138.346 148.506 138.231 149.451 139.176 149.981L178.099 172.356C179.03 172.9 180.676 172.828 181.749 172.198L193.517 165.413L235.274 189.491C235.818 189.806 236.792 189.763 237.421 189.405L238.81 188.603C239.44 188.231 239.511 187.687 238.967 187.358V187.372Z" fill="#999999" fill-opacity="0.3"/>
<path d="M199.844 153.316L199.472 155.206L198.513 157.024L196.323 158.627L194.748 159.773L187.619 163.752L178.514 169.493L143.728 149.38C143.642 149.294 143.585 149.179 143.585 149.007C143.585 148.621 143.857 148.149 144.201 147.962L161.007 138.228L161.766 137.799C162.667 137.283 163.555 136.31 164.085 135.165C164.614 134.034 164.757 132.903 164.471 132.087L154.751 104.072L155.911 102.97L190.697 123.068L190.568 125.702L194.576 136.453L197.697 145.672L199.701 150.954L199.873 153.331L199.844 153.316Z" fill="#CCCCCC"/>
<path d="M196.323 158.627L194.748 159.772L187.619 163.752L178.514 169.493L143.728 149.38C143.642 149.294 143.585 149.179 143.585 149.007C143.585 148.621 143.857 148.148 144.201 147.962L161.007 138.228L196.323 158.627Z" fill="#E6E6E6"/>
<path d="M196.509 159.329L178.987 169.478C178.643 169.679 178.371 169.521 178.371 169.135C178.371 168.748 178.643 168.276 178.987 168.075L196.537 157.912C197.439 157.382 198.327 156.423 198.856 155.278C199.386 154.132 199.529 153.016 199.243 152.2L189.523 124.185L190.682 123.068L200.402 151.083C200.803 152.228 200.617 153.789 199.916 155.378C199.157 157.096 197.854 158.541 196.509 159.329Z" fill="#A6A6A6"/>
<path d="M236.076 69.1569L116.93 0.372145C116.171 -0.0573124 115.484 -0.100258 114.998 0.186047L112.607 1.57463C113.108 1.28832 113.795 1.33127 114.539 1.76072L233.685 70.5455C235.188 71.4187 236.405 73.5231 236.391 75.2409L236.133 166.701C236.133 167.56 235.833 168.161 235.346 168.447L237.737 167.059C238.223 166.773 238.524 166.171 238.524 165.312L238.782 73.8523C238.782 72.1345 237.565 70.0301 236.076 69.1569Z" fill="#595959"/>
<path d="M238.567 149.279L238.524 165.313C238.524 166.171 238.223 166.773 237.737 167.059L235.346 168.448C235.833 168.161 236.133 167.56 236.133 166.701L236.176 150.654L238.567 149.279Z" fill="#BFBFBF"/>
<path d="M236.391 75.2409L236.133 166.701C236.133 168.433 234.902 169.12 233.399 168.261L114.268 99.4623C112.764 98.589 111.548 96.499 111.548 94.7669L111.82 3.30675C111.82 1.58892 113.051 0.887474 114.554 1.7607L233.7 70.5455C235.203 71.4187 236.42 73.5087 236.405 75.2409H236.391Z" fill="#333333"/>
<path d="M236.19 150.668L236.148 166.701C236.148 168.433 234.916 169.12 233.413 168.261L114.268 99.4624C112.764 98.5891 111.548 96.4991 111.548 94.767L111.591 78.7339L236.176 150.668H236.19Z" fill="#D9D9D9"/>
<path d="M233.113 143.539L115.885 75.6704V7.83044L233.113 75.7133V143.539Z" fill="#7981F2"/>
<path d="M147.207 25.9678V31.1499L117.059 13.7282V8.50317L147.207 25.9678Z" fill="#2A33B8"/>
<path d="M184.928 47.7986V52.9091L154.751 35.4875V30.334L184.928 47.7986Z" fill="#2A33B8"/>
<path d="M222.62 69.6293V74.6682L192.457 57.2752V52.1647L222.62 69.6293Z" fill="#2A33B8"/>
<path d="M233.113 75.699V80.7523L230.164 79.0345V73.9955L233.113 75.699Z" fill="#2A33B8"/>
<path d="M147.221 74.4106L117.045 56.9889V22.3746L147.221 39.7963V74.4106Z" fill="#2A33B8"/>
<path d="M184.913 96.1698L154.751 78.7625V44.1482L184.913 61.5698V96.1698Z" fill="#2A33B8"/>
<path d="M222.62 117.943L192.457 100.536V65.9218L222.62 83.3291V117.943Z" fill="#2A33B8"/>
<path d="M233.113 89.3844V124.013L230.164 122.295V87.6809L233.113 89.3844Z" fill="#2A33B8"/>
<path d="M147.207 83.0713V93.8077L117.059 76.3288V65.6497L147.207 83.0713Z" fill="#2A33B8"/>
<path d="M184.928 104.831V115.624L154.751 98.1597V87.4089L184.928 104.831Z" fill="#2A33B8"/>
<path d="M222.62 126.59V137.455L192.457 119.99V109.182L222.62 126.59Z" fill="#2A33B8"/>
<path d="M233.113 132.659V143.525L230.164 141.821V130.956L233.113 132.659Z" fill="#2A33B8"/>
<path d="M183.396 221.944L159.003 207.857C158.53 207.585 158.587 207.113 159.131 206.798L183.095 192.955C183.639 192.64 184.455 192.612 184.927 192.884L209.321 206.97C209.793 207.242 209.736 207.714 209.192 208.029L185.228 221.872C184.684 222.187 183.868 222.216 183.396 221.944Z" fill="#999999" fill-opacity="0.3"/>
<path d="M184.312 208.459L160.992 195.002L184.155 181.617L207.474 195.074L184.312 208.459Z" fill="#F2F2F2"/>
<path d="M184.298 206.984L163.526 195.002L184.169 183.092L204.94 195.074L184.298 206.984Z" fill="#E6E6E6"/>
<path d="M184.312 220.283V208.458L207.474 195.074V206.912L184.312 220.283Z" fill="#BFBFBF"/>
<path d="M160.992 195.002V206.827L184.312 220.283V208.459L160.992 195.002Z" fill="#E6E6E6"/>
<path d="M168.594 197.923L166.948 196.978L166.676 193.184L166.089 185.082L167.721 185.869L168.193 192.311L168.594 197.923Z" fill="#4D4D4D"/>
<path d="M167.721 185.869L166.089 185.082L186.431 173.343L188.063 174.131L167.721 185.869Z" fill="#737373"/>
<path d="M189.823 198.395L181.005 203.491L179.617 204.293L179.502 204.364L179.488 204.207L178.615 203.706L176.983 202.761L176.109 202.26L174.478 201.33L173.604 200.829L171.958 199.869L171.113 199.383L169.453 198.424L168.594 197.923L168.193 192.311L167.721 185.869L188.063 174.131L188.149 175.29L188.277 176.936L188.349 178.11V178.125L188.463 179.771L188.549 180.93L188.678 182.605L188.764 183.75L188.879 185.425L188.907 185.826L188.965 186.585L189.093 188.245L189.823 198.395Z" fill="#1F2125"/>
<path d="M171.113 199.383L169.453 198.424L168.98 191.853L168.594 186.571L170.24 187.358L170.498 190.98L171.113 199.383Z" fill="#4D4D4D"/>
<path d="M170.226 187.358L168.594 186.571L188.936 174.832L190.568 175.619L170.226 187.358Z" fill="#737373"/>
<path d="M192.328 199.898L182.165 205.753L181.134 205.166L179.616 204.293L179.502 204.364L179.488 204.207L178.614 203.706L176.982 202.761L176.109 202.26L174.477 201.33L173.604 200.829L171.958 199.869L171.113 199.383L170.498 190.98L170.24 187.358L188.277 176.936L190.568 175.619L190.654 176.793L190.768 178.439L190.854 179.599L190.968 181.274L191.069 182.419L191.183 184.094L191.269 185.239V185.254L191.398 186.914L191.412 187.272L192.328 199.898Z" fill="#1F2125"/>
<path d="M173.604 200.829L171.958 199.869L171.285 190.536L171.113 188.059L172.745 188.847L172.802 189.663L173.604 200.829Z" fill="#4D4D4D"/>
<path d="M172.745 188.861L171.099 188.059L191.441 176.321L193.087 177.108L172.745 188.861Z" fill="#737373"/>
<path d="M194.805 200.929L184.298 206.998L182.165 205.753L181.134 205.166L179.617 204.293L179.502 204.364L179.488 204.207L178.615 203.706L176.983 202.761L176.109 202.26L174.478 201.33L173.604 200.829L172.803 189.663L172.745 188.847L188.464 179.771L193.073 177.123L193.159 178.268L193.288 179.928L193.374 181.088V181.102L193.488 182.748L193.574 183.922L193.703 185.583L193.918 188.718L194.805 200.929Z" fill="#1F2125"/>
<path d="M176.109 202.26L174.477 201.33L173.618 189.548L175.25 190.35L176.109 202.26Z" fill="#4D4D4D"/>
<path d="M175.25 190.35L173.618 189.563L193.96 177.81L195.592 178.597L175.25 190.35Z" fill="#737373"/>
<path d="M197.124 199.583L194.805 200.929L184.298 206.998L182.165 205.753L181.134 205.166L179.617 204.293L179.502 204.364L179.488 204.207L178.615 203.706L176.983 202.761L176.109 202.26L175.25 190.35L186.001 184.151L188.678 182.605L190.969 181.274L193.288 179.928L195.592 178.611L195.678 179.756L195.807 181.431L195.893 182.577L196.008 184.251L196.437 190.164L197.124 199.583Z" fill="#1F2125"/>
<path d="M178.614 203.706L176.982 202.761L176.124 191.037L177.755 191.839L178.614 203.706Z" fill="#4D4D4D"/>
<path d="M177.755 191.839L176.124 191.051L196.466 179.298L198.097 180.1L177.755 191.839Z" fill="#737373"/>
<path d="M199.429 198.266L197.124 199.583L194.805 200.929L184.298 206.998L182.165 205.753L181.134 205.166L179.617 204.293L179.502 204.364L179.488 204.207L178.615 203.706L177.756 191.839L188.535 185.611L188.879 185.425L191.183 184.094L193.488 182.748L195.807 181.431L198.098 180.1L198.183 181.245L198.312 182.92L198.942 191.61L199.429 198.266Z" fill="#1F2125"/>
<path d="M181.134 205.166L179.616 204.293L179.502 204.364L179.488 204.207L178.643 192.54L180.275 193.342L181.005 203.491L181.134 205.166Z" fill="#4D4D4D"/>
<path d="M180.275 193.327L178.643 192.54L198.971 180.802L200.617 181.589L180.275 193.327Z" fill="#737373"/>
<path d="M201.719 196.92L199.429 198.266L197.124 199.583L194.805 200.929L184.298 206.998L182.165 205.753L181.134 205.166L181.005 203.491L180.275 193.342L189.093 188.245L191.097 187.086L191.398 186.914L193.445 185.726L193.703 185.583L196.008 184.252L198.312 182.92L200.617 181.589L201.433 193.055L201.719 196.92Z" fill="#1F2125"/>
<path d="M186.001 200.671L188.936 200.943V202.246L183.997 201.816L188.936 195.689V196.992L186.001 200.657V200.671Z" fill="#F2F2F2"/>
<path d="M191.169 202.761L190.224 203.305C191.169 199.855 191.87 197.264 192.328 195.546L193.373 191.667L194.318 191.123L191.169 202.761Z" fill="#F2F2F2"/>
<path d="M198.327 193.571L195.378 193.299V192.01L200.331 192.426L195.378 198.567V197.25L198.327 193.585V193.571Z" fill="#F2F2F2"/>
<path d="M115.742 183.049L119.206 181.532L122.857 163.094L119.407 164.625L115.742 183.049Z" fill="#733118"/>
<path d="M119.779 162.721L123.243 161.19L126.994 142.251L123.529 143.768L119.779 162.721Z" fill="#733118"/>
<path d="M123.916 141.864L127.366 140.347L131.131 121.393L127.667 122.925L123.916 141.864Z" fill="#733118"/>
<path d="M147.822 178.855L151.287 177.337L123.243 161.19L119.779 162.721L147.822 178.855Z" fill="#AB512E"/>
<path d="M128.039 121.021L131.503 119.489L135.253 100.55L131.789 102.082L128.039 121.021Z" fill="#733118"/>
<path d="M151.96 158.012L155.41 156.48L127.366 140.347L123.916 141.864L151.96 158.012Z" fill="#AB512E"/>
<path d="M135.855 81.6256L139.305 80.1082L136.184 78.2472L132.72 79.7789L135.855 81.6256Z" fill="#AB512E"/>
<path d="M132.176 100.178L135.64 98.6464L139.305 80.1082L135.855 81.6256L132.176 100.178Z" fill="#733118"/>
<path d="M156.082 137.169L159.546 135.637L131.503 119.489L128.039 121.021L156.082 137.169Z" fill="#AB512E"/>
<path d="M160.22 116.326L163.684 114.794L135.64 98.6464L132.176 100.178L160.22 116.326Z" fill="#AB512E"/>
<path d="M146.906 201.058L150.371 199.526L170.483 98.1024L167.019 99.6341L146.906 201.058Z" fill="#733118"/>
<path d="M112.621 181.202L115.756 183.063L119.407 164.625L147.45 180.773L143.8 199.211L146.921 201.072L167.019 99.6484L163.899 97.7874L160.22 116.34L132.176 100.192L135.855 81.6398L132.72 79.7788L112.621 181.202ZM156.082 137.169L128.039 121.021L131.789 102.082L159.833 118.23L156.082 137.169ZM151.96 158.012L123.916 141.864L127.667 122.925L155.71 139.073L151.96 158.012ZM119.779 162.721L123.53 143.782L151.573 159.93L147.823 178.869L119.779 162.721Z" fill="#8C3C1D"/>
<path d="M167.019 99.6342L170.483 98.1024L167.363 96.2415L163.898 97.7732L167.019 99.6342Z" fill="#AB512E"/>
<path d="M180.705 66.1364L182.78 64.7478L184.913 96.1841L182.838 97.5727L180.705 66.1364Z" fill="#BFBFBF"/>
<path d="M152.131 49.6452L154.207 48.2566L182.78 64.7478L180.705 66.1363L152.131 49.6452Z" fill="white"/>
<path d="M180.705 66.1363L182.838 97.5726L154.264 81.0814L152.131 49.6451L180.705 66.1363Z" fill="#D9D9D9"/>
<path d="M165.573 66.0361C165.559 65.9216 165.516 65.7784 165.401 65.7355C165.301 65.6926 165.187 65.7641 165.087 65.8214C164.729 66.0791 164.457 66.437 164.285 66.8378C164.299 66.3081 164.342 65.7498 164.471 65.2345C164.6 64.7048 164.743 64.1751 164.872 63.6312C165.058 62.8009 165.187 61.9277 164.986 61.0974C164.915 60.7824 164.757 60.4389 164.442 60.353C164.099 60.2528 163.712 60.5963 163.77 60.9542C163.583 60.9113 163.34 60.8683 163.226 61.0258C163.154 61.1117 163.14 61.2405 163.14 61.3694C163.14 61.8847 163.14 62.4001 163.14 62.9154C162.997 62.7436 162.767 62.5718 162.567 62.672C162.367 62.7722 162.338 63.0442 162.352 63.259C162.41 64.2753 162.567 65.2917 162.453 66.3081C162.395 66.7662 162.295 67.2243 162.152 67.6681C161.909 68.4268 160.72 70.889 160.234 71.3041C159.203 72.1917 157.958 72.7786 156.712 73.3083C154.651 74.1815 152.503 74.8257 150.385 75.5128C149.182 75.8993 147.994 76.3145 146.82 76.7869C146.477 76.93 146.205 76.8871 145.847 76.8012C144.158 76.4147 142.497 75.8707 140.994 74.9975C140.321 74.611 139.691 74.1386 139.119 73.6232C138.331 72.8931 137.816 71.8481 136.9 71.2755C135.826 70.617 134.509 70.1875 133.493 71.2326C132.691 72.0485 132.72 73.4228 133.264 74.4249C133.793 75.4412 134.738 76.157 135.654 76.8441C138.933 79.3064 142.454 81.6397 146.462 82.47C146.591 82.4987 146.72 82.5273 146.835 82.4843C147.049 82.4271 147.178 82.241 147.264 82.0406C147.364 82.1551 147.464 82.2839 147.579 82.3985C147.665 82.4843 147.765 82.5846 147.894 82.5989C148.023 82.6275 148.152 82.5559 148.28 82.4987C149.612 81.8545 150.957 81.2246 152.26 80.5088C153.863 79.6356 155.424 78.6479 156.913 77.5885C157.671 77.0446 162.467 73.6089 163.211 73.1651C163.498 72.9933 163.784 72.8216 164.042 72.6068C164.142 72.5353 164.228 72.4494 164.285 72.3348C164.356 72.2203 164.371 72.0915 164.399 71.9626C164.5 71.4616 164.657 70.9606 164.714 70.4595C164.815 69.6006 164.815 68.7131 165.144 67.8971C165.258 67.6251 165.416 67.3531 165.502 67.0811C165.616 66.7519 165.645 66.4083 165.602 66.0648L165.573 66.0361Z" fill="#FFB78C"/>
<path d="M139.219 72.793C140.951 74.1816 142.912 75.2838 144.845 76.3861C144.902 76.4147 144.974 76.472 144.988 76.5293C144.988 76.5722 144.988 76.6151 144.959 76.6581C144.344 78.1755 143.456 79.6357 142.139 80.6091C141.738 80.9097 141.252 81.1674 140.751 81.239C140.55 81.2676 140.235 81.2819 140.035 81.1817C139.849 81.0958 139.82 80.9527 139.734 80.7666C139.562 80.3944 139.376 80.0222 139.176 79.6643C138.775 78.9628 138.317 78.3043 137.802 77.6888C136.871 76.5722 135.783 75.5844 135.01 74.3533C134.738 73.9239 134.509 73.4515 134.438 72.9504C134.38 72.5353 134.438 72.0772 134.624 71.705C134.81 71.3042 134.81 71.0322 134.81 70.5741C134.81 70.5169 134.81 70.4596 134.853 70.431C134.896 70.3737 134.981 70.388 135.053 70.4023C135.826 70.5598 136.613 70.7888 137.286 71.2183C137.773 71.5189 138.188 71.9197 138.632 72.3063C138.832 72.478 139.033 72.6498 139.233 72.8073L139.219 72.793Z" fill="#4D4D4D"/>
<path d="M123.086 166.143C123.114 166.873 123.329 167.689 123.959 168.061C124.274 168.247 124.66 168.304 125.033 168.304C125.705 168.304 126.393 168.19 127.022 167.946C127.71 167.689 128.325 167.288 128.998 166.987C131.875 165.77 135.254 166.744 138.246 165.842C138.947 165.627 139.72 165.184 139.806 164.453C139.849 164.01 139.62 163.58 139.333 163.237C138.718 162.507 137.83 162.049 136.9 161.777C135.984 161.505 135.025 161.419 134.065 161.318C132.147 161.104 130.243 160.803 128.311 160.717C127.137 160.66 125.906 160.703 124.804 161.147C124.345 161.333 124.03 161.476 123.887 161.948C123.687 162.578 123.501 163.194 123.343 163.824C123.172 164.568 123.057 165.341 123.086 166.114V166.143Z" fill="#1F2125"/>
<path d="M132.619 104.315C132.834 102.755 132.977 101.166 132.662 99.6198C132.534 98.9756 132.347 97.8447 131.703 97.5727C130.945 97.2435 130.086 97.1433 129.27 97.2292C128.311 97.3294 127.38 97.6586 126.507 98.0881C124.975 98.8468 123.601 99.9204 122.556 101.252C120.824 103.485 120.065 106.334 120.552 109.139C120.781 110.514 121.325 111.802 121.697 113.119C122.069 114.422 122.126 115.71 122.069 117.07C122.012 118.759 121.754 120.434 121.568 122.123C121.225 125.316 121.124 128.522 121.139 131.729C121.139 133.361 121.167 134.993 121.21 136.625C121.253 138.328 120.795 139.846 120.509 141.492C119.908 144.913 120.681 148.177 121.511 151.47C122.384 154.977 122.957 158.541 123.615 162.077C123.644 162.263 123.687 162.464 123.801 162.621C123.916 162.779 124.102 162.879 124.288 162.95C125.247 163.351 126.335 163.323 127.337 163.094C128.339 162.865 129.298 162.421 130.229 161.991C129.327 158.083 128.955 154.075 128.797 150.081C128.697 147.662 128.683 145.228 128.668 142.809C128.668 141.592 128.668 140.39 128.654 139.173C128.654 138.629 128.597 138.056 128.654 137.512C128.654 137.441 128.668 137.383 128.683 137.312C128.769 136.839 128.926 136.396 129.026 135.923C129.155 135.279 129.127 134.52 128.668 134.048C128.668 134.048 128.654 134.048 128.64 134.034C129.212 133.79 129.771 133.533 130.3 133.232C130.386 133.189 130.458 133.132 130.515 133.06C130.572 132.989 130.587 132.888 130.615 132.803C131.116 130.326 131.274 127.792 131.088 125.273C131.002 124.085 130.716 122.939 130.601 121.751C130.472 120.449 130.486 119.146 130.558 117.843C130.844 113.277 131.975 108.825 132.591 104.287L132.619 104.315Z" fill="#BFBFBF"/>
<path d="M146.276 166.901C145.875 166.014 144.158 165.742 143.413 165.513C142.426 165.212 141.423 164.955 140.407 164.74C138.374 164.325 136.299 164.11 134.237 164.038C133.006 163.995 131.732 164.01 130.558 164.396C130.157 164.525 129.685 164.711 129.485 165.112C129.284 165.541 129.184 166.071 129.055 166.529C128.855 167.216 128.683 167.903 128.597 168.619C128.525 169.149 128.511 169.707 128.683 170.223C129.012 171.225 130.057 171.897 131.102 171.897C131.761 171.897 132.391 171.668 133.049 171.54C134.466 171.268 135.912 171.54 137.344 171.611C138.403 171.668 139.448 171.611 140.493 171.511C141.452 171.411 142.697 171.368 143.585 170.981C145.06 170.351 146.262 169.049 146.362 167.374C146.362 167.202 146.348 167.045 146.276 166.901Z" fill="#4D4D4D"/>
<path d="M141.366 99.4908C140.622 100.636 139.033 100.851 137.673 100.722C135.053 100.45 132.591 99.3047 130.429 97.7873C129.814 97.3579 129.213 96.8998 128.483 96.728C126.364 96.2556 125.605 98.3599 124.775 99.7914C123.615 101.81 122.513 103.929 122.041 106.219C121.497 108.824 121.812 111.602 122.9 114.021C123.429 115.195 124.145 116.283 124.546 117.499C125.276 119.69 124.975 122.08 124.703 124.371C124.188 128.622 123.802 132.917 124.045 137.197C124.002 138.242 124.102 139.316 124.217 140.361C124.331 141.463 124.446 142.565 124.546 143.668C124.832 146.445 125.262 149.079 126.063 151.741C126.75 154.061 127.681 156.308 128.196 158.656C128.74 161.132 128.812 163.666 129.112 166.186C129.127 166.314 129.141 166.443 129.227 166.543C129.313 166.658 129.456 166.701 129.599 166.73C131.26 167.145 133.078 166.887 134.567 166.028C135.125 165.699 135.683 165.212 135.726 164.568C135.726 164.31 135.669 164.067 135.597 163.809C133.65 156.952 133.207 149.551 133.794 142.465C133.937 140.805 134.624 139.402 135.225 137.87C135.855 136.238 136.47 134.606 137.029 132.946C138.145 129.61 139.062 126.203 139.505 122.71C139.963 119.232 139.963 115.696 140.407 112.217C140.894 108.409 141.896 104.644 141.824 100.822C141.824 100.321 141.753 99.7628 141.381 99.4479L141.366 99.4908Z" fill="#F2F2F2"/>
<path d="M124.36 85.3617C125.262 88.5111 126.922 91.6747 126.292 94.8957C125.92 96.8282 124.746 98.4888 123.587 100.078C123.472 100.221 123.358 100.378 123.343 100.565C123.315 100.765 123.401 100.965 123.486 101.137C124.617 103.471 126.822 105.145 129.241 106.09C131.66 107.035 134.28 107.307 136.857 107.422C138.36 107.493 139.935 107.493 141.266 106.792C142.082 101.567 142.569 96.2842 142.755 91.0019C142.783 90.0857 142.812 89.1553 143.127 88.2963C143.614 87.008 144.73 85.963 144.873 84.5887C145.002 83.3003 144.244 82.1122 143.471 81.0815C140.493 77.1304 136.9 73.6948 133.307 70.2878C132.247 69.2857 131.174 68.2693 129.943 67.482C129.213 67.0239 128.497 67.0525 127.767 67.5535C127.294 67.8828 126.936 68.3409 126.621 68.8276C126.049 69.7008 125.619 70.66 125.247 71.6334C125.233 71.6763 125.219 71.7193 125.19 71.7622C123.501 76.1427 123.057 80.7808 124.36 85.3331V85.3617Z" fill="#1F2125"/>
<path d="M127.151 67.7969C127.065 68.1548 127.037 68.57 127.251 68.8706C127.495 69.1998 127.953 69.2857 128.354 69.3573C130.215 69.7009 132.004 70.6314 133.207 72.0772C133.665 72.6212 134.051 73.2511 134.624 73.6948C134.91 73.9096 135.268 74.0813 135.611 74.0241C136.513 73.8952 136.113 73.0363 136.113 72.4637C136.113 71.6477 136.327 70.7888 136.456 69.9872C136.714 68.3409 137.057 66.709 137.458 65.0914C136.771 64.9196 136.141 64.5474 135.54 64.1752C134.609 63.6169 133.665 63.0586 132.791 62.4001C132.276 62.0136 131.789 61.6128 131.202 61.3551C130.601 61.0974 129.943 61.0258 129.298 61.0401C128.754 61.0401 128.196 60.9686 127.967 61.5841C127.867 61.8561 127.867 62.1711 127.867 62.4717C127.867 63.6026 127.853 64.7335 127.652 65.8501C127.552 66.4227 127.366 66.9523 127.208 67.4963C127.18 67.5822 127.151 67.6824 127.137 67.7826L127.151 67.7969Z" fill="#FFB78C"/>
<path d="M141.839 57.6046C141.896 57.8765 141.939 58.1485 141.853 58.4062C141.796 58.578 141.681 58.7211 141.638 58.8929C141.581 59.1649 141.71 59.4226 141.839 59.666C142.254 60.4247 142.655 61.169 143.07 61.9278C142.712 62.4145 141.939 62.4002 141.567 62.8726C141.366 63.1016 141.309 63.4165 141.252 63.7172C141.023 64.9626 140.808 66.208 140.579 67.4534C139.362 67.7397 138.131 67.9688 136.886 68.1263C136.585 68.1692 136.284 68.1978 135.998 68.0833C135.755 67.9831 135.583 67.797 135.411 67.6109C134.982 67.1385 134.609 66.6088 134.309 66.0505C134.166 65.7929 134.023 65.5209 133.765 65.3777C133.536 65.2632 133.264 65.2775 133.006 65.2918C130.143 65.435 127.251 63.7887 126.006 61.212C124.761 58.6352 125.29 55.2855 127.323 53.2814C128.84 51.7926 130.988 51.0911 133.121 50.9623C134.652 50.8764 136.198 51.0625 137.63 51.6065C138.36 51.8785 139.047 52.2507 139.677 52.7087C140.378 53.2241 140.636 53.8683 140.951 54.6699C141.323 55.6147 141.624 56.5882 141.839 57.5902V57.6046Z" fill="#FFE5CC"/>
<path d="M134.194 60.668C133.293 61.169 134.108 62.5147 134.423 63.1875C134.781 63.9319 135.111 64.7049 135.282 65.5065C135.411 66.1364 135.511 66.9667 135.282 67.5823C135.111 68.0403 134.652 68.3839 134.237 68.6559C133.751 68.9708 133.192 69.1999 132.634 69.3717C130.401 70.0302 127.91 69.8298 125.82 68.8134C124.331 68.0833 123.043 66.9524 122.127 65.5638C121.711 64.9483 121.21 64.2468 121.282 63.4881C121.368 62.5433 121.726 61.5555 121.969 60.6394C122.527 58.5493 123.343 56.5166 124.589 54.7558C125.834 52.9807 127.509 51.4919 129.499 50.6616C132.419 49.4592 135.912 49.2015 138.575 51.1913C139.062 51.5492 139.505 51.993 139.777 52.5226C140.464 53.8969 139.663 56.173 139.047 57.4471C138.346 58.8929 137.043 60.167 135.454 60.396C135.039 60.4533 134.595 60.4533 134.237 60.668H134.194Z" fill="#733118"/>
<path d="M171.314 67.3532C171.271 67.2673 171.213 67.1814 171.128 67.1528C171.042 67.1099 170.927 67.1528 170.899 67.2387C171.013 66.208 170.97 65.1487 170.784 64.118C170.755 63.9891 170.727 63.846 170.641 63.7315C170.555 63.6313 170.398 63.5597 170.283 63.6313C170.183 63.6885 170.14 63.8174 170.025 63.8746C169.939 63.9176 169.839 63.8746 169.753 63.8746C169.41 63.8603 169.166 64.1896 169.009 64.4902C167.563 67.024 166.418 69.7152 165.588 72.521C165.387 73.1938 165.273 73.9812 165.244 74.6826C165.244 74.8544 165.244 75.0119 165.201 75.1693C165.172 75.2839 165.115 75.3841 165.058 75.4843C164.9 75.7992 156.168 84.7176 155.409 85.233C155.295 85.3045 155.195 85.3761 155.08 85.4477C153.806 84.8178 152.403 84.4456 151.101 83.8587C148.567 82.6992 146.534 80.6664 144.344 78.9486C143.012 77.9036 141.581 76.9444 139.978 76.3718C139.233 76.0998 138.417 75.8851 137.616 75.8565C137.043 75.8565 136.742 76.1142 136.342 76.4864C135.683 77.1162 135.125 77.832 134.767 78.6766C134.352 79.6357 134.151 80.738 134.523 81.7257C134.867 82.6705 135.483 83.5151 136.213 84.2166C137.2 85.1614 138.389 85.8485 139.577 86.507C144.158 89.0122 149.011 91.045 154.049 92.3906C154.622 92.5481 155.223 92.6912 155.796 92.5767C157.9 92.1902 165.359 81.8403 167.706 78.6623C168.68 77.7318 169.481 76.6152 169.982 75.3554C170.24 74.7256 170.426 74.0814 170.598 73.4229C170.87 72.4351 171.142 71.4331 171.385 70.431C171.514 69.9013 171.643 69.3717 171.643 68.8277C171.643 68.3124 171.528 67.7827 171.271 67.3389L171.314 67.3532Z" fill="#FFE5CC"/>
<path d="M143.728 88.554C144.773 87.466 145.818 86.3494 146.648 85.0754C147.25 84.1449 148.309 82.47 147.736 81.3248C147.665 81.1673 147.536 81.0528 147.407 80.9383C145.246 78.8625 142.755 77.1161 140.078 75.7848C139.548 75.5271 139.018 75.2837 138.46 75.1406C137.429 74.8686 136.327 74.9545 135.296 75.1978C134.939 75.2837 134.595 75.3839 134.28 75.5557C132.362 76.658 132.348 79.6785 132.92 81.4965C133.579 83.6152 135.153 85.3617 137.043 86.5212C138.933 87.6807 141.094 88.3249 143.27 88.7114C143.342 88.7114 143.413 88.7401 143.485 88.7114C143.585 88.6828 143.657 88.6112 143.728 88.5396V88.554Z" fill="#4D4D4D"/>
</g>
<defs>
<clipPath id="clip0_1243_4480">
<rect width="128.68" height="222.115" fill="white" transform="translate(110.66)"/>
</clipPath>
</defs>
</svg>
