<svg width="350" height="223" viewBox="0 0 350 223" fill="none" xmlns="http://www.w3.org/2000/svg">
<g clip-path="url(#clip0_1243_4381)">
<path d="M263.715 188.385L140.486 117.311C138.999 116.463 139.191 114.96 140.902 113.968L144.804 111.713C146.516 110.722 149.107 110.626 150.578 111.473L273.807 182.548C275.294 183.395 275.102 184.899 273.391 185.89L269.488 188.145C267.777 189.137 265.186 189.233 263.715 188.385Z" fill="#999999" fill-opacity="0.3"/>
<path d="M272.959 72.002L148.691 0.255956C148.163 -0.0479177 147.699 -0.0799044 147.364 0.128009L143.301 2.49502C143.637 2.3031 144.117 2.3191 144.629 2.62297L268.897 74.3691C269.92 74.9608 270.752 76.4002 270.752 77.5677L270.496 170.201C270.496 170.793 270.288 171.193 269.952 171.385L274.015 169.018C274.351 168.826 274.559 168.41 274.559 167.834L274.814 75.2167C274.814 74.0332 273.983 72.6098 272.959 72.018V72.002Z" fill="#E6E6E6"/>
<path d="M270.752 77.5676V87.0996L270.48 170.185C270.48 171.368 269.649 171.832 268.625 171.241L144.357 99.4944C143.317 98.8867 142.486 97.4633 142.502 96.2798L142.726 13.1944V3.6624C142.758 2.4789 143.589 2.01509 144.613 2.60684L268.897 74.3529C269.905 74.9607 270.736 76.3841 270.736 77.5676H270.752Z" fill="#BFBFBF"/>
<path d="M268.481 77.8876V87.0837L268.225 167.226C268.225 168.362 267.426 168.826 266.434 168.25L146.564 99.0467C145.556 98.471 144.757 97.0796 144.773 95.96L144.997 15.8174V6.62128C145.029 5.48576 145.828 5.02195 146.82 5.59771L266.69 74.8009C267.665 75.3766 268.465 76.768 268.465 77.8876H268.481Z" fill="#1F2125"/>
<path d="M270.752 77.5676V87.0996L142.741 13.1944V3.6624C142.773 2.4789 143.605 2.01509 144.629 2.60684L268.913 74.3529C269.92 74.9607 270.752 76.3841 270.752 77.5676Z" fill="#BFBFBF"/>
<path d="M155.728 32.7064L152.257 30.7072C151.698 30.3873 151.25 29.5237 151.25 28.788C151.25 28.0523 151.698 27.7004 152.257 28.0203L155.728 30.0195C156.288 30.3393 156.735 31.203 156.735 31.9387C156.735 32.6744 156.288 33.0262 155.728 32.7064Z" fill="#006EFF"/>
<path d="M155.728 79.8546L152.257 77.8554C151.698 77.5355 151.25 76.6719 151.25 75.9362C151.25 75.2005 151.698 74.8486 152.257 75.1685L155.728 77.1677C156.288 77.4875 156.735 78.3512 156.735 79.0869C156.735 79.8226 156.288 80.1744 155.728 79.8546Z" fill="#006EFF"/>
<path d="M165.468 85.4843L158.527 81.486C157.967 81.1661 157.519 80.3025 157.519 79.5668C157.519 78.8311 157.967 78.4793 158.527 78.7991L165.468 82.7975C166.028 83.1173 166.476 83.981 166.476 84.7167C166.476 85.4523 166.028 85.8042 165.468 85.4843Z" fill="#B3D4FF"/>
<path d="M190.498 99.9262L168.331 87.1315C167.771 86.8116 167.323 85.948 167.323 85.2123C167.323 84.4766 167.771 84.1248 168.331 84.4446L190.498 97.2393C191.057 97.5592 191.505 98.4228 191.505 99.1585C191.505 99.8942 191.057 100.246 190.498 99.9262Z" fill="#FFAD66"/>
<path d="M169.402 40.607L158.895 34.5456C158.335 34.2257 157.887 33.3621 157.887 32.6264C157.887 31.8907 158.335 31.5388 158.895 31.8587L169.402 37.9202C169.962 38.24 170.41 39.1037 170.41 39.8394C170.41 40.5751 169.962 40.9269 169.402 40.607Z" fill="#B3D4FF"/>
<path d="M204.22 60.7106L172.633 42.4782C172.073 42.1583 171.625 41.2947 171.625 40.559C171.625 39.8233 172.073 39.4714 172.633 39.7913L204.22 58.0237C204.78 58.3436 205.227 59.2072 205.227 59.9429C205.227 60.6786 204.78 61.0305 204.22 60.7106Z" fill="#FFAD66"/>
<path d="M158.991 39.1998L155.52 37.2006C154.96 36.8807 154.512 36.0171 154.512 35.2814C154.512 34.5457 154.96 34.1939 155.52 34.5137L158.991 36.5129C159.55 36.8328 159.998 37.6964 159.998 38.4321C159.998 39.1678 159.55 39.5196 158.991 39.1998Z" fill="#006EFF"/>
<path d="M172.665 47.1005L162.157 41.039C161.597 40.7191 161.15 39.8555 161.15 39.1198C161.15 38.3841 161.597 38.0322 162.157 38.3521L172.665 44.4136C173.225 44.7334 173.672 45.5971 173.672 46.3328C173.672 47.0685 173.225 47.4203 172.665 47.1005Z" fill="#B3D4FF"/>
<path d="M207.482 67.204L175.896 48.9716C175.336 48.6517 174.888 47.7881 174.888 47.0524C174.888 46.3167 175.336 45.9648 175.896 46.2847L207.482 64.5171C208.042 64.837 208.49 65.7006 208.49 66.4363C208.49 67.172 208.042 67.5239 207.482 67.204Z" fill="#FFAD66"/>
<path d="M158.991 44.1895L155.52 42.1903C154.96 41.8705 154.512 41.0068 154.512 40.2711C154.512 39.5355 154.96 39.1836 155.52 39.5035L158.991 41.5026C159.55 41.8225 159.998 42.6861 159.998 43.4218C159.998 44.1575 159.55 44.5094 158.991 44.1895Z" fill="#006EFF"/>
<path d="M158.991 48.9398L155.52 46.9406C154.96 46.6207 154.512 45.7571 154.512 45.0214C154.512 44.2857 154.96 43.9338 155.52 44.2537L158.991 46.2529C159.55 46.5727 159.998 47.4364 159.998 48.1721C159.998 48.9078 159.55 49.2596 158.991 48.9398Z" fill="#006EFF"/>
<path d="M158.991 68.0357L155.52 66.0365C154.96 65.7167 154.512 64.853 154.512 64.1173C154.512 63.3816 154.96 63.0298 155.52 63.3497L158.991 65.3488C159.55 65.6687 159.998 66.5323 159.998 67.268C159.998 68.0037 159.55 68.3556 158.991 68.0357Z" fill="#006EFF"/>
<path d="M158.991 72.6895L155.52 70.6903C154.96 70.3705 154.512 69.5068 154.512 68.7711C154.512 68.0355 154.96 67.6836 155.52 68.0035L158.991 70.0026C159.55 70.3225 159.998 71.1861 159.998 71.9218C159.998 72.6575 159.55 73.0094 158.991 72.6895Z" fill="#006EFF"/>
<path d="M158.991 85.9642L155.52 83.965C154.96 83.6451 154.512 82.7815 154.512 82.0458C154.512 81.3101 154.96 80.9583 155.52 81.2781L158.991 83.2773C159.55 83.5972 159.998 84.4608 159.998 85.1965C159.998 85.9322 159.55 86.284 158.991 85.9642Z" fill="#006EFF"/>
<path d="M168.459 91.4339L161.725 87.5475C161.166 87.2277 160.718 86.364 160.718 85.6283C160.718 84.8926 161.166 84.5408 161.725 84.8606L168.459 88.747C169.018 89.0669 169.466 89.9305 169.466 90.6662C169.466 91.4019 169.018 91.7538 168.459 91.4339Z" fill="#B3D4FF"/>
<path d="M194.592 106.516L171.545 93.2091C170.986 92.8893 170.538 92.0256 170.538 91.2899C170.538 90.5543 170.986 90.2024 171.545 90.5223L194.592 103.829C195.152 104.149 195.599 105.012 195.599 105.748C195.599 106.484 195.152 106.835 194.592 106.516Z" fill="#FFAD66"/>
<path d="M206.939 100.374L203.468 98.3749C202.908 98.055 202.46 97.1914 202.46 96.4557C202.46 95.72 202.908 95.3682 203.468 95.688L206.939 97.6872C207.498 98.0071 207.946 98.8707 207.946 99.6064C207.946 100.342 207.498 100.694 206.939 100.374Z" fill="#006EFF"/>
<path d="M157.039 51.9942L153.569 49.995C153.009 49.6752 152.561 48.8115 152.561 48.0758C152.561 47.3401 153.009 46.9883 153.569 47.3082L157.039 49.3073C157.599 49.6272 158.047 50.4908 158.047 51.2265C158.047 51.9622 157.599 52.3141 157.039 51.9942Z" fill="#006EFF"/>
<path d="M166.619 57.5279L159.982 53.7055C159.422 53.3856 158.975 52.522 158.975 51.7863C158.975 51.0506 159.422 50.6987 159.982 51.0186L166.619 54.841C167.179 55.1609 167.627 56.0245 167.627 56.7602C167.627 57.4959 167.179 57.8478 166.619 57.5279Z" fill="#B3D4FF"/>
<path d="M202.268 78.1115L197.598 75.4086C197.039 75.0887 196.591 74.2251 196.591 73.4894C196.591 72.7537 197.039 72.4019 197.598 72.7217L202.268 75.4246C202.828 75.7445 203.276 76.6081 203.276 77.3438C203.276 78.0795 202.828 78.4313 202.268 78.1115Z" fill="#B3D4FF"/>
<path d="M180.39 65.4767L169.61 59.2553C169.05 58.9354 168.603 58.0718 168.603 57.3361C168.603 56.6004 169.05 56.2485 169.61 56.5684L180.39 62.7898C180.949 63.1097 181.397 63.9733 181.397 64.709C181.397 65.4447 180.949 65.7966 180.39 65.4767Z" fill="#FFAD66"/>
<path d="M157.039 57.1761L153.569 55.1769C153.009 54.8571 152.561 53.9934 152.561 53.2577C152.561 52.522 153.009 52.1702 153.569 52.49L157.039 54.4892C157.599 54.8091 158.047 55.6727 158.047 56.4084C158.047 57.1441 157.599 57.496 157.039 57.1761Z" fill="#006EFF"/>
<path d="M157.039 76.0963L153.569 74.0971C153.009 73.7772 152.561 72.9136 152.561 72.1779C152.561 71.4422 153.009 71.0903 153.569 71.4102L157.039 73.4094C157.599 73.7292 158.047 74.5929 158.047 75.3286C158.047 76.0643 157.599 76.4161 157.039 76.0963Z" fill="#006EFF"/>
<path d="M166.619 62.7098L159.982 58.8874C159.422 58.5675 158.975 57.7039 158.975 56.9682C158.975 56.2325 159.422 55.8806 159.982 56.2005L166.619 60.0229C167.179 60.3428 167.627 61.2064 167.627 61.9421C167.627 62.6778 167.179 63.0296 166.619 62.7098Z" fill="#B3D4FF"/>
<path d="M166.619 77.0878L162.221 74.5448C161.661 74.225 161.214 73.3613 161.214 72.6256C161.214 71.8899 161.661 71.5381 162.221 71.858L166.619 74.4009C167.179 74.7208 167.627 75.5844 167.627 76.3201C167.627 77.0558 167.179 77.4076 166.619 77.0878Z" fill="#B3D4FF"/>
<path d="M185.444 87.9633L181.045 85.4203C180.486 85.1005 180.038 84.2368 180.038 83.5011C180.038 82.7654 180.486 82.4136 181.045 82.7334L185.444 85.2764C186.003 85.5963 186.451 86.4599 186.451 87.1956C186.451 87.9313 186.003 88.2831 185.444 87.9633Z" fill="#B3D4FF"/>
<path d="M215.559 96.2478L157.151 62.5339C156.592 62.214 156.144 61.3503 156.144 60.6147C156.144 59.879 156.592 59.5271 157.151 59.847L215.559 93.5609C216.119 93.8808 216.567 94.7444 216.567 95.4801C216.567 96.2158 216.119 96.5677 215.559 96.2478Z" fill="#F2F2F2"/>
<path d="M177.943 69.2509L169.61 64.4369C169.05 64.1171 168.603 63.2534 168.603 62.5177C168.603 61.782 169.05 61.4302 169.61 61.75L177.943 66.564C178.502 66.8839 178.95 67.7475 178.95 68.4832C178.95 69.2189 178.502 69.5708 177.943 69.2509Z" fill="#FFAD66"/>
<path d="M177.943 83.6291L169.61 78.8151C169.05 78.4952 168.603 77.6316 168.603 76.8959C168.603 76.1602 169.05 75.8084 169.61 76.1282L177.943 80.9422C178.502 81.2621 178.95 82.1257 178.95 82.8614C178.95 83.5971 178.502 83.949 177.943 83.6291Z" fill="#FFAD66"/>
<path d="M200.365 96.5837L188.61 89.7865C188.051 89.4667 187.603 88.603 187.603 87.8673C187.603 87.1316 188.051 86.7798 188.61 87.0997L200.365 93.8968C200.925 94.2167 201.373 95.0803 201.373 95.816C201.373 96.5517 200.925 96.9036 200.365 96.5837Z" fill="#F2F2F2"/>
<path d="M194.704 73.7452L183.924 67.5238C183.364 67.204 182.917 66.3403 182.917 65.6046C182.917 64.8689 183.364 64.5171 183.924 64.837L194.704 71.0584C195.263 71.3782 195.711 72.2419 195.711 72.9776C195.711 73.7133 195.263 74.0651 194.704 73.7452Z" fill="#F2F2F2"/>
<path d="M172.665 52.0904L162.157 46.029C161.597 45.7091 161.15 44.8455 161.15 44.1098C161.15 43.3741 161.597 43.0222 162.157 43.3421L172.665 49.4036C173.225 49.7234 173.672 50.5871 173.672 51.3228C173.672 52.0585 173.225 52.4103 172.665 52.0904Z" fill="#B3D4FF"/>
<path d="M195.263 65.141L184.756 59.0795C184.196 58.7596 183.748 57.896 183.748 57.1603C183.748 56.4246 184.196 56.0728 184.756 56.3926L195.263 62.4541C195.823 62.774 196.271 63.6376 196.271 64.3733C196.271 65.109 195.823 65.4608 195.263 65.141Z" fill="#B3D4FF"/>
<path d="M181.205 57.0162L175.88 53.9455C175.32 53.6256 174.872 52.762 174.872 52.0263C174.872 51.2906 175.32 50.9387 175.88 51.2586L181.205 54.3293C181.765 54.6492 182.213 55.5128 182.213 56.2485C182.213 56.9842 181.765 57.3361 181.205 57.0162Z" fill="#FFAD66"/>
<path d="M215.975 77.088L198.814 67.1881C198.254 66.8683 197.807 66.0046 197.807 65.2689C197.807 64.5333 198.254 64.1814 198.814 64.5013L215.975 74.4011C216.535 74.721 216.983 75.5846 216.983 76.3203C216.983 77.056 216.535 77.4079 215.975 77.088Z" fill="#FFAD66"/>
<path d="M158.991 90.1863L155.52 88.1872C154.96 87.8673 154.512 87.0037 154.512 86.268C154.512 85.5323 154.96 85.1804 155.52 85.5003L158.991 87.4995C159.55 87.8193 159.998 88.683 159.998 89.4187C159.998 90.1544 159.55 90.5062 158.991 90.1863Z" fill="#006EFF"/>
<path d="M172.665 98.087L162.157 92.0256C161.597 91.7057 161.15 90.842 161.15 90.1063C161.15 89.3707 161.597 89.0188 162.157 89.3387L172.665 95.4001C173.225 95.72 173.672 96.5836 173.672 97.3193C173.672 98.055 173.225 98.4069 172.665 98.087Z" fill="#B3D4FF"/>
<path d="M195.263 111.122L184.756 105.06C184.196 104.74 183.748 103.877 183.748 103.141C183.748 102.405 184.196 102.053 184.756 102.373L195.263 108.435C195.823 108.755 196.271 109.618 196.271 110.354C196.271 111.09 195.823 111.442 195.263 111.122Z" fill="#B3D4FF"/>
<path d="M181.205 103.013L175.88 99.9423C175.32 99.6224 174.872 98.7588 174.872 98.0231C174.872 97.2874 175.32 96.9356 175.88 97.2554L181.205 100.326C181.765 100.646 182.213 101.51 182.213 102.245C182.213 102.981 181.765 103.333 181.205 103.013Z" fill="#FFAD66"/>
<path d="M215.975 123.085L198.814 113.185C198.254 112.865 197.807 112.001 197.807 111.266C197.807 110.53 198.254 110.178 198.814 110.498L215.975 120.398C216.535 120.718 216.983 121.581 216.983 122.317C216.983 123.053 216.535 123.404 215.975 123.085Z" fill="#FFAD66"/>
<path d="M260.133 75.4406C260.133 77.1039 261.316 79.1511 262.771 79.9827C264.227 80.8304 265.41 80.1426 265.41 78.4793C265.41 76.816 264.227 74.7689 262.771 73.9372C261.316 73.0896 260.133 73.7773 260.133 75.4406Z" fill="#404040"/>
<path d="M252.776 71.2021C252.776 72.8654 253.959 74.9125 255.415 75.7442C256.87 76.5918 258.053 75.9041 258.053 74.2408C258.053 72.5775 256.87 70.5304 255.415 69.6987C253.959 68.8511 252.776 69.5388 252.776 71.2021Z" fill="#404040"/>
<path d="M245.403 66.9479C245.403 68.6112 246.586 70.6584 248.042 71.49C249.497 72.3377 250.681 71.65 250.681 69.9867C250.681 68.3234 249.497 66.2762 248.042 65.4446C246.586 64.5969 245.403 65.2846 245.403 66.9479Z" fill="#404040"/>
<path d="M208.65 102.741L84.3817 30.995C83.8539 30.6911 83.3901 30.6591 83.0542 30.867L78.9919 33.234C79.3278 33.0421 79.8076 33.0581 80.3194 33.362L204.588 105.108C205.611 105.7 206.443 107.139 206.443 108.307L206.187 200.924C206.187 201.516 205.979 201.916 205.643 202.108L209.705 199.741C210.041 199.549 210.249 199.133 210.249 198.557L210.505 105.94C210.505 104.756 209.673 103.333 208.65 102.741Z" fill="#E6E6E6"/>
<path d="M206.443 108.307V117.839L206.171 200.924C206.171 202.107 205.339 202.571 204.316 201.98L80.0476 130.233C79.008 129.626 78.1764 128.202 78.1924 127.019L78.4163 43.9334V34.4014C78.4483 33.2179 79.2799 32.7541 80.3035 33.3459L204.588 105.092C205.595 105.7 206.427 107.123 206.427 108.307H206.443Z" fill="#BFBFBF"/>
<path d="M204.172 108.627V117.823L203.916 197.965C203.916 199.101 203.116 199.565 202.125 198.989L82.2546 129.786C81.247 129.21 80.4474 127.835 80.4634 126.699L80.6873 46.5565V37.3603C80.7193 36.2248 81.5189 35.761 82.5105 36.3367L202.381 105.54C203.356 106.116 204.156 107.507 204.156 108.643L204.172 108.627Z" fill="#1F2125"/>
<path d="M95.1133 70.3066L89.6596 67.1559C89.0039 66.7721 88.4761 65.7645 88.4761 64.9008V61.3663C88.4761 60.5027 89.0039 60.1028 89.6596 60.4707L95.1133 63.6214C95.769 64.0052 96.2968 65.0128 96.2968 65.8764V69.411C96.2968 70.2746 95.769 70.6744 95.1133 70.3066Z" fill="#006EFF"/>
<path d="M91.8987 79.7106L89.1478 78.1273C88.764 77.9034 88.4441 77.3116 88.4441 76.7999V74.2729C88.4441 73.7611 88.748 73.5212 89.1478 73.7451L91.8987 75.3285C92.2825 75.5524 92.6024 76.1441 92.6024 76.6559V79.1829C92.6024 79.6946 92.2985 79.9345 91.8987 79.7106Z" fill="#FFAD66"/>
<path d="M125.229 98.9506L120.335 96.1198C119.839 95.8319 119.455 95.0802 119.455 94.4245V92.3933C119.455 91.7376 119.855 91.4497 120.335 91.7216L125.229 94.5524C125.724 94.8403 126.108 95.592 126.108 96.2477V98.2789C126.108 98.9346 125.708 99.2225 125.229 98.9506Z" fill="#FFAD66"/>
<path d="M141.542 130.537L120.191 118.207C119.775 117.967 119.439 117.327 119.439 116.767V99.7502C119.439 99.1905 119.775 98.9346 120.191 99.1745L141.542 111.505C141.958 111.745 142.294 112.385 142.294 112.945V129.962C142.294 130.521 141.958 130.777 141.542 130.537Z" fill="#F2F2F2"/>
<path d="M168.491 146.083L147.14 133.752C146.724 133.512 146.388 132.873 146.388 132.313V115.296C146.388 114.736 146.724 114.48 147.14 114.72L168.491 127.051C168.907 127.291 169.242 127.931 169.242 128.49V145.507C169.242 146.067 168.907 146.323 168.491 146.083Z" fill="white"/>
<path d="M195.439 161.645L174.088 149.314C173.673 149.074 173.337 148.434 173.337 147.874V130.857C173.337 130.298 173.673 130.042 174.088 130.282L195.439 142.612C195.855 142.852 196.191 143.492 196.191 144.052V161.069C196.191 161.629 195.855 161.884 195.439 161.645Z" fill="#8C8C8C"/>
<path d="M141.542 154.095L120.191 141.765C119.775 141.525 119.439 140.885 119.439 140.325V123.308C119.439 122.749 119.775 122.493 120.191 122.733L141.542 135.063C141.958 135.303 142.294 135.943 142.294 136.503V153.52C142.294 154.079 141.958 154.335 141.542 154.095Z" fill="#8C8C8C"/>
<path d="M168.491 169.657L147.14 157.326C146.724 157.087 146.388 156.447 146.388 155.887V138.87C146.388 138.31 146.724 138.054 147.14 138.294L168.491 150.625C168.907 150.865 169.242 151.505 169.242 152.065V169.081C169.242 169.641 168.907 169.897 168.491 169.657Z" fill="#BFBFBF"/>
<path d="M195.439 185.203L174.088 172.872C173.673 172.632 173.337 171.992 173.337 171.432V154.416C173.337 153.856 173.673 153.6 174.088 153.84L195.439 166.171C195.855 166.411 196.191 167.05 196.191 167.61V184.627C196.191 185.187 195.855 185.443 195.439 185.203Z" fill="#F2F2F2"/>
<path d="M133.737 103.876L128.843 101.046C128.347 100.758 127.963 100.006 127.963 99.3503V97.3191C127.963 96.6634 128.363 96.3755 128.843 96.6474L133.737 99.4782C134.217 99.7661 134.617 100.518 134.617 101.174V103.205C134.617 103.86 134.217 104.148 133.737 103.876Z" fill="#FFAD66"/>
<path d="M142.262 108.787L137.368 105.956C136.872 105.668 136.488 104.916 136.488 104.26V102.229C136.488 101.574 136.888 101.286 137.368 101.558L142.262 104.388C142.741 104.676 143.141 105.428 143.141 106.084V108.115C143.141 108.771 142.741 109.058 142.262 108.787Z" fill="#FFAD66"/>
<path d="M150.786 113.712L145.892 110.881C145.396 110.594 145.012 109.842 145.012 109.186V107.155C145.012 106.499 145.412 106.211 145.892 106.483L150.786 109.314C151.282 109.602 151.666 110.354 151.666 111.009V113.041C151.666 113.696 151.266 113.984 150.786 113.712Z" fill="#FFAD66"/>
<path d="M195.12 139.302L188.083 135.239C187.507 134.903 187.043 134.024 187.043 133.272V131.641C187.043 130.873 187.507 130.537 188.083 130.857L195.12 134.919C195.695 135.255 196.159 136.135 196.159 136.887V138.518C196.159 139.286 195.695 139.621 195.12 139.302Z" fill="#FFAD66"/>
<path d="M184.212 133.016L179.318 130.185C178.822 129.898 178.438 129.146 178.438 128.49V126.459C178.438 125.803 178.838 125.515 179.318 125.787L184.212 128.618C184.708 128.906 185.092 129.658 185.092 130.313V132.345C185.092 133 184.692 133.288 184.212 133.016Z" fill="#FFAD66"/>
<path d="M175.864 128.186L172.681 126.347C172.281 126.107 171.945 125.484 171.945 124.94V122.525C171.945 121.981 172.281 121.725 172.681 121.965L175.864 123.804C176.264 124.044 176.599 124.668 176.599 125.212V127.627C176.599 128.17 176.264 128.426 175.864 128.186Z" fill="#FFAD66"/>
<path d="M168.762 124.092L154.912 116.096C154.144 115.648 153.521 114.448 153.521 113.425V112.769C153.521 111.745 154.144 111.266 154.912 111.713L168.762 119.71C169.53 120.158 170.154 121.357 170.154 122.381V123.037C170.154 124.06 169.53 124.54 168.762 124.092Z" fill="#FFAD66"/>
<path d="M91.8987 87.3234L89.1478 85.7401C88.764 85.5162 88.4441 84.9244 88.4441 84.4126V81.8857C88.4441 81.3739 88.748 81.134 89.1478 81.3579L91.8987 82.9413C92.2825 83.1652 92.6024 83.7569 92.6024 84.2687V86.7957C92.6024 87.3074 92.2985 87.5473 91.8987 87.3234Z" fill="#FFAD66"/>
<path d="M91.8987 94.9362L89.1478 93.3529C88.764 93.129 88.4441 92.5372 88.4441 92.0254V89.4985C88.4441 88.9867 88.748 88.7468 89.1478 88.9707L91.8987 90.554C92.2825 90.778 92.6024 91.3697 92.6024 91.8815V94.4084C92.6024 94.9202 92.2985 95.1601 91.8987 94.9362Z" fill="#FFAD66"/>
<path d="M91.8987 102.533L89.1478 100.95C88.764 100.726 88.4441 100.134 88.4441 99.6224V97.0954C88.4441 96.5836 88.748 96.3437 89.1478 96.5676L91.8987 98.151C92.2825 98.3749 92.6024 98.9666 92.6024 99.4784V102.005C92.6024 102.517 92.2985 102.757 91.8987 102.533Z" fill="#FFAD66"/>
<path d="M91.8987 110.146L89.1478 108.563C88.764 108.339 88.4441 107.747 88.4441 107.235V104.708C88.4441 104.196 88.748 103.957 89.1478 104.18L91.8987 105.764C92.2825 105.988 92.6024 106.579 92.6024 107.091V109.618C92.6024 110.13 92.2985 110.37 91.8987 110.146Z" fill="#FFAD66"/>
<path d="M114.993 81.7898L99.3194 72.7376C98.5517 72.2898 97.928 71.0903 97.928 70.0667V69.8268C97.928 68.8032 98.5517 68.3234 99.3194 68.7713L114.993 77.8235C115.761 78.2713 116.384 79.4708 116.384 80.4944V80.7343C116.384 81.7578 115.761 82.2376 114.993 81.7898Z" fill="#F2F2F2"/>
<path d="M114.993 92.8411L99.3194 83.7889C98.5517 83.3411 97.928 82.1416 97.928 81.118V80.8781C97.928 79.8545 98.5517 79.3747 99.3194 79.8225L114.993 88.8748C115.761 89.3226 116.384 90.5221 116.384 91.5456V91.7855C116.384 92.8091 115.761 93.2889 114.993 92.8411Z" fill="#F2F2F2"/>
<path d="M114.993 100.438L99.3194 91.3858C98.5517 90.938 97.928 89.7385 97.928 88.7149V88.475C97.928 87.4514 98.5517 86.9716 99.3194 87.4195L114.993 96.4717C115.761 96.9195 116.384 98.119 116.384 99.1426V99.3825C116.384 100.406 115.761 100.886 114.993 100.438Z" fill="#F2F2F2"/>
<path d="M114.993 108.051L99.3194 98.9986C98.5517 98.5508 97.928 97.3513 97.928 96.3277V96.0878C97.928 95.0642 98.5517 94.5844 99.3194 95.0322L114.993 104.084C115.761 104.532 116.384 105.732 116.384 106.755V106.995C116.384 108.019 115.761 108.499 114.993 108.051Z" fill="#F2F2F2"/>
<path d="M114.993 115.664L99.3194 106.611C98.5517 106.164 97.928 104.964 97.928 103.94V103.701C97.928 102.677 98.5517 102.197 99.3194 102.645L114.993 111.697C115.761 112.145 116.384 113.345 116.384 114.368V114.608C116.384 115.632 115.761 116.111 114.993 115.664Z" fill="#F2F2F2"/>
<path d="M114.993 123.276L99.3194 114.224C98.5517 113.776 97.928 112.577 97.928 111.553V111.313C97.928 110.29 98.5517 109.81 99.3194 110.258L114.993 119.31C115.761 119.758 116.384 120.957 116.384 121.981V122.221C116.384 123.244 115.761 123.724 114.993 123.276Z" fill="#F2F2F2"/>
<path d="M91.8987 117.983L89.1478 116.399C88.764 116.175 88.4441 115.584 88.4441 115.072V112.545C88.4441 112.033 88.748 111.793 89.1478 112.017L91.8987 113.6C92.2825 113.824 92.6024 114.416 92.6024 114.928V117.455C92.6024 117.967 92.2985 118.207 91.8987 117.983Z" fill="#FFAD66"/>
<path d="M114.993 131.097L99.3194 122.045C98.5517 121.597 97.928 120.398 97.928 119.374V119.134C97.928 118.111 98.5517 117.631 99.3194 118.079L114.993 127.131C115.761 127.579 116.384 128.778 116.384 129.802V130.042C116.384 131.065 115.761 131.545 114.993 131.097Z" fill="#F2F2F2"/>
<path d="M91.8987 125.803L89.1478 124.22C88.764 123.996 88.4441 123.404 88.4441 122.893V120.366C88.4441 119.854 88.748 119.614 89.1478 119.838L91.8987 121.421C92.2825 121.645 92.6024 122.237 92.6024 122.749V125.276C92.6024 125.787 92.2985 126.027 91.8987 125.803Z" fill="#FFAD66"/>
<path d="M114.993 138.934L99.3194 129.882C98.5517 129.434 97.928 128.234 97.928 127.211V126.971C97.928 125.947 98.5517 125.467 99.3194 125.915L114.993 134.968C115.761 135.415 116.384 136.615 116.384 137.638V137.878C116.384 138.902 115.761 139.382 114.993 138.934Z" fill="#F2F2F2"/>
<path d="M206.443 108.307V117.839L78.4324 43.9334V34.4014C78.4644 33.2179 79.296 32.7541 80.3196 33.3459L204.604 105.092C205.611 105.7 206.443 107.123 206.443 108.307Z" fill="#BFBFBF"/>
<path d="M98.0403 49.8512C98.0403 51.5146 99.2238 53.5617 100.679 54.3934C102.135 55.241 103.318 54.5533 103.318 52.89C103.318 51.2267 102.135 49.1795 100.679 48.3479C99.2238 47.5002 98.0403 48.1879 98.0403 49.8512Z" fill="#404040"/>
<path d="M90.6831 45.5969C90.6831 47.2602 91.8666 49.3074 93.322 50.139C94.7774 50.9867 95.9609 50.299 95.9609 48.6356C95.9609 46.9723 94.7774 44.9252 93.322 44.0935C91.8666 43.2619 90.6831 43.9336 90.6831 45.5969Z" fill="#404040"/>
<path d="M83.3264 41.3586C83.3264 43.0219 84.5099 45.069 85.9653 45.9007C87.4207 46.7483 88.6042 46.0606 88.6042 44.3973C88.6042 42.734 87.4207 40.6869 85.9653 39.8552C84.5099 39.0076 83.3264 39.6953 83.3264 41.3586Z" fill="#404040"/>
<path d="M199.406 221.54L76.1931 150.465C74.7057 149.618 74.8976 148.114 76.6089 147.123L80.5113 144.868C82.2226 143.876 84.8135 143.78 86.2849 144.628L209.513 215.702C211.001 216.55 210.809 218.053 209.098 219.045L205.195 221.3C203.484 222.291 200.893 222.387 199.422 221.54H199.406Z" fill="#999999" fill-opacity="0.3"/>
</g>
<defs>
<clipPath id="clip0_1243_4381">
<rect width="199.629" height="222.115" fill="white" transform="translate(75.1855)"/>
</clipPath>
</defs>
</svg>
