<svg width="350" height="223" viewBox="0 0 350 223" fill="none" xmlns="http://www.w3.org/2000/svg">
<g clip-path="url(#clip0_1243_4041)">
<path d="M154.499 150.697L86.8361 111.956C85.3924 111.129 85.5689 109.681 87.2372 108.727L91.0711 106.531C92.7394 105.577 95.2739 105.465 96.7177 106.293L164.38 145.033C165.824 145.86 165.648 147.308 163.979 148.262L160.146 150.458C158.477 151.413 155.943 151.524 154.499 150.697Z" fill="#A4A4A4" fill-opacity="0.2"/>
<path d="M264.447 176.168C265.859 176.979 265.875 178.3 264.463 179.111L190.929 221.495C189.518 222.306 187.224 222.306 185.812 221.495L78.4627 160.036C77.0511 159.224 77.035 157.904 78.4627 157.092L151.997 114.709C153.408 113.897 155.702 113.897 157.114 114.709L264.447 176.168Z" fill="#999999" fill-opacity="0.2"/>
<path d="M248.406 160.322H245.534V164.299H248.406V160.322Z" fill="#1F2125"/>
<path d="M258.528 171.188L189.694 210.867C188.379 211.631 186.229 211.631 184.898 210.867L84.3982 153.322C83.7245 152.94 83.4036 152.447 83.4036 151.938V157.554C83.3876 158.047 83.7245 158.556 84.3822 158.938L184.866 216.483C186.197 217.247 188.347 217.247 189.662 216.483L258.496 176.804C259.154 176.423 259.475 175.929 259.475 175.436V169.82C259.475 170.313 259.154 170.806 258.512 171.188H258.528Z" fill="#BFBFBF"/>
<path d="M258.512 168.436C259.843 169.2 259.843 170.425 258.512 171.188L189.678 210.867C188.363 211.631 186.213 211.631 184.882 210.867L84.398 153.322C83.0666 152.558 83.0666 151.333 84.398 150.569L153.232 110.891C154.547 110.127 156.697 110.127 158.028 110.891L258.512 168.436Z" fill="#F2F2F2"/>
<path d="M214.189 190.726L118.887 136.155C118.101 135.71 118.197 134.914 119.112 134.389L154.419 114.168C155.333 113.643 156.713 113.595 157.499 114.041L252.801 168.611C253.587 169.057 253.491 169.852 252.577 170.377L217.269 190.598C216.355 191.123 214.975 191.171 214.189 190.726Z" fill="#D9D9D9"/>
<path d="M119.112 135.137L154.419 114.916C155.333 114.391 156.713 114.343 157.499 114.789L252.801 169.359C252.994 169.47 253.138 169.597 253.218 169.757C253.443 169.343 253.315 168.913 252.801 168.611L157.499 114.041C156.713 113.595 155.333 113.643 154.419 114.168L119.112 134.389C118.422 134.787 118.198 135.328 118.47 135.758C118.583 135.535 118.807 135.328 119.112 135.137Z" fill="#BFBFBF"/>
<path d="M157.804 193.017L114.332 168.134C113.594 167.704 113.674 166.956 114.54 166.463L139.934 151.922C140.8 151.429 142.099 151.381 142.837 151.794L186.309 176.677C187.047 177.107 186.967 177.855 186.101 178.348L160.707 192.889C159.841 193.382 158.542 193.43 157.804 193.017Z" fill="#D9D9D9"/>
<path d="M114.54 167.259L139.934 152.717C140.8 152.224 142.099 152.176 142.837 152.59L186.309 177.473C186.486 177.568 186.598 177.679 186.678 177.807C186.919 177.409 186.807 176.964 186.309 176.677L142.837 151.794C142.099 151.365 140.784 151.428 139.934 151.922L114.54 166.463C113.866 166.845 113.674 167.37 113.962 167.8C114.075 167.609 114.267 167.418 114.54 167.259Z" fill="#BFBFBF"/>
<path d="M161.894 118.527L158.782 120.325C158.574 120.452 158.205 120.452 157.98 120.325L152.799 117.35C152.687 117.286 152.638 117.207 152.638 117.127V117.684C152.638 117.764 152.687 117.843 152.799 117.907L157.98 120.882C158.205 121.009 158.558 121.009 158.782 120.882L161.894 119.084C162.007 119.02 162.055 118.941 162.055 118.861V118.305C162.055 118.384 162.007 118.464 161.894 118.527Z" fill="#1F2125"/>
<path d="M161.878 118.066C162.103 118.193 162.103 118.4 161.878 118.527L158.766 120.325C158.558 120.452 158.189 120.452 157.964 120.325L152.783 117.35C152.558 117.223 152.558 117.016 152.783 116.889L155.895 115.091C156.119 114.964 156.472 114.964 156.681 115.091L161.862 118.066H161.878Z" fill="#4D4D4D"/>
<path d="M156.954 121.057L152.205 123.794C151.949 123.937 151.532 123.937 151.275 123.794L146.494 121.057C146.366 120.978 146.302 120.882 146.302 120.787V121.343C146.302 121.439 146.366 121.534 146.494 121.614L151.275 124.35C151.532 124.494 151.949 124.494 152.205 124.35L156.954 121.614C157.082 121.534 157.146 121.439 157.146 121.343V120.787C157.146 120.882 157.082 120.978 156.954 121.057Z" fill="#1F2125"/>
<path d="M156.954 120.516C157.21 120.659 157.21 120.898 156.954 121.057L152.205 123.793C151.949 123.937 151.532 123.937 151.275 123.793L146.494 121.057C146.238 120.914 146.238 120.675 146.494 120.516L151.243 117.78C151.499 117.636 151.917 117.636 152.173 117.78L156.954 120.516Z" fill="#4D4D4D"/>
<path d="M168.247 122.155L165.119 123.952C164.91 124.08 164.557 124.08 164.349 123.952L159.376 121.105C159.263 121.041 159.215 120.961 159.215 120.882V121.439C159.215 121.518 159.263 121.598 159.376 121.661L164.349 124.509C164.557 124.637 164.91 124.637 165.119 124.509L168.247 122.711C168.359 122.648 168.407 122.568 168.407 122.489V121.932C168.407 122.011 168.359 122.091 168.247 122.155Z" fill="#1F2125"/>
<path d="M168.247 121.709C168.455 121.837 168.455 122.028 168.247 122.155L165.119 123.953C164.91 124.08 164.557 124.08 164.349 123.953L159.376 121.105C159.167 120.978 159.167 120.787 159.376 120.659L162.504 118.862C162.713 118.734 163.065 118.734 163.274 118.862L168.247 121.709Z" fill="#4D4D4D"/>
<path d="M163.562 124.843L158.814 127.58C158.557 127.723 158.14 127.723 157.884 127.58L153.103 124.843C152.975 124.764 152.911 124.668 152.911 124.573V125.13C152.911 125.225 152.975 125.321 153.103 125.4L157.884 128.137C158.14 128.28 158.557 128.28 158.814 128.137L163.562 125.4C163.691 125.321 163.755 125.225 163.755 125.13V124.573C163.755 124.668 163.691 124.764 163.562 124.843Z" fill="#1F2125"/>
<path d="M163.562 124.303C163.819 124.446 163.819 124.684 163.562 124.844L158.814 127.58C158.557 127.723 158.14 127.723 157.884 127.58L153.103 124.844C152.847 124.7 152.847 124.462 153.103 124.303L157.852 121.566C158.108 121.423 158.525 121.423 158.782 121.566L163.562 124.303Z" fill="#4D4D4D"/>
<path d="M174.743 125.878L171.615 127.676C171.407 127.803 171.054 127.803 170.829 127.676L165.856 124.828C165.744 124.764 165.696 124.685 165.696 124.605V125.162C165.696 125.241 165.744 125.321 165.856 125.385L170.829 128.232C171.054 128.36 171.391 128.36 171.615 128.232L174.743 126.435C174.856 126.371 174.904 126.291 174.904 126.212V125.655C174.904 125.735 174.856 125.814 174.743 125.878Z" fill="#1F2125"/>
<path d="M174.743 125.416C174.968 125.543 174.968 125.734 174.743 125.862L171.615 127.659C171.407 127.787 171.054 127.787 170.829 127.659L165.856 124.812C165.632 124.684 165.632 124.493 165.856 124.366L168.985 122.568C169.193 122.441 169.546 122.441 169.771 122.568L174.743 125.416Z" fill="#4D4D4D"/>
<path d="M181.224 129.585L178.096 131.382C177.888 131.51 177.535 131.51 177.31 131.382L172.337 128.535C172.225 128.471 172.177 128.391 172.177 128.312V128.869C172.177 128.948 172.225 129.028 172.337 129.091L177.31 131.939C177.519 132.066 177.872 132.066 178.096 131.939L181.224 130.141C181.337 130.078 181.385 129.998 181.385 129.919V129.362C181.385 129.441 181.337 129.521 181.224 129.585Z" fill="#1F2125"/>
<path d="M181.224 129.139C181.433 129.266 181.449 129.457 181.224 129.585L178.096 131.382C177.888 131.51 177.535 131.51 177.31 131.382L172.337 128.535C172.129 128.407 172.129 128.216 172.337 128.089L175.465 126.291C175.674 126.164 176.027 126.164 176.235 126.291L181.208 129.139H181.224Z" fill="#4D4D4D"/>
<path d="M187.705 133.291L184.577 135.089C184.368 135.216 184.015 135.216 183.807 135.089L178.834 132.241C178.722 132.178 178.674 132.098 178.674 132.019V132.575C178.674 132.655 178.722 132.734 178.834 132.798L183.807 135.646C184.015 135.773 184.368 135.773 184.577 135.646L187.705 133.848C187.817 133.785 187.865 133.705 187.865 133.625V133.069C187.865 133.148 187.817 133.228 187.705 133.291Z" fill="#1F2125"/>
<path d="M187.705 132.846C187.913 132.973 187.913 133.164 187.705 133.292L184.577 135.089C184.368 135.217 184.015 135.217 183.807 135.089L178.834 132.242C178.609 132.114 178.609 131.923 178.834 131.796L181.962 129.998C182.171 129.871 182.523 129.871 182.748 129.998L187.721 132.846H187.705Z" fill="#4D4D4D"/>
<path d="M194.186 137.014L191.057 138.812C190.849 138.939 190.496 138.939 190.271 138.812L185.299 135.964C185.186 135.901 185.138 135.821 185.138 135.741V136.298C185.138 136.378 185.186 136.457 185.299 136.521L190.271 139.369C190.496 139.496 190.833 139.496 191.057 139.369L194.186 137.571C194.298 137.507 194.346 137.428 194.346 137.348V136.792C194.346 136.871 194.298 136.951 194.186 137.014Z" fill="#1F2125"/>
<path d="M194.186 136.569C194.41 136.696 194.41 136.887 194.186 137.014L191.058 138.812C190.849 138.939 190.496 138.939 190.272 138.812L185.299 135.964C185.074 135.837 185.074 135.646 185.299 135.519L188.427 133.721C188.635 133.594 188.988 133.594 189.213 133.721L194.186 136.569Z" fill="#4D4D4D"/>
<path d="M200.682 140.721L197.554 142.519C197.346 142.646 196.993 142.646 196.784 142.519L191.812 139.671C191.699 139.608 191.651 139.528 191.651 139.448V140.005C191.651 140.085 191.699 140.164 191.812 140.228L196.784 143.076C196.993 143.203 197.346 143.203 197.554 143.076L200.682 141.278C200.795 141.214 200.843 141.135 200.843 141.055V140.499C200.843 140.578 200.795 140.658 200.682 140.721Z" fill="#1F2125"/>
<path d="M200.683 140.276C200.891 140.403 200.891 140.594 200.683 140.721L197.555 142.519C197.346 142.646 196.993 142.646 196.785 142.519L191.812 139.671C191.603 139.544 191.603 139.353 191.812 139.226L194.94 137.428C195.148 137.301 195.501 137.301 195.71 137.428L200.683 140.276Z" fill="#4D4D4D"/>
<path d="M207.163 144.428L204.035 146.226C203.827 146.353 203.474 146.353 203.249 146.226L198.276 143.378C198.164 143.314 198.116 143.235 198.116 143.155V143.712C198.116 143.792 198.164 143.871 198.276 143.935L203.249 146.783C203.474 146.91 203.811 146.91 204.035 146.783L207.163 144.985C207.276 144.921 207.324 144.842 207.324 144.762V144.205C207.324 144.285 207.276 144.364 207.163 144.428Z" fill="#1F2125"/>
<path d="M207.163 143.983C207.388 144.11 207.388 144.301 207.163 144.428L204.035 146.226C203.827 146.353 203.474 146.353 203.249 146.226L198.276 143.378C198.052 143.251 198.052 143.06 198.276 142.933L201.404 141.135C201.613 141.008 201.966 141.008 202.19 141.135L207.163 143.983Z" fill="#4D4D4D"/>
<path d="M213.644 148.151L210.516 149.949C210.308 150.076 209.955 150.076 209.746 149.949L204.773 147.101C204.661 147.038 204.613 146.958 204.613 146.878V147.435C204.613 147.515 204.661 147.594 204.773 147.658L209.746 150.506C209.955 150.633 210.308 150.633 210.516 150.506L213.644 148.708C213.756 148.644 213.805 148.565 213.805 148.485V147.928C213.805 148.008 213.756 148.088 213.644 148.151Z" fill="#1F2125"/>
<path d="M213.644 147.706C213.853 147.833 213.853 148.024 213.644 148.151L210.516 149.949C210.307 150.076 209.954 150.076 209.746 149.949L204.773 147.101C204.565 146.974 204.565 146.783 204.773 146.656L207.901 144.858C208.11 144.731 208.463 144.731 208.671 144.858L213.644 147.706Z" fill="#4D4D4D"/>
<path d="M220.125 151.858L216.996 153.656C216.788 153.783 216.435 153.783 216.21 153.656L211.238 150.808C211.125 150.745 211.077 150.665 211.077 150.585V151.142C211.077 151.222 211.125 151.301 211.238 151.365L216.21 154.213C216.435 154.34 216.772 154.34 216.996 154.213L220.125 152.415C220.237 152.351 220.285 152.272 220.285 152.192V151.635C220.285 151.715 220.237 151.795 220.125 151.858Z" fill="#1F2125"/>
<path d="M220.125 151.413C220.349 151.54 220.349 151.731 220.125 151.858L216.997 153.656C216.788 153.783 216.435 153.783 216.211 153.656L211.238 150.808C211.013 150.681 211.013 150.49 211.238 150.363L214.366 148.565C214.574 148.438 214.927 148.438 215.152 148.565L220.125 151.413Z" fill="#4D4D4D"/>
<path d="M226.621 155.581L223.493 157.379C223.285 157.506 222.932 157.506 222.707 157.379L217.734 154.531C217.622 154.467 217.574 154.388 217.574 154.308V154.865C217.574 154.944 217.622 155.024 217.734 155.088L222.707 157.936C222.916 158.063 223.269 158.063 223.493 157.936L226.621 156.138C226.734 156.074 226.782 155.995 226.782 155.915V155.358C226.782 155.438 226.734 155.517 226.621 155.581Z" fill="#1F2125"/>
<path d="M226.621 155.135C226.83 155.263 226.846 155.454 226.621 155.581L223.493 157.379C223.285 157.506 222.932 157.506 222.707 157.379L217.735 154.531C217.526 154.404 217.526 154.213 217.735 154.085L220.863 152.288C221.071 152.16 221.424 152.16 221.633 152.288L226.605 155.135H226.621Z" fill="#4D4D4D"/>
<path d="M233.102 159.288L229.974 161.086C229.766 161.213 229.413 161.213 229.204 161.086L224.231 158.238C224.119 158.174 224.071 158.095 224.071 158.015V158.572C224.071 158.652 224.119 158.731 224.231 158.795L229.204 161.643C229.413 161.77 229.766 161.77 229.974 161.643L233.102 159.845C233.214 159.781 233.263 159.702 233.263 159.622V159.065C233.263 159.145 233.214 159.224 233.102 159.288Z" fill="#1F2125"/>
<path d="M233.102 158.842C233.311 158.97 233.311 159.161 233.102 159.288L229.974 161.086C229.766 161.213 229.413 161.213 229.204 161.086L224.231 158.238C224.023 158.111 224.007 157.92 224.231 157.792L227.359 155.995C227.568 155.867 227.921 155.867 228.145 155.995L233.118 158.842H233.102Z" fill="#4D4D4D"/>
<path d="M230.808 162.39V161.833C230.808 161.945 230.888 162.056 231.033 162.136V162.693C230.888 162.613 230.808 162.502 230.808 162.39Z" fill="#1F2125"/>
<path d="M244.828 165.731V166.288C244.828 166.4 244.748 166.511 244.604 166.591V166.034C244.748 165.954 244.828 165.843 244.828 165.731Z" fill="#1F2125"/>
<path d="M244.604 166.034V166.591L241.765 168.229V167.688L244.604 166.034Z" fill="#1F2125"/>
<path d="M240.706 167.688V168.229L231.033 162.693V162.136L240.706 167.688Z" fill="#1F2125"/>
<path d="M241.765 167.688V168.245C241.476 168.404 240.995 168.404 240.706 168.245V167.688C240.995 167.847 241.476 167.847 241.765 167.688Z" fill="#1F2125"/>
<path d="M244.604 165.429C244.893 165.588 244.893 165.875 244.604 166.034L241.765 167.672C241.476 167.831 240.995 167.831 240.706 167.672L231.033 162.136C230.744 161.961 230.744 161.69 231.033 161.531L233.872 159.892C234.161 159.717 234.642 159.717 234.931 159.892L244.604 165.429Z" fill="#4D4D4D"/>
<path d="M170.027 128.534L165.279 131.271C165.022 131.414 164.605 131.414 164.349 131.271L159.568 128.534C159.44 128.455 159.376 128.359 159.376 128.264V128.821C159.376 128.916 159.44 129.012 159.568 129.091L164.349 131.828C164.605 131.971 165.022 131.971 165.279 131.828L170.027 129.091C170.156 129.012 170.22 128.916 170.22 128.821V128.264C170.22 128.359 170.156 128.455 170.027 128.534Z" fill="#1F2125"/>
<path d="M170.027 128.009C170.284 128.153 170.284 128.391 170.027 128.55L165.279 131.287C165.022 131.43 164.605 131.43 164.349 131.287L159.568 128.55C159.312 128.407 159.312 128.168 159.568 128.009L164.316 125.273C164.573 125.13 164.99 125.13 165.247 125.273L170.027 128.009Z" fill="#4D4D4D"/>
<path d="M153.89 126.578L149.382 129.171C149.061 129.362 148.532 129.362 148.211 129.171L140.399 124.7C140.238 124.605 140.158 124.478 140.158 124.366V124.923C140.158 125.05 140.238 125.162 140.399 125.257L148.211 129.728C148.532 129.919 149.061 129.919 149.382 129.728L153.89 127.135C154.05 127.039 154.13 126.928 154.13 126.8V126.244C154.13 126.371 154.05 126.482 153.89 126.578Z" fill="#1F2125"/>
<path d="M153.89 125.909C154.211 126.1 154.211 126.403 153.89 126.578L149.382 129.171C149.061 129.362 148.532 129.362 148.211 129.171L140.399 124.7C140.078 124.509 140.078 124.207 140.399 124.032L144.906 121.439C145.227 121.248 145.757 121.248 146.077 121.439L153.89 125.909Z" fill="#4D4D4D"/>
<path d="M160.707 130.348L155.959 133.085C155.702 133.228 155.285 133.228 155.029 133.085L150.248 130.348C150.12 130.269 150.056 130.173 150.056 130.078V130.634C150.056 130.73 150.12 130.825 150.248 130.905L155.029 133.641C155.285 133.785 155.718 133.785 155.959 133.641L160.707 130.905C160.836 130.825 160.9 130.73 160.9 130.634V130.078C160.9 130.173 160.836 130.269 160.707 130.348Z" fill="#1F2125"/>
<path d="M160.707 129.807C160.964 129.95 160.964 130.189 160.707 130.348L155.959 133.085C155.702 133.228 155.285 133.228 155.029 133.085L150.248 130.348C149.991 130.205 149.991 129.95 150.248 129.807L154.996 127.071C155.253 126.928 155.67 126.928 155.927 127.071L160.707 129.807Z" fill="#4D4D4D"/>
<path d="M149.029 131.271L144.617 133.817C144.265 134.023 143.687 134.023 143.334 133.817L133.982 128.455C133.805 128.36 133.709 128.216 133.709 128.089V128.646C133.709 128.773 133.789 128.916 133.982 129.012L143.334 134.373C143.687 134.58 144.265 134.58 144.617 134.373L149.029 131.828C149.205 131.732 149.285 131.589 149.285 131.462V130.905C149.285 131.032 149.205 131.176 149.029 131.271Z" fill="#1F2125"/>
<path d="M149.029 130.539C149.382 130.746 149.382 131.064 149.029 131.271L144.618 133.817C144.265 134.023 143.687 134.023 143.334 133.817L133.982 128.455C133.629 128.248 133.629 127.93 133.982 127.723L138.394 125.178C138.747 124.971 139.308 124.971 139.677 125.178L149.029 130.539Z" fill="#4D4D4D"/>
<path d="M176.508 132.241L171.76 134.978C171.503 135.121 171.086 135.121 170.829 134.978L166.049 132.241C165.921 132.162 165.856 132.066 165.856 131.971V132.528C165.856 132.623 165.921 132.719 166.049 132.798L170.829 135.535C171.086 135.678 171.503 135.678 171.76 135.535L176.508 132.798C176.636 132.719 176.7 132.623 176.7 132.528V131.971C176.7 132.066 176.636 132.162 176.508 132.241Z" fill="#1F2125"/>
<path d="M176.492 131.716C176.749 131.86 176.749 132.098 176.492 132.257L171.744 134.994C171.487 135.137 171.07 135.137 170.813 134.994L166.033 132.257C165.776 132.114 165.776 131.876 166.033 131.716L170.781 128.98C171.038 128.837 171.455 128.837 171.712 128.98L176.492 131.716Z" fill="#4D4D4D"/>
<path d="M167.236 134.087L162.488 136.824C162.231 136.967 161.814 136.967 161.557 136.824L156.777 134.087C156.649 134.008 156.584 133.912 156.584 133.817V134.373C156.584 134.469 156.649 134.564 156.777 134.644L161.557 137.38C161.814 137.524 162.247 137.524 162.488 137.38L167.236 134.644C167.364 134.564 167.428 134.469 167.428 134.373V133.817C167.428 133.912 167.364 134.008 167.236 134.087Z" fill="#1F2125"/>
<path d="M167.236 133.546C167.493 133.689 167.493 133.928 167.236 134.087L162.488 136.823C162.231 136.967 161.814 136.967 161.557 136.823L156.777 134.087C156.52 133.944 156.52 133.689 156.777 133.546L161.525 130.81C161.782 130.666 162.199 130.666 162.456 130.81L167.236 133.546Z" fill="#4D4D4D"/>
<path d="M155.911 134.915L151.163 137.651C150.906 137.794 150.489 137.794 150.232 137.651L145.452 134.915C145.323 134.835 145.259 134.74 145.259 134.644V135.201C145.259 135.296 145.323 135.392 145.452 135.471L150.232 138.208C150.489 138.351 150.906 138.351 151.163 138.208L155.911 135.471C156.039 135.392 156.103 135.296 156.103 135.201V134.644C156.103 134.74 156.039 134.835 155.911 134.915Z" fill="#1F2125"/>
<path d="M155.911 134.373C156.167 134.517 156.167 134.771 155.911 134.914L151.163 137.651C150.906 137.794 150.489 137.794 150.232 137.651L145.452 134.914C145.195 134.771 145.195 134.532 145.452 134.373L150.2 131.637C150.457 131.494 150.874 131.494 151.13 131.637L155.911 134.373Z" fill="#4D4D4D"/>
<path d="M139.757 133.021L135.153 135.678C134.864 135.853 134.383 135.853 134.078 135.678L127.646 132.003C127.501 131.923 127.421 131.812 127.421 131.7V132.257C127.421 132.369 127.501 132.48 127.646 132.56L134.078 136.235C134.367 136.41 134.848 136.41 135.153 136.235L139.757 133.578C139.901 133.498 139.982 133.387 139.982 133.275V132.719C139.982 132.83 139.901 132.941 139.757 133.021Z" fill="#1F2125"/>
<path d="M139.757 132.4C140.046 132.575 140.046 132.846 139.757 133.021L135.154 135.678C134.865 135.853 134.384 135.853 134.079 135.678L127.646 132.003C127.357 131.828 127.341 131.557 127.646 131.382L132.25 128.725C132.539 128.55 133.02 128.55 133.325 128.725L139.757 132.4Z" fill="#4D4D4D"/>
<path d="M146.302 136.76L141.554 139.496C141.297 139.64 140.88 139.64 140.623 139.496L135.843 136.76C135.715 136.68 135.65 136.585 135.65 136.49V137.046C135.65 137.142 135.715 137.237 135.843 137.317L140.623 140.053C140.88 140.196 141.297 140.196 141.554 140.053L146.302 137.317C146.43 137.237 146.494 137.142 146.494 137.046V136.49C146.494 136.585 146.43 136.68 146.302 136.76Z" fill="#1F2125"/>
<path d="M146.302 136.219C146.559 136.362 146.559 136.601 146.302 136.76L141.554 139.497C141.297 139.64 140.88 139.64 140.623 139.497L135.843 136.76C135.586 136.617 135.586 136.378 135.843 136.219L140.591 133.483C140.848 133.339 141.265 133.339 141.522 133.483L146.302 136.219Z" fill="#4D4D4D"/>
<path d="M131.768 135.567L127.02 138.303C126.764 138.446 126.346 138.446 126.09 138.303L121.309 135.567C121.181 135.487 121.117 135.392 121.117 135.296V135.853C121.117 135.948 121.181 136.044 121.309 136.123L126.09 138.86C126.346 139.003 126.764 139.003 127.02 138.86L131.768 136.123C131.897 136.044 131.961 135.948 131.961 135.853V135.296C131.961 135.392 131.897 135.487 131.768 135.567Z" fill="#1F2125"/>
<path d="M131.752 135.042C132.009 135.185 132.009 135.423 131.752 135.583L127.004 138.319C126.747 138.462 126.33 138.462 126.074 138.319L121.293 135.583C121.037 135.439 121.037 135.201 121.293 135.042L126.042 132.305C126.298 132.162 126.715 132.162 126.972 132.305L131.752 135.042Z" fill="#4D4D4D"/>
<path d="M138.506 139.433L133.758 142.169C133.501 142.312 133.084 142.312 132.827 142.169L128.047 139.433C127.918 139.353 127.854 139.258 127.854 139.162V139.719C127.854 139.815 127.918 139.91 128.047 139.99L132.827 142.726C133.084 142.869 133.501 142.869 133.758 142.726L138.506 139.99C138.634 139.91 138.698 139.815 138.698 139.719V139.162C138.698 139.258 138.634 139.353 138.506 139.433Z" fill="#1F2125"/>
<path d="M138.49 138.892C138.746 139.035 138.746 139.274 138.49 139.433L133.741 142.169C133.485 142.312 133.068 142.312 132.811 142.169L128.031 139.433C127.774 139.289 127.774 139.051 128.031 138.892L132.779 136.155C133.036 136.012 133.453 136.012 133.709 136.155L138.49 138.892Z" fill="#4D4D4D"/>
<path d="M182.973 135.948L178.224 138.685C177.968 138.828 177.551 138.828 177.294 138.685L172.514 135.948C172.385 135.869 172.321 135.773 172.321 135.678V136.235C172.321 136.33 172.385 136.426 172.514 136.505L177.294 139.242C177.551 139.385 177.968 139.385 178.224 139.242L182.973 136.505C183.101 136.426 183.165 136.33 183.165 136.235V135.678C183.165 135.773 183.101 135.869 182.973 135.948Z" fill="#1F2125"/>
<path d="M182.957 135.407C183.213 135.551 183.213 135.789 182.957 135.948L178.208 138.685C177.952 138.828 177.535 138.828 177.278 138.685L172.498 135.948C172.241 135.805 172.241 135.566 172.498 135.407L177.246 132.671C177.503 132.528 177.92 132.528 178.176 132.671L182.957 135.407Z" fill="#4D4D4D"/>
<path d="M173.765 137.826L169.017 140.562C168.76 140.706 168.343 140.706 168.086 140.562L163.306 137.826C163.177 137.746 163.113 137.651 163.113 137.555V138.112C163.113 138.208 163.177 138.303 163.306 138.383L168.086 141.119C168.343 141.262 168.776 141.262 169.017 141.119L173.765 138.383C173.893 138.303 173.957 138.208 173.957 138.112V137.555C173.957 137.651 173.893 137.746 173.765 137.826Z" fill="#1F2125"/>
<path d="M173.765 137.285C174.021 137.428 174.021 137.667 173.765 137.826L169.017 140.562C168.76 140.705 168.343 140.705 168.086 140.562L163.306 137.826C163.049 137.683 163.049 137.428 163.306 137.285L168.054 134.548C168.311 134.405 168.728 134.405 168.984 134.548L173.765 137.285Z" fill="#4D4D4D"/>
<path d="M162.407 138.637L157.659 141.374C157.402 141.517 156.985 141.517 156.729 141.374L151.948 138.637C151.82 138.558 151.756 138.462 151.756 138.367V138.924C151.756 139.019 151.82 139.114 151.948 139.194L156.729 141.93C156.985 142.074 157.402 142.074 157.659 141.93L162.407 139.194C162.536 139.114 162.6 139.019 162.6 138.924V138.367C162.6 138.462 162.536 138.558 162.407 138.637Z" fill="#1F2125"/>
<path d="M162.407 138.096C162.664 138.239 162.664 138.494 162.407 138.637L157.659 141.374C157.402 141.517 156.985 141.517 156.729 141.374L151.948 138.637C151.692 138.494 151.692 138.255 151.948 138.096L156.697 135.36C156.953 135.217 157.37 135.217 157.627 135.36L162.407 138.096Z" fill="#4D4D4D"/>
<path d="M152.767 140.451L148.018 143.187C147.762 143.33 147.345 143.33 147.088 143.187L142.308 140.451C142.179 140.371 142.115 140.276 142.115 140.18V140.737C142.115 140.832 142.179 140.928 142.308 141.007L147.088 143.744C147.345 143.887 147.762 143.887 148.018 143.744L152.767 141.007C152.895 140.928 152.959 140.832 152.959 140.737V140.18C152.959 140.276 152.895 140.371 152.767 140.451Z" fill="#1F2125"/>
<path d="M152.767 139.926C153.023 140.069 153.023 140.308 152.767 140.467L148.018 143.203C147.762 143.346 147.345 143.346 147.088 143.203L142.308 140.467C142.051 140.324 142.051 140.085 142.308 139.926L147.056 137.189C147.313 137.046 147.73 137.046 147.986 137.189L152.767 139.926Z" fill="#4D4D4D"/>
<path d="M145.035 143.172L140.286 145.908C140.03 146.051 139.613 146.051 139.356 145.908L134.576 143.172C134.447 143.092 134.383 142.997 134.383 142.901V143.458C134.383 143.553 134.447 143.649 134.576 143.728L139.356 146.465C139.613 146.608 140.03 146.608 140.286 146.465L145.035 143.728C145.163 143.649 145.227 143.553 145.227 143.458V142.901C145.227 142.997 145.163 143.092 145.035 143.172Z" fill="#1F2125"/>
<path d="M145.035 142.63C145.291 142.774 145.291 143.012 145.035 143.171L140.286 145.908C140.03 146.051 139.613 146.051 139.356 145.908L134.576 143.171C134.319 143.028 134.319 142.79 134.576 142.63L139.324 139.894C139.58 139.751 139.998 139.751 140.254 139.894L145.035 142.63Z" fill="#4D4D4D"/>
<path d="M189.437 139.655L184.689 142.392C184.432 142.535 184.015 142.535 183.759 142.392L178.978 139.655C178.85 139.576 178.786 139.48 178.786 139.385V139.942C178.786 140.037 178.85 140.133 178.978 140.212L183.759 142.949C184.015 143.092 184.432 143.092 184.689 142.949L189.437 140.212C189.566 140.133 189.63 140.037 189.63 139.942V139.385C189.63 139.48 189.566 139.576 189.437 139.655Z" fill="#1F2125"/>
<path d="M189.437 139.114C189.694 139.258 189.694 139.496 189.437 139.655L184.689 142.392C184.432 142.535 184.015 142.535 183.759 142.392L178.978 139.655C178.722 139.512 178.722 139.273 178.978 139.114L183.727 136.378C183.983 136.235 184.4 136.235 184.657 136.378L189.437 139.114Z" fill="#4D4D4D"/>
<path d="M180.294 141.565L175.545 144.301C175.289 144.444 174.872 144.444 174.615 144.301L169.835 141.565C169.706 141.485 169.642 141.39 169.642 141.294V141.851C169.642 141.946 169.706 142.042 169.835 142.122L174.615 144.858C174.872 145.001 175.305 145.001 175.545 144.858L180.294 142.122C180.422 142.042 180.486 141.946 180.486 141.851V141.294C180.486 141.39 180.422 141.485 180.294 141.565Z" fill="#1F2125"/>
<path d="M180.294 141.024C180.55 141.167 180.55 141.405 180.294 141.564L175.545 144.301C175.289 144.444 174.872 144.444 174.615 144.301L169.835 141.564C169.578 141.421 169.578 141.167 169.835 141.024L174.583 138.287C174.84 138.144 175.257 138.144 175.513 138.287L180.294 141.024Z" fill="#4D4D4D"/>
<path d="M168.92 142.36L164.172 145.097C163.915 145.24 163.498 145.24 163.242 145.097L158.461 142.36C158.333 142.281 158.269 142.185 158.269 142.09V142.647C158.269 142.742 158.333 142.838 158.461 142.917L163.242 145.654C163.498 145.797 163.915 145.797 164.172 145.654L168.92 142.917C169.049 142.838 169.113 142.742 169.113 142.647V142.09C169.113 142.185 169.049 142.281 168.92 142.36Z" fill="#1F2125"/>
<path d="M168.904 141.819C169.161 141.962 169.161 142.217 168.904 142.36L164.156 145.097C163.899 145.24 163.482 145.24 163.226 145.097L158.445 142.36C158.189 142.217 158.189 141.978 158.445 141.819L163.193 139.083C163.45 138.94 163.867 138.94 164.124 139.083L168.904 141.819Z" fill="#4D4D4D"/>
<path d="M159.231 144.158L154.483 146.894C154.226 147.037 153.809 147.037 153.553 146.894L148.772 144.158C148.644 144.078 148.58 143.983 148.58 143.887V144.444C148.58 144.54 148.644 144.635 148.772 144.715L153.553 147.451C153.809 147.594 154.226 147.594 154.483 147.451L159.231 144.715C159.36 144.635 159.424 144.54 159.424 144.444V143.887C159.424 143.983 159.36 144.078 159.231 144.158Z" fill="#1F2125"/>
<path d="M159.231 143.633C159.488 143.776 159.488 144.015 159.231 144.174L154.483 146.91C154.226 147.053 153.809 147.053 153.553 146.91L148.772 144.174C148.516 144.03 148.516 143.792 148.772 143.633L153.521 140.896C153.777 140.753 154.194 140.753 154.451 140.896L159.231 143.633Z" fill="#4D4D4D"/>
<path d="M153.007 147.817L148.387 150.49C148.099 150.649 147.633 150.649 147.345 150.49L141.169 146.958C141.024 146.879 140.944 146.767 140.944 146.656V147.213C140.944 147.324 141.008 147.435 141.169 147.515L147.345 151.047C147.633 151.206 148.099 151.206 148.387 151.047L153.007 148.374C153.152 148.294 153.216 148.183 153.216 148.072V147.515C153.216 147.626 153.152 147.738 153.007 147.817Z" fill="#1F2125"/>
<path d="M153.008 147.213C153.296 147.388 153.296 147.642 153.008 147.817L148.388 150.49C148.099 150.649 147.634 150.649 147.345 150.49L141.169 146.958C140.88 146.799 140.88 146.528 141.169 146.353L145.789 143.681C146.078 143.522 146.559 143.522 146.832 143.681L153.008 147.213Z" fill="#4D4D4D"/>
<path d="M175.417 146.083L170.669 148.819C170.412 148.963 169.995 148.963 169.738 148.819L164.958 146.083C164.83 146.003 164.766 145.908 164.766 145.812V146.369C164.766 146.465 164.83 146.56 164.958 146.64L169.738 149.376C169.995 149.519 170.412 149.519 170.669 149.376L175.417 146.64C175.545 146.56 175.61 146.465 175.61 146.369V145.812C175.61 145.908 175.545 146.003 175.417 146.083Z" fill="#1F2125"/>
<path d="M175.417 145.542C175.674 145.685 175.674 145.924 175.417 146.083L170.669 148.819C170.412 148.963 169.995 148.963 169.738 148.819L164.958 146.083C164.701 145.94 164.701 145.701 164.958 145.542L169.706 142.806C169.963 142.662 170.38 142.662 170.637 142.806L175.417 145.542Z" fill="#4D4D4D"/>
<path d="M165.712 147.865L160.964 150.601C160.707 150.745 160.29 150.745 160.033 150.601L155.253 147.865C155.125 147.785 155.061 147.69 155.061 147.594V148.151C155.061 148.247 155.125 148.342 155.253 148.422L160.033 151.158C160.29 151.301 160.707 151.301 160.964 151.158L165.712 148.422C165.84 148.342 165.905 148.247 165.905 148.151V147.594C165.905 147.69 165.84 147.785 165.712 147.865Z" fill="#1F2125"/>
<path d="M165.712 147.324C165.969 147.467 165.969 147.706 165.712 147.865L160.964 150.601C160.707 150.744 160.29 150.744 160.033 150.601L155.253 147.865C154.996 147.722 154.996 147.483 155.253 147.324L160.001 144.587C160.258 144.444 160.675 144.444 160.932 144.587L165.712 147.324Z" fill="#4D4D4D"/>
<path d="M195.902 143.362L191.154 146.099C190.897 146.242 190.48 146.242 190.224 146.099L185.443 143.362C185.315 143.283 185.251 143.187 185.251 143.092V143.649C185.251 143.744 185.315 143.84 185.443 143.919L190.224 146.656C190.48 146.799 190.897 146.799 191.154 146.656L195.902 143.919C196.031 143.84 196.095 143.744 196.095 143.649V143.092C196.095 143.187 196.031 143.283 195.902 143.362Z" fill="#1F2125"/>
<path d="M195.902 142.821C196.159 142.965 196.159 143.203 195.902 143.362L191.154 146.099C190.897 146.242 190.48 146.242 190.224 146.099L185.443 143.362C185.187 143.219 185.187 142.98 185.443 142.821L190.191 140.085C190.448 139.942 190.865 139.942 191.122 140.085L195.902 142.821Z" fill="#4D4D4D"/>
<path d="M186.823 145.303L182.074 148.04C181.818 148.183 181.401 148.183 181.144 148.04L176.364 145.303C176.235 145.224 176.171 145.128 176.171 145.033V145.59C176.171 145.685 176.235 145.781 176.364 145.86L181.144 148.597C181.401 148.74 181.834 148.74 182.074 148.597L186.823 145.86C186.951 145.781 187.015 145.685 187.015 145.59V145.033C187.015 145.128 186.951 145.224 186.823 145.303Z" fill="#1F2125"/>
<path d="M186.823 144.763C187.079 144.906 187.079 145.144 186.823 145.303L182.074 148.04C181.818 148.183 181.401 148.183 181.144 148.04L176.364 145.303C176.107 145.16 176.107 144.906 176.364 144.763L181.112 142.026C181.369 141.883 181.786 141.883 182.042 142.026L186.823 144.763Z" fill="#4D4D4D"/>
<path d="M181.914 149.806L177.166 152.542C176.909 152.686 176.492 152.686 176.235 152.542L171.455 149.806C171.327 149.726 171.262 149.631 171.262 149.535V150.092C171.262 150.188 171.327 150.283 171.455 150.363L176.235 153.099C176.492 153.242 176.909 153.242 177.166 153.099L181.914 150.363C182.042 150.283 182.106 150.188 182.106 150.092V149.535C182.106 149.631 182.042 149.726 181.914 149.806Z" fill="#1F2125"/>
<path d="M181.914 149.265C182.171 149.408 182.171 149.647 181.914 149.806L177.166 152.542C176.909 152.685 176.492 152.685 176.235 152.542L171.455 149.806C171.198 149.663 171.198 149.424 171.455 149.265L176.203 146.528C176.46 146.385 176.877 146.385 177.134 146.528L181.914 149.265Z" fill="#4D4D4D"/>
<path d="M172.177 151.572L167.429 154.308C167.172 154.452 166.755 154.452 166.498 154.308L161.718 151.572C161.59 151.492 161.525 151.397 161.525 151.302V151.858C161.525 151.954 161.59 152.049 161.718 152.129L166.498 154.865C166.755 155.008 167.172 155.008 167.429 154.865L172.177 152.129C172.305 152.049 172.369 151.954 172.369 151.858V151.302C172.369 151.397 172.305 151.492 172.177 151.572Z" fill="#1F2125"/>
<path d="M172.177 151.031C172.434 151.174 172.434 151.413 172.177 151.572L167.429 154.308C167.172 154.451 166.755 154.451 166.498 154.308L161.718 151.572C161.461 151.429 161.461 151.19 161.718 151.031L166.466 148.294C166.723 148.151 167.14 148.151 167.397 148.294L172.177 151.031Z" fill="#4D4D4D"/>
<path d="M202.383 147.069L197.635 149.806C197.378 149.949 196.961 149.949 196.704 149.806L191.924 147.069C191.796 146.99 191.731 146.894 191.731 146.799V147.356C191.731 147.451 191.796 147.547 191.924 147.626L196.704 150.363C196.961 150.506 197.378 150.506 197.635 150.363L202.383 147.626C202.511 147.547 202.575 147.451 202.575 147.356V146.799C202.575 146.894 202.511 146.99 202.383 147.069Z" fill="#1F2125"/>
<path d="M202.383 146.528C202.64 146.672 202.64 146.91 202.383 147.069L197.635 149.806C197.378 149.949 196.961 149.949 196.704 149.806L191.924 147.069C191.667 146.926 191.667 146.688 191.924 146.528L196.672 143.792C196.929 143.649 197.346 143.649 197.603 143.792L202.383 146.528Z" fill="#4D4D4D"/>
<path d="M193.352 149.042L188.603 151.779C188.347 151.922 187.93 151.922 187.673 151.779L182.893 149.042C182.764 148.963 182.7 148.867 182.7 148.772V149.329C182.7 149.424 182.764 149.519 182.893 149.599L187.673 152.335C187.93 152.479 188.363 152.479 188.603 152.335L193.352 149.599C193.48 149.519 193.544 149.424 193.544 149.329V148.772C193.544 148.867 193.48 148.963 193.352 149.042Z" fill="#1F2125"/>
<path d="M193.352 148.501C193.608 148.644 193.608 148.883 193.352 149.042L188.603 151.778C188.347 151.922 187.93 151.922 187.673 151.778L182.893 149.042C182.636 148.899 182.636 148.644 182.893 148.501L187.641 145.765C187.898 145.621 188.315 145.621 188.571 145.765L193.352 148.501Z" fill="#4D4D4D"/>
<path d="M188.411 153.529L183.663 156.265C183.406 156.408 182.989 156.408 182.732 156.265L177.952 153.529C177.823 153.449 177.759 153.354 177.759 153.258V153.815C177.759 153.911 177.823 154.006 177.952 154.086L182.732 156.822C182.989 156.965 183.406 156.965 183.663 156.822L188.411 154.086C188.539 154.006 188.603 153.911 188.603 153.815V153.258C188.603 153.354 188.539 153.449 188.411 153.529Z" fill="#1F2125"/>
<path d="M188.411 152.988C188.667 153.131 188.667 153.37 188.411 153.529L183.663 156.265C183.406 156.408 182.989 156.408 182.732 156.265L177.952 153.529C177.695 153.386 177.695 153.147 177.952 152.988L182.7 150.251C182.957 150.108 183.374 150.108 183.63 150.251L188.411 152.988Z" fill="#4D4D4D"/>
<path d="M178.658 155.279L173.909 158.015C173.653 158.158 173.236 158.158 172.979 158.015L168.199 155.279C168.07 155.199 168.006 155.104 168.006 155.008V155.565C168.006 155.661 168.07 155.756 168.199 155.836L172.979 158.572C173.236 158.715 173.653 158.715 173.909 158.572L178.658 155.836C178.786 155.756 178.85 155.661 178.85 155.565V155.008C178.85 155.104 178.786 155.199 178.658 155.279Z" fill="#1F2125"/>
<path d="M178.642 154.738C178.898 154.881 178.898 155.12 178.642 155.279L173.893 158.015C173.637 158.158 173.22 158.158 172.963 158.015L168.182 155.279C167.926 155.136 167.926 154.897 168.182 154.738L172.931 152.001C173.187 151.858 173.604 151.858 173.861 152.001L178.642 154.738Z" fill="#4D4D4D"/>
<path d="M208.848 150.776L204.099 153.513C203.843 153.656 203.426 153.656 203.169 153.513L198.389 150.776C198.26 150.697 198.196 150.601 198.196 150.506V151.063C198.196 151.158 198.26 151.254 198.389 151.333L203.169 154.07C203.426 154.213 203.843 154.213 204.099 154.07L208.848 151.333C208.976 151.254 209.04 151.158 209.04 151.063V150.506C209.04 150.601 208.976 150.697 208.848 150.776Z" fill="#1F2125"/>
<path d="M208.848 150.235C209.104 150.379 209.104 150.617 208.848 150.776L204.099 153.513C203.843 153.656 203.426 153.656 203.169 153.513L198.389 150.776C198.132 150.633 198.132 150.395 198.389 150.235L203.137 147.499C203.393 147.356 203.811 147.356 204.067 147.499L208.848 150.235Z" fill="#4D4D4D"/>
<path d="M199.896 152.781L195.148 155.517C194.891 155.661 194.474 155.661 194.218 155.517L189.437 152.781C189.309 152.701 189.245 152.606 189.245 152.51V153.067C189.245 153.163 189.309 153.258 189.437 153.338L194.218 156.074C194.474 156.217 194.908 156.217 195.148 156.074L199.896 153.338C200.025 153.258 200.089 153.163 200.089 153.067V152.51C200.089 152.606 200.025 152.701 199.896 152.781Z" fill="#1F2125"/>
<path d="M199.881 152.24C200.137 152.383 200.137 152.622 199.881 152.781L195.132 155.517C194.876 155.66 194.459 155.66 194.202 155.517L189.422 152.781C189.165 152.638 189.165 152.383 189.422 152.24L194.17 149.503C194.426 149.36 194.844 149.36 195.1 149.503L199.881 152.24Z" fill="#4D4D4D"/>
<path d="M194.908 157.252L190.159 159.988C189.903 160.131 189.486 160.131 189.229 159.988L184.449 157.252C184.32 157.172 184.256 157.077 184.256 156.981V157.538C184.256 157.633 184.32 157.729 184.449 157.809L189.229 160.545C189.486 160.688 189.903 160.688 190.159 160.545L194.908 157.809C195.036 157.729 195.1 157.633 195.1 157.538V156.981C195.1 157.077 195.036 157.172 194.908 157.252Z" fill="#1F2125"/>
<path d="M194.908 156.711C195.164 156.854 195.164 157.092 194.908 157.251L190.159 159.988C189.903 160.131 189.486 160.131 189.229 159.988L184.449 157.251C184.192 157.108 184.192 156.87 184.449 156.711L189.197 153.974C189.454 153.831 189.871 153.831 190.127 153.974L194.908 156.711Z" fill="#4D4D4D"/>
<path d="M185.122 158.986L180.374 161.722C180.117 161.865 179.7 161.865 179.444 161.722L174.663 158.986C174.535 158.906 174.471 158.811 174.471 158.715V159.272C174.471 159.368 174.535 159.463 174.663 159.543L179.444 162.279C179.7 162.422 180.117 162.422 180.374 162.279L185.122 159.543C185.251 159.463 185.315 159.368 185.315 159.272V158.715C185.315 158.811 185.251 158.906 185.122 158.986Z" fill="#1F2125"/>
<path d="M185.122 158.445C185.379 158.588 185.379 158.827 185.122 158.986L180.374 161.722C180.117 161.866 179.7 161.866 179.444 161.722L174.663 158.986C174.407 158.843 174.407 158.604 174.663 158.445L179.411 155.708C179.668 155.565 180.085 155.565 180.342 155.708L185.122 158.445Z" fill="#4D4D4D"/>
<path d="M215.328 154.467L210.58 157.204C210.323 157.347 209.906 157.347 209.65 157.204L204.869 154.467C204.741 154.388 204.677 154.292 204.677 154.197V154.754C204.677 154.849 204.741 154.945 204.869 155.024L209.65 157.761C209.906 157.904 210.323 157.904 210.58 157.761L215.328 155.024C215.457 154.945 215.521 154.849 215.521 154.754V154.197C215.521 154.292 215.457 154.388 215.328 154.467Z" fill="#1F2125"/>
<path d="M215.312 153.942C215.569 154.085 215.569 154.324 215.312 154.483L210.564 157.22C210.307 157.363 209.89 157.363 209.633 157.22L204.853 154.483C204.596 154.34 204.596 154.101 204.853 153.942L209.601 151.206C209.858 151.063 210.275 151.063 210.532 151.206L215.312 153.942Z" fill="#4D4D4D"/>
<path d="M206.425 156.52L201.677 159.256C201.421 159.399 201.003 159.399 200.747 159.256L195.966 156.52C195.838 156.44 195.774 156.345 195.774 156.249V156.806C195.774 156.902 195.838 156.997 195.966 157.077L200.747 159.813C201.003 159.956 201.437 159.956 201.677 159.813L206.425 157.077C206.554 156.997 206.618 156.902 206.618 156.806V156.249C206.618 156.345 206.554 156.44 206.425 156.52Z" fill="#1F2125"/>
<path d="M206.409 155.979C206.666 156.122 206.666 156.36 206.409 156.52L201.661 159.256C201.404 159.399 200.987 159.399 200.731 159.256L195.95 156.52C195.694 156.376 195.694 156.122 195.95 155.979L200.699 153.242C200.955 153.099 201.372 153.099 201.629 153.242L206.409 155.979Z" fill="#4D4D4D"/>
<path d="M201.404 160.974L196.656 163.711C196.4 163.854 195.982 163.854 195.726 163.711L190.945 160.974C190.817 160.895 190.753 160.799 190.753 160.704V161.261C190.753 161.356 190.817 161.452 190.945 161.531L195.726 164.268C195.982 164.411 196.4 164.411 196.656 164.268L201.404 161.531C201.533 161.452 201.597 161.356 201.597 161.261V160.704C201.597 160.799 201.533 160.895 201.404 160.974Z" fill="#1F2125"/>
<path d="M201.42 160.433C201.677 160.577 201.677 160.815 201.42 160.974L196.672 163.711C196.415 163.854 195.998 163.854 195.742 163.711L190.961 160.974C190.705 160.831 190.705 160.593 190.961 160.433L195.71 157.697C195.966 157.554 196.383 157.554 196.64 157.697L201.42 160.433Z" fill="#4D4D4D"/>
<path d="M191.587 162.693L186.839 165.429C186.582 165.572 186.165 165.572 185.908 165.429L181.128 162.693C181 162.613 180.936 162.518 180.936 162.422V162.979C180.936 163.074 181 163.17 181.128 163.249L185.908 165.986C186.165 166.129 186.582 166.129 186.839 165.986L191.587 163.249C191.715 163.17 191.78 163.074 191.78 162.979V162.422C191.78 162.518 191.715 162.613 191.587 162.693Z" fill="#1F2125"/>
<path d="M191.587 162.152C191.844 162.295 191.844 162.534 191.587 162.693L186.839 165.429C186.582 165.572 186.165 165.572 185.908 165.429L181.128 162.693C180.871 162.549 180.871 162.311 181.128 162.152L185.876 159.415C186.133 159.272 186.55 159.272 186.807 159.415L191.587 162.152Z" fill="#4D4D4D"/>
<path d="M184.994 166.781L181.513 168.786C180.904 169.136 179.925 169.136 179.315 168.786L149.735 151.842C149.43 151.667 149.27 151.429 149.27 151.206V151.763C149.27 151.985 149.414 152.224 149.735 152.399L179.315 169.343C179.925 169.693 180.904 169.693 181.513 169.343L184.994 167.338C185.299 167.163 185.443 166.941 185.443 166.702V166.145C185.443 166.368 185.299 166.606 184.994 166.781Z" fill="#1F2125"/>
<path d="M184.978 165.509C185.588 165.859 185.588 166.431 184.978 166.781L181.497 168.786C180.887 169.136 179.909 169.136 179.299 168.786L149.719 151.842C149.109 151.492 149.109 150.919 149.719 150.569L153.2 148.565C153.809 148.215 154.788 148.215 155.398 148.565L184.978 165.509Z" fill="#4D4D4D"/>
<path d="M221.793 158.174L217.045 160.911C216.788 161.054 216.371 161.054 216.114 160.911L211.334 158.174C211.206 158.095 211.142 157.999 211.142 157.904V158.461C211.142 158.556 211.206 158.652 211.334 158.731L216.114 161.468C216.371 161.611 216.788 161.611 217.045 161.468L221.793 158.731C221.921 158.652 221.986 158.556 221.986 158.461V157.904C221.986 157.999 221.921 158.095 221.793 158.174Z" fill="#1F2125"/>
<path d="M221.777 157.649C222.034 157.792 222.034 158.031 221.777 158.19L217.029 160.927C216.772 161.07 216.355 161.07 216.098 160.927L211.318 158.19C211.061 158.047 211.061 157.808 211.318 157.649L216.066 154.913C216.323 154.77 216.74 154.77 216.997 154.913L221.777 157.649Z" fill="#4D4D4D"/>
<path d="M212.954 160.259L208.206 162.995C207.949 163.138 207.532 163.138 207.276 162.995L202.495 160.259C202.367 160.179 202.303 160.083 202.303 159.988V160.545C202.303 160.64 202.367 160.736 202.495 160.815L207.276 163.552C207.532 163.695 207.965 163.695 208.206 163.552L212.954 160.815C213.083 160.736 213.147 160.64 213.147 160.545V159.988C213.147 160.083 213.083 160.179 212.954 160.259Z" fill="#1F2125"/>
<path d="M212.954 159.718C213.211 159.861 213.211 160.099 212.954 160.259L208.206 162.995C207.949 163.138 207.532 163.138 207.276 162.995L202.495 160.259C202.239 160.115 202.239 159.861 202.495 159.718L207.243 156.981C207.5 156.838 207.917 156.838 208.174 156.981L212.954 159.718Z" fill="#4D4D4D"/>
<path d="M207.917 164.697L203.169 167.434C202.912 167.577 202.495 167.577 202.238 167.434L197.458 164.697C197.33 164.618 197.266 164.522 197.266 164.427V164.984C197.266 165.079 197.33 165.175 197.458 165.254L202.238 167.991C202.495 168.134 202.912 168.134 203.169 167.991L207.917 165.254C208.045 165.175 208.11 165.079 208.11 164.984V164.427C208.11 164.522 208.045 164.618 207.917 164.697Z" fill="#1F2125"/>
<path d="M207.917 164.156C208.174 164.3 208.174 164.538 207.917 164.697L203.169 167.434C202.912 167.577 202.495 167.577 202.238 167.434L197.458 164.697C197.201 164.554 197.201 164.315 197.458 164.156L202.206 161.42C202.463 161.277 202.88 161.277 203.137 161.42L207.917 164.156Z" fill="#4D4D4D"/>
<path d="M198.052 166.383L193.303 169.12C193.047 169.263 192.63 169.263 192.373 169.12L187.593 166.383C187.464 166.304 187.4 166.208 187.4 166.113V166.67C187.4 166.765 187.464 166.861 187.593 166.94L192.373 169.677C192.63 169.82 193.047 169.82 193.303 169.677L198.052 166.94C198.18 166.861 198.244 166.765 198.244 166.67V166.113C198.244 166.208 198.18 166.304 198.052 166.383Z" fill="#1F2125"/>
<path d="M198.052 165.859C198.308 166.002 198.308 166.24 198.052 166.399L193.303 169.136C193.047 169.279 192.63 169.279 192.373 169.136L187.593 166.399C187.336 166.256 187.336 166.018 187.593 165.859L192.341 163.122C192.598 162.979 193.015 162.979 193.271 163.122L198.052 165.859Z" fill="#4D4D4D"/>
<path d="M228.514 162.024L223.766 164.761C223.509 164.904 223.092 164.904 222.836 164.761L218.055 162.024C217.927 161.945 217.863 161.849 217.863 161.754V162.311C217.863 162.406 217.927 162.502 218.055 162.581L222.836 165.318C223.092 165.461 223.509 165.461 223.766 165.318L228.514 162.581C228.643 162.502 228.707 162.406 228.707 162.311V161.754C228.707 161.849 228.643 161.945 228.514 162.024Z" fill="#1F2125"/>
<path d="M228.514 161.499C228.771 161.643 228.771 161.881 228.514 162.04L223.766 164.777C223.509 164.92 223.092 164.92 222.836 164.777L218.055 162.04C217.799 161.897 217.799 161.658 218.055 161.499L222.804 158.763C223.06 158.62 223.477 158.62 223.734 158.763L228.514 161.499Z" fill="#4D4D4D"/>
<path d="M219.483 163.997L214.735 166.734C214.478 166.877 214.061 166.877 213.804 166.734L209.024 163.997C208.896 163.918 208.832 163.822 208.832 163.727V164.284C208.832 164.379 208.896 164.475 209.024 164.554L213.804 167.291C214.061 167.434 214.494 167.434 214.735 167.291L219.483 164.554C219.611 164.475 219.676 164.379 219.676 164.284V163.727C219.676 163.822 219.611 163.918 219.483 163.997Z" fill="#1F2125"/>
<path d="M219.483 163.456C219.74 163.6 219.74 163.838 219.483 163.997L214.735 166.734C214.478 166.877 214.061 166.877 213.804 166.734L209.024 163.997C208.767 163.854 208.767 163.6 209.024 163.456L213.772 160.72C214.029 160.577 214.446 160.577 214.703 160.72L219.483 163.456Z" fill="#4D4D4D"/>
<path d="M214.414 168.42L209.666 171.157C209.409 171.3 208.992 171.3 208.735 171.157L203.955 168.42C203.827 168.341 203.762 168.245 203.762 168.15V168.706C203.762 168.802 203.827 168.897 203.955 168.977L208.735 171.713C208.992 171.857 209.409 171.857 209.666 171.713L214.414 168.977C214.542 168.897 214.606 168.802 214.606 168.706V168.15C214.606 168.245 214.542 168.341 214.414 168.42Z" fill="#1F2125"/>
<path d="M214.414 167.879C214.671 168.022 214.671 168.261 214.414 168.42L209.666 171.157C209.409 171.3 208.992 171.3 208.735 171.157L203.955 168.42C203.698 168.277 203.698 168.038 203.955 167.879L208.703 165.143C208.96 165 209.377 165 209.634 165.143L214.414 167.879Z" fill="#4D4D4D"/>
<path d="M204.741 170.218L199.993 172.954C199.736 173.098 199.319 173.098 199.062 172.954L194.282 170.218C194.154 170.138 194.09 170.043 194.09 169.948V170.504C194.09 170.6 194.154 170.695 194.282 170.775L199.062 173.511C199.319 173.654 199.736 173.654 199.993 173.511L204.741 170.775C204.869 170.695 204.934 170.6 204.934 170.504V169.948C204.934 170.043 204.869 170.138 204.741 170.218Z" fill="#1F2125"/>
<path d="M204.757 169.693C205.014 169.836 205.014 170.075 204.757 170.234L200.009 172.97C199.752 173.114 199.335 173.114 199.078 172.97L194.298 170.234C194.041 170.091 194.041 169.852 194.298 169.693L199.046 166.957C199.303 166.813 199.72 166.813 199.977 166.957L204.757 169.693Z" fill="#4D4D4D"/>
<path d="M193.528 171.013L188.908 173.686C188.619 173.845 188.138 173.845 187.865 173.686L181.689 170.154C181.545 170.075 181.465 169.963 181.465 169.852V170.409C181.465 170.52 181.529 170.632 181.689 170.711L187.865 174.243C188.154 174.402 188.619 174.418 188.908 174.243L193.528 171.57C193.672 171.491 193.737 171.379 193.737 171.268V170.711C193.737 170.823 193.672 170.934 193.528 171.013Z" fill="#1F2125"/>
<path d="M193.528 170.409C193.817 170.568 193.817 170.838 193.528 171.013L188.908 173.686C188.619 173.845 188.138 173.845 187.865 173.686L181.689 170.154C181.401 169.995 181.401 169.725 181.689 169.55L186.309 166.877C186.598 166.718 187.063 166.718 187.352 166.877L193.528 170.409Z" fill="#4D4D4D"/>
<path d="M235.075 165.795L230.327 168.532C230.07 168.675 229.653 168.675 229.397 168.532L224.616 165.795C224.488 165.716 224.424 165.62 224.424 165.525V166.081C224.424 166.177 224.488 166.272 224.616 166.352L229.397 169.088C229.653 169.232 230.07 169.232 230.327 169.088L235.075 166.352C235.204 166.272 235.268 166.177 235.268 166.081V165.525C235.268 165.62 235.204 165.716 235.075 165.795Z" fill="#1F2125"/>
<path d="M235.075 165.254C235.332 165.397 235.332 165.636 235.075 165.795L230.327 168.531C230.07 168.675 229.653 168.675 229.397 168.531L224.616 165.795C224.36 165.652 224.36 165.413 224.616 165.254L229.365 162.518C229.621 162.374 230.038 162.374 230.295 162.518L235.075 165.254Z" fill="#4D4D4D"/>
<path d="M226.012 167.736L221.264 170.473C221.007 170.616 220.59 170.616 220.333 170.473L215.553 167.736C215.425 167.656 215.36 167.561 215.36 167.466V168.022C215.36 168.118 215.425 168.213 215.553 168.293L220.333 171.029C220.59 171.173 221.023 171.173 221.264 171.029L226.012 168.293C226.14 168.213 226.204 168.118 226.204 168.022V167.466C226.204 167.561 226.14 167.656 226.012 167.736Z" fill="#1F2125"/>
<path d="M226.012 167.211C226.269 167.354 226.269 167.593 226.012 167.752L221.264 170.488C221.007 170.632 220.59 170.632 220.333 170.488L215.553 167.752C215.296 167.609 215.296 167.354 215.553 167.211L220.301 164.475C220.558 164.331 220.975 164.331 221.232 164.475L226.012 167.211Z" fill="#4D4D4D"/>
<path d="M220.911 172.143L216.163 174.88C215.906 175.023 215.489 175.023 215.232 174.88L210.452 172.143C210.323 172.064 210.259 171.968 210.259 171.873V172.43C210.259 172.525 210.323 172.621 210.452 172.7L215.232 175.437C215.489 175.58 215.906 175.58 216.163 175.437L220.911 172.7C221.039 172.621 221.103 172.525 221.103 172.43V171.873C221.103 171.968 221.039 172.064 220.911 172.143Z" fill="#1F2125"/>
<path d="M220.911 171.602C221.167 171.745 221.167 172 220.911 172.143L216.163 174.88C215.906 175.023 215.489 175.023 215.232 174.88L210.452 172.143C210.195 172 210.195 171.761 210.452 171.602L215.2 168.866C215.457 168.723 215.874 168.723 216.13 168.866L220.911 171.602Z" fill="#4D4D4D"/>
<path d="M211.205 173.909L206.457 176.646C206.201 176.789 205.783 176.789 205.527 176.646L200.746 173.909C200.618 173.83 200.554 173.734 200.554 173.639V174.196C200.554 174.291 200.618 174.386 200.746 174.466L205.527 177.202C205.783 177.346 206.201 177.346 206.457 177.202L211.205 174.466C211.334 174.386 211.398 174.291 211.398 174.196V173.639C211.398 173.734 211.334 173.83 211.205 173.909Z" fill="#1F2125"/>
<path d="M211.19 173.384C211.446 173.527 211.446 173.766 211.19 173.925L206.441 176.662C206.185 176.805 205.768 176.805 205.511 176.662L200.731 173.925C200.474 173.782 200.474 173.543 200.731 173.384L205.479 170.648C205.736 170.504 206.153 170.504 206.409 170.648L211.19 173.384Z" fill="#4D4D4D"/>
<path d="M200.201 174.784L195.485 177.505C195.229 177.664 194.796 177.648 194.523 177.505L189.502 174.625C189.373 174.545 189.309 174.45 189.309 174.354V174.911C189.309 175.007 189.373 175.118 189.502 175.182L194.523 178.061C194.779 178.205 195.213 178.221 195.485 178.061L200.201 175.341C200.33 175.261 200.394 175.166 200.394 175.07V174.514C200.394 174.609 200.33 174.705 200.201 174.784Z" fill="#1F2125"/>
<path d="M200.201 174.227C200.458 174.37 200.474 174.625 200.201 174.768L195.485 177.488C195.228 177.648 194.795 177.632 194.523 177.488L189.502 174.609C189.229 174.45 189.229 174.211 189.502 174.068L194.218 171.347C194.474 171.188 194.908 171.188 195.18 171.347L200.201 174.227Z" fill="#4D4D4D"/>
<path d="M204.212 180.066L201.966 181.355C201.773 181.466 201.469 181.466 201.276 181.355L195.998 178.332C195.902 178.284 195.854 178.205 195.854 178.141V178.698C195.854 178.698 195.902 178.841 195.998 178.889L201.276 181.911C201.469 182.023 201.773 182.023 201.966 181.911L204.212 180.623C204.308 180.575 204.356 180.496 204.356 180.432V179.875C204.356 179.875 204.308 180.018 204.212 180.066Z" fill="#1F2125"/>
<path d="M204.212 179.668C204.404 179.78 204.404 179.955 204.212 180.066L201.966 181.355C201.773 181.466 201.469 181.466 201.276 181.355L195.998 178.332C195.806 178.221 195.806 178.046 195.998 177.934L198.244 176.646C198.437 176.534 198.741 176.534 198.934 176.646L204.212 179.668Z" fill="#4D4D4D"/>
<path d="M250.01 168.913L246.785 170.775C246.593 170.886 246.288 170.886 246.096 170.775L242.31 168.611C242.214 168.563 242.166 168.484 242.166 168.42V168.977C242.166 168.977 242.214 169.12 242.31 169.168L246.096 171.332C246.288 171.443 246.593 171.443 246.785 171.332L250.01 169.47C250.106 169.422 250.154 169.343 250.154 169.279V168.722C250.154 168.722 250.106 168.866 250.01 168.913Z" fill="#1F2125"/>
<path d="M250.01 168.516C250.202 168.627 250.202 168.802 250.01 168.913L246.785 170.775C246.593 170.886 246.288 170.886 246.096 170.775L242.31 168.611C242.117 168.5 242.117 168.325 242.31 168.213L245.534 166.352C245.727 166.24 246.032 166.24 246.224 166.352L250.01 168.516Z" fill="#4D4D4D"/>
<path d="M245.149 171.714L240.674 174.291C240.337 174.482 239.808 174.482 239.471 174.291L231.129 169.518C230.953 169.423 230.873 169.295 230.873 169.168V169.725C230.873 169.852 230.953 169.979 231.129 170.075L239.471 174.848C239.808 175.039 240.337 175.039 240.674 174.848L245.149 172.27C245.31 172.175 245.39 172.048 245.406 171.92V171.364C245.406 171.491 245.326 171.618 245.165 171.714H245.149Z" fill="#1F2125"/>
<path d="M245.15 171.029C245.486 171.22 245.486 171.523 245.15 171.729L240.674 174.307C240.337 174.498 239.808 174.498 239.471 174.307L231.129 169.534C230.792 169.343 230.792 169.025 231.129 168.834L235.605 166.256C235.942 166.066 236.487 166.066 236.808 166.256L245.15 171.029Z" fill="#4D4D4D"/>
<path d="M232.541 171.475L227.792 174.211C227.536 174.354 227.119 174.354 226.862 174.211L222.082 171.475C221.953 171.395 221.889 171.3 221.889 171.204V171.761C221.889 171.857 221.953 171.952 222.082 172.032L226.862 174.768C227.119 174.911 227.552 174.911 227.792 174.768L232.541 172.032C232.669 171.952 232.733 171.857 232.733 171.761V171.204C232.733 171.3 232.669 171.395 232.541 171.475Z" fill="#1F2125"/>
<path d="M232.541 170.95C232.797 171.093 232.797 171.332 232.541 171.491L227.792 174.227C227.536 174.37 227.119 174.37 226.862 174.227L222.082 171.491C221.825 171.348 221.825 171.093 222.082 170.95L226.83 168.213C227.087 168.07 227.504 168.07 227.76 168.213L232.541 170.95Z" fill="#4D4D4D"/>
<path d="M227.407 175.866L222.659 178.602C222.402 178.746 221.985 178.746 221.729 178.602L216.948 175.866C216.82 175.786 216.756 175.691 216.756 175.595V176.152C216.756 176.248 216.82 176.343 216.948 176.423L221.729 179.159C221.985 179.302 222.402 179.302 222.659 179.159L227.407 176.423C227.536 176.343 227.6 176.248 227.6 176.152V175.595C227.6 175.691 227.536 175.786 227.407 175.866Z" fill="#1F2125"/>
<path d="M227.407 175.325C227.664 175.468 227.664 175.723 227.407 175.866L222.659 178.602C222.402 178.746 221.985 178.746 221.729 178.602L216.948 175.866C216.692 175.723 216.692 175.484 216.948 175.325L221.697 172.589C221.953 172.445 222.37 172.445 222.627 172.589L227.407 175.325Z" fill="#4D4D4D"/>
<path d="M239.069 175.214L234.321 177.95C234.065 178.093 233.647 178.093 233.391 177.95L228.61 175.214C228.482 175.134 228.418 175.039 228.418 174.943V175.5C228.418 175.595 228.482 175.691 228.61 175.77L233.391 178.507C233.647 178.65 234.081 178.65 234.321 178.507L239.069 175.77C239.198 175.691 239.262 175.595 239.262 175.5V174.943C239.262 175.039 239.198 175.134 239.069 175.214Z" fill="#1F2125"/>
<path d="M239.069 174.689C239.326 174.832 239.326 175.07 239.069 175.23L234.321 177.966C234.065 178.109 233.647 178.109 233.391 177.966L228.61 175.23C228.354 175.086 228.354 174.832 228.61 174.689L233.359 171.952C233.615 171.809 234.032 171.809 234.289 171.952L239.069 174.689Z" fill="#4D4D4D"/>
<path d="M232.749 178.857L227.889 181.657C227.664 181.784 227.295 181.784 227.071 181.657L223.429 179.573C223.317 179.509 223.253 179.414 223.253 179.334V179.891C223.253 179.97 223.317 180.066 223.429 180.13L227.071 182.214C227.295 182.341 227.664 182.341 227.889 182.214L232.749 179.414C232.862 179.35 232.926 179.255 232.926 179.175V178.618C232.926 178.698 232.878 178.793 232.749 178.857Z" fill="#1F2125"/>
<path d="M232.765 178.38C232.99 178.507 232.99 178.73 232.765 178.857L227.905 181.657C227.68 181.784 227.311 181.784 227.087 181.657L223.445 179.573C223.221 179.446 223.221 179.223 223.445 179.096L228.306 176.295C228.53 176.168 228.915 176.168 229.14 176.295L232.781 178.38H232.765Z" fill="#4D4D4D"/>
<path d="M226.044 182.723L221.841 185.141C221.44 185.38 220.766 185.38 220.349 185.141L207.404 177.727C207.195 177.616 207.099 177.457 207.099 177.298V177.854C207.099 178.014 207.195 178.173 207.404 178.284L220.349 185.698C220.766 185.937 221.424 185.937 221.841 185.698L226.044 183.28C226.253 183.168 226.349 183.009 226.349 182.85V182.293C226.349 182.452 226.253 182.596 226.044 182.723Z" fill="#1F2125"/>
<path d="M226.044 181.88C226.461 182.118 226.461 182.5 226.044 182.739L221.841 185.157C221.44 185.396 220.766 185.396 220.349 185.157L207.404 177.743C206.987 177.505 206.987 177.123 207.404 176.884L211.607 174.466C212.008 174.227 212.682 174.227 213.099 174.466L226.044 181.88Z" fill="#4D4D4D"/>
<path d="M213.548 182.421L208.831 185.141C208.575 185.3 208.142 185.285 207.869 185.141L202.848 182.262C202.72 182.182 202.656 182.087 202.656 181.991V182.548C202.656 182.644 202.72 182.755 202.848 182.819L207.869 185.698C208.126 185.841 208.559 185.857 208.831 185.698L213.548 182.978C213.676 182.898 213.74 182.803 213.74 182.707V182.15C213.74 182.246 213.676 182.341 213.548 182.421Z" fill="#1F2125"/>
<path d="M213.548 181.864C213.804 182.007 213.82 182.262 213.548 182.405L208.832 185.125C208.575 185.285 208.142 185.269 207.869 185.125L202.848 182.246C202.575 182.087 202.575 181.848 202.848 181.705L207.564 178.984C207.821 178.825 208.254 178.825 208.527 178.984L213.548 181.864Z" fill="#4D4D4D"/>
<path d="M217.478 187.671L215.232 188.959C215.04 189.071 214.735 189.071 214.542 188.959L209.249 185.937C209.152 185.889 209.104 185.809 209.104 185.746V186.302C209.104 186.302 209.152 186.446 209.249 186.493L214.542 189.516C214.735 189.628 215.04 189.628 215.232 189.516L217.478 188.228C217.574 188.18 217.622 188.1 217.622 188.037V187.48C217.622 187.48 217.574 187.623 217.478 187.671Z" fill="#1F2125"/>
<path d="M217.478 187.273C217.67 187.384 217.67 187.559 217.478 187.671L215.232 188.96C215.04 189.071 214.735 189.071 214.542 188.96L209.249 185.937C209.056 185.825 209.056 185.65 209.249 185.539L211.494 184.25C211.687 184.139 211.992 184.139 212.184 184.25L217.478 187.273Z" fill="#4D4D4D"/>
<path d="M165.022 113.102L162.953 114.279H162.247V114.836C162.247 114.836 162.295 114.963 162.375 115.011L245.069 162.359C245.262 162.47 245.598 162.454 245.823 162.327L248.406 160.847L165.022 113.102Z" fill="#1F2125"/>
<path d="M245.069 161.834L162.375 114.486C162.183 114.375 162.199 114.184 162.424 114.057L165.006 112.577L248.39 160.322L245.807 161.802C245.582 161.929 245.246 161.945 245.053 161.834H245.069Z" fill="#4D4D4D"/>
<path d="M270.447 77.2733L169.963 19.7439C169.354 19.3938 168.76 19.3461 168.295 19.5529L165.375 20.8575C165.84 20.6507 166.434 20.6984 167.044 21.0484L267.527 78.5939C268.859 79.3575 269.805 81.2508 269.661 82.8417L261.784 165.731C261.704 166.59 261.319 167.163 260.774 167.418L263.693 166.113C264.239 165.875 264.624 165.286 264.704 164.427L272.58 81.5371C272.725 79.9462 271.778 78.037 270.447 77.2893V77.2733Z" fill="#4D4D4D"/>
<path d="M267.527 78.594C268.859 79.3576 269.805 81.2509 269.661 82.8418L261.784 165.731C261.64 167.322 260.437 167.991 259.105 167.227L158.622 109.682C157.29 108.918 156.344 107.025 156.488 105.434L164.365 22.5441C164.509 20.9531 165.712 20.2849 167.043 21.0485L267.527 78.594Z" fill="#1F2125"/>
<path d="M265.987 79.7713C267.254 80.5031 268.169 82.3168 268.024 83.8442L261.159 155.995C261.014 157.506 259.859 158.142 258.592 157.427L161.22 101.647C159.953 100.915 159.039 99.1016 159.183 97.5901L166.049 25.4396C166.193 23.9123 167.332 23.2759 168.6 24.0078L265.971 79.7872L265.987 79.7713Z" fill="#4A4A4A"/>
<g style="mix-blend-mode:multiply">
<path d="M196.399 164.983L192.549 167.179C190.881 168.134 188.347 168.245 186.903 167.418L120.812 129.584L130.678 123.889L196.8 161.738C198.244 162.549 198.068 164.013 196.399 164.968V164.983Z" fill="#BDBDBD"/>
</g>
<path d="M174.92 41.9538L171.391 39.9333C170.829 39.6151 170.428 38.7401 170.524 38.0082C170.605 37.2764 171.134 36.9264 171.711 37.2605L175.24 39.281C175.802 39.5992 176.203 40.4742 176.107 41.2061C176.027 41.9379 175.497 42.2879 174.92 41.9538Z" fill="#006EFF"/>
<path d="M169.53 88.8874L166.001 86.8669C165.439 86.5487 165.038 85.6737 165.134 84.9418C165.215 84.21 165.744 83.86 166.321 84.1941L169.851 86.2146C170.412 86.5328 170.813 87.4078 170.717 88.1397C170.637 88.8715 170.107 89.2215 169.53 88.8874Z" fill="#006EFF"/>
<path d="M179.459 94.5831L172.385 90.5261C171.824 90.2079 171.423 89.3329 171.519 88.601C171.599 87.8692 172.129 87.5191 172.706 87.8533L179.78 91.9102C180.342 92.2284 180.743 93.1035 180.647 93.8353C180.566 94.5671 180.037 94.9172 179.459 94.5831Z" fill="#B3D4FF"/>
<path d="M204.965 109.188L182.363 96.2534C181.802 95.9352 181.4 95.0602 181.497 94.3283C181.577 93.5965 182.106 93.2464 182.684 93.5805L205.286 106.515C205.848 106.833 206.249 107.708 206.152 108.44C206.072 109.172 205.543 109.522 204.965 109.188Z" fill="#FFAD66"/>
<path d="M188.876 49.9404L178.16 43.7993C177.599 43.4811 177.198 42.606 177.294 41.8742C177.374 41.1424 177.903 40.7923 178.481 41.1264L189.197 47.2676C189.758 47.5858 190.159 48.4608 190.063 49.1927C189.983 49.9245 189.453 50.2745 188.876 49.9404Z" fill="#B3D4FF"/>
<path d="M224.359 70.273L192.148 51.8337C191.587 51.5155 191.186 50.6405 191.282 49.9086C191.362 49.1768 191.891 48.8268 192.469 49.1609L224.68 67.6002C225.242 67.9184 225.643 68.7934 225.546 69.5253C225.466 70.2571 224.937 70.6071 224.359 70.273Z" fill="#FFAD66"/>
<path d="M177.727 48.4448L174.198 46.4243C173.636 46.1061 173.235 45.231 173.332 44.4992C173.412 43.7674 173.941 43.4173 174.519 43.7514L178.048 45.772C178.609 46.0902 179.01 46.9652 178.914 47.6971C178.834 48.4289 178.305 48.7789 177.727 48.4448Z" fill="#006EFF"/>
<path d="M191.667 56.4316L180.951 50.2905C180.39 49.9723 179.989 49.0973 180.085 48.3654C180.165 47.6336 180.694 47.2836 181.272 47.6177L191.988 53.7588C192.549 54.077 192.95 54.952 192.854 55.6839C192.774 56.4157 192.244 56.7657 191.667 56.4316Z" fill="#B3D4FF"/>
<path d="M227.151 76.7643L194.939 58.3249C194.378 58.0067 193.977 57.1317 194.073 56.3998C194.153 55.668 194.683 55.318 195.26 55.6521L227.471 74.0914C228.033 74.4096 228.434 75.2847 228.338 76.0165C228.257 76.7483 227.728 77.0984 227.151 76.7643Z" fill="#FFAD66"/>
<path d="M177.15 53.4248L173.621 51.4043C173.059 51.0861 172.658 50.211 172.754 49.4792C172.834 48.7473 173.364 48.3973 173.941 48.7314L177.47 50.752C178.032 51.0702 178.433 51.9452 178.337 52.677C178.256 53.4089 177.727 53.7589 177.15 53.4248Z" fill="#006EFF"/>
<path d="M176.604 58.1338L173.075 56.1132C172.513 55.795 172.112 54.92 172.209 54.1882C172.289 53.4563 172.818 53.1063 173.396 53.4404L176.925 55.4609C177.486 55.7791 177.887 56.6542 177.791 57.386C177.711 58.1179 177.181 58.4679 176.604 58.1338Z" fill="#006EFF"/>
<path d="M174.422 77.1618L170.893 75.1413C170.332 74.8231 169.931 73.9481 170.027 73.2162C170.107 72.4844 170.637 72.1344 171.214 72.4685L174.743 74.489C175.305 74.8072 175.706 75.6822 175.609 76.4141C175.529 77.1459 175 77.496 174.422 77.1618Z" fill="#006EFF"/>
<path d="M173.893 81.7915L170.364 79.771C169.802 79.4528 169.401 78.5777 169.498 77.8459C169.578 77.114 170.107 76.764 170.685 77.0981L174.214 79.1187C174.775 79.4369 175.176 80.3119 175.08 81.0437C175 81.7756 174.471 82.1256 173.893 81.7915Z" fill="#006EFF"/>
<path d="M172.369 95.0127L168.84 92.9921C168.279 92.674 167.878 91.7989 167.974 91.0671C168.054 90.3352 168.583 89.9852 169.161 90.3193L172.69 92.3398C173.251 92.658 173.652 93.5331 173.556 94.2649C173.476 94.9968 172.947 95.3468 172.369 95.0127Z" fill="#006EFF"/>
<path d="M182.026 100.533L175.16 96.6035C174.599 96.2853 174.198 95.4102 174.294 94.6784C174.374 93.9465 174.904 93.5965 175.481 93.9306L182.347 97.8603C182.908 98.1785 183.309 99.0536 183.213 99.7854C183.133 100.517 182.604 100.867 182.026 100.533Z" fill="#B3D4FF"/>
<path d="M208.671 115.791L185.17 102.331C184.609 102.013 184.208 101.138 184.304 100.406C184.384 99.6741 184.914 99.3241 185.491 99.6582L208.992 113.118C209.553 113.436 209.954 114.311 209.858 115.043C209.778 115.775 209.249 116.125 208.671 115.791Z" fill="#FFAD66"/>
<path d="M222.771 109.777L219.242 107.756C218.681 107.438 218.28 106.563 218.376 105.831C218.456 105.099 218.986 104.749 219.563 105.083L223.092 107.104C223.654 107.422 224.055 108.297 223.959 109.029C223.878 109.761 223.349 110.111 222.771 109.777Z" fill="#006EFF"/>
<path d="M174.134 61.1726L170.605 59.1521C170.043 58.8339 169.642 57.9588 169.738 57.227C169.819 56.4951 170.348 56.1451 170.925 56.4792L174.455 58.4998C175.016 58.818 175.417 59.693 175.321 60.4248C175.241 61.1567 174.711 61.5067 174.134 61.1726Z" fill="#006EFF"/>
<path d="M183.903 66.7728L177.15 62.9067C176.588 62.5885 176.187 61.7135 176.283 60.9816C176.364 60.2498 176.893 59.8998 177.47 60.2339L184.224 64.0999C184.785 64.4181 185.186 65.2932 185.09 66.025C185.01 66.7568 184.481 67.1069 183.903 66.7728Z" fill="#B3D4FF"/>
<path d="M220.253 87.5826L215.488 84.8462C214.927 84.528 214.526 83.6529 214.622 82.9211C214.702 82.1892 215.232 81.8392 215.809 82.1733L220.574 84.9098C221.135 85.228 221.536 86.103 221.44 86.8349C221.36 87.5667 220.83 87.9167 220.253 87.5826Z" fill="#B3D4FF"/>
<path d="M197.955 74.8073L186.951 68.507C186.389 68.1888 185.988 67.3138 186.085 66.582C186.165 65.8501 186.694 65.5001 187.272 65.8342L198.276 72.1344C198.838 72.4526 199.239 73.3277 199.142 74.0595C199.062 74.7914 198.533 75.1414 197.955 74.8073Z" fill="#FFAD66"/>
<path d="M173.54 66.3274L170.011 64.3068C169.45 63.9886 169.049 63.1136 169.145 62.3818C169.225 61.6499 169.754 61.2999 170.332 61.634L173.861 63.6545C174.423 63.9727 174.824 64.8478 174.727 65.5796C174.647 66.3115 174.118 66.6615 173.54 66.3274Z" fill="#006EFF"/>
<path d="M171.374 85.1645L167.845 83.144C167.284 82.8258 166.883 81.9508 166.979 81.2189C167.059 80.4871 167.589 80.1371 168.166 80.4712L171.695 82.4917C172.257 82.8099 172.658 83.6849 172.562 84.4168C172.481 85.1486 171.952 85.4986 171.374 85.1645Z" fill="#006EFF"/>
<path d="M183.309 71.9278L176.556 68.0617C175.994 67.7435 175.593 66.8685 175.69 66.1367C175.77 65.4048 176.299 65.0548 176.877 65.3889L183.63 69.255C184.192 69.5731 184.593 70.4482 184.496 71.18C184.416 71.9119 183.887 72.2619 183.309 71.9278Z" fill="#B3D4FF"/>
<path d="M181.657 86.2462L177.165 83.6848C176.604 83.3666 176.203 82.4915 176.299 81.7597C176.379 81.0279 176.909 80.6778 177.486 81.0119L181.978 83.5734C182.539 83.8916 182.94 84.7666 182.844 85.4985C182.764 86.2303 182.235 86.5803 181.657 86.2462Z" fill="#B3D4FF"/>
<path d="M200.859 97.2399L196.367 94.6784C195.806 94.3602 195.405 93.4852 195.501 92.7533C195.581 92.0215 196.11 91.6715 196.688 92.0056L201.18 94.5671C201.741 94.8852 202.142 95.7603 202.046 96.4921C201.966 97.224 201.436 97.574 200.859 97.2399Z" fill="#B3D4FF"/>
<path d="M232.605 105.752L173.059 71.6572C172.497 71.339 172.096 70.464 172.193 69.7321C172.273 69.0003 172.802 68.6503 173.38 68.9844L232.925 103.079C233.487 103.397 233.888 104.272 233.792 105.004C233.711 105.736 233.182 106.086 232.605 105.752Z" fill="#F2F2F2"/>
<path d="M194.859 78.5461L186.357 73.6777C185.796 73.3595 185.395 72.4845 185.491 71.7526C185.571 71.0208 186.101 70.6708 186.678 71.0049L195.18 75.8732C195.742 76.1914 196.143 77.0665 196.046 77.7983C195.966 78.5302 195.437 78.8802 194.859 78.5461Z" fill="#FFAD66"/>
<path d="M193.207 92.8488L184.705 87.9804C184.144 87.6622 183.743 86.7872 183.839 86.0554C183.919 85.3235 184.448 84.9735 185.026 85.3076L193.528 90.176C194.089 90.4942 194.49 91.3692 194.394 92.101C194.314 92.8329 193.784 93.1829 193.207 92.8488Z" fill="#FFAD66"/>
<path d="M216.066 105.943L204.067 99.0695C203.506 98.7513 203.105 97.8763 203.201 97.1445C203.281 96.4126 203.81 96.0626 204.388 96.3967L216.387 103.27C216.948 103.588 217.349 104.463 217.253 105.195C217.173 105.927 216.644 106.277 216.066 105.943Z" fill="#F2F2F2"/>
<path d="M212.537 83.1598L201.533 76.8596C200.971 76.5414 200.57 75.6663 200.666 74.9345C200.747 74.2027 201.276 73.8526 201.853 74.1867L212.858 80.487C213.419 80.8052 213.82 81.6802 213.724 82.4121C213.644 83.1439 213.115 83.4939 212.537 83.1598Z" fill="#F2F2F2"/>
<path d="M191.089 61.4114L180.374 55.2702C179.812 54.952 179.411 54.077 179.507 53.3451C179.588 52.6133 180.117 52.2633 180.695 52.5974L191.41 58.7385C191.972 59.0567 192.373 59.9318 192.276 60.6636C192.196 61.3955 191.667 61.7455 191.089 61.4114Z" fill="#B3D4FF"/>
<path d="M214.125 74.6003L203.409 68.4592C202.848 68.141 202.447 67.266 202.543 66.5341C202.623 65.8023 203.153 65.4523 203.73 65.7864L214.446 71.9275C215.007 72.2457 215.408 73.1207 215.312 73.8526C215.232 74.5844 214.703 74.9344 214.125 74.6003Z" fill="#B3D4FF"/>
<path d="M199.8 66.3909L194.378 63.2885C193.817 62.9703 193.416 62.0953 193.512 61.3635C193.592 60.6316 194.121 60.2816 194.699 60.6157L200.121 63.7181C200.682 64.0363 201.083 64.9113 200.987 65.6432C200.907 66.375 200.378 66.725 199.8 66.3909Z" fill="#FFAD66"/>
<path d="M235.252 86.6918L217.75 76.6687C217.189 76.3505 216.788 75.4754 216.884 74.7436C216.964 74.0117 217.494 73.6617 218.071 73.9958L235.572 84.0189C236.134 84.3371 236.535 85.2122 236.439 85.944C236.358 86.6759 235.829 87.0259 235.252 86.6918Z" fill="#FFAD66"/>
<path d="M171.888 99.2126L168.359 97.1921C167.797 96.8739 167.396 95.9989 167.493 95.267C167.573 94.5352 168.102 94.1852 168.68 94.5193L172.209 96.5398C172.77 96.858 173.171 97.733 173.075 98.4649C172.995 99.1967 172.465 99.5467 171.888 99.2126Z" fill="#006EFF"/>
<path d="M185.828 107.199L175.112 101.058C174.551 100.74 174.15 99.8651 174.246 99.1332C174.326 98.4014 174.856 98.0514 175.433 98.3855L186.149 104.527C186.71 104.845 187.111 105.72 187.015 106.452C186.935 107.184 186.405 107.534 185.828 107.199Z" fill="#B3D4FF"/>
<path d="M208.863 120.389L198.148 114.248C197.586 113.929 197.185 113.054 197.281 112.322C197.362 111.591 197.891 111.241 198.468 111.575L209.184 117.716C209.746 118.034 210.147 118.909 210.05 119.641C209.97 120.373 209.441 120.723 208.863 120.389Z" fill="#B3D4FF"/>
<path d="M194.538 112.179L189.116 109.077C188.555 108.759 188.154 107.884 188.25 107.152C188.33 106.42 188.86 106.07 189.437 106.404L194.859 109.506C195.421 109.825 195.822 110.7 195.725 111.432C195.645 112.163 195.116 112.513 194.538 112.179Z" fill="#FFAD66"/>
<path d="M229.974 132.48L212.473 122.457C211.911 122.139 211.51 121.264 211.607 120.532C211.687 119.8 212.216 119.45 212.794 119.784L230.295 129.807C230.856 130.125 231.257 131 231.161 131.732C231.081 132.464 230.552 132.814 229.974 132.48Z" fill="#FFAD66"/>
<path d="M199.158 62.0478L91.1834 0.222718C90.7342 -0.0318369 90.3171 -0.0636563 90.0284 0.11135L86.4993 2.14779C86.788 1.97279 87.2051 2.00461 87.6543 2.25916L195.629 64.0843C196.512 64.5934 197.233 65.8343 197.233 66.8526L197.009 146.672C197.009 147.181 196.832 147.531 196.544 147.69L200.073 145.653C200.361 145.494 200.538 145.128 200.538 144.635L200.762 64.8161C200.762 63.7979 200.041 62.5569 199.158 62.0478Z" fill="#737373"/>
<path d="M197.249 66.8365V75.0459L197.025 146.656C197.025 147.674 196.303 148.071 195.405 147.578L87.4298 85.7373C86.5314 85.2122 85.8096 83.9872 85.8096 82.969L86.0021 11.3594V3.16589C86.0342 2.14767 86.756 1.74992 87.6543 2.24312L195.645 64.0682C196.528 64.5933 197.249 65.8183 197.249 66.8365Z" fill="#1F2125"/>
<path d="M195.276 67.1389V75.046L195.052 144.126C195.052 145.096 194.346 145.478 193.48 145.001L110.273 97.3673L89.3227 85.3714C88.4565 84.8623 87.7827 83.6691 87.7827 82.6986L87.9752 13.6345V5.71151C87.9913 4.7251 88.6971 4.32736 89.5633 4.82056L110.273 16.6892L193.72 64.482C194.555 64.9592 195.26 66.1684 195.26 67.1548L195.276 67.1389Z" fill="#4A4A4A"/>
<path d="M110.273 16.6733V97.3673L89.3227 85.3714C88.4565 84.8623 87.7827 83.6691 87.7827 82.6986L87.9752 13.6345V5.71151C87.9913 4.7251 88.6971 4.32736 89.5633 4.82056L110.273 16.6892V16.6733Z" fill="#FFAD66"/>
<path d="M197.249 66.8365V75.0459L86.002 11.3753V3.16589C86.034 2.14767 86.7559 1.74992 87.6542 2.24312L195.645 64.0682C196.528 64.5933 197.249 65.8183 197.249 66.8365Z" fill="#1F2125"/>
<path d="M102.894 16.3074C102.894 17.7392 103.92 19.5052 105.188 20.2211C106.455 20.9371 107.482 20.3643 107.482 18.9325C107.482 17.5006 106.455 15.7346 105.188 15.0187C103.92 14.3027 102.894 14.8755 102.894 16.3074Z" fill="#006EFF"/>
<path d="M96.4932 12.6482C96.4932 14.08 97.5198 15.846 98.7871 16.562C100.054 17.2779 101.081 16.7052 101.081 15.2733C101.081 13.8414 100.054 12.0754 98.7871 11.3595C97.5198 10.6436 96.4932 11.2163 96.4932 12.6482Z" fill="#006EFF"/>
<path d="M90.1086 8.989C90.1086 10.4209 91.1353 12.1868 92.4026 12.9028C93.6698 13.6187 94.6965 13.046 94.6965 11.6141C94.6965 10.1822 93.6698 8.41625 92.4026 7.70031C91.1353 6.98437 90.1086 7.55712 90.1086 8.989Z" fill="#006EFF"/>
<path d="M189.726 128.837L157.435 110.35C156.857 110.016 156.376 109.125 156.376 108.345V99.4992C156.376 98.7197 156.857 98.3696 157.435 98.7038L189.726 117.191C190.304 117.525 190.785 118.416 190.785 119.195V128.041C190.785 128.821 190.304 129.171 189.726 128.837Z" fill="#006EFF"/>
<path d="M119.24 44.4037C119.24 45.4538 118.486 45.8834 117.572 45.3424C116.641 44.8174 115.903 43.5287 115.903 42.4787C115.903 41.4286 116.657 40.9991 117.572 41.54C118.502 42.065 119.24 43.3537 119.24 44.4037Z" fill="white"/>
<path d="M149.622 63.1771L123.026 47.9515C122.496 47.6492 122.047 46.8219 122.047 46.106C122.047 45.3901 122.48 45.0719 123.026 45.3742L149.622 60.5997C150.152 60.902 150.601 61.7293 150.601 62.4453C150.601 63.1612 150.168 63.4794 149.622 63.1771Z" fill="white"/>
<path d="M149.574 94.917L116.882 76.1913C116.352 75.889 115.903 75.0617 115.903 74.3457C115.903 73.6298 116.336 73.3116 116.882 73.6139L149.574 92.3396C150.104 92.6419 150.553 93.4692 150.553 94.1852C150.553 94.9011 150.12 95.2193 149.574 94.917Z" fill="white"/>
<path d="M149.574 100.263L116.882 81.537C116.352 81.2347 115.903 80.4074 115.903 79.6914C115.903 78.9755 116.336 78.6573 116.882 78.9596L149.574 97.6853C150.104 97.9876 150.553 98.8149 150.553 99.5309C150.553 100.247 150.12 100.565 149.574 100.263Z" fill="white"/>
<path d="M149.574 105.847L116.882 87.1214C116.352 86.8192 115.903 85.9919 115.903 85.2759C115.903 84.56 116.336 84.2418 116.882 84.5441L149.574 103.27C150.104 103.572 150.553 104.399 150.553 105.115C150.553 105.831 150.12 106.149 149.574 105.847Z" fill="white"/>
<path d="M190.127 113.929L157.435 95.2035C156.905 94.9012 156.456 94.0739 156.456 93.358C156.456 92.642 156.889 92.3238 157.435 92.6261L190.127 111.352C190.656 111.654 191.106 112.481 191.106 113.197C191.106 113.913 190.672 114.231 190.127 113.929Z" fill="white"/>
<path d="M190.127 108.504L157.435 89.7782C156.905 89.4759 156.456 88.6486 156.456 87.9327C156.456 87.2167 156.889 86.8985 157.435 87.2008L190.127 105.927C190.656 106.229 191.106 107.056 191.106 107.772C191.106 108.488 190.672 108.806 190.127 108.504Z" fill="white"/>
<path d="M190.127 86.3098L157.435 67.5841C156.905 67.2818 156.456 66.4545 156.456 65.7386C156.456 65.0226 156.889 64.7044 157.435 65.0067L190.127 83.7324C190.656 84.0347 191.106 84.862 191.106 85.578C191.106 86.2939 190.672 86.6121 190.127 86.3098Z" fill="white"/>
<path d="M134.142 80.0096L116.994 70.1934C116.385 69.8433 115.903 68.9206 115.903 68.1251V49.0016C115.903 48.2061 116.385 47.8402 116.994 48.1902L134.142 58.0065C134.752 58.3565 135.233 59.2793 135.233 60.0748V79.1982C135.233 79.9937 134.752 80.3597 134.142 80.0096Z" fill="#006EFF"/>
<path d="M106.262 48.3176L91.055 39.615C90.5256 39.3127 90.0925 38.4854 90.0925 37.7854V20.8256C90.0925 20.1256 90.5256 19.7915 91.055 20.0938L106.262 28.7964C106.792 29.0987 107.225 29.926 107.225 30.626V47.5858C107.225 48.2858 106.792 48.6199 106.262 48.3176Z" fill="white"/>
<path d="M106.262 53.5677L91.055 44.8651C90.5256 44.5628 90.0925 43.7355 90.0925 43.0354V43.0991C90.0925 42.3991 90.5256 42.0649 91.055 42.3672L106.262 51.0698C106.792 51.3721 107.225 52.1994 107.225 52.8995V52.8358C107.225 53.5358 106.792 53.8699 106.262 53.5677Z" fill="white"/>
<path d="M106.262 81.8391L91.055 73.1365C90.5256 72.8343 90.0925 72.0069 90.0925 71.3069V71.3706C90.0925 70.6705 90.5256 70.3364 91.055 70.6387L106.262 79.3413C106.792 79.6436 107.225 80.4709 107.225 81.1709V81.1073C107.225 81.8073 106.792 82.1414 106.262 81.8391Z" fill="white"/>
<path d="M106.262 87.1214L91.055 78.4188C90.5256 78.1165 90.0925 77.2892 90.0925 76.5891V76.6528C90.0925 75.9528 90.5256 75.6187 91.055 75.9209L106.262 84.6235C106.792 84.9258 107.225 85.7531 107.225 86.4532V86.3895C107.225 87.0896 106.792 87.4237 106.262 87.1214Z" fill="white"/>
<path d="M106.262 92.4192L91.055 83.7166C90.5256 83.4143 90.0925 82.587 90.0925 81.887V81.9506C90.0925 81.2506 90.5256 80.9165 91.055 81.2188L106.262 89.9214C106.792 90.2237 107.225 91.051 107.225 91.751V91.6874C107.225 92.3874 106.792 92.7215 106.262 92.4192Z" fill="white"/>
<path d="M189.726 101.488L157.435 83.0008C156.857 82.6667 156.376 81.7757 156.376 80.9962V72.1504C156.376 71.3708 156.857 71.0208 157.435 71.3549L189.726 89.842C190.304 90.1761 190.785 91.067 190.785 91.8466V100.692C190.785 101.472 190.304 101.822 189.726 101.488Z" fill="#006EFF"/>
</g>
<defs>
<clipPath id="clip0_1243_4041">
<rect width="195.192" height="222.115" fill="white" transform="translate(77.4038)"/>
</clipPath>
</defs>
</svg>
