<svg width="238" height="264" viewBox="0 0 238 264" fill="none" xmlns="http://www.w3.org/2000/svg">
<g clip-path="url(#clip0_1017_9412)">
<path d="M224.444 223.909L77.978 139.432C76.2102 138.425 76.4383 136.638 78.4723 135.46L83.1105 132.779C85.1445 131.601 88.224 131.487 89.9729 132.494L236.439 216.971C238.207 217.979 237.979 219.765 235.945 220.944L231.306 223.624C229.272 224.803 226.193 224.917 224.444 223.909Z" fill="#999999" fill-opacity="0.3"/>
<path d="M235.431 85.5795L87.7298 0.30412C87.1025 -0.0570555 86.5513 -0.0950739 86.1521 0.152046L81.3237 2.96541C81.7229 2.7373 82.2932 2.75631 82.9015 3.11748L230.603 88.3928C231.82 89.0962 232.808 90.807 232.808 92.1947L232.504 202.296C232.504 202.999 232.257 203.475 231.858 203.703L236.686 200.889C237.085 200.661 237.332 200.167 237.332 199.483L237.637 89.4003C237.637 87.9936 236.648 86.3018 235.431 85.5985V85.5795Z" fill="#E6E6E6"/>
<path d="M232.808 92.1946V103.524L232.485 202.277C232.485 203.684 231.497 204.235 230.28 203.532L82.5784 118.256C81.3428 117.534 80.3543 115.842 80.3733 114.435L80.6394 15.6825V4.35298C80.6775 2.9463 81.6659 2.39503 82.8825 3.09837L230.603 88.3737C231.801 89.0961 232.789 90.7879 232.789 92.1946H232.808Z" fill="#BFBFBF"/>
<path d="M230.109 92.5749V103.505L229.805 198.76C229.805 200.11 228.854 200.661 227.676 199.977L85.2016 117.724C84.004 117.04 83.0535 115.386 83.0725 114.055L83.3387 18.8001V7.86978C83.3767 6.52013 84.3272 5.96886 85.5057 6.65319L227.98 88.9061C229.139 89.5904 230.09 91.2442 230.09 92.5749H230.109Z" fill="#1F2125"/>
<path d="M232.808 92.1946V103.524L80.6587 15.6825V4.35298C80.6967 2.9463 81.6852 2.39503 82.9018 3.09837L230.622 88.3737C231.82 89.0961 232.808 90.7879 232.808 92.1946Z" fill="#BFBFBF"/>
<path d="M96.0941 38.8738L91.9691 36.4977C91.3037 36.1175 90.7715 35.091 90.7715 34.2166C90.7715 33.3421 91.3037 32.9239 91.9691 33.3041L96.0941 35.6803C96.7594 36.0605 97.2916 37.087 97.2916 37.9614C97.2916 38.8358 96.7594 39.254 96.0941 38.8738Z" fill="#006EFF"/>
<path d="M96.0941 94.9129L91.9691 92.5367C91.3037 92.1566 90.7715 91.1301 90.7715 90.2556C90.7715 89.3812 91.3037 88.963 91.9691 89.3432L96.0941 91.7193C96.7594 92.0995 97.2916 93.126 97.2916 94.0004C97.2916 94.8749 96.7594 95.2931 96.0941 94.9129Z" fill="#006EFF"/>
<path d="M107.671 101.604L99.4207 96.8519C98.7554 96.4717 98.2231 95.4452 98.2231 94.5708C98.2231 93.6964 98.7554 93.2782 99.4207 93.6584L107.671 98.4107C108.336 98.7909 108.868 99.8174 108.868 100.692C108.868 101.566 108.336 101.984 107.671 101.604Z" fill="#B3D4FF"/>
<path d="M137.42 118.77L111.074 103.562C110.408 103.182 109.876 102.155 109.876 101.281C109.876 100.407 110.408 99.9884 111.074 100.369L137.42 115.576C138.086 115.956 138.618 116.983 138.618 117.857C138.618 118.731 138.086 119.15 137.42 118.77Z" fill="#FFAD66"/>
<path d="M112.347 48.2644L99.8577 41.0599C99.1924 40.6797 98.6602 39.6532 98.6602 38.7788C98.6602 37.9044 99.1924 37.4862 99.8577 37.8664L112.347 45.0709C113.012 45.4511 113.544 46.4776 113.544 47.352C113.544 48.2264 113.012 48.6446 112.347 48.2644Z" fill="#B3D4FF"/>
<path d="M153.73 72.1589L116.187 50.4884C115.522 50.1082 114.989 49.0817 114.989 48.2073C114.989 47.3329 115.522 46.9147 116.187 47.2948L153.73 68.9654C154.395 69.3455 154.928 70.372 154.928 71.2465C154.928 72.1209 154.395 72.5391 153.73 72.1589Z" fill="#FFAD66"/>
<path d="M99.972 46.5916L95.847 44.2154C95.1817 43.8353 94.6494 42.8088 94.6494 41.9343C94.6494 41.0599 95.1817 40.6417 95.847 41.0219L99.972 43.398C100.637 43.7782 101.17 44.8047 101.17 45.6792C101.17 46.5536 100.637 46.9718 99.972 46.5916Z" fill="#006EFF"/>
<path d="M116.225 55.9822L103.736 48.7777C103.07 48.3975 102.538 47.371 102.538 46.4966C102.538 45.6222 103.07 45.204 103.736 45.5842L116.225 52.7886C116.89 53.1688 117.422 54.1953 117.422 55.0698C117.422 55.9442 116.89 56.3624 116.225 55.9822Z" fill="#B3D4FF"/>
<path d="M157.608 79.8767L120.065 58.2062C119.399 57.826 118.867 56.7995 118.867 55.9251C118.867 55.0506 119.399 54.6324 120.065 55.0126L157.608 76.6831C158.273 77.0633 158.806 78.0898 158.806 78.9642C158.806 79.8387 158.273 80.2569 157.608 79.8767Z" fill="#FFAD66"/>
<path d="M99.972 52.5225L95.847 50.1464C95.1817 49.7662 94.6494 48.7397 94.6494 47.8652C94.6494 46.9908 95.1817 46.5726 95.847 46.9528L99.972 49.329C100.637 49.7091 101.17 50.7356 101.17 51.6101C101.17 52.4845 100.637 52.9027 99.972 52.5225Z" fill="#006EFF"/>
<path d="M99.972 58.1683L95.847 55.7921C95.1817 55.4119 94.6494 54.3854 94.6494 53.511C94.6494 52.6366 95.1817 52.2184 95.847 52.5986L99.972 54.9747C100.637 55.3549 101.17 56.3814 101.17 57.2558C101.17 58.1302 100.637 58.5484 99.972 58.1683Z" fill="#006EFF"/>
<path d="M99.972 80.8653L95.847 78.4891C95.1817 78.1089 94.6494 77.0824 94.6494 76.208C94.6494 75.3336 95.1817 74.9154 95.847 75.2956L99.972 77.6717C100.637 78.0519 101.17 79.0784 101.17 79.9528C101.17 80.8273 100.637 81.2455 99.972 80.8653Z" fill="#006EFF"/>
<path d="M99.972 86.3968L95.847 84.0206C95.1817 83.6404 94.6494 82.6139 94.6494 81.7395C94.6494 80.8651 95.1817 80.4469 95.847 80.8271L99.972 83.2032C100.637 83.5834 101.17 84.6099 101.17 85.4843C101.17 86.3588 100.637 86.777 99.972 86.3968Z" fill="#006EFF"/>
<path d="M99.972 102.175L95.847 99.7985C95.1817 99.4183 94.6494 98.3918 94.6494 97.5173C94.6494 96.6429 95.1817 96.2247 95.847 96.6049L99.972 98.9811C100.637 99.3612 101.17 100.388 101.17 101.262C101.17 102.137 100.637 102.555 99.972 102.175Z" fill="#006EFF"/>
<path d="M111.225 108.676L103.222 104.057C102.557 103.676 102.025 102.65 102.025 101.775C102.025 100.901 102.557 100.483 103.222 100.863L111.225 105.482C111.891 105.862 112.423 106.889 112.423 107.763C112.423 108.638 111.891 109.056 111.225 108.676Z" fill="#B3D4FF"/>
<path d="M142.287 126.601L114.894 110.786C114.229 110.406 113.697 109.379 113.697 108.505C113.697 107.63 114.229 107.212 114.894 107.592L142.287 123.408C142.952 123.788 143.484 124.815 143.484 125.689C143.484 126.563 142.952 126.982 142.287 126.601Z" fill="#FFAD66"/>
<path d="M156.962 119.302L152.837 116.926C152.171 116.545 151.639 115.519 151.639 114.645C151.639 113.77 152.171 113.352 152.837 113.732L156.962 116.108C157.627 116.488 158.159 117.515 158.159 118.389C158.159 119.264 157.627 119.682 156.962 119.302Z" fill="#006EFF"/>
<path d="M97.6527 61.7989L93.5277 59.4227C92.8623 59.0425 92.3301 58.016 92.3301 57.1416C92.3301 56.2672 92.8623 55.849 93.5277 56.2292L97.6527 58.6053C98.318 58.9855 98.8502 60.012 98.8502 60.8864C98.8502 61.7609 98.318 62.1791 97.6527 61.7989Z" fill="#006EFF"/>
<path d="M109.04 68.3761L101.151 63.8329C100.485 63.4527 99.9531 62.4262 99.9531 61.5518C99.9531 60.6773 100.485 60.2591 101.151 60.6393L109.04 65.1825C109.705 65.5627 110.237 66.5892 110.237 67.4636C110.237 68.3381 109.705 68.7563 109.04 68.3761Z" fill="#B3D4FF"/>
<path d="M151.411 92.8411L145.86 89.6285C145.195 89.2483 144.663 88.2218 144.663 87.3474C144.663 86.473 145.195 86.0548 145.86 86.435L151.411 89.6475C152.076 90.0277 152.608 91.0542 152.608 91.9286C152.608 92.8031 152.076 93.2213 151.411 92.8411Z" fill="#B3D4FF"/>
<path d="M125.406 77.8237L112.594 70.4291C111.929 70.0489 111.396 69.0224 111.396 68.148C111.396 67.2735 111.929 66.8553 112.594 67.2355L125.406 74.6301C126.072 75.0103 126.604 76.0368 126.604 76.9112C126.604 77.7856 126.072 78.2038 125.406 77.8237Z" fill="#FFAD66"/>
<path d="M97.6527 67.9578L93.5277 65.5817C92.8623 65.2015 92.3301 64.175 92.3301 63.3005C92.3301 62.4261 92.8623 62.0079 93.5277 62.3881L97.6527 64.7643C98.318 65.1444 98.8502 66.1709 98.8502 67.0454C98.8502 67.9198 98.318 68.338 97.6527 67.9578Z" fill="#006EFF"/>
<path d="M97.6527 90.4458L93.5277 88.0697C92.8623 87.6895 92.3301 86.663 92.3301 85.7886C92.3301 84.9142 92.8623 84.496 93.5277 84.8761L97.6527 87.2523C98.318 87.6325 98.8502 88.659 98.8502 89.5334C98.8502 90.4078 98.318 90.826 97.6527 90.4458Z" fill="#006EFF"/>
<path d="M109.04 74.535L101.151 69.9918C100.485 69.6116 99.9531 68.5851 99.9531 67.7107C99.9531 66.8363 100.485 66.4181 101.151 66.7983L109.04 71.3415C109.705 71.7216 110.237 72.7481 110.237 73.6226C110.237 74.497 109.705 74.9152 109.04 74.535Z" fill="#B3D4FF"/>
<path d="M109.039 91.6244L103.812 88.6019C103.147 88.2217 102.614 87.1952 102.614 86.3208C102.614 85.4464 103.147 85.0282 103.812 85.4084L109.039 88.4308C109.705 88.811 110.237 89.8375 110.237 90.7119C110.237 91.5864 109.705 92.0046 109.039 91.6244Z" fill="#B3D4FF"/>
<path d="M131.413 104.551L126.186 101.528C125.521 101.148 124.988 100.122 124.988 99.2471C124.988 98.3727 125.521 97.9545 126.186 98.3346L131.413 101.357C132.079 101.737 132.611 102.764 132.611 103.638C132.611 104.513 132.079 104.931 131.413 104.551Z" fill="#B3D4FF"/>
<path d="M167.208 114.397L97.786 74.326C97.1206 73.9459 96.5884 72.9194 96.5884 72.0449C96.5884 71.1705 97.1206 70.7523 97.786 71.1325L167.208 111.204C167.873 111.584 168.405 112.611 168.405 113.485C168.405 114.359 167.873 114.778 167.208 114.397Z" fill="#F2F2F2"/>
<path d="M122.498 82.3098L112.594 76.588C111.929 76.2078 111.396 75.1813 111.396 74.3069C111.396 73.4325 111.929 73.0143 112.594 73.3945L122.498 79.1162C123.163 79.4964 123.695 80.5229 123.695 81.3973C123.695 82.2718 123.163 82.69 122.498 82.3098Z" fill="#FFAD66"/>
<path d="M122.498 99.3991L112.594 93.6774C111.929 93.2972 111.396 92.2707 111.396 91.3963C111.396 90.5218 111.929 90.1036 112.594 90.4838L122.498 96.2056C123.163 96.5858 123.695 97.6123 123.695 98.4867C123.695 99.3611 123.163 99.7793 122.498 99.3991Z" fill="#FFAD66"/>
<path d="M149.149 114.797L135.177 106.718C134.512 106.337 133.979 105.311 133.979 104.437C133.979 103.562 134.512 103.144 135.177 103.524L149.149 111.603C149.814 111.983 150.346 113.01 150.346 113.884C150.346 114.759 149.814 115.177 149.149 114.797Z" fill="#F2F2F2"/>
<path d="M142.419 87.6515L129.607 80.2569C128.942 79.8768 128.41 78.8503 128.41 77.9758C128.41 77.1014 128.942 76.6832 129.607 77.0634L142.419 84.458C143.085 84.8382 143.617 85.8647 143.617 86.7391C143.617 87.6135 143.085 88.0317 142.419 87.6515Z" fill="#F2F2F2"/>
<path d="M116.225 61.9131L103.736 54.7086C103.07 54.3284 102.538 53.3019 102.538 52.4275C102.538 51.5531 103.07 51.1349 103.736 51.5151L116.225 58.7196C116.89 59.0997 117.422 60.1262 117.422 61.0007C117.422 61.8751 116.89 62.2933 116.225 61.9131Z" fill="#B3D4FF"/>
<path d="M143.085 77.4246L130.596 70.2201C129.931 69.8399 129.398 68.8134 129.398 67.939C129.398 67.0646 129.931 66.6463 130.596 67.0265L143.085 74.231C143.75 74.6112 144.283 75.6377 144.283 76.5121C144.283 77.3866 143.75 77.8048 143.085 77.4246Z" fill="#B3D4FF"/>
<path d="M126.376 67.7678L120.046 64.118C119.38 63.7378 118.848 62.7113 118.848 61.8369C118.848 60.9625 119.38 60.5443 120.046 60.9245L126.376 64.5743C127.041 64.9544 127.573 65.9809 127.573 66.8554C127.573 67.7298 127.041 68.148 126.376 67.7678Z" fill="#FFAD66"/>
<path d="M167.702 91.6245L147.305 79.8578C146.64 79.4776 146.107 78.4511 146.107 77.5767C146.107 76.7022 146.64 76.284 147.305 76.6642L167.702 88.4309C168.367 88.8111 168.899 89.8376 168.899 90.712C168.899 91.5865 168.367 92.0047 167.702 91.6245Z" fill="#FFAD66"/>
<path d="M99.972 107.193L95.847 104.817C95.1817 104.437 94.6494 103.41 94.6494 102.536C94.6494 101.661 95.1817 101.243 95.847 101.623L99.972 103.999C100.637 104.38 101.17 105.406 101.17 106.28C101.17 107.155 100.637 107.573 99.972 107.193Z" fill="#006EFF"/>
<path d="M116.225 116.584L103.736 109.379C103.07 108.999 102.538 107.972 102.538 107.098C102.538 106.223 103.07 105.805 103.736 106.185L116.225 113.39C116.89 113.77 117.422 114.797 117.422 115.671C117.422 116.545 116.89 116.964 116.225 116.584Z" fill="#B3D4FF"/>
<path d="M143.085 132.076L130.596 124.871C129.931 124.491 129.398 123.465 129.398 122.59C129.398 121.716 129.931 121.298 130.596 121.678L143.085 128.882C143.75 129.263 144.283 130.289 144.283 131.163C144.283 132.038 143.75 132.456 143.085 132.076Z" fill="#B3D4FF"/>
<path d="M126.376 122.438L120.046 118.788C119.38 118.408 118.848 117.382 118.848 116.507C118.848 115.633 119.38 115.215 120.046 115.595L126.376 119.245C127.041 119.625 127.573 120.651 127.573 121.526C127.573 122.4 127.041 122.818 126.376 122.438Z" fill="#FFAD66"/>
<path d="M167.702 146.295L147.305 134.528C146.64 134.148 146.107 133.122 146.107 132.247C146.107 131.373 146.64 130.954 147.305 131.335L167.702 143.101C168.367 143.482 168.899 144.508 168.899 145.382C168.899 146.257 168.367 146.675 167.702 146.295Z" fill="#FFAD66"/>
<path d="M220.186 89.6665C220.186 91.6434 221.593 94.0766 223.323 95.0651C225.052 96.0726 226.459 95.2552 226.459 93.2782C226.459 91.3013 225.052 88.8681 223.323 87.8796C221.593 86.8721 220.186 87.6895 220.186 89.6665Z" fill="#404040"/>
<path d="M211.442 84.6289C211.442 86.6058 212.849 89.039 214.578 90.0275C216.308 91.035 217.715 90.2176 217.715 88.2406C217.715 86.2637 216.308 83.8305 214.578 82.842C212.849 81.8345 211.442 82.6519 211.442 84.6289Z" fill="#404040"/>
<path d="M202.679 79.5725C202.679 81.5494 204.085 83.9826 205.815 84.9711C207.545 85.9786 208.952 85.1612 208.952 83.1842C208.952 81.2073 207.545 78.7741 205.815 77.7856C204.085 76.7781 202.679 77.5955 202.679 79.5725Z" fill="#404040"/>
<path d="M158.995 122.115L11.2938 36.8398C10.6665 36.4786 10.1152 36.4406 9.71604 36.6877L4.8877 39.5011C5.28689 39.2729 5.85717 39.292 6.46546 39.6531L154.167 124.928C155.384 125.632 156.372 127.343 156.372 128.73L156.068 238.813C156.068 239.516 155.821 239.991 155.422 240.219L160.25 237.406C160.649 237.178 160.896 236.684 160.896 235.999L161.2 125.917C161.2 124.51 160.212 122.818 158.995 122.115Z" fill="#E6E6E6"/>
<path d="M156.372 128.73V140.06L156.049 238.813C156.049 240.219 155.061 240.771 153.844 240.067L6.14235 154.792C4.90675 154.069 3.91827 152.378 3.93728 150.971L4.20341 52.2181V40.8886C4.24143 39.4819 5.22991 38.9307 6.4465 39.634L154.167 124.909C155.365 125.632 156.353 127.324 156.353 128.73H156.372Z" fill="#BFBFBF"/>
<path d="M153.673 129.11V140.041L153.369 235.296C153.369 236.646 152.418 237.197 151.24 236.513L8.76554 154.26C7.56796 153.575 6.6175 151.941 6.63651 150.591L6.90264 55.3357V44.4054C6.94066 43.0558 7.89112 42.5045 9.06969 43.1888L151.544 125.442C152.703 126.126 153.654 127.78 153.654 129.13L153.673 129.11Z" fill="#1F2125"/>
<path d="M24.049 83.5643L17.5668 79.8195C16.7875 79.3633 16.1602 78.1657 16.1602 77.1392V72.9382C16.1602 71.9117 16.7875 71.4365 17.5668 71.8737L24.049 75.6185C24.8284 76.0747 25.4557 77.2723 25.4557 78.2988V82.4998C25.4557 83.5263 24.8284 84.0015 24.049 83.5643Z" fill="#006EFF"/>
<path d="M20.2281 94.7418L16.9585 92.8599C16.5023 92.5937 16.1221 91.8904 16.1221 91.2821V88.2786C16.1221 87.6704 16.4832 87.3852 16.9585 87.6513L20.2281 89.5333C20.6843 89.7994 21.0645 90.5027 21.0645 91.111V94.1145C21.0645 94.7228 20.7033 95.0079 20.2281 94.7418Z" fill="#FFAD66"/>
<path d="M59.8433 117.61L54.0265 114.245C53.4372 113.903 52.981 113.01 52.981 112.23V109.816C52.981 109.037 53.4562 108.695 54.0265 109.018L59.8433 112.382C60.4326 112.724 60.8888 113.618 60.8888 114.397V116.811C60.8888 117.591 60.4136 117.933 59.8433 117.61Z" fill="#FFAD66"/>
<path d="M79.2327 155.153L53.8553 140.497C53.3611 140.212 52.9619 139.451 52.9619 138.786V118.56C52.9619 117.895 53.3611 117.591 53.8553 117.876L79.2327 132.532C79.7269 132.817 80.1261 133.578 80.1261 134.243V154.469C80.1261 155.134 79.7269 155.438 79.2327 155.153Z" fill="#F2F2F2"/>
<path d="M111.263 173.63L85.8861 158.974C85.3919 158.689 84.9927 157.929 84.9927 157.263V137.037C84.9927 136.372 85.3919 136.068 85.8861 136.353L111.263 151.009C111.758 151.294 112.157 152.055 112.157 152.72V172.946C112.157 173.611 111.758 173.915 111.263 173.63Z" fill="white"/>
<path d="M143.294 192.126L117.916 177.47C117.422 177.185 117.023 176.424 117.023 175.759V155.533C117.023 154.868 117.422 154.564 117.916 154.849L143.294 169.505C143.788 169.79 144.187 170.551 144.187 171.216V191.442C144.187 192.107 143.788 192.411 143.294 192.126Z" fill="#8C8C8C"/>
<path d="M79.2327 183.154L53.8553 168.497C53.3611 168.212 52.9619 167.452 52.9619 166.787V146.561C52.9619 145.896 53.3611 145.591 53.8553 145.876L79.2327 160.533C79.7269 160.818 80.1261 161.578 80.1261 162.243V182.469C80.1261 183.135 79.7269 183.439 79.2327 183.154Z" fill="#8C8C8C"/>
<path d="M111.263 201.65L85.8861 186.994C85.3919 186.708 84.9927 185.948 84.9927 185.283V165.057C84.9927 164.392 85.3919 164.087 85.8861 164.373L111.263 179.029C111.758 179.314 112.157 180.074 112.157 180.74V200.965C112.157 201.631 111.758 201.935 111.263 201.65Z" fill="#BFBFBF"/>
<path d="M143.294 220.126L117.916 205.47C117.422 205.185 117.023 204.425 117.023 203.76V183.534C117.023 182.868 117.422 182.564 117.916 182.849L143.294 197.505C143.788 197.791 144.187 198.551 144.187 199.216V219.442C144.187 220.107 143.788 220.412 143.294 220.126Z" fill="#F2F2F2"/>
<path d="M69.9561 123.465L64.1393 120.1C63.55 119.758 63.0938 118.864 63.0938 118.085V115.671C63.0938 114.891 63.569 114.549 64.1393 114.872L69.9561 118.237C70.5264 118.579 71.0016 119.473 71.0016 120.252V122.666C71.0016 123.446 70.5264 123.788 69.9561 123.465Z" fill="#FFAD66"/>
<path d="M80.0879 129.301L74.2711 125.936C73.6818 125.594 73.2256 124.7 73.2256 123.921V121.507C73.2256 120.727 73.7008 120.385 74.2711 120.708L80.0879 124.073C80.6582 124.415 81.1334 125.309 81.1334 126.088V128.502C81.1334 129.282 80.6582 129.624 80.0879 129.301Z" fill="#FFAD66"/>
<path d="M90.2197 135.155L84.4029 131.791C83.8136 131.448 83.3574 130.555 83.3574 129.776V127.361C83.3574 126.582 83.8327 126.24 84.4029 126.563L90.2197 129.928C90.809 130.27 91.2653 131.163 91.2653 131.943V134.357C91.2653 135.136 90.79 135.478 90.2197 135.155Z" fill="#FFAD66"/>
<path d="M142.914 165.57L134.55 160.742C133.865 160.342 133.314 159.297 133.314 158.404V156.465C133.314 155.552 133.865 155.153 134.55 155.533L142.914 160.361C143.598 160.761 144.149 161.806 144.149 162.7V164.639C144.149 165.551 143.598 165.95 142.914 165.57Z" fill="#FFAD66"/>
<path d="M129.949 158.099L124.132 154.735C123.543 154.393 123.087 153.499 123.087 152.72V150.306C123.087 149.526 123.562 149.184 124.132 149.507L129.949 152.872C130.539 153.214 130.995 154.107 130.995 154.887V157.301C130.995 158.08 130.52 158.423 129.949 158.099Z" fill="#FFAD66"/>
<path d="M120.026 152.359L116.244 150.173C115.768 149.888 115.369 149.146 115.369 148.5V145.63C115.369 144.983 115.768 144.679 116.244 144.964L120.026 147.15C120.502 147.435 120.901 148.177 120.901 148.823V151.693C120.901 152.34 120.502 152.644 120.026 152.359Z" fill="#FFAD66"/>
<path d="M111.586 147.492L95.1245 137.988C94.2121 137.456 93.4707 136.03 93.4707 134.813V134.034C93.4707 132.817 94.2121 132.247 95.1245 132.779L111.586 142.284C112.499 142.816 113.24 144.242 113.24 145.458V146.238C113.24 147.454 112.499 148.025 111.586 147.492Z" fill="#FFAD66"/>
<path d="M20.2281 103.79L16.9585 101.908C16.5023 101.642 16.1221 100.939 16.1221 100.33V97.327C16.1221 96.7187 16.4832 96.4336 16.9585 96.6997L20.2281 98.5816C20.6843 98.8477 21.0645 99.5511 21.0645 100.159V103.163C21.0645 103.771 20.7033 104.056 20.2281 103.79Z" fill="#FFAD66"/>
<path d="M20.2281 112.838L16.9585 110.957C16.5023 110.69 16.1221 109.987 16.1221 109.379V106.375C16.1221 105.767 16.4832 105.482 16.9585 105.748L20.2281 107.63C20.6843 107.896 21.0645 108.599 21.0645 109.208V112.211C21.0645 112.819 20.7033 113.105 20.2281 112.838Z" fill="#FFAD66"/>
<path d="M20.2281 121.868L16.9585 119.986C16.5023 119.72 16.1221 119.017 16.1221 118.408V115.405C16.1221 114.797 16.4832 114.511 16.9585 114.778L20.2281 116.659C20.6843 116.926 21.0645 117.629 21.0645 118.237V121.241C21.0645 121.849 20.7033 122.134 20.2281 121.868Z" fill="#FFAD66"/>
<path d="M20.2281 130.916L16.9585 129.034C16.5023 128.768 16.1221 128.065 16.1221 127.457V124.453C16.1221 123.845 16.4832 123.56 16.9585 123.826L20.2281 125.708C20.6843 125.974 21.0645 126.677 21.0645 127.286V130.289C21.0645 130.897 20.7033 131.182 20.2281 130.916Z" fill="#FFAD66"/>
<path d="M47.6774 97.213L29.0483 86.4537C28.1359 85.9215 27.3945 84.4958 27.3945 83.2792V82.9941C27.3945 81.7775 28.1359 81.2072 29.0483 81.7395L47.6774 92.4987C48.5898 93.0309 49.3312 94.4566 49.3312 95.6732V95.9584C49.3312 97.1749 48.5898 97.7452 47.6774 97.213Z" fill="#F2F2F2"/>
<path d="M47.6774 110.348L29.0483 99.589C28.1359 99.0567 27.3945 97.6311 27.3945 96.4145V96.1293C27.3945 94.9127 28.1359 94.3425 29.0483 94.8747L47.6774 105.634C48.5898 106.166 49.3312 107.592 49.3312 108.808V109.094C49.3312 110.31 48.5898 110.88 47.6774 110.348Z" fill="#F2F2F2"/>
<path d="M47.6774 119.378L29.0483 108.619C28.1359 108.086 27.3945 106.661 27.3945 105.444V105.159C27.3945 103.942 28.1359 103.372 29.0483 103.904L47.6774 114.663C48.5898 115.196 49.3312 116.621 49.3312 117.838V118.123C49.3312 119.34 48.5898 119.91 47.6774 119.378Z" fill="#F2F2F2"/>
<path d="M47.6774 128.426L29.0483 117.667C28.1359 117.135 27.3945 115.709 27.3945 114.492V114.207C27.3945 112.991 28.1359 112.42 29.0483 112.953L47.6774 123.712C48.5898 124.244 49.3312 125.67 49.3312 126.886V127.171C49.3312 128.388 48.5898 128.958 47.6774 128.426Z" fill="#F2F2F2"/>
<path d="M47.6774 137.474L29.0483 126.715C28.1359 126.183 27.3945 124.757 27.3945 123.541V123.256C27.3945 122.039 28.1359 121.469 29.0483 122.001L47.6774 132.76C48.5898 133.292 49.3312 134.718 49.3312 135.935V136.22C49.3312 137.436 48.5898 138.007 47.6774 137.474Z" fill="#F2F2F2"/>
<path d="M47.6774 146.523L29.0483 135.764C28.1359 135.231 27.3945 133.806 27.3945 132.589V132.304C27.3945 131.087 28.1359 130.517 29.0483 131.049L47.6774 141.808C48.5898 142.341 49.3312 143.766 49.3312 144.983V145.268C49.3312 146.485 48.5898 147.055 47.6774 146.523Z" fill="#F2F2F2"/>
<path d="M20.2281 140.231L16.9585 138.349C16.5023 138.083 16.1221 137.379 16.1221 136.771V133.768C16.1221 133.159 16.4832 132.874 16.9585 133.14L20.2281 135.022C20.6843 135.288 21.0645 135.992 21.0645 136.6V139.603C21.0645 140.212 20.7033 140.497 20.2281 140.231Z" fill="#FFAD66"/>
<path d="M47.6774 155.818L29.0483 145.059C28.1359 144.527 27.3945 143.101 27.3945 141.885V141.6C27.3945 140.383 28.1359 139.813 29.0483 140.345L47.6774 151.104C48.5898 151.636 49.3312 153.062 49.3312 154.279V154.564C49.3312 155.78 48.5898 156.351 47.6774 155.818Z" fill="#F2F2F2"/>
<path d="M20.2281 149.526L16.9585 147.644C16.5023 147.378 16.1221 146.675 16.1221 146.067V143.063C16.1221 142.455 16.4832 142.17 16.9585 142.436L20.2281 144.318C20.6843 144.584 21.0645 145.287 21.0645 145.895V148.899C21.0645 149.507 20.7033 149.792 20.2281 149.526Z" fill="#FFAD66"/>
<path d="M47.6774 165.133L29.0483 154.374C28.1359 153.841 27.3945 152.416 27.3945 151.199V150.914C27.3945 149.697 28.1359 149.127 29.0483 149.659L47.6774 160.419C48.5898 160.951 49.3312 162.377 49.3312 163.593V163.878C49.3312 165.095 48.5898 165.665 47.6774 165.133Z" fill="#F2F2F2"/>
<path d="M156.372 128.73V140.06L4.22266 52.2181V40.8886C4.26067 39.4819 5.24915 38.9307 6.46574 39.634L154.186 124.909C155.384 125.632 156.372 127.324 156.372 128.73Z" fill="#BFBFBF"/>
<path d="M27.5273 59.2517C27.5273 61.2286 28.934 63.6618 30.6639 64.6503C32.3937 65.6578 33.8004 64.8404 33.8004 62.8634C33.8004 60.8865 32.3937 58.4533 30.6639 57.4648C28.934 56.4573 27.5273 57.2747 27.5273 59.2517Z" fill="#404040"/>
<path d="M18.7832 54.1952C18.7832 56.1722 20.1899 58.6054 21.9197 59.5939C23.6496 60.6013 25.0562 59.7839 25.0562 57.807C25.0562 55.83 23.6496 53.3968 21.9197 52.4084C20.1899 51.4199 18.7832 52.2183 18.7832 54.1952Z" fill="#404040"/>
<path d="M10.0391 49.1577C10.0391 51.1346 11.4457 53.5678 13.1756 54.5563C14.9054 55.5638 16.3121 54.7464 16.3121 52.7694C16.3121 50.7925 14.9054 48.3593 13.1756 47.3708C11.4457 46.3633 10.0391 47.1807 10.0391 49.1577Z" fill="#404040"/>
<path d="M148.008 263.316L1.56105 178.839C-0.20681 177.831 0.0213003 176.044 2.05529 174.866L6.69353 172.185C8.72752 171.007 11.807 170.893 13.5559 171.9L160.022 256.377C161.79 257.385 161.562 259.172 159.528 260.35L154.889 263.031C152.855 264.209 149.776 264.323 148.027 263.316H148.008Z" fill="#999999" fill-opacity="0.3"/>
</g>
<defs>
<clipPath id="clip0_1017_9412">
<rect width="237.273" height="264" fill="white" transform="translate(0.363281)"/>
</clipPath>
</defs>
</svg>
