<svg width="232" height="264" viewBox="0 0 232 264" fill="none" xmlns="http://www.w3.org/2000/svg">
<g clip-path="url(#clip0_1017_8781)">
<path d="M91.6331 179.114L11.211 133.068C9.49499 132.085 9.70472 130.364 11.6876 129.23L16.2445 126.62C18.2274 125.485 21.2399 125.353 22.9559 126.336L103.378 172.382C105.094 173.365 104.884 175.086 102.901 176.22L98.3444 178.83C96.3615 179.965 93.349 180.097 91.6331 179.114Z" fill="#A4A4A4" fill-opacity="0.2"/>
<path d="M222.314 209.388C223.992 210.353 224.011 211.922 222.333 212.886L134.933 263.262C133.255 264.227 130.529 264.227 128.851 263.262L1.25846 190.214C-0.419381 189.249 -0.438447 187.68 1.25846 186.715L88.6589 136.34C90.3367 135.375 93.0632 135.375 94.741 136.34L222.314 209.388Z" fill="#999999" fill-opacity="0.2"/>
<path d="M203.248 190.554H199.835V195.281H203.248V190.554Z" fill="#1F2125"/>
<path d="M215.279 203.469L133.465 250.63C131.902 251.538 129.347 251.538 127.764 250.63L8.31314 182.234C7.51235 181.78 7.13102 181.193 7.13102 180.588V187.264C7.11196 187.85 7.51235 188.455 8.29407 188.909L127.726 257.306C129.309 258.213 131.863 258.213 133.427 257.306L215.241 210.144C216.023 209.691 216.404 209.104 216.404 208.518V201.843C216.404 202.429 216.023 203.015 215.26 203.469H215.279Z" fill="#BFBFBF"/>
<path d="M215.26 200.198C216.842 201.106 216.842 202.562 215.26 203.469L133.446 250.63C131.882 251.538 129.328 251.538 127.745 250.63L8.3131 182.234C6.73059 181.326 6.73059 179.87 8.3131 178.962L90.127 131.801C91.6905 130.893 94.2454 130.893 95.8279 131.801L215.26 200.198Z" fill="#F2F2F2"/>
<path d="M162.579 226.691L49.306 161.83C48.3717 161.3 48.4861 160.355 49.5729 159.731L91.538 135.697C92.6248 135.073 94.2645 135.016 95.1988 135.545L208.472 200.406C209.407 200.935 209.292 201.881 208.205 202.505L166.24 226.539C165.153 227.163 163.514 227.22 162.579 226.691Z" fill="#D9D9D9"/>
<path d="M49.573 160.62L91.5382 136.585C92.625 135.961 94.2647 135.905 95.1989 136.434L208.472 201.295C208.701 201.427 208.873 201.578 208.968 201.767C209.235 201.276 209.083 200.765 208.472 200.406L95.1989 135.545C94.2647 135.016 92.625 135.073 91.5382 135.697L49.573 159.731C48.7532 160.204 48.4862 160.847 48.8104 161.357C48.9438 161.092 49.2108 160.847 49.573 160.62Z" fill="#BFBFBF"/>
<path d="M95.561 229.414L43.891 199.839C43.014 199.328 43.1093 198.439 44.1389 197.853L74.321 180.57C75.3506 179.983 76.895 179.927 77.772 180.418L129.442 209.993C130.319 210.504 130.224 211.393 129.194 211.979L99.012 229.262C97.9824 229.849 96.438 229.905 95.561 229.414Z" fill="#D9D9D9"/>
<path d="M44.1389 198.799L74.321 181.515C75.3506 180.929 76.895 180.872 77.7721 181.364L129.442 210.939C129.652 211.052 129.785 211.184 129.881 211.336C130.167 210.863 130.033 210.334 129.442 209.993L77.7721 180.418C76.895 179.908 75.3316 179.983 74.321 180.569L44.1389 197.853C43.3381 198.307 43.1093 198.931 43.4525 199.441C43.586 199.215 43.8148 198.988 44.1389 198.799Z" fill="#BFBFBF"/>
<path d="M100.423 140.878L96.7241 143.015C96.4762 143.166 96.0377 143.166 95.7707 143.015L89.6123 139.479C89.4788 139.403 89.4216 139.308 89.4216 139.214V139.876C89.4216 139.97 89.4788 140.065 89.6123 140.14L95.7707 143.677C96.0377 143.828 96.4571 143.828 96.7241 143.677L100.423 141.54C100.556 141.464 100.614 141.37 100.614 141.275V140.613C100.614 140.708 100.556 140.802 100.423 140.878Z" fill="#1F2125"/>
<path d="M100.404 140.33C100.671 140.481 100.671 140.727 100.404 140.878L96.705 143.015C96.4572 143.166 96.0186 143.166 95.7517 143.015L89.5933 139.479C89.3263 139.327 89.3263 139.081 89.5933 138.93L93.2921 136.793C93.5591 136.642 93.9785 136.642 94.2264 136.793L100.385 140.33H100.404Z" fill="#4D4D4D"/>
<path d="M94.5505 143.885L88.9068 147.137C88.6018 147.307 88.106 147.307 87.801 147.137L82.1192 143.885C81.9666 143.79 81.8904 143.677 81.8904 143.563V144.225C81.8904 144.339 81.9666 144.452 82.1192 144.547L87.801 147.799C88.106 147.969 88.6018 147.969 88.9068 147.799L94.5505 144.547C94.703 144.452 94.7793 144.339 94.7793 144.225V143.563C94.7793 143.677 94.703 143.79 94.5505 143.885Z" fill="#1F2125"/>
<path d="M94.5505 143.242C94.8555 143.412 94.8555 143.696 94.5505 143.885L88.9068 147.137C88.6018 147.307 88.106 147.307 87.801 147.137L82.1192 143.885C81.8141 143.714 81.8141 143.431 82.1192 143.242L87.7628 139.989C88.0679 139.819 88.5636 139.819 88.8687 139.989L94.5505 143.242Z" fill="#4D4D4D"/>
<path d="M107.973 145.189L104.255 147.326C104.007 147.477 103.588 147.477 103.34 147.326L97.4294 143.941C97.296 143.866 97.2388 143.771 97.2388 143.677V144.338C97.2388 144.433 97.296 144.527 97.4294 144.603L103.34 147.988C103.588 148.139 104.007 148.139 104.255 147.988L107.973 145.851C108.107 145.775 108.164 145.681 108.164 145.586V144.925C108.164 145.019 108.107 145.114 107.973 145.189Z" fill="#1F2125"/>
<path d="M107.973 144.66C108.221 144.811 108.221 145.038 107.973 145.189L104.255 147.326C104.007 147.478 103.588 147.478 103.34 147.326L97.4295 143.941C97.1817 143.79 97.1817 143.563 97.4295 143.412L101.148 141.275C101.395 141.124 101.815 141.124 102.063 141.275L107.973 144.66Z" fill="#4D4D4D"/>
<path d="M102.406 148.385L96.762 151.638C96.457 151.808 95.9613 151.808 95.6562 151.638L89.9744 148.385C89.8219 148.291 89.7456 148.177 89.7456 148.064V148.726C89.7456 148.839 89.8219 148.952 89.9744 149.047L95.6562 152.3C95.9613 152.47 96.457 152.47 96.762 152.3L102.406 149.047C102.558 148.952 102.634 148.839 102.634 148.726V148.064C102.634 148.177 102.558 148.291 102.406 148.385Z" fill="#1F2125"/>
<path d="M102.406 147.742C102.711 147.912 102.711 148.196 102.406 148.385L96.762 151.638C96.457 151.808 95.9613 151.808 95.6562 151.638L89.9744 148.385C89.6693 148.215 89.6693 147.931 89.9744 147.742L95.6181 144.49C95.9231 144.32 96.4188 144.32 96.7239 144.49L102.406 147.742Z" fill="#4D4D4D"/>
<path d="M115.695 149.614L111.977 151.751C111.729 151.902 111.31 151.902 111.043 151.751L105.132 148.366C104.999 148.291 104.942 148.196 104.942 148.102V148.763C104.942 148.858 104.999 148.953 105.132 149.028L111.043 152.413C111.31 152.564 111.71 152.564 111.977 152.413L115.695 150.276C115.829 150.201 115.886 150.106 115.886 150.011V149.35C115.886 149.444 115.829 149.539 115.695 149.614Z" fill="#1F2125"/>
<path d="M115.695 149.066C115.962 149.217 115.962 149.444 115.695 149.595L111.977 151.732C111.729 151.884 111.31 151.884 111.043 151.732L105.132 148.347C104.865 148.196 104.865 147.969 105.132 147.818L108.85 145.681C109.098 145.53 109.518 145.53 109.785 145.681L115.695 149.066Z" fill="#4D4D4D"/>
<path d="M123.398 154.02L119.68 156.157C119.432 156.308 119.013 156.308 118.746 156.157L112.835 152.772C112.702 152.696 112.645 152.602 112.645 152.507V153.169C112.645 153.264 112.702 153.358 112.835 153.434L118.746 156.819C118.994 156.97 119.413 156.97 119.68 156.819L123.398 154.682C123.531 154.606 123.589 154.512 123.589 154.417V153.755C123.589 153.85 123.531 153.944 123.398 154.02Z" fill="#1F2125"/>
<path d="M123.398 153.491C123.646 153.642 123.665 153.869 123.398 154.02L119.68 156.157C119.432 156.308 119.013 156.308 118.746 156.157L112.835 152.772C112.587 152.621 112.587 152.394 112.835 152.243L116.553 150.106C116.801 149.955 117.221 149.955 117.468 150.106L123.379 153.491H123.398Z" fill="#4D4D4D"/>
<path d="M131.101 158.426L127.383 160.563C127.135 160.714 126.715 160.714 126.467 160.563L120.557 157.178C120.423 157.102 120.366 157.008 120.366 156.913V157.575C120.366 157.67 120.423 157.764 120.557 157.84L126.467 161.225C126.715 161.376 127.135 161.376 127.383 161.225L131.101 159.088C131.234 159.012 131.291 158.918 131.291 158.823V158.161C131.291 158.256 131.234 158.35 131.101 158.426Z" fill="#1F2125"/>
<path d="M131.101 157.897C131.348 158.048 131.348 158.275 131.101 158.426L127.383 160.563C127.135 160.714 126.715 160.714 126.467 160.563L120.557 157.178C120.29 157.027 120.29 156.8 120.557 156.649L124.275 154.512C124.523 154.361 124.942 154.361 125.209 154.512L131.12 157.897H131.101Z" fill="#4D4D4D"/>
<path d="M138.803 162.851L135.086 164.988C134.838 165.139 134.418 165.139 134.151 164.988L128.241 161.603C128.107 161.527 128.05 161.433 128.05 161.338V162C128.05 162.095 128.107 162.189 128.241 162.265L134.151 165.65C134.418 165.801 134.819 165.801 135.086 165.65L138.803 163.513C138.937 163.437 138.994 163.343 138.994 163.248V162.586C138.994 162.681 138.937 162.775 138.803 162.851Z" fill="#1F2125"/>
<path d="M138.804 162.322C139.07 162.473 139.07 162.7 138.804 162.851L135.086 164.988C134.838 165.139 134.418 165.139 134.151 164.988L128.241 161.603C127.974 161.452 127.974 161.225 128.241 161.074L131.959 158.937C132.207 158.785 132.626 158.785 132.893 158.937L138.804 162.322Z" fill="#4D4D4D"/>
<path d="M146.525 167.257L142.807 169.394C142.56 169.545 142.14 169.545 141.892 169.394L135.982 166.009C135.848 165.933 135.791 165.839 135.791 165.744V166.406C135.791 166.501 135.848 166.595 135.982 166.671L141.892 170.056C142.14 170.207 142.56 170.207 142.807 170.056L146.525 167.919C146.659 167.843 146.716 167.749 146.716 167.654V166.992C146.716 167.087 146.659 167.181 146.525 167.257Z" fill="#1F2125"/>
<path d="M146.526 166.728C146.773 166.879 146.773 167.106 146.526 167.257L142.808 169.394C142.56 169.545 142.14 169.545 141.892 169.394L135.982 166.009C135.734 165.858 135.734 165.631 135.982 165.48L139.7 163.343C139.948 163.191 140.367 163.191 140.615 163.343L146.526 166.728Z" fill="#4D4D4D"/>
<path d="M154.228 171.663L150.51 173.8C150.262 173.951 149.843 173.951 149.576 173.8L143.666 170.415C143.532 170.339 143.475 170.245 143.475 170.15V170.812C143.475 170.907 143.532 171.001 143.666 171.077L149.576 174.462C149.843 174.613 150.243 174.613 150.51 174.462L154.228 172.325C154.362 172.249 154.419 172.155 154.419 172.06V171.398C154.419 171.493 154.362 171.587 154.228 171.663Z" fill="#1F2125"/>
<path d="M154.228 171.134C154.495 171.285 154.495 171.512 154.228 171.663L150.51 173.8C150.263 173.951 149.843 173.951 149.576 173.8L143.666 170.415C143.399 170.264 143.399 170.037 143.666 169.886L147.383 167.749C147.631 167.597 148.051 167.597 148.318 167.749L154.228 171.134Z" fill="#4D4D4D"/>
<path d="M161.931 176.088L158.213 178.225C157.965 178.376 157.546 178.376 157.298 178.225L151.387 174.84C151.254 174.764 151.197 174.67 151.197 174.575V175.237C151.197 175.332 151.254 175.426 151.387 175.502L157.298 178.887C157.546 179.038 157.965 179.038 158.213 178.887L161.931 176.75C162.065 176.674 162.122 176.58 162.122 176.485V175.823C162.122 175.918 162.065 176.012 161.931 176.088Z" fill="#1F2125"/>
<path d="M161.931 175.559C162.179 175.71 162.179 175.937 161.931 176.088L158.213 178.225C157.965 178.376 157.546 178.376 157.298 178.225L151.388 174.84C151.14 174.689 151.14 174.462 151.388 174.311L155.106 172.174C155.353 172.022 155.773 172.022 156.021 172.174L161.931 175.559Z" fill="#4D4D4D"/>
<path d="M169.634 180.494L165.916 182.631C165.668 182.782 165.249 182.782 164.982 182.631L159.071 179.246C158.938 179.17 158.88 179.076 158.88 178.981V179.643C158.88 179.738 158.938 179.832 159.071 179.908L164.982 183.293C165.249 183.444 165.649 183.444 165.916 183.293L169.634 181.156C169.767 181.08 169.824 180.986 169.824 180.891V180.229C169.824 180.324 169.767 180.418 169.634 180.494Z" fill="#1F2125"/>
<path d="M169.634 179.965C169.901 180.116 169.901 180.343 169.634 180.494L165.916 182.631C165.668 182.782 165.249 182.782 164.982 182.631L159.071 179.246C158.804 179.095 158.804 178.868 159.071 178.717L162.789 176.58C163.037 176.428 163.456 176.428 163.723 176.58L169.634 179.965Z" fill="#4D4D4D"/>
<path d="M177.356 184.919L173.638 187.056C173.39 187.207 172.97 187.207 172.704 187.056L166.793 183.671C166.66 183.595 166.602 183.501 166.602 183.406V184.068C166.602 184.162 166.66 184.257 166.793 184.333L172.704 187.717C172.951 187.869 173.371 187.869 173.638 187.717L177.356 185.581C177.489 185.505 177.546 185.41 177.546 185.316V184.654C177.546 184.749 177.489 184.843 177.356 184.919Z" fill="#1F2125"/>
<path d="M177.356 184.389C177.604 184.541 177.623 184.768 177.356 184.919L173.638 187.056C173.39 187.207 172.971 187.207 172.704 187.056L166.793 183.671C166.545 183.52 166.545 183.293 166.793 183.141L170.511 181.005C170.759 180.853 171.178 180.853 171.426 181.005L177.337 184.389H177.356Z" fill="#4D4D4D"/>
<path d="M185.059 189.325L181.341 191.462C181.093 191.613 180.673 191.613 180.425 191.462L174.515 188.077C174.381 188.001 174.324 187.907 174.324 187.812V188.474C174.324 188.568 174.381 188.663 174.515 188.739L180.425 192.123C180.673 192.275 181.093 192.275 181.341 192.123L185.059 189.987C185.192 189.911 185.249 189.816 185.249 189.722V189.06C185.249 189.155 185.192 189.249 185.059 189.325Z" fill="#1F2125"/>
<path d="M185.059 188.795C185.306 188.947 185.306 189.174 185.059 189.325L181.341 191.462C181.093 191.613 180.673 191.613 180.425 191.462L174.515 188.077C174.267 187.926 174.248 187.699 174.515 187.547L178.233 185.411C178.481 185.259 178.9 185.259 179.167 185.411L185.078 188.795H185.059Z" fill="#4D4D4D"/>
<path d="M182.332 193.012V192.35C182.332 192.483 182.427 192.615 182.599 192.71V193.371C182.427 193.277 182.332 193.145 182.332 193.012Z" fill="#1F2125"/>
<path d="M198.996 196.983V197.645C198.996 197.778 198.901 197.91 198.729 198.005V197.343C198.901 197.248 198.996 197.116 198.996 196.983Z" fill="#1F2125"/>
<path d="M198.729 197.343V198.004L195.354 199.952V199.309L198.729 197.343Z" fill="#1F2125"/>
<path d="M194.096 199.309V199.952L182.599 193.372V192.71L194.096 199.309Z" fill="#1F2125"/>
<path d="M195.354 199.309V199.971C195.011 200.16 194.439 200.16 194.096 199.971V199.309C194.439 199.498 195.011 199.498 195.354 199.309Z" fill="#1F2125"/>
<path d="M198.729 196.624C199.073 196.813 199.073 197.154 198.729 197.343L195.355 199.29C195.011 199.479 194.439 199.479 194.096 199.29L182.599 192.71C182.256 192.502 182.256 192.18 182.599 191.991L185.974 190.043C186.317 189.835 186.889 189.835 187.232 190.043L198.729 196.624Z" fill="#4D4D4D"/>
<path d="M110.09 152.772L104.446 156.025C104.141 156.195 103.645 156.195 103.34 156.025L97.6582 152.772C97.5057 152.678 97.4294 152.564 97.4294 152.451V153.113C97.4294 153.226 97.5057 153.339 97.6582 153.434L103.34 156.686C103.645 156.857 104.141 156.857 104.446 156.686L110.09 153.434C110.242 153.339 110.318 153.226 110.318 153.113V152.451C110.318 152.564 110.242 152.678 110.09 152.772Z" fill="#1F2125"/>
<path d="M110.09 152.148C110.395 152.318 110.395 152.602 110.09 152.791L104.446 156.044C104.141 156.214 103.645 156.214 103.34 156.044L97.6582 152.791C97.3532 152.621 97.3532 152.337 97.6582 152.148L103.302 148.896C103.607 148.726 104.103 148.726 104.408 148.896L110.09 152.148Z" fill="#4D4D4D"/>
<path d="M90.9087 150.446L85.5511 153.529C85.1697 153.756 84.5406 153.756 84.1592 153.529L74.8739 148.215C74.6832 148.102 74.5879 147.95 74.5879 147.818V148.48C74.5879 148.631 74.6832 148.763 74.8739 148.877L84.1592 154.19C84.5406 154.417 85.1697 154.417 85.5511 154.19L90.9087 151.108C91.0994 150.995 91.1947 150.862 91.1947 150.711V150.049C91.1947 150.201 91.0994 150.333 90.9087 150.446Z" fill="#1F2125"/>
<path d="M90.9087 149.652C91.2901 149.879 91.2901 150.238 90.9087 150.446L85.5511 153.529C85.1697 153.755 84.5406 153.755 84.1592 153.529L74.8739 148.215C74.4926 147.988 74.4926 147.629 74.8739 147.421L80.2315 144.338C80.6129 144.111 81.2421 144.111 81.6234 144.338L90.9087 149.652Z" fill="#4D4D4D"/>
<path d="M99.0119 154.928L93.3682 158.18C93.0632 158.351 92.5675 158.351 92.2624 158.18L86.5806 154.928C86.4281 154.833 86.3518 154.72 86.3518 154.606V155.268C86.3518 155.382 86.4281 155.495 86.5806 155.59L92.2624 158.842C92.5675 159.012 93.0822 159.012 93.3682 158.842L99.0119 155.59C99.1644 155.495 99.2407 155.382 99.2407 155.268V154.606C99.2407 154.72 99.1644 154.833 99.0119 154.928Z" fill="#1F2125"/>
<path d="M99.0119 154.285C99.317 154.455 99.317 154.739 99.0119 154.928L93.3682 158.18C93.0632 158.351 92.5675 158.351 92.2624 158.18L86.5806 154.928C86.2755 154.758 86.2755 154.455 86.5806 154.285L92.2243 151.032C92.5293 150.862 93.025 150.862 93.3301 151.032L99.0119 154.285Z" fill="#4D4D4D"/>
<path d="M85.1315 156.025L79.8883 159.05C79.4688 159.296 78.7824 159.296 78.3629 159.05L67.2472 152.678C67.0375 152.564 66.9231 152.394 66.9231 152.243V152.905C66.9231 153.056 67.0184 153.226 67.2472 153.339L78.3629 159.712C78.7824 159.958 79.4688 159.958 79.8883 159.712L85.1315 156.686C85.3412 156.573 85.4366 156.403 85.4366 156.252V155.59C85.4366 155.741 85.3412 155.911 85.1315 156.025Z" fill="#1F2125"/>
<path d="M85.1317 155.155C85.5512 155.401 85.5512 155.779 85.1317 156.025L79.8885 159.05C79.469 159.296 78.7826 159.296 78.3632 159.05L67.2475 152.678C66.828 152.432 66.828 152.054 67.2475 151.808L72.4907 148.782C72.9102 148.536 73.5775 148.536 74.016 148.782L85.1317 155.155Z" fill="#4D4D4D"/>
<path d="M117.792 157.178L112.149 160.431C111.844 160.601 111.348 160.601 111.043 160.431L105.361 157.178C105.209 157.084 105.132 156.97 105.132 156.857V157.519C105.132 157.632 105.209 157.745 105.361 157.84L111.043 161.092C111.348 161.263 111.844 161.263 112.149 161.092L117.792 157.84C117.945 157.745 118.021 157.632 118.021 157.519V156.857C118.021 156.97 117.945 157.084 117.792 157.178Z" fill="#1F2125"/>
<path d="M117.773 156.554C118.078 156.724 118.078 157.008 117.773 157.197L112.13 160.45C111.825 160.62 111.329 160.62 111.024 160.45L105.342 157.197C105.037 157.027 105.037 156.743 105.342 156.554L110.986 153.302C111.291 153.132 111.787 153.132 112.092 153.302L117.773 156.554Z" fill="#4D4D4D"/>
<path d="M106.772 159.372L101.128 162.624C100.823 162.794 100.327 162.794 100.022 162.624L94.3406 159.372C94.1881 159.277 94.1118 159.164 94.1118 159.05V159.712C94.1118 159.826 94.1881 159.939 94.3406 160.034L100.022 163.286C100.327 163.456 100.842 163.456 101.128 163.286L106.772 160.034C106.924 159.939 107.001 159.826 107.001 159.712V159.05C107.001 159.164 106.924 159.277 106.772 159.372Z" fill="#1F2125"/>
<path d="M106.772 158.729C107.077 158.899 107.077 159.183 106.772 159.372L101.128 162.624C100.823 162.794 100.327 162.794 100.022 162.624L94.3406 159.372C94.0356 159.202 94.0356 158.899 94.3406 158.729L99.9843 155.476C100.289 155.306 100.785 155.306 101.09 155.476L106.772 158.729Z" fill="#4D4D4D"/>
<path d="M93.3112 160.355L87.6676 163.608C87.3625 163.778 86.8668 163.778 86.5617 163.608L80.8799 160.355C80.7274 160.261 80.6511 160.147 80.6511 160.034V160.696C80.6511 160.809 80.7274 160.922 80.8799 161.017L86.5617 164.27C86.8668 164.44 87.3625 164.44 87.6676 164.27L93.3112 161.017C93.4637 160.922 93.54 160.809 93.54 160.696V160.034C93.54 160.147 93.4637 160.261 93.3112 160.355Z" fill="#1F2125"/>
<path d="M93.3112 159.712C93.6163 159.882 93.6163 160.185 93.3112 160.355L87.6676 163.608C87.3625 163.778 86.8668 163.778 86.5617 163.608L80.8799 160.355C80.5749 160.185 80.5749 159.901 80.8799 159.712L86.5236 156.46C86.8286 156.289 87.3244 156.289 87.6294 156.46L93.3112 159.712Z" fill="#4D4D4D"/>
<path d="M74.1113 158.105L68.6392 161.263C68.296 161.471 67.724 161.471 67.3618 161.263L59.7161 156.894C59.5445 156.8 59.4492 156.668 59.4492 156.535V157.197C59.4492 157.329 59.5445 157.462 59.7161 157.556L67.3618 161.924C67.705 162.132 68.277 162.132 68.6392 161.924L74.1113 158.767C74.2829 158.672 74.3782 158.54 74.3782 158.407V157.745C74.3782 157.878 74.2829 158.01 74.1113 158.105Z" fill="#1F2125"/>
<path d="M74.1114 157.367C74.4546 157.575 74.4546 157.897 74.1114 158.105L68.6393 161.263C68.2961 161.471 67.7241 161.471 67.3619 161.263L59.7163 156.894C59.3731 156.686 59.354 156.365 59.7163 156.157L65.1883 152.999C65.5315 152.791 66.1035 152.791 66.4658 152.999L74.1114 157.367Z" fill="#4D4D4D"/>
<path d="M81.8903 162.549L76.2467 165.801C75.9416 165.971 75.4459 165.971 75.1408 165.801L69.459 162.549C69.3065 162.454 69.2302 162.341 69.2302 162.227V162.889C69.2302 163.002 69.3065 163.116 69.459 163.21L75.1408 166.463C75.4459 166.633 75.9416 166.633 76.2467 166.463L81.8903 163.21C82.0428 163.116 82.1191 163.002 82.1191 162.889V162.227C82.1191 162.341 82.0428 162.454 81.8903 162.549Z" fill="#1F2125"/>
<path d="M81.8903 161.906C82.1954 162.076 82.1954 162.359 81.8903 162.548L76.2467 165.801C75.9416 165.971 75.4459 165.971 75.1408 165.801L69.459 162.548C69.154 162.378 69.154 162.095 69.459 161.906L75.1027 158.653C75.4077 158.483 75.9035 158.483 76.2085 158.653L81.8903 161.906Z" fill="#4D4D4D"/>
<path d="M64.6161 161.13L58.9725 164.383C58.6674 164.553 58.1717 164.553 57.8666 164.383L52.1849 161.13C52.0323 161.036 51.9561 160.922 51.9561 160.809V161.471C51.9561 161.584 52.0323 161.698 52.1849 161.792L57.8666 165.045C58.1717 165.215 58.6674 165.215 58.9725 165.045L64.6161 161.792C64.7687 161.698 64.8449 161.584 64.8449 161.471V160.809C64.8449 160.922 64.7687 161.036 64.6161 161.13Z" fill="#1F2125"/>
<path d="M64.5971 160.506C64.9022 160.677 64.9022 160.96 64.5971 161.149L58.9534 164.402C58.6484 164.572 58.1527 164.572 57.8476 164.402L52.1658 161.149C51.8607 160.979 51.8607 160.695 52.1658 160.506L57.8095 157.254C58.1145 157.084 58.6103 157.084 58.9153 157.254L64.5971 160.506Z" fill="#4D4D4D"/>
<path d="M72.624 165.726L66.9803 168.978C66.6752 169.148 66.1795 169.148 65.8744 168.978L60.1927 165.726C60.0401 165.631 59.9639 165.518 59.9639 165.404V166.066C59.9639 166.179 60.0401 166.293 60.1927 166.387L65.8744 169.64C66.1795 169.81 66.6752 169.81 66.9803 169.64L72.624 166.387C72.7765 166.293 72.8528 166.179 72.8528 166.066V165.404C72.8528 165.518 72.7765 165.631 72.624 165.726Z" fill="#1F2125"/>
<path d="M72.6049 165.083C72.91 165.253 72.91 165.536 72.6049 165.725L66.9613 168.978C66.6562 169.148 66.1605 169.148 65.8554 168.978L60.1736 165.725C59.8686 165.555 59.8686 165.272 60.1736 165.083L65.8173 161.83C66.1223 161.66 66.6181 161.66 66.9231 161.83L72.6049 165.083Z" fill="#4D4D4D"/>
<path d="M125.476 161.584L119.832 164.837C119.527 165.007 119.032 165.007 118.727 164.837L113.045 161.584C112.892 161.49 112.816 161.376 112.816 161.263V161.925C112.816 162.038 112.892 162.151 113.045 162.246L118.727 165.498C119.032 165.669 119.527 165.669 119.832 165.498L125.476 162.246C125.629 162.151 125.705 162.038 125.705 161.925V161.263C125.705 161.376 125.629 161.49 125.476 161.584Z" fill="#1F2125"/>
<path d="M125.457 160.941C125.762 161.111 125.762 161.395 125.457 161.584L119.813 164.837C119.508 165.007 119.013 165.007 118.707 164.837L113.026 161.584C112.721 161.414 112.721 161.13 113.026 160.941L118.669 157.689C118.974 157.518 119.47 157.518 119.775 157.689L125.457 160.941Z" fill="#4D4D4D"/>
<path d="M114.532 163.816L108.888 167.068C108.583 167.238 108.087 167.238 107.782 167.068L102.101 163.816C101.948 163.721 101.872 163.608 101.872 163.494V164.156C101.872 164.269 101.948 164.383 102.101 164.477L107.782 167.73C108.087 167.9 108.602 167.9 108.888 167.73L114.532 164.477C114.684 164.383 114.761 164.269 114.761 164.156V163.494C114.761 163.608 114.684 163.721 114.532 163.816Z" fill="#1F2125"/>
<path d="M114.532 163.173C114.837 163.343 114.837 163.626 114.532 163.816L108.888 167.068C108.583 167.238 108.087 167.238 107.782 167.068L102.101 163.816C101.796 163.645 101.796 163.343 102.101 163.173L107.744 159.92C108.049 159.75 108.545 159.75 108.85 159.92L114.532 163.173Z" fill="#4D4D4D"/>
<path d="M101.033 164.78L95.3892 168.032C95.0842 168.203 94.5885 168.203 94.2834 168.032L88.6016 164.78C88.4491 164.685 88.3728 164.572 88.3728 164.458V165.12C88.3728 165.234 88.4491 165.347 88.6016 165.442L94.2834 168.694C94.5885 168.864 95.0842 168.864 95.3892 168.694L101.033 165.442C101.185 165.347 101.262 165.234 101.262 165.12V164.458C101.262 164.572 101.185 164.685 101.033 164.78Z" fill="#1F2125"/>
<path d="M101.033 164.137C101.338 164.307 101.338 164.61 101.033 164.78L95.3892 168.032C95.0842 168.203 94.5884 168.203 94.2834 168.032L88.6016 164.78C88.2965 164.61 88.2965 164.326 88.6016 164.137L94.2453 160.884C94.5503 160.714 95.046 160.714 95.3511 160.884L101.033 164.137Z" fill="#4D4D4D"/>
<path d="M89.5742 166.935L83.9305 170.188C83.6254 170.358 83.1297 170.358 82.8246 170.188L77.1429 166.935C76.9903 166.841 76.9141 166.727 76.9141 166.614V167.276C76.9141 167.389 76.9903 167.503 77.1429 167.597L82.8246 170.85C83.1297 171.02 83.6254 171.02 83.9305 170.85L89.5742 167.597C89.7267 167.503 89.8029 167.389 89.8029 167.276V166.614C89.8029 166.727 89.7267 166.841 89.5742 166.935Z" fill="#1F2125"/>
<path d="M89.5742 166.312C89.8792 166.482 89.8792 166.765 89.5742 166.954L83.9305 170.207C83.6254 170.377 83.1297 170.377 82.8246 170.207L77.1429 166.954C76.8378 166.784 76.8378 166.501 77.1429 166.312L82.7865 163.059C83.0916 162.889 83.5873 162.889 83.8924 163.059L89.5742 166.312Z" fill="#4D4D4D"/>
<path d="M80.384 170.169L74.7403 173.422C74.4353 173.592 73.9395 173.592 73.6345 173.422L67.9527 170.169C67.8001 170.075 67.7239 169.961 67.7239 169.848V170.51C67.7239 170.623 67.8001 170.737 67.9527 170.831L73.6345 174.084C73.9395 174.254 74.4353 174.254 74.7403 174.084L80.384 170.831C80.5365 170.737 80.6128 170.623 80.6128 170.51V169.848C80.6128 169.961 80.5365 170.075 80.384 170.169Z" fill="#1F2125"/>
<path d="M80.384 169.526C80.689 169.697 80.689 169.98 80.384 170.169L74.7403 173.422C74.4353 173.592 73.9395 173.592 73.6345 173.422L67.9527 170.169C67.6476 169.999 67.6476 169.715 67.9527 169.526L73.5963 166.274C73.9014 166.104 74.3971 166.104 74.7022 166.274L80.384 169.526Z" fill="#4D4D4D"/>
<path d="M133.16 165.99L127.516 169.243C127.211 169.413 126.715 169.413 126.41 169.243L120.729 165.99C120.576 165.896 120.5 165.782 120.5 165.669V166.331C120.5 166.444 120.576 166.557 120.729 166.652L126.41 169.904C126.715 170.075 127.211 170.075 127.516 169.904L133.16 166.652C133.312 166.557 133.389 166.444 133.389 166.331V165.669C133.389 165.782 133.312 165.896 133.16 165.99Z" fill="#1F2125"/>
<path d="M133.16 165.347C133.465 165.517 133.465 165.801 133.16 165.99L127.516 169.243C127.211 169.413 126.715 169.413 126.41 169.243L120.729 165.99C120.423 165.82 120.423 165.536 120.729 165.347L126.372 162.095C126.677 161.924 127.173 161.924 127.478 162.095L133.16 165.347Z" fill="#4D4D4D"/>
<path d="M122.292 168.259L116.648 171.512C116.343 171.682 115.847 171.682 115.542 171.512L109.861 168.259C109.708 168.165 109.632 168.051 109.632 167.938V168.6C109.632 168.713 109.708 168.827 109.861 168.921L115.542 172.174C115.847 172.344 116.362 172.344 116.648 172.174L122.292 168.921C122.444 168.827 122.521 168.713 122.521 168.6V167.938C122.521 168.051 122.444 168.165 122.292 168.259Z" fill="#1F2125"/>
<path d="M122.292 167.616C122.597 167.787 122.597 168.07 122.292 168.259L116.648 171.512C116.343 171.682 115.847 171.682 115.542 171.512L109.861 168.259C109.556 168.089 109.556 167.787 109.861 167.616L115.504 164.364C115.809 164.194 116.305 164.194 116.61 164.364L122.292 167.616Z" fill="#4D4D4D"/>
<path d="M108.774 169.205L103.13 172.457C102.825 172.627 102.329 172.627 102.024 172.457L96.3426 169.205C96.19 169.11 96.1138 168.997 96.1138 168.883V169.545C96.1138 169.659 96.19 169.772 96.3426 169.867L102.024 173.119C102.329 173.289 102.825 173.289 103.13 173.119L108.774 169.867C108.926 169.772 109.003 169.659 109.003 169.545V168.883C109.003 168.997 108.926 169.11 108.774 169.205Z" fill="#1F2125"/>
<path d="M108.755 168.562C109.06 168.732 109.06 169.035 108.755 169.205L103.111 172.457C102.806 172.627 102.31 172.627 102.005 172.457L96.3235 169.205C96.0185 169.035 96.0185 168.751 96.3235 168.562L101.967 165.309C102.272 165.139 102.768 165.139 103.073 165.309L108.755 168.562Z" fill="#4D4D4D"/>
<path d="M97.2577 171.341L91.6141 174.594C91.309 174.764 90.8133 174.764 90.5082 174.594L84.8265 171.341C84.6739 171.247 84.5977 171.133 84.5977 171.02V171.682C84.5977 171.795 84.6739 171.909 84.8265 172.003L90.5082 175.256C90.8133 175.426 91.309 175.426 91.6141 175.256L97.2577 172.003C97.4103 171.909 97.4865 171.795 97.4865 171.682V171.02C97.4865 171.133 97.4103 171.247 97.2577 171.341Z" fill="#1F2125"/>
<path d="M97.2577 170.718C97.5628 170.888 97.5628 171.171 97.2577 171.36L91.6141 174.613C91.309 174.783 90.8133 174.783 90.5082 174.613L84.8265 171.36C84.5214 171.19 84.5214 170.907 84.8265 170.718L90.4701 167.465C90.7752 167.295 91.2709 167.295 91.576 167.465L97.2577 170.718Z" fill="#4D4D4D"/>
<path d="M89.8602 175.691L84.369 178.868C84.0258 179.057 83.4729 179.057 83.1297 178.868L75.7891 174.67C75.6175 174.575 75.5222 174.443 75.5222 174.311V174.972C75.5222 175.105 75.5985 175.237 75.7891 175.332L83.1297 179.53C83.4729 179.719 84.0258 179.719 84.369 179.53L89.8602 176.353C90.0318 176.258 90.108 176.126 90.108 175.994V175.332C90.108 175.464 90.0318 175.596 89.8602 175.691Z" fill="#1F2125"/>
<path d="M89.8604 174.972C90.2036 175.18 90.2036 175.483 89.8604 175.691L84.3693 178.868C84.0261 179.057 83.4731 179.057 83.1299 178.868L75.7894 174.67C75.4462 174.481 75.4462 174.159 75.7894 173.951L81.2805 170.774C81.6237 170.585 82.1957 170.585 82.5198 170.774L89.8604 174.972Z" fill="#4D4D4D"/>
<path d="M116.496 173.63L110.852 176.882C110.547 177.052 110.051 177.052 109.746 176.882L104.064 173.63C103.912 173.535 103.836 173.422 103.836 173.308V173.97C103.836 174.084 103.912 174.197 104.064 174.292L109.746 177.544C110.051 177.714 110.547 177.714 110.852 177.544L116.496 174.292C116.648 174.197 116.725 174.084 116.725 173.97V173.308C116.725 173.422 116.648 173.535 116.496 173.63Z" fill="#1F2125"/>
<path d="M116.496 172.987C116.801 173.157 116.801 173.441 116.496 173.63L110.852 176.882C110.547 177.052 110.051 177.052 109.746 176.882L104.064 173.63C103.759 173.46 103.759 173.176 104.064 172.987L109.708 169.734C110.013 169.564 110.509 169.564 110.814 169.734L116.496 172.987Z" fill="#4D4D4D"/>
<path d="M104.961 175.748L99.317 179C99.0119 179.17 98.5162 179.17 98.2111 179L92.5293 175.748C92.3768 175.653 92.3005 175.54 92.3005 175.426V176.088C92.3005 176.202 92.3768 176.315 92.5293 176.41L98.2111 179.662C98.5162 179.832 99.0119 179.832 99.317 179.662L104.961 176.41C105.113 176.315 105.189 176.202 105.189 176.088V175.426C105.189 175.54 105.113 175.653 104.961 175.748Z" fill="#1F2125"/>
<path d="M104.961 175.105C105.266 175.275 105.266 175.559 104.961 175.748L99.317 179C99.0119 179.17 98.5162 179.17 98.2111 179L92.5293 175.748C92.2243 175.577 92.2243 175.294 92.5293 175.105L98.173 171.852C98.4781 171.682 98.9738 171.682 99.2788 171.852L104.961 175.105Z" fill="#4D4D4D"/>
<path d="M140.844 170.396L135.2 173.649C134.895 173.819 134.399 173.819 134.094 173.649L128.412 170.396C128.26 170.302 128.184 170.188 128.184 170.075V170.737C128.184 170.85 128.26 170.963 128.412 171.058L134.094 174.311C134.399 174.481 134.895 174.481 135.2 174.311L140.844 171.058C140.996 170.963 141.072 170.85 141.072 170.737V170.075C141.072 170.188 140.996 170.302 140.844 170.396Z" fill="#1F2125"/>
<path d="M140.844 169.753C141.149 169.923 141.149 170.207 140.844 170.396L135.2 173.649C134.895 173.819 134.399 173.819 134.094 173.649L128.412 170.396C128.107 170.226 128.107 169.942 128.412 169.753L134.056 166.501C134.361 166.33 134.857 166.33 135.162 166.501L140.844 169.753Z" fill="#4D4D4D"/>
<path d="M130.052 172.703L124.409 175.956C124.103 176.126 123.608 176.126 123.303 175.956L117.621 172.703C117.468 172.609 117.392 172.495 117.392 172.382V173.044C117.392 173.157 117.468 173.271 117.621 173.365L123.303 176.618C123.608 176.788 124.123 176.788 124.409 176.618L130.052 173.365C130.205 173.271 130.281 173.157 130.281 173.044V172.382C130.281 172.495 130.205 172.609 130.052 172.703Z" fill="#1F2125"/>
<path d="M130.052 172.06C130.357 172.23 130.357 172.514 130.052 172.703L124.409 175.956C124.103 176.126 123.608 176.126 123.303 175.956L117.621 172.703C117.316 172.533 117.316 172.23 117.621 172.06L123.265 168.808C123.57 168.638 124.065 168.638 124.37 168.808L130.052 172.06Z" fill="#4D4D4D"/>
<path d="M124.218 178.055L118.574 181.307C118.269 181.477 117.773 181.477 117.468 181.307L111.786 178.055C111.634 177.96 111.558 177.847 111.558 177.733V178.395C111.558 178.508 111.634 178.622 111.786 178.716L117.468 181.969C117.773 182.139 118.269 182.139 118.574 181.969L124.218 178.716C124.37 178.622 124.447 178.508 124.447 178.395V177.733C124.447 177.847 124.37 177.96 124.218 178.055Z" fill="#1F2125"/>
<path d="M124.218 177.412C124.523 177.582 124.523 177.865 124.218 178.055L118.574 181.307C118.269 181.477 117.773 181.477 117.468 181.307L111.786 178.055C111.481 177.884 111.481 177.601 111.786 177.412L117.43 174.159C117.735 173.989 118.231 173.989 118.536 174.159L124.218 177.412Z" fill="#4D4D4D"/>
<path d="M112.644 180.154L107.001 183.406C106.696 183.576 106.2 183.576 105.895 183.406L100.213 180.154C100.061 180.059 99.9844 179.946 99.9844 179.832V180.494C99.9844 180.608 100.061 180.721 100.213 180.816L105.895 184.068C106.2 184.238 106.696 184.238 107.001 184.068L112.644 180.816C112.797 180.721 112.873 180.608 112.873 180.494V179.832C112.873 179.946 112.797 180.059 112.644 180.154Z" fill="#1F2125"/>
<path d="M112.644 179.511C112.95 179.681 112.95 179.965 112.644 180.154L107.001 183.406C106.696 183.576 106.2 183.576 105.895 183.406L100.213 180.154C99.9081 179.983 99.9081 179.7 100.213 179.511L105.857 176.258C106.162 176.088 106.658 176.088 106.963 176.258L112.644 179.511Z" fill="#4D4D4D"/>
<path d="M148.547 174.802L142.903 178.055C142.598 178.225 142.102 178.225 141.797 178.055L136.115 174.802C135.963 174.708 135.886 174.594 135.886 174.481V175.143C135.886 175.256 135.963 175.369 136.115 175.464L141.797 178.717C142.102 178.887 142.598 178.887 142.903 178.717L148.547 175.464C148.699 175.369 148.775 175.256 148.775 175.143V174.481C148.775 174.594 148.699 174.708 148.547 174.802Z" fill="#1F2125"/>
<path d="M148.547 174.159C148.852 174.329 148.852 174.613 148.547 174.802L142.903 178.055C142.598 178.225 142.102 178.225 141.797 178.055L136.115 174.802C135.81 174.632 135.81 174.348 136.115 174.159L141.759 170.907C142.064 170.737 142.56 170.737 142.865 170.907L148.547 174.159Z" fill="#4D4D4D"/>
<path d="M137.812 177.147L132.169 180.399C131.863 180.57 131.368 180.57 131.063 180.399L125.381 177.147C125.228 177.052 125.152 176.939 125.152 176.825V177.487C125.152 177.601 125.228 177.714 125.381 177.809L131.063 181.061C131.368 181.231 131.883 181.231 132.169 181.061L137.812 177.809C137.965 177.714 138.041 177.601 138.041 177.487V176.825C138.041 176.939 137.965 177.052 137.812 177.147Z" fill="#1F2125"/>
<path d="M137.812 176.504C138.117 176.674 138.117 176.958 137.812 177.147L132.169 180.399C131.863 180.57 131.368 180.57 131.063 180.399L125.381 177.147C125.076 176.977 125.076 176.674 125.381 176.504L131.025 173.251C131.33 173.081 131.825 173.081 132.13 173.251L137.812 176.504Z" fill="#4D4D4D"/>
<path d="M131.94 182.48L126.296 185.732C125.991 185.902 125.495 185.902 125.19 185.732L119.508 182.48C119.356 182.385 119.28 182.272 119.28 182.158V182.82C119.28 182.934 119.356 183.047 119.508 183.142L125.19 186.394C125.495 186.564 125.991 186.564 126.296 186.394L131.94 183.142C132.092 183.047 132.168 182.934 132.168 182.82V182.158C132.168 182.272 132.092 182.385 131.94 182.48Z" fill="#1F2125"/>
<path d="M131.94 181.837C132.245 182.007 132.245 182.291 131.94 182.48L126.296 185.732C125.991 185.902 125.495 185.902 125.19 185.732L119.508 182.48C119.203 182.309 119.203 182.026 119.508 181.837L125.152 178.584C125.457 178.414 125.953 178.414 126.258 178.584L131.94 181.837Z" fill="#4D4D4D"/>
<path d="M120.347 184.56L114.704 187.812C114.399 187.982 113.903 187.982 113.598 187.812L107.916 184.56C107.764 184.465 107.687 184.352 107.687 184.238V184.9C107.687 185.014 107.764 185.127 107.916 185.222L113.598 188.474C113.903 188.644 114.399 188.644 114.704 188.474L120.347 185.222C120.5 185.127 120.576 185.014 120.576 184.9V184.238C120.576 184.352 120.5 184.465 120.347 184.56Z" fill="#1F2125"/>
<path d="M120.328 183.917C120.633 184.087 120.633 184.371 120.328 184.56L114.685 187.812C114.38 187.982 113.884 187.982 113.579 187.812L107.897 184.56C107.592 184.389 107.592 184.106 107.897 183.917L113.541 180.664C113.846 180.494 114.341 180.494 114.647 180.664L120.328 183.917Z" fill="#4D4D4D"/>
<path d="M156.23 179.208L150.587 182.461C150.281 182.631 149.786 182.631 149.481 182.461L143.799 179.208C143.646 179.114 143.57 179 143.57 178.887V179.549C143.57 179.662 143.646 179.775 143.799 179.87L149.481 183.123C149.786 183.293 150.281 183.293 150.587 183.123L156.23 179.87C156.383 179.775 156.459 179.662 156.459 179.549V178.887C156.459 179 156.383 179.114 156.23 179.208Z" fill="#1F2125"/>
<path d="M156.23 178.565C156.535 178.735 156.535 179.019 156.23 179.208L150.587 182.461C150.281 182.631 149.786 182.631 149.481 182.461L143.799 179.208C143.494 179.038 143.494 178.754 143.799 178.565L149.443 175.313C149.748 175.143 150.243 175.143 150.548 175.313L156.23 178.565Z" fill="#4D4D4D"/>
<path d="M145.591 181.591L139.948 184.843C139.643 185.013 139.147 185.013 138.842 184.843L133.16 181.591C133.007 181.496 132.931 181.383 132.931 181.269V181.931C132.931 182.045 133.007 182.158 133.16 182.253L138.842 185.505C139.147 185.675 139.662 185.675 139.948 185.505L145.591 182.253C145.744 182.158 145.82 182.045 145.82 181.931V181.269C145.82 181.383 145.744 181.496 145.591 181.591Z" fill="#1F2125"/>
<path d="M145.572 180.948C145.877 181.118 145.877 181.402 145.572 181.591L139.929 184.843C139.623 185.013 139.128 185.013 138.823 184.843L133.141 181.591C132.836 181.42 132.836 181.118 133.141 180.948L138.785 177.695C139.09 177.525 139.585 177.525 139.89 177.695L145.572 180.948Z" fill="#4D4D4D"/>
<path d="M139.662 186.904L134.018 190.157C133.713 190.327 133.217 190.327 132.912 190.157L127.23 186.904C127.078 186.81 127.001 186.696 127.001 186.583V187.245C127.001 187.358 127.078 187.472 127.23 187.566L132.912 190.819C133.217 190.989 133.713 190.989 134.018 190.819L139.662 187.566C139.814 187.472 139.89 187.358 139.89 187.245V186.583C139.89 186.696 139.814 186.81 139.662 186.904Z" fill="#1F2125"/>
<path d="M139.662 186.261C139.967 186.432 139.967 186.715 139.662 186.904L134.018 190.157C133.713 190.327 133.217 190.327 132.912 190.157L127.23 186.904C126.925 186.734 126.925 186.451 127.23 186.261L132.874 183.009C133.179 182.839 133.675 182.839 133.98 183.009L139.662 186.261Z" fill="#4D4D4D"/>
<path d="M128.031 188.966L122.387 192.218C122.082 192.388 121.587 192.388 121.281 192.218L115.6 188.966C115.447 188.871 115.371 188.758 115.371 188.644V189.306C115.371 189.42 115.447 189.533 115.6 189.628L121.281 192.88C121.587 193.05 122.082 193.05 122.387 192.88L128.031 189.628C128.183 189.533 128.26 189.42 128.26 189.306V188.644C128.26 188.758 128.183 188.871 128.031 188.966Z" fill="#1F2125"/>
<path d="M128.031 188.323C128.336 188.493 128.336 188.777 128.031 188.966L122.387 192.218C122.082 192.388 121.586 192.388 121.281 192.218L115.6 188.966C115.295 188.795 115.295 188.512 115.6 188.323L121.243 185.07C121.548 184.9 122.044 184.9 122.349 185.07L128.031 188.323Z" fill="#4D4D4D"/>
<path d="M163.933 183.595L158.289 186.848C157.984 187.018 157.489 187.018 157.184 186.848L151.502 183.595C151.349 183.501 151.273 183.387 151.273 183.274V183.936C151.273 184.049 151.349 184.162 151.502 184.257L157.184 187.509C157.489 187.68 157.984 187.68 158.289 187.509L163.933 184.257C164.086 184.162 164.162 184.049 164.162 183.936V183.274C164.162 183.387 164.086 183.501 163.933 183.595Z" fill="#1F2125"/>
<path d="M163.914 182.971C164.219 183.141 164.219 183.425 163.914 183.614L158.27 186.867C157.965 187.037 157.47 187.037 157.164 186.867L151.483 183.614C151.178 183.444 151.178 183.16 151.483 182.971L157.126 179.719C157.431 179.549 157.927 179.549 158.232 179.719L163.914 182.971Z" fill="#4D4D4D"/>
<path d="M153.351 186.035L147.708 189.287C147.403 189.457 146.907 189.457 146.602 189.287L140.92 186.035C140.767 185.94 140.691 185.827 140.691 185.713V186.375C140.691 186.488 140.767 186.602 140.92 186.696L146.602 189.949C146.907 190.119 147.422 190.119 147.708 189.949L153.351 186.696C153.504 186.602 153.58 186.488 153.58 186.375V185.713C153.58 185.827 153.504 185.94 153.351 186.035Z" fill="#1F2125"/>
<path d="M153.332 185.392C153.637 185.562 153.637 185.845 153.332 186.035L147.689 189.287C147.383 189.457 146.888 189.457 146.583 189.287L140.901 186.035C140.596 185.864 140.596 185.562 140.901 185.392L146.545 182.139C146.85 181.969 147.345 181.969 147.65 182.139L153.332 185.392Z" fill="#4D4D4D"/>
<path d="M147.383 191.329L141.74 194.582C141.435 194.752 140.939 194.752 140.634 194.582L134.952 191.329C134.8 191.235 134.723 191.121 134.723 191.008V191.67C134.723 191.783 134.8 191.897 134.952 191.991L140.634 195.244C140.939 195.414 141.435 195.414 141.74 195.244L147.383 191.991C147.536 191.897 147.612 191.783 147.612 191.67V191.008C147.612 191.121 147.536 191.235 147.383 191.329Z" fill="#1F2125"/>
<path d="M147.403 190.686C147.708 190.856 147.708 191.14 147.403 191.329L141.759 194.582C141.454 194.752 140.958 194.752 140.653 194.582L134.971 191.329C134.666 191.159 134.666 190.875 134.971 190.686L140.615 187.434C140.92 187.264 141.416 187.264 141.721 187.434L147.403 190.686Z" fill="#4D4D4D"/>
<path d="M135.715 193.372L130.071 196.624C129.766 196.794 129.27 196.794 128.965 196.624L123.283 193.372C123.131 193.277 123.055 193.164 123.055 193.05V193.712C123.055 193.825 123.131 193.939 123.283 194.033L128.965 197.286C129.27 197.456 129.766 197.456 130.071 197.286L135.715 194.033C135.867 193.939 135.944 193.825 135.944 193.712V193.05C135.944 193.164 135.867 193.277 135.715 193.372Z" fill="#1F2125"/>
<path d="M135.715 192.729C136.02 192.899 136.02 193.182 135.715 193.371L130.071 196.624C129.766 196.794 129.27 196.794 128.965 196.624L123.283 193.371C122.978 193.201 122.978 192.918 123.283 192.729L128.927 189.476C129.232 189.306 129.728 189.306 130.033 189.476L135.715 192.729Z" fill="#4D4D4D"/>
<path d="M127.879 198.231L123.741 200.614C123.017 201.03 121.854 201.03 121.129 200.614L85.9707 180.475C85.6084 180.267 85.4177 179.983 85.4177 179.719V180.381C85.4177 180.645 85.5893 180.929 85.9707 181.137L121.129 201.276C121.854 201.692 123.017 201.692 123.741 201.276L127.879 198.893C128.241 198.685 128.412 198.421 128.412 198.137V197.475C128.412 197.74 128.241 198.023 127.879 198.231Z" fill="#1F2125"/>
<path d="M127.86 196.719C128.584 197.135 128.584 197.815 127.86 198.231L123.722 200.614C122.998 201.03 121.835 201.03 121.11 200.614L85.9516 180.475C85.2271 180.059 85.2271 179.378 85.9516 178.962L90.089 176.58C90.8135 176.164 91.9766 176.164 92.7011 176.58L127.86 196.719Z" fill="#4D4D4D"/>
<path d="M171.617 188.001L165.973 191.254C165.668 191.424 165.172 191.424 164.867 191.254L159.186 188.001C159.033 187.907 158.957 187.793 158.957 187.68V188.342C158.957 188.455 159.033 188.568 159.186 188.663L164.867 191.915C165.172 192.086 165.668 192.086 165.973 191.915L171.617 188.663C171.769 188.568 171.846 188.455 171.846 188.342V187.68C171.846 187.793 171.769 187.907 171.617 188.001Z" fill="#1F2125"/>
<path d="M171.598 187.377C171.903 187.547 171.903 187.831 171.598 188.02L165.954 191.273C165.649 191.443 165.153 191.443 164.848 191.273L159.167 188.02C158.861 187.85 158.861 187.566 159.167 187.377L164.81 184.125C165.115 183.955 165.611 183.955 165.916 184.125L171.598 187.377Z" fill="#4D4D4D"/>
<path d="M161.111 190.478L155.468 193.731C155.163 193.901 154.667 193.901 154.362 193.731L148.68 190.478C148.527 190.384 148.451 190.27 148.451 190.157V190.819C148.451 190.932 148.527 191.046 148.68 191.14L154.362 194.393C154.667 194.563 155.182 194.563 155.468 194.393L161.111 191.14C161.264 191.046 161.34 190.932 161.34 190.819V190.157C161.34 190.27 161.264 190.384 161.111 190.478Z" fill="#1F2125"/>
<path d="M161.111 189.835C161.416 190.006 161.416 190.289 161.111 190.478L155.468 193.731C155.163 193.901 154.667 193.901 154.362 193.731L148.68 190.478C148.375 190.308 148.375 190.006 148.68 189.835L154.324 186.583C154.629 186.413 155.124 186.413 155.429 186.583L161.111 189.835Z" fill="#4D4D4D"/>
<path d="M155.124 195.754L149.481 199.007C149.176 199.177 148.68 199.177 148.375 199.007L142.693 195.754C142.541 195.66 142.464 195.546 142.464 195.433V196.095C142.464 196.208 142.541 196.322 142.693 196.416L148.375 199.669C148.68 199.839 149.176 199.839 149.481 199.669L155.124 196.416C155.277 196.322 155.353 196.208 155.353 196.095V195.433C155.353 195.546 155.277 195.66 155.124 195.754Z" fill="#1F2125"/>
<path d="M155.124 195.111C155.43 195.282 155.43 195.565 155.124 195.754L149.481 199.007C149.176 199.177 148.68 199.177 148.375 199.007L142.693 195.754C142.388 195.584 142.388 195.3 142.693 195.111L148.337 191.859C148.642 191.689 149.138 191.689 149.443 191.859L155.124 195.111Z" fill="#4D4D4D"/>
<path d="M143.399 197.758L137.755 201.011C137.45 201.181 136.954 201.181 136.649 201.011L130.967 197.758C130.815 197.664 130.739 197.55 130.739 197.437V198.099C130.739 198.212 130.815 198.326 130.967 198.42L136.649 201.673C136.954 201.843 137.45 201.843 137.755 201.673L143.399 198.42C143.551 198.326 143.627 198.212 143.627 198.099V197.437C143.627 197.55 143.551 197.664 143.399 197.758Z" fill="#1F2125"/>
<path d="M143.399 197.135C143.704 197.305 143.704 197.588 143.399 197.777L137.755 201.03C137.45 201.2 136.954 201.2 136.649 201.03L130.967 197.777C130.662 197.607 130.662 197.324 130.967 197.135L136.611 193.882C136.916 193.712 137.412 193.712 137.717 193.882L143.399 197.135Z" fill="#4D4D4D"/>
<path d="M179.606 192.577L173.962 195.83C173.657 196 173.161 196 172.856 195.83L167.174 192.577C167.022 192.483 166.946 192.369 166.946 192.256V192.918C166.946 193.031 167.022 193.145 167.174 193.239L172.856 196.492C173.161 196.662 173.657 196.662 173.962 196.492L179.606 193.239C179.758 193.145 179.834 193.031 179.834 192.918V192.256C179.834 192.369 179.758 192.483 179.606 192.577Z" fill="#1F2125"/>
<path d="M179.606 191.953C179.911 192.124 179.911 192.407 179.606 192.596L173.962 195.849C173.657 196.019 173.161 196.019 172.856 195.849L167.174 192.596C166.869 192.426 166.869 192.142 167.174 191.953L172.818 188.701C173.123 188.531 173.619 188.531 173.924 188.701L179.606 191.953Z" fill="#4D4D4D"/>
<path d="M168.871 194.922L163.228 198.175C162.923 198.345 162.427 198.345 162.122 198.175L156.44 194.922C156.287 194.828 156.211 194.714 156.211 194.601V195.263C156.211 195.376 156.287 195.49 156.44 195.584L162.122 198.837C162.427 199.007 162.942 199.007 163.228 198.837L168.871 195.584C169.024 195.49 169.1 195.376 169.1 195.263V194.601C169.1 194.714 169.024 194.828 168.871 194.922Z" fill="#1F2125"/>
<path d="M168.871 194.279C169.176 194.449 169.176 194.733 168.871 194.922L163.228 198.175C162.923 198.345 162.427 198.345 162.122 198.175L156.44 194.922C156.135 194.752 156.135 194.449 156.44 194.279L162.084 191.027C162.389 190.857 162.884 190.857 163.189 191.027L168.871 194.279Z" fill="#4D4D4D"/>
<path d="M162.846 200.179L157.203 203.432C156.898 203.602 156.402 203.602 156.097 203.432L150.415 200.179C150.263 200.085 150.186 199.971 150.186 199.858V200.52C150.186 200.633 150.263 200.746 150.415 200.841L156.097 204.093C156.402 204.264 156.898 204.264 157.203 204.093L162.846 200.841C162.999 200.746 163.075 200.633 163.075 200.52V199.858C163.075 199.971 162.999 200.085 162.846 200.179Z" fill="#1F2125"/>
<path d="M162.846 199.536C163.151 199.706 163.151 199.99 162.846 200.179L157.203 203.432C156.898 203.602 156.402 203.602 156.097 203.432L150.415 200.179C150.11 200.009 150.11 199.725 150.415 199.536L156.059 196.284C156.364 196.113 156.86 196.113 157.165 196.284L162.846 199.536Z" fill="#4D4D4D"/>
<path d="M151.349 202.316L145.706 205.568C145.401 205.739 144.905 205.739 144.6 205.568L138.918 202.316C138.765 202.221 138.689 202.108 138.689 201.994V202.656C138.689 202.77 138.765 202.883 138.918 202.978L144.6 206.23C144.905 206.4 145.401 206.4 145.706 206.23L151.349 202.978C151.502 202.883 151.578 202.77 151.578 202.656V201.994C151.578 202.108 151.502 202.221 151.349 202.316Z" fill="#1F2125"/>
<path d="M151.368 201.692C151.673 201.862 151.673 202.146 151.368 202.335L145.725 205.587C145.42 205.758 144.924 205.758 144.619 205.587L138.937 202.335C138.632 202.165 138.632 201.881 138.937 201.692L144.581 198.439C144.886 198.269 145.381 198.269 145.687 198.439L151.368 201.692Z" fill="#4D4D4D"/>
<path d="M138.022 203.262L132.531 206.438C132.187 206.627 131.615 206.627 131.291 206.438L123.951 202.24C123.779 202.146 123.684 202.013 123.684 201.881V202.543C123.684 202.675 123.76 202.808 123.951 202.902L131.291 207.1C131.635 207.289 132.187 207.308 132.531 207.1L138.022 203.923C138.193 203.829 138.27 203.696 138.27 203.564V202.902C138.27 203.035 138.193 203.167 138.022 203.262Z" fill="#1F2125"/>
<path d="M138.022 202.543C138.365 202.732 138.365 203.053 138.022 203.261L132.531 206.438C132.188 206.627 131.616 206.627 131.292 206.438L123.951 202.24C123.608 202.051 123.608 201.73 123.951 201.522L129.442 198.345C129.785 198.156 130.338 198.156 130.681 198.345L138.022 202.543Z" fill="#4D4D4D"/>
<path d="M187.404 197.059L181.76 200.312C181.455 200.482 180.959 200.482 180.654 200.312L174.972 197.059C174.82 196.964 174.744 196.851 174.744 196.738V197.399C174.744 197.513 174.82 197.626 174.972 197.721L180.654 200.973C180.959 201.144 181.455 201.144 181.76 200.973L187.404 197.721C187.556 197.626 187.633 197.513 187.633 197.399V196.738C187.633 196.851 187.556 196.964 187.404 197.059Z" fill="#1F2125"/>
<path d="M187.404 196.416C187.709 196.586 187.709 196.87 187.404 197.059L181.76 200.311C181.455 200.482 180.959 200.482 180.654 200.311L174.972 197.059C174.667 196.889 174.667 196.605 174.972 196.416L180.616 193.164C180.921 192.993 181.417 192.993 181.722 193.164L187.404 196.416Z" fill="#4D4D4D"/>
<path d="M176.631 199.366L170.988 202.618C170.683 202.789 170.187 202.789 169.882 202.618L164.2 199.366C164.047 199.271 163.971 199.158 163.971 199.044V199.706C163.971 199.82 164.047 199.933 164.2 200.028L169.882 203.28C170.187 203.45 170.702 203.45 170.988 203.28L176.631 200.028C176.784 199.933 176.86 199.82 176.86 199.706V199.044C176.86 199.158 176.784 199.271 176.631 199.366Z" fill="#1F2125"/>
<path d="M176.631 198.742C176.936 198.912 176.936 199.196 176.631 199.385L170.988 202.637C170.683 202.808 170.187 202.808 169.882 202.637L164.2 199.385C163.895 199.215 163.895 198.912 164.2 198.742L169.844 195.489C170.149 195.319 170.644 195.319 170.949 195.489L176.631 198.742Z" fill="#4D4D4D"/>
<path d="M170.568 204.604L164.925 207.857C164.62 208.027 164.124 208.027 163.819 207.857L158.137 204.604C157.984 204.51 157.908 204.396 157.908 204.283V204.945C157.908 205.058 157.984 205.171 158.137 205.266L163.819 208.519C164.124 208.689 164.62 208.689 164.925 208.519L170.568 205.266C170.721 205.171 170.797 205.058 170.797 204.945V204.283C170.797 204.396 170.721 204.51 170.568 204.604Z" fill="#1F2125"/>
<path d="M170.568 203.961C170.873 204.131 170.873 204.434 170.568 204.604L164.925 207.857C164.62 208.027 164.124 208.027 163.819 207.857L158.137 204.604C157.832 204.434 157.832 204.15 158.137 203.961L163.781 200.709C164.086 200.539 164.581 200.539 164.887 200.709L170.568 203.961Z" fill="#4D4D4D"/>
<path d="M159.033 206.703L153.389 209.955C153.084 210.125 152.588 210.125 152.283 209.955L146.602 206.703C146.449 206.608 146.373 206.495 146.373 206.381V207.043C146.373 207.157 146.449 207.27 146.602 207.365L152.283 210.617C152.588 210.787 153.084 210.787 153.389 210.617L159.033 207.365C159.185 207.27 159.262 207.157 159.262 207.043V206.381C159.262 206.495 159.185 206.608 159.033 206.703Z" fill="#1F2125"/>
<path d="M159.014 206.079C159.319 206.249 159.319 206.533 159.014 206.722L153.37 209.974C153.065 210.144 152.569 210.144 152.264 209.974L146.583 206.722C146.277 206.552 146.277 206.268 146.583 206.079L152.226 202.826C152.531 202.656 153.027 202.656 153.332 202.826L159.014 206.079Z" fill="#4D4D4D"/>
<path d="M145.954 207.743L140.348 210.977C140.043 211.166 139.528 211.147 139.204 210.977L133.236 207.554C133.084 207.459 133.008 207.346 133.008 207.232V207.894C133.008 208.008 133.084 208.14 133.236 208.216L139.204 211.638C139.509 211.809 140.024 211.828 140.348 211.638L145.954 208.405C146.106 208.31 146.182 208.197 146.182 208.083V207.422C146.182 207.535 146.106 207.648 145.954 207.743Z" fill="#1F2125"/>
<path d="M145.954 207.081C146.259 207.251 146.278 207.554 145.954 207.724L140.348 210.958C140.043 211.147 139.528 211.128 139.204 210.958L133.236 207.535C132.912 207.346 132.912 207.062 133.236 206.892L138.842 203.658C139.147 203.469 139.662 203.469 139.986 203.658L145.954 207.081Z" fill="#4D4D4D"/>
<path d="M150.72 214.021L148.051 215.553C147.822 215.685 147.46 215.685 147.231 215.553L140.958 211.96C140.844 211.903 140.786 211.809 140.786 211.733V212.395C140.786 212.395 140.844 212.565 140.958 212.622L147.231 216.215C147.46 216.347 147.822 216.347 148.051 216.215L150.72 214.683C150.834 214.626 150.892 214.532 150.892 214.456V213.794C150.892 213.794 150.834 213.964 150.72 214.021Z" fill="#1F2125"/>
<path d="M150.72 213.548C150.949 213.681 150.949 213.889 150.72 214.021L148.051 215.553C147.822 215.685 147.46 215.685 147.231 215.553L140.958 211.96C140.729 211.828 140.729 211.62 140.958 211.487L143.627 209.955C143.856 209.823 144.218 209.823 144.447 209.955L150.72 213.548Z" fill="#4D4D4D"/>
<path d="M205.155 200.765L201.322 202.978C201.093 203.11 200.731 203.11 200.502 202.978L196.003 200.406C195.888 200.349 195.831 200.255 195.831 200.179V200.841C195.831 200.841 195.888 201.011 196.003 201.068L200.502 203.64C200.731 203.772 201.093 203.772 201.322 203.64L205.155 201.427C205.269 201.371 205.326 201.276 205.326 201.2V200.538C205.326 200.538 205.269 200.709 205.155 200.765Z" fill="#1F2125"/>
<path d="M205.155 200.293C205.383 200.425 205.383 200.633 205.155 200.765L201.322 202.978C201.093 203.11 200.731 203.11 200.502 202.978L196.003 200.406C195.774 200.274 195.774 200.066 196.003 199.933L199.835 197.721C200.064 197.588 200.426 197.588 200.655 197.721L205.155 200.293Z" fill="#4D4D4D"/>
<path d="M199.378 204.093L194.058 207.157C193.658 207.384 193.028 207.384 192.628 207.157L182.714 201.484C182.504 201.37 182.408 201.219 182.408 201.068V201.73C182.408 201.881 182.504 202.032 182.714 202.146L192.628 207.819C193.028 208.046 193.658 208.046 194.058 207.819L199.378 204.755C199.568 204.642 199.664 204.491 199.683 204.339V203.677C199.683 203.829 199.587 203.98 199.397 204.093H199.378Z" fill="#1F2125"/>
<path d="M199.378 203.28C199.778 203.507 199.778 203.867 199.378 204.112L194.058 207.176C193.658 207.403 193.029 207.403 192.628 207.176L182.714 201.503C182.313 201.276 182.313 200.898 182.714 200.671L188.033 197.607C188.434 197.381 189.082 197.381 189.463 197.607L199.378 203.28Z" fill="#4D4D4D"/>
<path d="M184.391 203.81L178.748 207.062C178.443 207.232 177.947 207.232 177.642 207.062L171.96 203.81C171.807 203.715 171.731 203.602 171.731 203.488V204.15C171.731 204.264 171.807 204.377 171.96 204.472L177.642 207.724C177.947 207.894 178.462 207.894 178.748 207.724L184.391 204.472C184.544 204.377 184.62 204.264 184.62 204.15V203.488C184.62 203.602 184.544 203.715 184.391 203.81Z" fill="#1F2125"/>
<path d="M184.391 203.186C184.696 203.356 184.696 203.64 184.391 203.829L178.748 207.081C178.443 207.251 177.947 207.251 177.642 207.081L171.96 203.829C171.655 203.659 171.655 203.356 171.96 203.186L177.604 199.933C177.909 199.763 178.404 199.763 178.71 199.933L184.391 203.186Z" fill="#4D4D4D"/>
<path d="M178.29 209.029L172.646 212.281C172.341 212.452 171.846 212.452 171.54 212.281L165.859 209.029C165.706 208.934 165.63 208.821 165.63 208.708V209.369C165.63 209.483 165.706 209.596 165.859 209.691L171.54 212.943C171.846 213.114 172.341 213.114 172.646 212.943L178.29 209.691C178.443 209.596 178.519 209.483 178.519 209.369V208.708C178.519 208.821 178.443 208.934 178.29 209.029Z" fill="#1F2125"/>
<path d="M178.29 208.386C178.595 208.556 178.595 208.859 178.29 209.029L172.646 212.281C172.341 212.452 171.846 212.452 171.54 212.281L165.859 209.029C165.554 208.859 165.554 208.575 165.859 208.386L171.502 205.134C171.807 204.963 172.303 204.963 172.608 205.134L178.29 208.386Z" fill="#4D4D4D"/>
<path d="M192.151 208.254L186.508 211.506C186.203 211.676 185.707 211.676 185.402 211.506L179.72 208.254C179.567 208.159 179.491 208.046 179.491 207.932V208.594C179.491 208.707 179.567 208.821 179.72 208.915L185.402 212.168C185.707 212.338 186.222 212.338 186.508 212.168L192.151 208.915C192.304 208.821 192.38 208.707 192.38 208.594V207.932C192.38 208.046 192.304 208.159 192.151 208.254Z" fill="#1F2125"/>
<path d="M192.151 207.63C192.456 207.8 192.456 208.083 192.151 208.273L186.508 211.525C186.203 211.695 185.707 211.695 185.402 211.525L179.72 208.273C179.415 208.102 179.415 207.8 179.72 207.63L185.364 204.377C185.669 204.207 186.164 204.207 186.47 204.377L192.151 207.63Z" fill="#4D4D4D"/>
<path d="M184.639 212.584L178.862 215.912C178.595 216.063 178.157 216.063 177.89 215.912L173.562 213.435C173.428 213.359 173.352 213.246 173.352 213.151V213.813C173.352 213.908 173.428 214.021 173.562 214.097L177.89 216.574C178.157 216.725 178.595 216.725 178.862 216.574L184.639 213.246C184.773 213.17 184.849 213.057 184.849 212.962V212.3C184.849 212.395 184.792 212.508 184.639 212.584Z" fill="#1F2125"/>
<path d="M184.658 212.017C184.925 212.168 184.925 212.433 184.658 212.584L178.881 215.912C178.614 216.063 178.176 216.063 177.909 215.912L173.581 213.435C173.314 213.284 173.314 213.019 173.581 212.868L179.358 209.539C179.625 209.388 180.082 209.388 180.349 209.539L184.677 212.017H184.658Z" fill="#4D4D4D"/>
<path d="M176.67 217.179L171.674 220.053C171.197 220.337 170.397 220.337 169.901 220.053L154.514 211.241C154.267 211.109 154.152 210.92 154.152 210.731V211.393C154.152 211.582 154.267 211.771 154.514 211.903L169.901 220.715C170.397 220.999 171.178 220.999 171.674 220.715L176.67 217.841C176.917 217.708 177.032 217.519 177.032 217.33V216.668C177.032 216.857 176.917 217.028 176.67 217.179Z" fill="#1F2125"/>
<path d="M176.67 216.177C177.165 216.46 177.165 216.914 176.67 217.198L171.674 220.072C171.197 220.356 170.397 220.356 169.901 220.072L154.514 211.26C154.019 210.977 154.019 210.523 154.514 210.239L159.51 207.365C159.986 207.081 160.787 207.081 161.283 207.365L176.67 216.177Z" fill="#4D4D4D"/>
<path d="M161.817 216.82L156.211 220.053C155.906 220.243 155.391 220.224 155.067 220.053L149.099 216.631C148.947 216.536 148.871 216.423 148.871 216.309V216.971C148.871 217.085 148.947 217.217 149.099 217.293L155.067 220.715C155.372 220.886 155.887 220.904 156.211 220.715L161.817 217.482C161.969 217.387 162.045 217.274 162.045 217.16V216.498C162.045 216.612 161.969 216.725 161.817 216.82Z" fill="#1F2125"/>
<path d="M161.817 216.158C162.122 216.328 162.141 216.631 161.817 216.801L156.211 220.035C155.906 220.224 155.391 220.205 155.067 220.035L149.099 216.612C148.775 216.423 148.775 216.139 149.099 215.969L154.705 212.735C155.01 212.546 155.525 212.546 155.849 212.735L161.817 216.158Z" fill="#4D4D4D"/>
<path d="M166.488 223.06L163.819 224.592C163.59 224.724 163.228 224.724 162.999 224.592L156.707 220.999C156.593 220.942 156.535 220.847 156.535 220.772V221.434C156.535 221.434 156.593 221.604 156.707 221.66L162.999 225.253C163.228 225.386 163.59 225.386 163.819 225.253L166.488 223.722C166.602 223.665 166.66 223.57 166.66 223.495V222.833C166.66 222.833 166.602 223.003 166.488 223.06Z" fill="#1F2125"/>
<path d="M166.488 222.587C166.717 222.72 166.717 222.928 166.488 223.06L163.819 224.592C163.59 224.724 163.228 224.724 162.999 224.592L156.707 220.999C156.478 220.866 156.478 220.658 156.707 220.526L159.376 218.994C159.605 218.862 159.967 218.862 160.196 218.994L166.488 222.587Z" fill="#4D4D4D"/>
<path d="M104.141 134.43L101.681 135.829H100.842V136.491C100.842 136.491 100.899 136.642 100.995 136.699L199.282 192.975C199.511 193.107 199.911 193.088 200.178 192.937L203.248 191.178L104.141 134.43Z" fill="#1F2125"/>
<path d="M199.282 192.35L100.995 136.075C100.766 135.942 100.785 135.716 101.052 135.564L104.122 133.806L203.229 190.554L200.159 192.313C199.892 192.464 199.492 192.483 199.263 192.35H199.282Z" fill="#4D4D4D"/>
<path d="M229.445 91.8448L110.013 23.4669C109.289 23.0509 108.583 22.9941 108.03 23.2399L104.56 24.7906C105.113 24.5447 105.819 24.6015 106.543 25.0175L225.975 93.4143C227.558 94.322 228.683 96.5722 228.511 98.4632L219.149 196.983C219.054 198.005 218.596 198.685 217.948 198.988L221.418 197.437C222.067 197.154 222.524 196.454 222.619 195.433L231.981 96.9126C232.153 95.0216 231.028 92.7525 229.445 91.8637V91.8448Z" fill="#4D4D4D"/>
<path d="M225.975 93.4144C227.558 94.322 228.683 96.5723 228.511 98.4633L219.149 196.983C218.978 198.874 217.548 199.669 215.965 198.761L96.5333 130.364C94.9508 129.456 93.8259 127.206 93.9975 125.315L103.359 26.7951C103.531 24.9041 104.961 24.1099 106.543 25.0175L225.975 93.4144Z" fill="#1F2125"/>
<path d="M224.145 94.8136C225.651 95.6835 226.738 97.8392 226.566 99.6545L218.406 185.411C218.234 187.207 216.861 187.963 215.355 187.112L99.6221 120.815C98.1159 119.945 97.0291 117.789 97.2007 115.993L105.361 30.2366C105.533 28.4213 106.886 27.6649 108.393 28.5347L224.126 94.8325L224.145 94.8136Z" fill="#4A4A4A"/>
<g style="mix-blend-mode:multiply">
<path d="M141.435 196.095L136.859 198.704C134.876 199.839 131.863 199.971 130.147 198.988L51.5938 154.02L63.3196 147.251L141.911 192.237C143.627 193.202 143.418 194.941 141.435 196.076V196.095Z" fill="#BDBDBD"/>
</g>
<path d="M115.905 49.8651L111.71 47.4635C111.043 47.0853 110.566 46.0453 110.68 45.1754C110.776 44.3056 111.405 43.8896 112.091 44.2867L116.286 46.6882C116.953 47.0664 117.43 48.1064 117.315 48.9763C117.22 49.8461 116.591 50.2622 115.905 49.8651Z" fill="#006EFF"/>
<path d="M109.498 105.649L105.304 103.247C104.636 102.869 104.16 101.829 104.274 100.959C104.369 100.09 104.999 99.6735 105.685 100.071L109.88 102.472C110.547 102.85 111.024 103.89 110.909 104.76C110.814 105.63 110.185 106.046 109.498 105.649Z" fill="#006EFF"/>
<path d="M121.3 112.419L112.892 107.597C112.225 107.219 111.748 106.179 111.862 105.309C111.958 104.439 112.587 104.023 113.273 104.42L121.682 109.242C122.349 109.62 122.826 110.66 122.711 111.53C122.616 112.4 121.987 112.816 121.3 112.419Z" fill="#B3D4FF"/>
<path d="M151.616 129.778L124.751 114.404C124.084 114.026 123.607 112.986 123.722 112.116C123.817 111.246 124.446 110.83 125.133 111.227L151.997 126.601C152.665 126.979 153.141 128.019 153.027 128.889C152.932 129.759 152.302 130.175 151.616 129.778Z" fill="#FFAD66"/>
<path d="M132.492 59.3577L119.756 52.0585C119.089 51.6803 118.612 50.6402 118.726 49.7704C118.822 48.9005 119.451 48.4845 120.137 48.8816L132.874 56.1808C133.541 56.559 134.018 57.5991 133.903 58.4689C133.808 59.3388 133.179 59.7548 132.492 59.3577Z" fill="#B3D4FF"/>
<path d="M174.667 83.5245L136.382 61.608C135.714 61.2298 135.238 60.1898 135.352 59.32C135.448 58.4501 136.077 58.0341 136.763 58.4312L175.048 80.3477C175.716 80.7259 176.192 81.7659 176.078 82.6358C175.983 83.5056 175.354 83.9216 174.667 83.5245Z" fill="#FFAD66"/>
<path d="M119.241 57.5801L115.047 55.1786C114.379 54.8004 113.903 53.7604 114.017 52.8905C114.112 52.0207 114.742 51.6046 115.428 52.0017L119.623 54.4033C120.29 54.7815 120.766 55.8215 120.652 56.6914C120.557 57.5612 119.928 57.9772 119.241 57.5801Z" fill="#006EFF"/>
<path d="M135.81 67.073L123.073 59.7738C122.406 59.3956 121.929 58.3556 122.044 57.4857C122.139 56.6159 122.768 56.1999 123.455 56.597L136.191 63.8962C136.858 64.2743 137.335 65.3144 137.221 66.1842C137.125 67.0541 136.496 67.4701 135.81 67.073Z" fill="#B3D4FF"/>
<path d="M177.985 91.2399L139.699 69.3234C139.032 68.9452 138.555 67.9051 138.67 67.0353C138.765 66.1654 139.394 65.7494 140.081 66.1465L178.366 88.063C179.033 88.4412 179.51 89.4812 179.396 90.3511C179.3 91.2209 178.671 91.637 177.985 91.2399Z" fill="#FFAD66"/>
<path d="M118.555 63.4991L114.36 61.0975C113.693 60.7193 113.216 59.6793 113.331 58.8095C113.426 57.9396 114.055 57.5236 114.742 57.9207L118.936 60.3222C119.604 60.7004 120.08 61.7405 119.966 62.6103C119.87 63.4802 119.241 63.8962 118.555 63.4991Z" fill="#006EFF"/>
<path d="M117.906 69.0963L113.712 66.6947C113.045 66.3165 112.568 65.2765 112.682 64.4066C112.778 63.5368 113.407 63.1208 114.093 63.5179L118.288 65.9194C118.955 66.2976 119.432 67.3376 119.317 68.2075C119.222 69.0773 118.593 69.4934 117.906 69.0963Z" fill="#006EFF"/>
<path d="M115.313 91.7125L111.119 89.3109C110.452 88.9327 109.975 87.8927 110.089 87.0228C110.185 86.153 110.814 85.737 111.5 86.1341L115.695 88.5356C116.362 88.9138 116.839 89.9539 116.724 90.8237C116.629 91.6936 116 92.1096 115.313 91.7125Z" fill="#006EFF"/>
<path d="M114.684 97.2152L110.49 94.8136C109.822 94.4354 109.346 93.3954 109.46 92.5255C109.555 91.6557 110.185 91.2396 110.871 91.6368L115.066 94.0383C115.733 94.4165 116.21 95.4565 116.095 96.3264C116 97.1962 115.371 97.6123 114.684 97.2152Z" fill="#006EFF"/>
<path d="M112.873 112.929L108.678 110.528C108.011 110.15 107.534 109.109 107.649 108.24C107.744 107.37 108.373 106.954 109.06 107.351L113.254 109.752C113.922 110.131 114.398 111.171 114.284 112.04C114.189 112.91 113.559 113.326 112.873 112.929Z" fill="#006EFF"/>
<path d="M124.351 119.491L116.191 114.82C115.523 114.442 115.047 113.402 115.161 112.532C115.256 111.662 115.886 111.246 116.572 111.643L124.732 116.314C125.4 116.692 125.876 117.732 125.762 118.602C125.667 119.472 125.037 119.888 124.351 119.491Z" fill="#B3D4FF"/>
<path d="M156.02 137.626L128.088 121.628C127.421 121.25 126.944 120.21 127.058 119.34C127.154 118.47 127.783 118.054 128.469 118.451L156.402 134.449C157.069 134.827 157.546 135.867 157.431 136.737C157.336 137.607 156.707 138.023 156.02 137.626Z" fill="#FFAD66"/>
<path d="M172.78 130.478L168.585 128.076C167.918 127.698 167.441 126.658 167.556 125.788C167.651 124.918 168.28 124.502 168.966 124.899L173.161 127.301C173.828 127.679 174.305 128.719 174.191 129.589C174.095 130.459 173.466 130.875 172.78 130.478Z" fill="#006EFF"/>
<path d="M114.97 72.7081L110.776 70.3065C110.108 69.9283 109.632 68.8883 109.746 68.0184C109.842 67.1486 110.471 66.7326 111.157 67.1297L115.352 69.5312C116.019 69.9094 116.496 70.9495 116.381 71.8193C116.286 72.6892 115.657 73.1052 114.97 72.7081Z" fill="#006EFF"/>
<path d="M126.582 79.3643L118.555 74.7692C117.888 74.391 117.411 73.3509 117.525 72.4811C117.621 71.6112 118.25 71.1952 118.936 71.5923L126.963 76.1874C127.63 76.5656 128.107 77.6056 127.993 78.4755C127.897 79.3453 127.268 79.7614 126.582 79.3643Z" fill="#B3D4FF"/>
<path d="M169.786 104.098L164.123 100.846C163.456 100.468 162.979 99.4276 163.094 98.5577C163.189 97.6879 163.818 97.2719 164.505 97.669L170.168 100.921C170.835 101.3 171.312 102.34 171.197 103.21C171.102 104.079 170.473 104.495 169.786 104.098Z" fill="#B3D4FF"/>
<path d="M143.284 88.914L130.204 81.4257C129.537 81.0475 129.06 80.0074 129.175 79.1376C129.27 78.2677 129.899 77.8517 130.586 78.2488L143.665 85.7371C144.332 86.1153 144.809 87.1553 144.695 88.0252C144.599 88.895 143.97 89.3111 143.284 88.914Z" fill="#FFAD66"/>
<path d="M114.265 78.835L110.07 76.4335C109.403 76.0553 108.926 75.0152 109.041 74.1454C109.136 73.2755 109.765 72.8595 110.452 73.2566L114.646 75.6582C115.314 76.0364 115.79 77.0764 115.676 77.9463C115.58 78.8161 114.951 79.2321 114.265 78.835Z" fill="#006EFF"/>
<path d="M111.691 101.224L107.496 98.8226C106.829 98.4444 106.352 97.4044 106.467 96.5345C106.562 95.6647 107.191 95.2487 107.878 95.6458L112.072 98.0473C112.74 98.4255 113.216 99.4656 113.102 100.335C113.006 101.205 112.377 101.621 111.691 101.224Z" fill="#006EFF"/>
<path d="M125.876 85.4912L117.849 80.8961C117.182 80.5179 116.705 79.4779 116.82 78.608C116.915 77.7382 117.544 77.3222 118.231 77.7193L126.258 82.3144C126.925 82.6926 127.402 83.7326 127.287 84.6025C127.192 85.4723 126.563 85.8883 125.876 85.4912Z" fill="#B3D4FF"/>
<path d="M123.913 102.51L118.574 99.4655C117.907 99.0873 117.43 98.0472 117.544 97.1774C117.64 96.3075 118.269 95.8915 118.955 96.2886L124.294 99.3331C124.961 99.7113 125.438 100.751 125.323 101.621C125.228 102.491 124.599 102.907 123.913 102.51Z" fill="#B3D4FF"/>
<path d="M146.735 115.577L141.396 112.532C140.729 112.154 140.252 111.114 140.367 110.244C140.462 109.374 141.091 108.958 141.778 109.355L147.116 112.4C147.784 112.778 148.26 113.818 148.146 114.688C148.051 115.558 147.421 115.974 146.735 115.577Z" fill="#B3D4FF"/>
<path d="M184.467 125.694L113.693 85.1698C113.025 84.7916 112.549 83.7516 112.663 82.8817C112.759 82.0119 113.388 81.5958 114.074 81.993L184.849 122.517C185.516 122.895 185.993 123.935 185.878 124.805C185.783 125.675 185.154 126.091 184.467 125.694Z" fill="#F2F2F2"/>
<path d="M139.604 93.3576L129.499 87.5712C128.832 87.193 128.355 86.1529 128.469 85.2831C128.565 84.4132 129.194 83.9972 129.88 84.3943L139.985 90.1807C140.653 90.5589 141.129 91.599 141.015 92.4688C140.92 93.3387 140.291 93.7547 139.604 93.3576Z" fill="#FFAD66"/>
<path d="M137.64 110.358L127.535 104.571C126.868 104.193 126.391 103.153 126.506 102.283C126.601 101.413 127.23 100.997 127.916 101.394L138.022 107.181C138.689 107.559 139.166 108.599 139.051 109.469C138.956 110.339 138.327 110.755 137.64 110.358Z" fill="#FFAD66"/>
<path d="M164.81 125.92L150.548 117.751C149.881 117.373 149.404 116.333 149.519 115.463C149.614 114.593 150.243 114.177 150.93 114.574L165.191 122.744C165.859 123.122 166.335 124.162 166.221 125.032C166.126 125.901 165.496 126.317 164.81 125.92Z" fill="#F2F2F2"/>
<path d="M160.615 98.8414L147.536 91.3532C146.869 90.975 146.392 89.9349 146.506 89.0651C146.602 88.1952 147.231 87.7792 147.917 88.1763L160.997 95.6646C161.664 96.0428 162.141 97.0828 162.026 97.9527C161.931 98.8225 161.302 99.2385 160.615 98.8414Z" fill="#F2F2F2"/>
<path d="M135.124 72.9917L122.387 65.6925C121.72 65.3143 121.243 64.2743 121.358 63.4044C121.453 62.5346 122.082 62.1186 122.768 62.5157L135.505 69.8148C136.172 70.193 136.649 71.2331 136.534 72.1029C136.439 72.9728 135.81 73.3888 135.124 72.9917Z" fill="#B3D4FF"/>
<path d="M162.503 88.668L149.767 81.3688C149.099 80.9906 148.623 79.9505 148.737 79.0807C148.832 78.2108 149.461 77.7948 150.148 78.1919L162.884 85.4911C163.552 85.8693 164.028 86.9094 163.914 87.7792C163.818 88.6491 163.189 89.0651 162.503 88.668Z" fill="#B3D4FF"/>
<path d="M145.477 78.9104L139.032 75.223C138.365 74.8448 137.888 73.8048 138.003 72.9349C138.098 72.0651 138.727 71.6491 139.414 72.0462L145.858 75.7336C146.525 76.1118 147.002 77.1518 146.888 78.0217C146.792 78.8915 146.163 79.3076 145.477 78.9104Z" fill="#FFAD66"/>
<path d="M187.613 103.04L166.812 91.1263C166.145 90.7482 165.668 89.7081 165.782 88.8383C165.878 87.9684 166.507 87.5524 167.193 87.9495L187.995 99.8627C188.662 100.241 189.139 101.281 189.024 102.151C188.929 103.021 188.3 103.437 187.613 103.04Z" fill="#FFAD66"/>
<path d="M112.301 117.921L108.106 115.52C107.439 115.142 106.962 114.102 107.077 113.232C107.172 112.362 107.801 111.946 108.488 112.343L112.682 114.745C113.35 115.123 113.826 116.163 113.712 117.033C113.617 117.903 112.987 118.319 112.301 117.921Z" fill="#006EFF"/>
<path d="M128.87 127.414L116.133 120.115C115.466 119.737 114.99 118.697 115.104 117.827C115.199 116.957 115.828 116.541 116.515 116.938L129.251 124.237C129.919 124.616 130.395 125.656 130.281 126.526C130.185 127.395 129.556 127.811 128.87 127.414Z" fill="#B3D4FF"/>
<path d="M156.249 143.091L143.513 135.791C142.845 135.413 142.369 134.373 142.483 133.503C142.578 132.633 143.208 132.217 143.894 132.615L156.63 139.914C157.298 140.292 157.774 141.332 157.66 142.202C157.565 143.072 156.935 143.488 156.249 143.091Z" fill="#B3D4FF"/>
<path d="M139.223 133.333L132.778 129.646C132.111 129.267 131.634 128.227 131.749 127.358C131.844 126.488 132.473 126.072 133.16 126.469L139.604 130.156C140.271 130.534 140.748 131.574 140.634 132.444C140.538 133.314 139.909 133.73 139.223 133.333Z" fill="#FFAD66"/>
<path d="M181.34 157.462L160.539 145.549C159.872 145.171 159.395 144.13 159.509 143.261C159.605 142.391 160.234 141.975 160.92 142.372L181.722 154.285C182.389 154.663 182.866 155.703 182.751 156.573C182.656 157.443 182.027 157.859 181.34 157.462Z" fill="#FFAD66"/>
<path d="M144.714 73.7482L16.3779 0.264685C15.8441 -0.0378725 15.3484 -0.0756921 15.0052 0.132316L10.8105 2.55277C11.1537 2.34476 11.6495 2.38258 12.1833 2.68514L140.519 76.1687C141.568 76.7738 142.426 78.2488 142.426 79.459L142.159 174.33C142.159 174.935 141.949 175.351 141.606 175.54L145.801 173.119C146.144 172.93 146.354 172.495 146.354 171.909L146.621 77.0386C146.621 75.8283 145.763 74.3534 144.714 73.7482Z" fill="#737373"/>
<path d="M142.445 79.4401V89.1975L142.178 174.311C142.178 175.521 141.32 175.994 140.252 175.407L11.9164 101.905C10.8487 101.281 9.99072 99.8249 9.99072 98.6146L10.2195 13.5015V3.76296C10.2577 2.55273 11.1156 2.07999 12.1834 2.66619L140.538 76.1498C141.587 76.7738 142.445 78.2298 142.445 79.4401Z" fill="#1F2125"/>
<path d="M140.1 79.7994V89.1976L139.833 171.304C139.833 172.458 138.994 172.911 137.964 172.344L39.067 115.728L14.1663 101.47C13.1367 100.865 12.3359 99.4467 12.3359 98.2932L12.5647 16.2057V6.78857C12.5838 5.61616 13.4227 5.14341 14.4523 5.72962L39.067 19.8363L138.25 76.6414C139.242 77.2087 140.081 78.6459 140.081 79.8183L140.1 79.7994Z" fill="#4A4A4A"/>
<path d="M39.067 19.8174V115.728L14.1663 101.47C13.1367 100.865 12.3359 99.4467 12.3359 98.2932L12.5647 16.2057V6.78857C12.5838 5.61616 13.4227 5.14341 14.4523 5.72962L39.067 19.8363V19.8174Z" fill="#FFAD66"/>
<path d="M142.445 79.4401V89.1975L10.2195 13.5204V3.76296C10.2576 2.55273 11.1156 2.07999 12.1833 2.66619L140.538 76.1497C141.587 76.7738 142.445 78.2298 142.445 79.4401Z" fill="#1F2125"/>
<path d="M30.2966 19.3824C30.2966 21.0843 31.5169 23.1833 33.0231 24.0342C34.5294 24.8852 35.7496 24.2044 35.7496 22.5025C35.7496 20.8006 34.5294 18.7017 33.0231 17.8507C31.5169 16.9998 30.2966 17.6805 30.2966 19.3824Z" fill="#006EFF"/>
<path d="M22.689 15.0333C22.689 16.7352 23.9092 18.8342 25.4155 19.6851C26.9217 20.536 28.142 19.8553 28.142 18.1534C28.142 16.4515 26.9217 14.3525 25.4155 13.5016C23.9092 12.6507 22.689 13.3314 22.689 15.0333Z" fill="#006EFF"/>
<path d="M15.1006 10.6839C15.1006 12.3858 16.3208 14.4848 17.8271 15.3357C19.3333 16.1867 20.5536 15.5059 20.5536 13.804C20.5536 12.1022 19.3333 10.0032 17.8271 9.15223C16.3208 8.30129 15.1006 8.98204 15.1006 10.6839Z" fill="#006EFF"/>
<path d="M133.503 153.132L95.1224 131.159C94.436 130.762 93.864 129.703 93.864 128.776V118.262C93.864 117.336 94.436 116.92 95.1224 117.317L133.503 139.29C134.189 139.687 134.761 140.746 134.761 141.673V152.186C134.761 153.113 134.189 153.529 133.503 153.132Z" fill="#006EFF"/>
<path d="M49.7251 52.7773C49.7251 54.0253 48.829 54.5359 47.7422 53.8929C46.6363 53.2689 45.7593 51.7372 45.7593 50.4892C45.7593 49.2411 46.6554 48.7306 47.7422 49.3735C48.848 49.9975 49.7251 51.5292 49.7251 52.7773Z" fill="white"/>
<path d="M85.8369 75.0909L54.2248 56.9942C53.5956 56.6349 53.0618 55.6516 53.0618 54.8006C53.0618 53.9497 53.5766 53.5715 54.2248 53.9308L85.8369 72.0275C86.4661 72.3868 87 73.3701 87 74.221C87 75.072 86.4852 75.4502 85.8369 75.0909Z" fill="white"/>
<path d="M85.7797 112.816L46.9223 90.5591C46.2931 90.1998 45.7593 89.2165 45.7593 88.3656C45.7593 87.5146 46.2741 87.1364 46.9223 87.4957L85.7797 109.753C86.4089 110.112 86.9427 111.095 86.9427 111.946C86.9427 112.797 86.4279 113.175 85.7797 112.816Z" fill="white"/>
<path d="M85.7797 119.17L46.9223 96.9129C46.2931 96.5536 45.7593 95.5703 45.7593 94.7193C45.7593 93.8684 46.2741 93.4902 46.9223 93.8495L85.7797 116.106C86.4089 116.466 86.9427 117.449 86.9427 118.3C86.9427 119.151 86.4279 119.529 85.7797 119.17Z" fill="white"/>
<path d="M85.7797 125.807L46.9223 103.55C46.2931 103.191 45.7593 102.208 45.7593 101.357C45.7593 100.506 46.2741 100.128 46.9223 100.487L85.7797 122.744C86.4089 123.103 86.9427 124.086 86.9427 124.937C86.9427 125.788 86.4279 126.166 85.7797 125.807Z" fill="white"/>
<path d="M133.98 135.413L95.1223 113.156C94.4931 112.797 93.9592 111.814 93.9592 110.963C93.9592 110.112 94.474 109.734 95.1223 110.093L133.98 132.35C134.609 132.709 135.143 133.692 135.143 134.543C135.143 135.394 134.628 135.772 133.98 135.413Z" fill="white"/>
<path d="M133.98 128.965L95.1223 106.708C94.4931 106.349 93.9592 105.365 93.9592 104.515C93.9592 103.664 94.474 103.285 95.1223 103.645L133.98 125.902C134.609 126.261 135.143 127.244 135.143 128.095C135.143 128.946 134.628 129.324 133.98 128.965Z" fill="white"/>
<path d="M133.98 102.586L95.1223 80.3289C94.4931 79.9696 93.9592 78.9863 93.9592 78.1354C93.9592 77.2844 94.474 76.9062 95.1223 77.2655L133.98 99.5224C134.609 99.8817 135.143 100.865 135.143 101.716C135.143 102.567 134.628 102.945 133.98 102.586Z" fill="white"/>
<path d="M67.4378 95.0974L47.0558 83.4301C46.3313 83.014 45.7593 81.9173 45.7593 80.9718V58.2422C45.7593 57.2967 46.3313 56.8618 47.0558 57.2778L67.4378 68.9451C68.1623 69.3612 68.7343 70.4579 68.7343 71.4034V94.133C68.7343 95.0785 68.1623 95.5134 67.4378 95.0974Z" fill="#006EFF"/>
<path d="M34.3005 57.4292L16.2255 47.0855C15.5963 46.7262 15.0815 45.7429 15.0815 44.9109V24.753C15.0815 23.921 15.5963 23.5239 16.2255 23.8832L34.3005 34.2268C34.9297 34.5861 35.4445 35.5694 35.4445 36.4015V56.5593C35.4445 57.3914 34.9297 57.7885 34.3005 57.4292Z" fill="white"/>
<path d="M34.3005 63.6693L16.2255 53.3256C15.5963 52.9663 15.0815 51.983 15.0815 51.151V51.2266C15.0815 50.3946 15.5963 49.9975 16.2255 50.3568L34.3005 60.7005C34.9297 61.0597 35.4445 62.0431 35.4445 62.8751V62.7994C35.4445 63.6315 34.9297 64.0286 34.3005 63.6693Z" fill="white"/>
<path d="M34.3005 97.2721L16.2255 86.9284C15.5963 86.5691 15.0815 85.5858 15.0815 84.7538V84.8294C15.0815 83.9974 15.5963 83.6003 16.2255 83.9596L34.3005 94.3032C34.9297 94.6625 35.4445 95.6458 35.4445 96.4779V96.4022C35.4445 97.2343 34.9297 97.6314 34.3005 97.2721Z" fill="white"/>
<path d="M34.3005 103.55L16.2255 93.2065C15.5963 92.8472 15.0815 91.8639 15.0815 91.0319V91.1075C15.0815 90.2755 15.5963 89.8784 16.2255 90.2376L34.3005 100.581C34.9297 100.941 35.4445 101.924 35.4445 102.756V102.68C35.4445 103.512 34.9297 103.909 34.3005 103.55Z" fill="white"/>
<path d="M34.3005 109.847L16.2255 99.5036C15.5963 99.1443 15.0815 98.161 15.0815 97.329V97.4046C15.0815 96.5726 15.5963 96.1755 16.2255 96.5348L34.3005 106.878C34.9297 107.238 35.4445 108.221 35.4445 109.053V108.977C35.4445 109.809 34.9297 110.207 34.3005 109.847Z" fill="white"/>
<path d="M133.503 120.626L95.1224 98.6526C94.436 98.2555 93.864 97.1965 93.864 96.2699V85.7561C93.864 84.8295 94.436 84.4135 95.1224 84.8106L133.503 106.784C134.189 107.181 134.761 108.24 134.761 109.166V119.68C134.761 120.607 134.189 121.023 133.503 120.626Z" fill="#006EFF"/>
</g>
<defs>
<clipPath id="clip0_1017_8781">
<rect width="232" height="264" fill="white"/>
</clipPath>
</defs>
</svg>
