<svg width="38" height="38" viewBox="0 0 38 38" fill="none" xmlns="http://www.w3.org/2000/svg">
<rect width="38" height="38" rx="19" fill="#127FFF"/>
<path d="M28.2588 13.4689C28.2133 13.3564 28.1412 13.2567 28.0487 13.1782C27.9562 13.0998 27.8461 13.0449 27.7277 13.0183C27.6093 12.9918 27.4863 12.9944 27.3692 13.0258C27.252 13.0572 27.1442 13.1166 27.0551 13.1989L23.2769 16.6854L21.6616 16.3386L21.3147 14.7232L24.8013 10.9451C24.8836 10.856 24.9429 10.7482 24.9744 10.631C25.0058 10.5139 25.0084 10.3908 24.9818 10.2725C24.9553 10.1541 24.9004 10.044 24.822 9.95145C24.7435 9.85895 24.6438 9.78686 24.5313 9.74136C23.5066 9.32683 22.3957 9.17032 21.2963 9.28557C20.1969 9.40082 19.1426 9.78431 18.2261 10.4023C17.3096 11.0204 16.5589 11.8541 16.04 12.8301C15.5211 13.8061 15.2498 14.8947 15.2501 16.0001C15.2488 16.9336 15.4403 17.8572 15.8126 18.7132L10.1679 23.5939C10.1538 23.6051 10.1407 23.6182 10.1276 23.6304C9.56489 24.1931 9.24878 24.9562 9.24878 25.752C9.24878 26.146 9.32639 26.5362 9.47717 26.9002C9.62795 27.2642 9.84895 27.5949 10.1276 27.8736C10.4062 28.1522 10.7369 28.3732 11.1009 28.5239C11.465 28.6747 11.8551 28.7523 12.2491 28.7523C13.0449 28.7523 13.808 28.4362 14.3707 27.8736C14.3829 27.8614 14.396 27.8473 14.4072 27.8342L19.2869 22.1876C20.3148 22.6388 21.439 22.8266 22.5578 22.7338C23.6765 22.641 24.7545 22.2707 25.694 21.6564C26.6336 21.0421 27.4051 20.2031 27.9387 19.2155C28.4723 18.2278 28.7512 17.1227 28.7501 16.0001C28.7515 15.1325 28.5847 14.2729 28.2588 13.4689ZM22.0001 21.2501C21.1123 21.2489 20.2393 21.0231 19.4622 20.5939C19.3117 20.5107 19.1372 20.4818 18.9678 20.512C18.7985 20.5422 18.6447 20.6297 18.5322 20.7598L13.2916 26.8292C13.008 27.0986 12.6304 27.2466 12.2393 27.2416C11.8481 27.2366 11.4744 27.079 11.1978 26.8024C10.9212 26.5258 10.7636 26.1521 10.7586 25.7609C10.7536 25.3698 10.9016 24.9921 11.171 24.7086L17.2357 19.4689C17.366 19.3563 17.4536 19.2024 17.4839 19.0328C17.5141 18.8633 17.485 18.6886 17.4016 18.5379C16.9235 17.6732 16.6992 16.6911 16.7543 15.7046C16.8095 14.7181 17.1419 13.7671 17.7134 12.9611C18.2849 12.155 19.0723 11.5266 19.985 11.1481C20.8977 10.7696 21.8987 10.6564 22.8729 10.8214L19.9479 13.9911C19.8665 14.0793 19.8075 14.1859 19.7758 14.3017C19.7442 14.4175 19.7408 14.5393 19.766 14.6567L20.2966 17.1251C20.327 17.2663 20.3974 17.3957 20.4995 17.4978C20.6017 17.5999 20.7311 17.6704 20.8722 17.7007L23.3426 18.2314C23.46 18.2565 23.5817 18.2532 23.6975 18.2215C23.8134 18.1899 23.9199 18.1309 24.0082 18.0495L27.1779 15.1245C27.3042 15.8773 27.2651 16.6486 27.0632 17.3848C26.8612 18.1209 26.5014 18.8043 26.0086 19.3873C25.5158 19.9702 24.9019 20.4389 24.2097 20.7606C23.5174 21.0823 22.7634 21.2493 22.0001 21.2501Z" fill="white"/>
</svg>
