<svg width="38" height="38" viewBox="0 0 38 38" fill="none" xmlns="http://www.w3.org/2000/svg">
<rect width="38" height="38" rx="19" fill="#127FFF"/>
<path d="M19 9.25C13.9534 9.25 10 11.5563 10 14.5V23.5C10 26.4438 13.9534 28.75 19 28.75C24.0466 28.75 28 26.4438 28 23.5V14.5C28 11.5563 24.0466 9.25 19 9.25ZM26.5 19C26.5 19.9019 25.7612 20.8216 24.4741 21.5238C23.0247 22.3141 21.0803 22.75 19 22.75C16.9197 22.75 14.9753 22.3141 13.5259 21.5238C12.2387 20.8216 11.5 19.9019 11.5 19V17.44C13.0994 18.8463 15.8341 19.75 19 19.75C22.1659 19.75 24.9006 18.8425 26.5 17.44V19ZM13.5259 11.9763C14.9753 11.1859 16.9197 10.75 19 10.75C21.0803 10.75 23.0247 11.1859 24.4741 11.9763C25.7612 12.6784 26.5 13.5981 26.5 14.5C26.5 15.4019 25.7612 16.3216 24.4741 17.0237C23.0247 17.8141 21.0803 18.25 19 18.25C16.9197 18.25 14.9753 17.8141 13.5259 17.0237C12.2387 16.3216 11.5 15.4019 11.5 14.5C11.5 13.5981 12.2387 12.6784 13.5259 11.9763ZM24.4741 26.0238C23.0247 26.8141 21.0803 27.25 19 27.25C16.9197 27.25 14.9753 26.8141 13.5259 26.0238C12.2387 25.3216 11.5 24.4019 11.5 23.5V21.94C13.0994 23.3463 15.8341 24.25 19 24.25C22.1659 24.25 24.9006 23.3425 26.5 21.94V23.5C26.5 24.4019 25.7612 25.3216 24.4741 26.0238Z" fill="white"/>
</svg>
