<svg width="416" height="265" viewBox="0 0 416 265" fill="none" xmlns="http://www.w3.org/2000/svg">
<g clip-path="url(#clip0_1017_6535)">
<path d="M174.268 239.676L132.089 215.311C131.255 214.834 131.357 213.984 132.327 213.422L135.305 211.704C136.275 211.142 137.738 211.091 138.572 211.567L180.751 235.933C181.585 236.409 181.483 237.26 180.513 237.821L177.535 239.54C176.565 240.101 175.102 240.152 174.268 239.676Z" fill="#999999" fill-opacity="0.3"/>
<path d="M284.03 223.205L234.398 194.57L242.463 189.908C243.756 189.159 243.893 188.036 242.77 187.406L196.507 160.812C195.401 160.166 193.444 160.251 192.168 161L184.171 165.611L137.057 138.438C136.411 138.064 135.254 138.115 134.505 138.54L132.855 139.493C132.106 139.935 132.021 140.582 132.668 140.973L179.781 168.146L165.727 176.262C164.434 177.01 164.298 178.133 165.421 178.763L211.684 205.357C212.79 206.003 214.746 205.918 216.022 205.17L230.009 197.105L279.64 225.723C280.287 226.098 281.444 226.047 282.193 225.621L283.843 224.669C284.592 224.226 284.677 223.58 284.03 223.188V223.205Z" fill="#999999" fill-opacity="0.3"/>
<path d="M237.529 182.727L237.087 184.973L235.947 187.134L233.344 189.04L231.472 190.401L222.999 195.131L212.177 201.954L170.832 178.048C170.729 177.946 170.661 177.81 170.661 177.606C170.661 177.147 170.985 176.585 171.393 176.364L191.368 164.794L192.27 164.283C193.342 163.671 194.397 162.514 195.026 161.153C195.656 159.809 195.826 158.464 195.486 157.495L183.933 124.197L185.311 122.887L226.657 146.775L226.504 149.906L231.268 162.684L234.977 173.642L237.359 179.92L237.563 182.744L237.529 182.727Z" fill="#CCCCCC"/>
<path d="M233.344 189.04L231.472 190.401L222.999 195.131L212.177 201.954L170.832 178.048C170.729 177.946 170.661 177.81 170.661 177.606C170.661 177.147 170.985 176.585 171.393 176.364L191.368 164.794L233.344 189.04Z" fill="#E6E6E6"/>
<path d="M233.565 189.874L212.739 201.937C212.33 202.175 212.007 201.988 212.007 201.529C212.007 201.069 212.33 200.508 212.739 200.27L233.599 188.189C234.671 187.56 235.726 186.42 236.355 185.058C236.985 183.697 237.155 182.37 236.815 181.4L225.262 148.103L226.64 146.775L238.193 180.073C238.669 181.434 238.448 183.289 237.614 185.178C236.712 187.219 235.164 188.938 233.565 189.874Z" fill="#A6A6A6"/>
<path d="M280.593 82.6981L138.98 0.942462C138.078 0.432021 137.261 0.380977 136.683 0.721271L133.841 2.3717C134.437 2.0314 135.254 2.08245 136.138 2.59289L277.752 84.3485C279.538 85.3864 280.985 87.8876 280.967 89.9293L280.661 198.636C280.661 199.657 280.304 200.372 279.725 200.712L282.567 199.062C283.145 198.721 283.503 198.007 283.503 196.986L283.809 88.2789C283.809 86.2371 282.363 83.736 280.593 82.6981Z" fill="#595959"/>
<path d="M283.554 177.929L283.503 196.986C283.503 198.007 283.146 198.721 282.567 199.061L279.726 200.712C280.304 200.372 280.661 199.657 280.661 198.636L280.712 179.563L283.554 177.929Z" fill="#BFBFBF"/>
<path d="M280.968 89.9294L280.661 198.636C280.661 200.695 279.198 201.512 277.411 200.491L135.815 118.718C134.029 117.68 132.582 115.196 132.582 113.137L132.906 4.43056C132.906 2.38879 134.369 1.55507 136.155 2.59297L277.769 84.3486C279.555 85.3865 281.002 87.8706 280.985 89.9294H280.968Z" fill="#333333"/>
<path d="M280.729 179.58L280.678 198.636C280.678 200.695 279.215 201.512 277.428 200.491L135.815 118.718C134.029 117.68 132.582 115.196 132.582 113.137L132.633 94.0808L280.712 179.58H280.729Z" fill="#D9D9D9"/>
<path d="M277.071 171.106L137.738 90.4398V9.80713L277.071 90.4908V171.106Z" fill="#7981F2"/>
<path d="M174.966 31.3646V37.5239L139.133 16.8171V10.6067L174.966 31.3646Z" fill="#2A33B8"/>
<path d="M219.8 57.3121V63.3864L183.933 42.6795V36.5542L219.8 57.3121Z" fill="#2A33B8"/>
<path d="M264.599 83.2594V89.2486L228.75 68.5757V62.5015L264.599 83.2594Z" fill="#2A33B8"/>
<path d="M277.071 90.4737V96.4799L273.566 94.4381V88.449L277.071 90.4737Z" fill="#2A33B8"/>
<path d="M174.983 88.9424L139.116 68.2355V27.094L174.983 47.8009V88.9424Z" fill="#2A33B8"/>
<path d="M219.783 114.805L183.933 94.1149V52.9734L219.783 73.6803V114.805Z" fill="#2A33B8"/>
<path d="M264.599 140.684L228.75 119.994V78.8525L264.599 99.5424V140.684Z" fill="#2A33B8"/>
<path d="M277.071 106.74V147.898L273.566 145.856V104.715L277.071 106.74Z" fill="#2A33B8"/>
<path d="M174.966 99.2362V111.997L139.133 91.2223V78.5293L174.966 99.2362Z" fill="#2A33B8"/>
<path d="M219.8 125.098V137.928L183.933 117.17V104.392L219.8 125.098Z" fill="#2A33B8"/>
<path d="M264.599 150.961V163.875L228.75 143.117V130.271L264.599 150.961Z" fill="#2A33B8"/>
<path d="M277.071 158.175V171.089L273.566 169.065V156.15L277.071 158.175Z" fill="#2A33B8"/>
<path d="M217.979 264.296L188.986 247.553C188.425 247.23 188.493 246.669 189.139 246.294L217.622 229.841C218.268 229.467 219.238 229.433 219.8 229.756L248.793 246.499C249.354 246.822 249.286 247.383 248.64 247.758L220.157 264.211C219.511 264.585 218.541 264.619 217.979 264.296Z" fill="#999999" fill-opacity="0.3"/>
<path d="M219.068 248.268L191.351 232.274L218.881 216.365L246.598 232.359L219.068 248.268Z" fill="#F2F2F2"/>
<path d="M219.051 246.515L194.363 232.274L218.898 218.118L243.587 232.359L219.051 246.515Z" fill="#E6E6E6"/>
<path d="M219.068 262.322V248.268L246.598 232.359V246.431L219.068 262.322Z" fill="#BFBFBF"/>
<path d="M191.351 232.274V246.328L219.068 262.322V248.268L191.351 232.274Z" fill="#E6E6E6"/>
<path d="M200.386 235.745L198.429 234.622L198.106 230.113L197.408 220.483L199.348 221.419L199.91 229.076L200.386 235.745Z" fill="#4D4D4D"/>
<path d="M199.348 221.419L197.408 220.483L221.586 206.531L223.526 207.467L199.348 221.419Z" fill="#737373"/>
<path d="M225.619 236.307L215.138 242.364L213.487 243.317L213.351 243.402L213.334 243.215L212.296 242.619L210.357 241.496L209.319 240.901L207.379 239.795L206.341 239.199L204.384 238.059L203.381 237.481L201.407 236.341L200.386 235.745L199.91 229.075L199.348 221.419L223.526 207.467L223.628 208.845L223.781 210.802L223.866 212.197V212.214L224.002 214.171L224.105 215.549L224.258 217.539L224.36 218.901L224.496 220.891L224.53 221.368L224.598 222.27L224.751 224.243L225.619 236.307Z" fill="#1F2125"/>
<path d="M203.381 237.481L201.407 236.341L200.845 228.531L200.386 222.253L202.343 223.188L202.649 227.493L203.381 237.481Z" fill="#4D4D4D"/>
<path d="M202.326 223.188L200.386 222.253L224.564 208.301L226.504 209.236L202.326 223.188Z" fill="#737373"/>
<path d="M228.596 238.093L216.516 245.052L215.291 244.355L213.487 243.317L213.351 243.402L213.334 243.215L212.296 242.619L210.357 241.496L209.319 240.901L207.379 239.795L206.341 239.199L204.385 238.059L203.381 237.481L202.649 227.493L202.343 223.188L223.781 210.802L226.504 209.236L226.606 210.632L226.742 212.588L226.844 213.966L226.98 215.957L227.099 217.318L227.235 219.309L227.337 220.67V220.687L227.49 222.661L227.508 223.086L228.596 238.093Z" fill="#1F2125"/>
<path d="M206.341 239.199L204.384 238.059L203.585 226.966L203.381 224.022L205.32 224.958L205.388 225.928L206.341 239.199Z" fill="#4D4D4D"/>
<path d="M205.32 224.975L203.364 224.022L227.541 210.07L229.498 211.006L205.32 224.975Z" fill="#737373"/>
<path d="M231.54 239.318L219.051 246.533L216.516 245.052L215.291 244.355L213.487 243.317L213.351 243.402L213.334 243.215L212.296 242.619L210.357 241.496L209.319 240.901L207.379 239.795L206.341 239.199L205.388 225.928L205.32 224.958L224.002 214.171L229.481 211.023L229.583 212.384L229.736 214.358L229.838 215.736V215.753L229.975 217.71L230.077 219.105L230.23 221.079L230.485 224.805L231.54 239.318Z" fill="#1F2125"/>
<path d="M209.319 240.901L207.379 239.795L206.358 225.792L208.298 226.745L209.319 240.901Z" fill="#4D4D4D"/>
<path d="M208.298 226.744L206.358 225.809L230.536 211.84L232.476 212.775L208.298 226.744Z" fill="#737373"/>
<path d="M234.296 237.719L231.54 239.318L219.051 246.533L216.516 245.052L215.291 244.355L213.487 243.317L213.351 243.402L213.334 243.215L212.296 242.619L210.357 241.496L209.319 240.901L208.298 226.745L221.076 219.377L224.258 217.54L226.98 215.957L229.736 214.358L232.476 212.792L232.578 214.154L232.731 216.144L232.833 217.506L232.969 219.496L233.48 226.523L234.296 237.719Z" fill="#1F2125"/>
<path d="M212.296 242.619L210.357 241.496L209.336 227.561L211.275 228.514L212.296 242.619Z" fill="#4D4D4D"/>
<path d="M211.275 228.514L209.336 227.578L233.514 213.609L235.453 214.562L211.275 228.514Z" fill="#737373"/>
<path d="M237.036 236.154L234.296 237.719L231.54 239.318L219.051 246.533L216.516 245.052L215.291 244.355L213.487 243.317L213.351 243.402L213.334 243.215L212.296 242.619L211.275 228.514L224.087 221.113L224.496 220.891L227.235 219.309L229.975 217.71L232.731 216.144L235.453 214.562L235.555 215.923L235.708 217.914L236.457 228.242L237.036 236.154Z" fill="#1F2125"/>
<path d="M215.291 244.355L213.487 243.317L213.351 243.402L213.334 243.215L212.33 229.348L214.27 230.301L215.138 242.364L215.291 244.355Z" fill="#4D4D4D"/>
<path d="M214.27 230.284L212.33 229.348L236.491 215.396L238.448 216.332L214.27 230.284Z" fill="#737373"/>
<path d="M239.758 234.554L237.036 236.154L234.296 237.719L231.54 239.318L219.051 246.533L216.516 245.052L215.291 244.355L215.138 242.364L214.27 230.301L224.751 224.243L227.133 222.865L227.49 222.661L229.924 221.249L230.23 221.079L232.969 219.496L235.709 217.914L238.448 216.332L239.418 229.96L239.758 234.554Z" fill="#1F2125"/>
<path d="M221.076 239.012L224.564 239.335V240.884L218.694 240.373L224.564 233.091V234.639L221.076 238.995V239.012Z" fill="#F2F2F2"/>
<path d="M227.218 241.496L226.095 242.143C227.218 238.042 228.052 234.963 228.596 232.921L229.838 228.31L230.961 227.663L227.218 241.496Z" fill="#F2F2F2"/>
<path d="M235.725 230.573L232.22 230.25V228.718L238.108 229.212L232.22 236.511V234.946L235.725 230.59V230.573Z" fill="#F2F2F2"/>
<path d="M137.568 218.067L141.685 216.264L146.024 194.349L141.924 196.169L137.568 218.067Z" fill="#733118"/>
<path d="M142.366 193.906L146.483 192.086L150.941 169.575L146.824 171.379L142.366 193.906Z" fill="#733118"/>
<path d="M147.283 169.116L151.384 167.312L155.859 144.785L151.741 146.605L147.283 169.116Z" fill="#733118"/>
<path d="M175.698 213.082L179.815 211.278L146.483 192.085L142.366 193.906L175.698 213.082Z" fill="#AB512E"/>
<path d="M152.183 144.342L156.301 142.522L160.759 120.011L156.641 121.832L152.183 144.342Z" fill="#733118"/>
<path d="M180.615 188.308L184.716 186.488L151.384 167.312L147.283 169.116L180.615 188.308Z" fill="#AB512E"/>
<path d="M161.473 97.5179L165.574 95.7144L161.865 93.5024L157.747 95.323L161.473 97.5179Z" fill="#AB512E"/>
<path d="M157.101 119.569L161.218 117.748L165.574 95.7144L161.473 97.5179L157.101 119.569Z" fill="#733118"/>
<path d="M185.515 163.535L189.633 161.714L156.301 142.522L152.183 144.342L185.515 163.535Z" fill="#AB512E"/>
<path d="M190.432 138.761L194.55 136.941L161.218 117.748L157.101 119.569L190.432 138.761Z" fill="#AB512E"/>
<path d="M174.609 239.471L178.726 237.651L202.632 117.102L198.514 118.922L174.609 239.471Z" fill="#733118"/>
<path d="M133.859 215.872L137.585 218.084L141.923 196.169L175.255 215.362L170.917 237.277L174.626 239.489L198.514 118.939L194.805 116.727L190.432 138.779L157.101 119.586L161.473 97.5349L157.747 95.323L133.859 215.872ZM185.515 163.535L152.183 144.342L156.641 121.832L189.973 141.024L185.515 163.535ZM180.615 188.308L147.283 169.116L151.741 146.605L185.073 165.798L180.615 188.308ZM142.366 193.906L146.824 171.396L180.156 190.588L175.698 213.099L142.366 193.906Z" fill="#8C3C1D"/>
<path d="M198.514 118.922L202.632 117.102L198.923 114.89L194.805 116.71L198.514 118.922Z" fill="#AB512E"/>
<path d="M214.781 79.1079L217.248 77.4575L219.783 114.822L217.316 116.472L214.781 79.1079Z" fill="#BFBFBF"/>
<path d="M180.819 59.5071L183.286 57.8567L217.248 77.4576L214.78 79.108L180.819 59.5071Z" fill="white"/>
<path d="M214.78 79.108L217.316 116.472L183.354 96.8713L180.819 59.5071L214.78 79.108Z" fill="#D9D9D9"/>
<path d="M196.796 78.9889C196.779 78.8528 196.728 78.6827 196.592 78.6316C196.473 78.5806 196.337 78.6657 196.217 78.7337C195.792 79.04 195.469 79.4654 195.265 79.9418C195.282 79.3122 195.333 78.6486 195.486 78.0361C195.639 77.4066 195.809 76.777 195.962 76.1305C196.183 75.1436 196.337 74.1057 196.098 73.1189C196.013 72.7445 195.826 72.3362 195.452 72.2341C195.043 72.115 194.584 72.5234 194.652 72.9487C194.431 72.8977 194.142 72.8466 194.006 73.0338C193.92 73.1359 193.903 73.289 193.903 73.4421C193.903 74.0547 193.903 74.6672 193.903 75.2797C193.733 75.0756 193.461 74.8714 193.223 74.9905C192.985 75.1096 192.951 75.4329 192.968 75.6881C193.036 76.8961 193.223 78.1042 193.087 79.3122C193.019 79.8567 192.9 80.4012 192.729 80.9286C192.44 81.8304 191.028 84.7569 190.449 85.2504C189.224 86.3053 187.744 87.0029 186.264 87.6324C183.814 88.6703 181.262 89.436 178.743 90.2527C177.314 90.7121 175.902 91.2055 174.507 91.767C174.098 91.9371 173.775 91.8861 173.35 91.784C171.342 91.3246 169.368 90.678 167.582 89.6401C166.782 89.1807 166.033 88.6193 165.353 88.0067C164.417 87.139 163.804 85.8969 162.715 85.2163C161.439 84.4336 159.874 83.9232 158.666 85.1653C157.713 86.1351 157.747 87.7685 158.394 88.9596C159.023 90.1676 160.146 91.0183 161.235 91.835C165.132 94.7616 169.317 97.535 174.081 98.5218C174.234 98.5558 174.388 98.5899 174.524 98.5388C174.779 98.4708 174.932 98.2496 175.034 98.0114C175.153 98.1475 175.272 98.3006 175.408 98.4367C175.511 98.5388 175.63 98.6579 175.783 98.6749C175.936 98.709 176.089 98.6239 176.242 98.5558C177.825 97.7902 179.424 97.0415 180.972 96.1908C182.878 95.1529 184.733 93.9789 186.502 92.7198C187.404 92.0732 193.104 87.9897 193.988 87.4623C194.329 87.2581 194.669 87.0539 194.975 86.7987C195.094 86.7136 195.197 86.6115 195.265 86.4754C195.35 86.3393 195.367 86.1862 195.401 86.033C195.52 85.4375 195.707 84.842 195.775 84.2465C195.894 83.2256 195.894 82.1707 196.285 81.2009C196.422 80.8776 196.609 80.5543 196.711 80.231C196.847 79.8397 196.881 79.4313 196.83 79.023L196.796 78.9889Z" fill="#FFB78C"/>
<path d="M165.472 87.02C167.531 88.6704 169.862 89.9806 172.159 91.2907C172.227 91.3247 172.312 91.3928 172.329 91.4608C172.329 91.5119 172.329 91.5629 172.295 91.614C171.563 93.4175 170.508 95.153 168.943 96.31C168.466 96.6673 167.888 96.9736 167.292 97.0587C167.054 97.0927 166.68 97.1097 166.442 96.9906C166.22 96.8885 166.186 96.7184 166.084 96.4972C165.88 96.0548 165.659 95.6124 165.421 95.1871C164.944 94.3533 164.4 93.5707 163.787 92.839C162.681 91.5119 161.388 90.3379 160.47 88.8746C160.146 88.3642 159.874 87.8027 159.789 87.2072C159.721 86.7137 159.789 86.1693 160.01 85.7269C160.231 85.2505 160.231 84.9272 160.231 84.3827C160.231 84.3147 160.231 84.2466 160.282 84.2126C160.333 84.1445 160.435 84.1615 160.521 84.1785C161.439 84.3657 162.375 84.6379 163.175 85.1484C163.753 85.5057 164.247 85.9821 164.774 86.4415C165.012 86.6457 165.251 86.8499 165.489 87.037L165.472 87.02Z" fill="#4D4D4D"/>
<path d="M146.296 197.973C146.33 198.84 146.585 199.81 147.334 200.253C147.708 200.474 148.168 200.542 148.61 200.542C149.41 200.542 150.227 200.406 150.975 200.116C151.792 199.81 152.524 199.334 153.323 198.977C156.743 197.53 160.759 198.687 164.315 197.615C165.149 197.36 166.067 196.833 166.169 195.965C166.22 195.437 165.948 194.927 165.608 194.519C164.876 193.651 163.821 193.106 162.715 192.783C161.626 192.46 160.486 192.358 159.346 192.239C157.067 191.983 154.804 191.626 152.507 191.524C151.111 191.456 149.648 191.507 148.338 192.035C147.794 192.256 147.419 192.426 147.249 192.987C147.011 193.736 146.79 194.468 146.602 195.216C146.398 196.101 146.262 197.02 146.296 197.939V197.973Z" fill="#1F2125"/>
<path d="M157.628 124.486C157.883 122.632 158.053 120.743 157.679 118.905C157.526 118.14 157.305 116.796 156.539 116.472C155.637 116.081 154.616 115.962 153.647 116.064C152.507 116.183 151.401 116.574 150.363 117.085C148.542 117.987 146.909 119.263 145.667 120.845C143.608 123.499 142.706 126.885 143.285 130.22C143.557 131.854 144.203 133.385 144.646 134.95C145.088 136.499 145.156 138.03 145.088 139.646C145.02 141.654 144.714 143.645 144.493 145.653C144.084 149.447 143.965 153.258 143.982 157.069C143.982 159.009 144.016 160.949 144.067 162.888C144.118 164.913 143.574 166.717 143.234 168.673C142.519 172.74 143.438 176.619 144.425 180.533C145.463 184.701 146.143 188.938 146.926 193.141C146.96 193.362 147.011 193.6 147.147 193.787C147.283 193.974 147.504 194.093 147.726 194.178C148.866 194.655 150.159 194.621 151.35 194.349C152.541 194.076 153.681 193.549 154.787 193.039C153.715 188.394 153.272 183.629 153.085 178.882C152.966 176.007 152.949 173.114 152.932 170.239C152.932 168.793 152.932 167.363 152.915 165.917C152.915 165.271 152.847 164.59 152.915 163.943C152.915 163.858 152.932 163.79 152.949 163.705C153.051 163.144 153.238 162.616 153.357 162.055C153.511 161.289 153.477 160.387 152.932 159.826C152.932 159.826 152.915 159.826 152.898 159.809C153.579 159.52 154.242 159.213 154.872 158.856C154.974 158.805 155.059 158.737 155.127 158.652C155.195 158.567 155.212 158.448 155.246 158.346C155.842 155.402 156.029 152.39 155.808 149.396C155.705 147.984 155.365 146.622 155.229 145.21C155.076 143.662 155.093 142.114 155.178 140.565C155.518 135.138 156.862 129.846 157.594 124.452L157.628 124.486Z" fill="#BFBFBF"/>
<path d="M173.86 198.874C173.384 197.82 171.342 197.496 170.457 197.224C169.283 196.867 168.092 196.56 166.884 196.305C164.468 195.812 162.001 195.557 159.551 195.472C158.087 195.42 156.573 195.437 155.178 195.897C154.702 196.05 154.14 196.271 153.902 196.748C153.664 197.258 153.545 197.888 153.391 198.432C153.153 199.249 152.949 200.066 152.847 200.916C152.762 201.546 152.745 202.209 152.949 202.822C153.34 204.013 154.582 204.813 155.825 204.813C156.607 204.813 157.356 204.54 158.139 204.387C159.823 204.064 161.541 204.387 163.243 204.472C164.502 204.54 165.744 204.472 166.986 204.353C168.126 204.234 169.606 204.183 170.661 203.724C172.414 202.975 173.843 201.427 173.962 199.436C173.962 199.232 173.945 199.045 173.86 198.874Z" fill="#4D4D4D"/>
<path d="M168.024 118.752C167.139 120.113 165.251 120.369 163.634 120.216C160.521 119.892 157.594 118.531 155.025 116.727C154.293 116.217 153.579 115.673 152.711 115.468C150.193 114.907 149.291 117.408 148.304 119.11C146.926 121.509 145.616 124.027 145.054 126.749C144.408 129.846 144.782 133.147 146.075 136.022C146.705 137.417 147.555 138.71 148.032 140.157C148.9 142.76 148.542 145.601 148.219 148.324C147.607 153.377 147.147 158.482 147.436 163.569C147.385 164.811 147.504 166.087 147.641 167.329C147.777 168.639 147.913 169.949 148.032 171.26C148.372 174.56 148.883 177.691 149.835 180.856C150.652 183.612 151.758 186.284 152.371 189.074C153.017 192.018 153.102 195.029 153.46 198.024C153.477 198.177 153.494 198.33 153.596 198.449C153.698 198.585 153.868 198.636 154.038 198.67C156.012 199.164 158.173 198.857 159.942 197.837C160.606 197.445 161.269 196.867 161.32 196.101C161.32 195.795 161.252 195.506 161.167 195.199C158.853 187.049 158.326 178.253 159.023 169.83C159.194 167.857 160.01 166.189 160.725 164.369C161.474 162.429 162.205 160.489 162.869 158.516C164.196 154.551 165.285 150.502 165.812 146.35C166.357 142.216 166.357 138.013 166.884 133.878C167.463 129.352 168.654 124.878 168.569 120.335C168.569 119.739 168.484 119.076 168.041 118.701L168.024 118.752Z" fill="#F2F2F2"/>
<path d="M147.811 101.959C148.883 105.702 150.856 109.462 150.108 113.291C149.665 115.588 148.27 117.561 146.892 119.45C146.756 119.62 146.62 119.807 146.603 120.028C146.569 120.267 146.671 120.505 146.773 120.709C148.117 123.482 150.737 125.473 153.613 126.596C156.488 127.719 159.602 128.042 162.664 128.178C164.451 128.263 166.323 128.263 167.905 127.43C168.875 121.219 169.453 114.941 169.675 108.663C169.709 107.574 169.743 106.468 170.117 105.447C170.695 103.915 172.023 102.673 172.193 101.04C172.346 99.5087 171.444 98.0964 170.525 96.8714C166.986 92.1753 162.716 88.0918 158.445 84.0423C157.186 82.8513 155.91 81.6432 154.446 80.7074C153.579 80.1629 152.728 80.197 151.86 80.7925C151.299 81.1838 150.873 81.7283 150.499 82.3068C149.818 83.3447 149.308 84.4847 148.866 85.6417C148.849 85.6927 148.832 85.7438 148.798 85.7948C146.79 91.0013 146.262 96.5141 147.811 101.925V101.959Z" fill="#1F2125"/>
<path d="M151.128 81.0818C151.026 81.5072 150.992 82.0006 151.247 82.3579C151.537 82.7493 152.081 82.8513 152.558 82.9364C154.77 83.3448 156.896 84.4507 158.326 86.1692C158.87 86.8158 159.329 87.5644 160.01 88.0919C160.35 88.3471 160.776 88.5513 161.184 88.4832C162.256 88.3301 161.78 87.3092 161.78 86.6286C161.78 85.6588 162.035 84.6379 162.188 83.6851C162.494 81.7284 162.903 79.7887 163.379 77.866C162.562 77.6619 161.814 77.2195 161.099 76.7771C159.993 76.1135 158.87 75.45 157.832 74.6673C157.22 74.2079 156.641 73.7315 155.944 73.4252C155.229 73.1189 154.446 73.0339 153.681 73.0509C153.034 73.0509 152.37 72.9658 152.098 73.6974C151.979 74.0207 151.979 74.395 151.979 74.7523C151.979 76.0965 151.962 77.4407 151.724 78.7678C151.605 79.4484 151.384 80.078 151.196 80.7245C151.162 80.8266 151.128 80.9457 151.111 81.0648L151.128 81.0818Z" fill="#FFB78C"/>
<path d="M168.586 68.9672C168.654 69.2905 168.705 69.6138 168.603 69.92C168.535 70.1242 168.398 70.2943 168.347 70.4985C168.279 70.8218 168.432 71.1281 168.586 71.4173C169.079 72.3191 169.555 73.2039 170.049 74.1056C169.624 74.6841 168.705 74.6671 168.262 75.2286C168.024 75.5008 167.956 75.8752 167.888 76.2325C167.616 77.7127 167.361 79.193 167.088 80.6733C165.642 81.0136 164.179 81.2858 162.699 81.473C162.341 81.524 161.984 81.5581 161.644 81.422C161.354 81.3029 161.15 81.0817 160.946 80.8605C160.436 80.299 159.993 79.6694 159.636 79.0059C159.466 78.6996 159.296 78.3763 158.989 78.2062C158.717 78.0701 158.394 78.0871 158.088 78.1041C154.685 78.2742 151.248 76.3175 149.767 73.2549C148.287 70.1923 148.917 66.2108 151.333 63.8288C153.136 62.0592 155.688 61.2255 158.224 61.0724C160.044 60.9703 161.882 61.1915 163.583 61.838C164.451 62.1613 165.268 62.6037 166.016 63.1482C166.85 63.7607 167.156 64.5264 167.531 65.4792C167.973 66.6022 168.33 67.7592 168.586 68.9502V68.9672Z" fill="#FFE5CC"/>
<path d="M159.5 72.6084C158.428 73.204 159.398 74.8033 159.772 75.603C160.197 76.4878 160.589 77.4066 160.793 78.3594C160.946 79.1081 161.065 80.0949 160.793 80.8265C160.589 81.371 160.044 81.7794 159.551 82.1026C158.972 82.477 158.309 82.7492 157.645 82.9534C154.991 83.7361 152.03 83.4978 149.546 82.2898C147.777 81.4221 146.245 80.0779 145.156 78.4275C144.663 77.6958 144.067 76.8621 144.152 75.9603C144.255 74.8374 144.68 73.6634 144.969 72.5744C145.633 70.0903 146.603 67.6742 148.083 65.5814C149.563 63.4716 151.554 61.702 153.919 60.7152C157.39 59.2859 161.541 58.9797 164.706 61.3447C165.285 61.7701 165.812 62.2975 166.135 62.9271C166.952 64.5605 165.999 67.2658 165.268 68.7801C164.434 70.4986 162.886 72.0129 160.997 72.2852C160.504 72.3532 159.976 72.3532 159.551 72.6084H159.5Z" fill="#733118"/>
<path d="M203.619 80.5542C203.568 80.4521 203.5 80.35 203.398 80.316C203.296 80.2649 203.159 80.316 203.125 80.4181C203.262 79.193 203.21 77.9339 202.989 76.7089C202.955 76.5557 202.921 76.3856 202.819 76.2495C202.717 76.1304 202.53 76.0453 202.394 76.1304C202.275 76.1984 202.224 76.3516 202.087 76.4196C201.985 76.4707 201.866 76.4196 201.764 76.4196C201.356 76.4026 201.067 76.794 200.879 77.1513C199.161 80.1629 197.8 83.3616 196.813 86.6965C196.575 87.4962 196.439 88.432 196.405 89.2657C196.405 89.4699 196.405 89.6571 196.354 89.8442C196.319 89.9803 196.251 90.0994 196.183 90.2185C195.996 90.5929 185.617 101.193 184.715 101.806C184.579 101.891 184.46 101.976 184.324 102.061C182.81 101.312 181.142 100.87 179.594 100.172C176.582 98.794 174.166 96.3779 171.563 94.3361C169.981 93.094 168.279 91.954 166.374 91.2735C165.489 90.9502 164.519 90.695 163.566 90.6609C162.886 90.6609 162.528 90.9672 162.052 91.4096C161.269 92.1582 160.606 93.009 160.18 94.0128C159.687 95.1528 159.449 96.4629 159.891 97.637C160.299 98.7599 161.031 99.7638 161.899 100.598C163.073 101.72 164.485 102.537 165.897 103.32C171.342 106.297 177.11 108.714 183.099 110.313C183.78 110.5 184.494 110.67 185.175 110.534C187.676 110.075 196.541 97.7731 199.331 93.9958C200.488 92.8899 201.441 91.5627 202.036 90.0654C202.343 89.3168 202.564 88.5511 202.768 87.7684C203.091 86.5944 203.415 85.4034 203.704 84.2124C203.857 83.5828 204.01 82.9533 204.01 82.3067C204.01 81.6942 203.874 81.0646 203.568 80.5372L203.619 80.5542Z" fill="#FFE5CC"/>
<path d="M170.831 105.753C172.074 104.46 173.316 103.133 174.302 101.619C175.017 100.513 176.276 98.5219 175.596 97.1607C175.511 96.9736 175.357 96.8374 175.204 96.7013C172.635 94.2342 169.674 92.1584 166.493 90.576C165.863 90.2698 165.234 89.9805 164.57 89.8104C163.345 89.4871 162.035 89.5892 160.81 89.8784C160.384 89.9805 159.976 90.0996 159.602 90.3038C157.322 91.6139 157.305 95.204 157.985 97.3649C158.768 99.8831 160.64 101.959 162.886 103.337C165.132 104.715 167.701 105.481 170.287 105.94C170.372 105.94 170.457 105.974 170.542 105.94C170.661 105.906 170.746 105.821 170.831 105.736V105.753Z" fill="#4D4D4D"/>
</g>
<defs>
<clipPath id="clip0_1017_6535">
<rect width="152.945" height="264" fill="white" transform="translate(131.527 0.5)"/>
</clipPath>
</defs>
</svg>
