<svg width="220" height="186" viewBox="0 0 220 186" fill="none" xmlns="http://www.w3.org/2000/svg">
<path d="M110 186C170.475 186 219.5 180.627 219.5 174C219.5 167.373 170.475 162 110 162C49.5248 162 0.5 167.373 0.5 174C0.5 180.627 49.5248 186 110 186Z" fill="#F5F5F5"/>
<path d="M161.539 8.73583V162.668C161.539 167.493 157.629 171.403 152.803 171.403H76.1484C73.724 171.403 71.5321 170.417 69.9487 168.824C68.3815 167.243 67.4126 165.069 67.4126 162.668V8.73583C67.4126 3.91017 71.3228 0 76.1484 0H152.803C154.23 0 155.576 0.341493 156.766 0.94841C159.6 2.3926 161.539 5.33655 161.539 8.73583Z" fill="#263238"/>
<path d="M158.285 8.73583V162.668C158.285 167.493 154.375 171.403 149.549 171.403H72.894C70.4696 171.403 68.2777 170.417 66.6943 168.824C65.1271 167.243 64.1582 165.069 64.1582 162.668V8.73583C64.1582 3.91017 68.0684 0 72.894 0H149.549C150.975 0 152.322 0.341493 153.511 0.94841C156.345 2.3926 158.285 5.33655 158.285 8.73583Z" fill="#1E282D"/>
<path d="M159.941 37.8584H161.15C162.278 37.8584 163.192 36.9446 163.192 35.817V25.9979C163.192 24.8704 162.278 23.9565 161.15 23.9565H159.941V37.8584Z" fill="#C6D7FF"/>
<path d="M64.1577 37.8584H63.2104C62.3267 37.8584 61.6108 37.142 61.6108 36.2589V25.5561C61.6108 24.673 62.3267 23.9565 63.2104 23.9565H64.1577V37.8584Z" fill="#407BFF"/>
<path d="M64.1577 56.0962H63.2104C62.3267 56.0962 61.6108 55.3798 61.6108 54.4967V43.7939C61.6108 42.9102 62.3267 42.1943 63.2104 42.1943H64.1577V56.0962Z" fill="#407BFF"/>
<path d="M153.926 8.20657V163.195C153.926 165.326 152.201 167.044 150.077 167.044H72.3653C70.7743 167.044 69.4105 166.081 68.8219 164.702C68.6256 164.238 68.5166 163.729 68.5166 163.195V8.20657C68.5166 6.08263 70.2402 4.35791 72.3653 4.35791H150.077C150.33 4.35791 150.577 4.38165 150.814 4.42804C151.084 4.47929 151.343 4.55968 151.589 4.66488C152.775 5.17792 153.656 6.26552 153.873 7.57484C153.908 7.77984 153.926 7.99131 153.926 8.20657Z" fill="#C6D7FF"/>
<path d="M107.645 52.165H68.7622V120.965H107.645V52.165Z" fill="#3362CC"/>
<path d="M119.765 46.8078V118.299C119.765 121.6 117.606 124.419 114.629 125.413C113.885 125.662 113.09 125.797 112.266 125.797C108.141 125.797 104.768 122.424 104.768 118.299V46.8078C104.768 42.6829 108.141 39.3096 112.266 39.3096C113.09 39.3096 113.885 39.445 114.629 39.6937C115.744 40.0654 116.747 40.696 117.562 41.5117C118.922 42.8718 119.765 44.7454 119.765 46.8078Z" fill="#407BFF"/>
<path d="M119.764 46.8085V118.299C119.764 121.601 117.605 124.419 114.628 125.414C111.651 124.419 109.492 121.601 109.492 118.299V46.8085C109.492 43.5074 111.651 40.6886 114.628 39.6943C115.744 40.066 116.746 40.6967 117.562 41.5124C118.922 42.8724 119.764 44.746 119.764 46.8085Z" fill="#1E282D"/>
<path d="M116.626 53.0226V112.19C116.626 114.85 114.467 117.007 111.806 117.007H11.3268C10.1292 117.007 9.03027 116.568 8.1876 115.845C7.16043 114.962 6.50928 113.651 6.50928 112.19V53.0226C6.50928 50.3625 8.66613 48.2051 11.3268 48.2051H111.806C114.467 48.2051 116.626 50.3625 116.626 53.0226Z" fill="#C6D7FF"/>
<path d="M116.625 60.3706H6.50928V73.4843H116.625V60.3706Z" fill="#407BFF"/>
<path d="M106.382 108.117H85.0575C83.7935 108.117 82.769 107.093 82.769 105.829V101.332C82.769 100.068 83.7935 99.0439 85.0575 99.0439H106.382C107.646 99.0439 108.67 100.068 108.67 101.332V105.829C108.67 107.093 107.646 108.117 106.382 108.117Z" fill="#F4F7FF"/>
<path d="M20.7359 89.0395H13.4772C13.1583 89.0395 12.8999 88.7811 12.8999 88.4623V84.6676C12.8999 84.3487 13.1583 84.0903 13.4772 84.0903H20.7359C21.0547 84.0903 21.3131 84.3487 21.3131 84.6676V88.4623C21.3137 88.7811 21.0547 89.0395 20.7359 89.0395Z" fill="#F4F7FF"/>
<path d="M35.5567 89.0395H28.2979C27.9791 89.0395 27.7207 88.7811 27.7207 88.4623V84.6676C27.7207 84.3487 27.9791 84.0903 28.2979 84.0903H35.5567C35.8755 84.0903 36.1339 84.3487 36.1339 84.6676V88.4623C36.1339 88.7811 35.8755 89.0395 35.5567 89.0395Z" fill="#F4F7FF"/>
<path d="M50.377 89.0395H43.1183C42.7994 89.0395 42.541 88.7811 42.541 88.4623V84.6676C42.541 84.3487 42.7994 84.0903 43.1183 84.0903H50.377C50.6958 84.0903 50.9542 84.3487 50.9542 84.6676V88.4623C50.9542 88.7811 50.6958 89.0395 50.377 89.0395Z" fill="#F4F7FF"/>
<path d="M65.1968 89.0395H57.9381C57.6193 89.0395 57.3608 88.7811 57.3608 88.4623V84.6676C57.3608 84.3487 57.6193 84.0903 57.9381 84.0903H65.1968C65.5156 84.0903 65.7741 84.3487 65.7741 84.6676V88.4623C65.7741 88.7811 65.5156 89.0395 65.1968 89.0395Z" fill="#F4F7FF"/>
<path d="M80.0166 89.0395H72.7579C72.4391 89.0395 72.1807 88.7811 72.1807 88.4623V84.6676C72.1807 84.3487 72.4391 84.0903 72.7579 84.0903H80.0166C80.3355 84.0903 80.5939 84.3487 80.5939 84.6676V88.4623C80.5944 88.7811 80.3355 89.0395 80.0166 89.0395Z" fill="#F4F7FF"/>
<path d="M94.8374 89.0395H87.5787C87.2599 89.0395 87.0015 88.7811 87.0015 88.4623V84.6676C87.0015 84.3487 87.2599 84.0903 87.5787 84.0903H94.8374C95.1563 84.0903 95.4147 84.3487 95.4147 84.6676V88.4623C95.4147 88.7811 95.1563 89.0395 94.8374 89.0395Z" fill="#F4F7FF"/>
<path d="M109.657 89.0395H102.399C102.08 89.0395 101.821 88.7811 101.821 88.4623V84.6676C101.821 84.3487 102.08 84.0903 102.399 84.0903H109.657C109.976 84.0903 110.235 84.3487 110.235 84.6676V88.4623C110.235 88.7811 109.976 89.0395 109.657 89.0395Z" fill="#F4F7FF"/>
<path d="M116.625 53.4219H6.50928V55.9359H116.625V53.4219Z" fill="#F4F7FF"/>
<path d="M23.9825 109.41H16.638C14.5734 109.41 12.8999 107.737 12.8999 105.672V98.3279C12.8999 96.2633 14.5734 94.5898 16.638 94.5898H23.9825C26.0471 94.5898 27.7205 96.2633 27.7205 98.3279V105.672C27.7205 107.737 26.0471 109.41 23.9825 109.41Z" fill="#F4F7FF"/>
<path d="M77.9518 105.622H32.5382C31.8299 105.622 31.2559 105.048 31.2559 104.34V102.821C31.2559 102.113 31.8299 101.539 32.5382 101.539H77.9518C78.6601 101.539 79.2341 102.113 79.2341 102.821V104.34C79.2341 105.048 78.6601 105.622 77.9518 105.622Z" fill="#F4F7FF"/>
<path opacity="0.2" d="M75.8267 48.2051L8.1876 115.844C7.16043 114.961 6.50928 113.65 6.50928 112.19V91.4326L49.7368 48.2051H75.8267Z" fill="white"/>
<path opacity="0.2" d="M111.601 48.2051L42.7994 117.007H30.0337L98.8359 48.2051H111.601Z" fill="white"/>
<path d="M173.695 170.259C173.695 170.279 173.695 170.299 173.695 170.319C173.695 171.056 173.302 171.766 172.577 172.427C172.4 172.589 172.203 172.747 171.987 172.903C171.384 173.339 170.633 173.749 169.754 174.13C169.563 174.213 169.366 174.294 169.164 174.373C168.483 174.642 167.736 174.892 166.931 175.124C166.738 175.18 166.542 175.235 166.342 175.288C165.636 175.477 164.89 175.652 164.108 175.811C163.913 175.851 163.717 175.889 163.518 175.926C162.801 176.062 162.055 176.185 161.284 176.294C161.09 176.322 160.893 176.348 160.695 176.375C159.97 176.469 159.225 176.552 158.461 176.621C158.265 176.639 158.069 176.657 157.872 176.672C157.142 176.732 156.397 176.78 155.639 176.816C155.443 176.825 155.247 176.833 155.049 176.84C154.315 176.868 153.571 176.885 152.816 176.889C152.685 176.89 152.553 176.89 152.421 176.89C152.357 176.89 152.291 176.89 152.227 176.89C151.472 176.888 150.727 176.874 149.993 176.848C149.795 176.841 149.599 176.833 149.403 176.825C148.845 176.801 148.293 176.769 147.749 176.732C147.555 176.718 147.361 176.704 147.17 176.689C146.973 176.674 146.776 176.657 146.58 176.639C145.817 176.572 145.072 176.493 144.347 176.401C144.149 176.375 143.953 176.35 143.758 176.323C143.296 176.259 142.843 176.19 142.399 176.117C142.103 176.068 141.812 176.017 141.524 175.964C141.326 175.927 141.129 175.889 140.935 175.851C140.153 175.696 139.407 175.525 138.701 175.341C138.561 175.305 138.423 175.267 138.286 175.23C138.228 175.214 138.169 175.198 138.111 175.181C137.792 175.092 137.48 174.999 137.18 174.903C136.724 174.758 136.29 174.607 135.878 174.451C135.676 174.373 135.479 174.295 135.288 174.215C134.535 173.899 133.871 173.562 133.307 173.207C133.221 173.152 133.136 173.097 133.055 173.041C132.952 172.972 132.854 172.903 132.76 172.832C132.657 172.756 132.56 172.678 132.466 172.6C131.614 171.89 131.148 171.121 131.148 170.319C131.148 170.263 131.151 170.207 131.157 170.15L131.159 165.61L132.466 165.608L133.056 165.607L135.289 165.604L135.879 165.603L137.622 165.6L138.112 165.599L138.702 165.598L140.936 165.595L141.525 165.594L143.759 165.591L144.348 165.59L146.581 165.586L147.171 165.586L149.404 165.583L149.994 165.582L152.228 165.578L152.817 165.577L155.051 165.574L155.64 165.573L157.873 165.57L158.463 165.569L160.696 165.565L161.286 165.565L163.519 165.562L164.109 165.56L166.343 165.557L166.933 165.556H167.078L169.166 165.553L169.755 165.552L171.989 165.549L172.578 165.548L173.689 165.546L173.697 170.259H173.695V170.259Z" fill="#407BFF"/>
<path d="M133.056 165.606V173.041C132.954 172.971 132.856 172.902 132.762 172.831C132.659 172.755 132.561 172.677 132.467 172.599V165.607L133.056 165.606Z" fill="#3362CC"/>
<path d="M135.879 165.603V174.451C135.676 174.373 135.48 174.295 135.289 174.215V165.604L135.879 165.603Z" fill="#3362CC"/>
<path d="M138.702 165.598V175.34C138.563 175.304 138.425 175.267 138.288 175.23C138.229 175.213 138.171 175.197 138.112 175.18V165.599L138.702 165.598Z" fill="#3362CC"/>
<path d="M141.525 165.594V175.963C141.327 175.926 141.13 175.888 140.936 175.849V165.594H141.525Z" fill="#3362CC"/>
<path d="M144.348 165.59V176.4C144.149 176.375 143.954 176.35 143.758 176.322V165.591L144.348 165.59Z" fill="#3362CC"/>
<path d="M147.171 165.586V176.688C146.973 176.673 146.777 176.657 146.581 176.639V165.586L147.171 165.586Z" fill="#3362CC"/>
<path d="M149.993 165.582V176.848C149.796 176.841 149.6 176.834 149.404 176.825V165.583L149.993 165.582Z" fill="#3362CC"/>
<path d="M152.817 165.577V176.889C152.686 176.89 152.554 176.89 152.423 176.89C152.358 176.89 152.293 176.89 152.228 176.89V165.578L152.817 165.577Z" fill="#3362CC"/>
<path d="M155.639 165.573V176.815C155.444 176.825 155.247 176.833 155.05 176.84V165.574L155.639 165.573Z" fill="#3362CC"/>
<path d="M158.463 165.569V176.622C158.267 176.639 158.07 176.657 157.873 176.672V165.57L158.463 165.569Z" fill="#3362CC"/>
<path d="M161.285 165.565V176.294C161.091 176.322 160.894 176.349 160.696 176.375V165.565L161.285 165.565Z" fill="#3362CC"/>
<path d="M164.108 165.561V175.811C163.914 175.851 163.717 175.889 163.518 175.926V165.562L164.108 165.561Z" fill="#3362CC"/>
<path d="M166.931 165.557V175.125C166.738 175.18 166.541 175.235 166.341 175.289V165.558L166.931 165.557Z" fill="#3362CC"/>
<path d="M169.754 165.553V174.13C169.563 174.213 169.366 174.294 169.164 174.373V165.553L169.754 165.553Z" fill="#3362CC"/>
<path d="M172.577 165.548V172.427C172.4 172.589 172.203 172.747 171.987 172.903V165.548H172.577Z" fill="#3362CC"/>
<path d="M173.69 165.604C173.69 168.939 164.171 171.643 152.424 171.643C150.819 171.643 149.255 171.592 147.752 171.497C145.862 171.376 144.066 171.185 142.404 170.932C140.919 170.706 139.54 170.432 138.293 170.117C137.912 170.021 137.543 169.92 137.187 169.816C135.623 169.36 134.312 168.834 133.316 168.257C133.121 168.144 132.938 168.03 132.769 167.913C131.73 167.201 131.157 166.421 131.157 165.604C131.157 165.529 131.163 165.454 131.174 165.379C131.587 162.148 140.943 159.563 152.424 159.563C155.249 159.563 157.946 159.72 160.412 160.004C160.888 160.059 161.356 160.119 161.814 160.183C163.817 160.463 165.642 160.83 167.227 161.267C167.577 161.363 167.915 161.463 168.24 161.565C169.398 161.931 170.401 162.337 171.22 162.775C172.064 163.227 172.712 163.713 173.132 164.223C173.439 164.596 173.624 164.982 173.674 165.379C173.686 165.454 173.69 165.529 173.69 165.604Z" fill="#C6D7FF"/>
<path opacity="0.3" d="M173.133 164.224L147.753 171.497C145.863 171.377 144.067 171.185 142.405 170.932L171.221 162.776C172.064 163.228 172.713 163.713 173.133 164.224Z" fill="white"/>
<path opacity="0.3" d="M161.814 160.184L133.316 168.257C133.121 168.145 132.938 168.03 132.769 167.913L160.411 160.004C160.888 160.059 161.356 160.119 161.814 160.184Z" fill="white"/>
<path opacity="0.3" d="M168.241 161.566L138.293 170.117C137.912 170.021 137.543 169.921 137.188 169.817L167.228 161.268C167.577 161.364 167.915 161.464 168.241 161.566Z" fill="white"/>
<path d="M169.422 165.605C169.422 165.679 169.415 165.753 169.405 165.826C168.995 168.386 161.536 170.432 152.424 170.432C143.312 170.432 135.853 168.386 135.443 165.826C135.433 165.753 135.426 165.679 135.426 165.605C135.426 162.943 143.051 160.777 152.423 160.777C161.797 160.777 169.422 162.943 169.422 165.605Z" fill="#3362CC"/>
<path d="M169.405 165.826C168.995 168.386 161.536 170.432 152.424 170.432C152.22 170.432 152.018 170.431 151.817 170.429C149.784 170.409 147.842 170.287 146.05 170.08C144.256 169.873 142.615 169.582 141.188 169.224C140.825 169.132 140.476 169.037 140.139 168.938C138.617 168.484 137.398 167.948 136.584 167.354C136.387 167.212 136.214 167.066 136.067 166.918C135.716 166.568 135.505 166.202 135.444 165.826C135.854 163.266 143.313 161.219 152.425 161.219C153.578 161.219 154.704 161.252 155.795 161.315C156.35 161.347 156.898 161.386 157.434 161.433C159.623 161.625 161.625 161.94 163.339 162.349C163.709 162.437 164.068 162.53 164.411 162.628C165.747 163.005 166.864 163.445 167.701 163.931C168.516 164.404 169.066 164.92 169.299 165.464C169.351 165.583 169.386 165.704 169.405 165.826Z" fill="#407BFF"/>
<path opacity="0.2" d="M169.299 165.464L151.817 170.429C149.784 170.409 147.842 170.287 146.049 170.08L167.7 163.931C168.516 164.404 169.066 164.92 169.299 165.464Z" fill="white"/>
<path opacity="0.2" d="M157.433 161.434L136.584 167.354C136.387 167.213 136.214 167.066 136.067 166.918L155.795 161.315C156.349 161.347 156.897 161.387 157.433 161.434Z" fill="white"/>
<path opacity="0.2" d="M164.411 162.629L141.187 169.225C140.824 169.134 140.476 169.039 140.139 168.939L163.338 162.35C163.709 162.438 164.067 162.531 164.411 162.629Z" fill="white"/>
<path d="M154.788 168.343V169.145H151.2V168.379C148.656 168.336 146.188 168.141 144.662 167.874L146.595 166.631C148.275 166.912 150.513 167.093 152.472 167.093C154.177 167.093 154.788 166.991 154.788 166.818C154.788 166.183 144.942 166.695 144.942 164.81C144.942 163.994 147.028 163.307 151.2 163.141V162.353H154.788V163.126C156.67 163.177 158.502 163.314 159.952 163.545L158.146 164.781C156.39 164.528 154.737 164.405 153.185 164.405C151.429 164.405 150.869 164.55 150.869 164.723C150.869 165.33 160.716 164.824 160.716 166.688C160.716 167.469 158.731 168.148 154.788 168.343Z" fill="#3362CC"/>
<path d="M154.683 168.076V168.878H151.095V168.112C148.551 168.069 146.083 167.874 144.557 167.606L146.49 166.363C148.17 166.645 150.408 166.825 152.367 166.825C154.072 166.825 154.683 166.724 154.683 166.551C154.683 165.915 144.837 166.428 144.837 164.542C144.837 163.725 146.923 163.039 151.095 162.873V162.085H154.683V162.859C156.565 162.909 158.397 163.046 159.848 163.278L158.042 164.513C156.286 164.26 154.633 164.137 153.08 164.137C151.325 164.137 150.765 164.282 150.765 164.455C150.765 165.062 160.611 164.556 160.611 166.42C160.611 167.201 158.626 167.881 154.683 168.076Z" fill="#C6D7FF"/>
<path d="M175.031 162.809C175.032 162.829 175.032 162.849 175.032 162.869C175.032 163.606 174.638 164.315 173.913 164.976C173.736 165.138 173.539 165.297 173.324 165.452C172.72 165.887 171.97 166.298 171.09 166.679C170.9 166.762 170.703 166.843 170.501 166.922C169.819 167.191 169.072 167.442 168.267 167.674C168.074 167.729 167.878 167.784 167.677 167.838C166.972 168.027 166.226 168.201 165.444 168.36C165.249 168.4 165.053 168.439 164.854 168.476C164.137 168.612 163.391 168.735 162.62 168.844C162.426 168.872 162.229 168.898 162.031 168.925C161.306 169.019 160.561 169.102 159.797 169.171C159.601 169.189 159.405 169.206 159.208 169.222C158.478 169.282 157.733 169.329 156.974 169.365C156.779 169.375 156.582 169.383 156.385 169.39C155.651 169.418 154.906 169.435 154.151 169.439C154.02 169.439 153.888 169.44 153.757 169.44C153.692 169.44 153.627 169.44 153.562 169.439C152.807 169.438 152.062 169.424 151.328 169.398C151.131 169.391 150.934 169.383 150.738 169.375C150.18 169.35 149.628 169.319 149.084 169.281C148.89 169.267 148.697 169.253 148.505 169.238C148.308 169.223 148.112 169.206 147.916 169.189C147.153 169.122 146.407 169.042 145.682 168.95C145.484 168.925 145.287 168.899 145.093 168.872C144.631 168.808 144.178 168.74 143.734 168.666C143.438 168.617 143.147 168.566 142.859 168.513C142.661 168.476 142.464 168.438 142.27 168.4C141.488 168.245 140.742 168.074 140.036 167.89C139.896 167.854 139.758 167.817 139.621 167.779C139.562 167.763 139.504 167.747 139.446 167.73C139.127 167.641 138.816 167.548 138.515 167.452C138.059 167.307 137.625 167.156 137.214 167C137.011 166.922 136.815 166.844 136.624 166.764C135.87 166.449 135.206 166.111 134.643 165.756C134.556 165.701 134.471 165.646 134.39 165.591C134.288 165.522 134.19 165.452 134.096 165.381C133.993 165.305 133.895 165.227 133.801 165.149C132.949 164.439 132.484 163.67 132.484 162.869C132.484 162.812 132.487 162.756 132.492 162.7L132.494 158.159L133.801 158.157L134.391 158.156L136.624 158.153L137.214 158.152L138.957 158.149L139.448 158.149L140.037 158.147L142.271 158.144L142.861 158.144L145.094 158.14L145.683 158.139L147.917 158.136L148.506 158.135L150.739 158.132L151.329 158.131L153.563 158.128L154.153 158.126L156.386 158.123L156.976 158.123L159.209 158.119L159.799 158.118L162.032 158.115L162.622 158.114L164.855 158.111L165.445 158.11L167.679 158.107L168.269 158.105H168.414L170.502 158.102L171.092 158.102L173.325 158.098L173.915 158.097L175.025 158.096L175.031 162.809Z" fill="#407BFF"/>
<path d="M134.392 158.156V165.591C134.29 165.522 134.192 165.452 134.098 165.382C133.995 165.305 133.897 165.227 133.803 165.149V158.157L134.392 158.156Z" fill="#3362CC"/>
<path d="M137.215 158.151V166.999C137.013 166.922 136.816 166.844 136.625 166.764V158.152L137.215 158.151Z" fill="#3362CC"/>
<path d="M140.038 158.147V167.889C139.899 167.853 139.761 167.816 139.624 167.779C139.565 167.763 139.507 167.747 139.449 167.73V158.148L140.038 158.147Z" fill="#3362CC"/>
<path d="M142.863 158.144V168.513C142.664 168.477 142.467 168.438 142.273 168.4V158.145L142.863 158.144Z" fill="#3362CC"/>
<path d="M145.684 158.14V168.95C145.486 168.924 145.289 168.899 145.095 168.872V158.14L145.684 158.14Z" fill="#3362CC"/>
<path d="M148.508 158.135V169.238C148.31 169.223 148.114 169.206 147.918 169.188V158.136L148.508 158.135Z" fill="#3362CC"/>
<path d="M151.33 158.131V169.397C151.133 169.39 150.937 169.383 150.741 169.374V158.132L151.33 158.131Z" fill="#3362CC"/>
<path d="M154.154 158.126V169.438C154.022 169.439 153.89 169.439 153.759 169.439C153.694 169.439 153.629 169.439 153.564 169.439V158.128L154.154 158.126Z" fill="#3362CC"/>
<path d="M156.976 158.124V169.366C156.781 169.375 156.584 169.384 156.387 169.391V158.124L156.976 158.124Z" fill="#3362CC"/>
<path d="M159.799 158.119V169.171C159.603 169.189 159.406 169.206 159.209 169.222V158.119L159.799 158.119Z" fill="#3362CC"/>
<path d="M162.622 158.115V168.844C162.428 168.872 162.231 168.898 162.033 168.925V158.115L162.622 158.115Z" fill="#3362CC"/>
<path d="M165.445 158.11V168.361C165.251 168.401 165.055 168.439 164.855 168.476V158.112L165.445 158.11Z" fill="#3362CC"/>
<path d="M168.268 158.106V167.674C168.075 167.73 167.878 167.785 167.678 167.838V158.107L168.268 158.106Z" fill="#3362CC"/>
<path d="M171.091 158.103V166.68C170.9 166.763 170.703 166.844 170.501 166.923V158.103L171.091 158.103Z" fill="#3362CC"/>
<path d="M173.913 158.098V164.976C173.736 165.138 173.539 165.297 173.324 165.452V158.098H173.913Z" fill="#3362CC"/>
<path d="M175.027 158.153C175.027 161.488 165.508 164.193 153.76 164.193C152.156 164.193 150.592 164.142 149.089 164.047C147.199 163.926 145.404 163.735 143.741 163.482C142.256 163.256 140.877 162.982 139.63 162.667C139.248 162.571 138.879 162.47 138.524 162.366C136.96 161.91 135.648 161.384 134.653 160.807C134.458 160.694 134.274 160.58 134.106 160.463C133.067 159.752 132.494 158.972 132.494 158.154C132.494 158.079 132.5 158.004 132.511 157.929C132.924 154.698 142.28 152.114 153.761 152.114C156.586 152.114 159.283 152.27 161.749 152.554C162.225 152.609 162.693 152.668 163.151 152.733C165.155 153.013 166.979 153.38 168.564 153.817C168.914 153.913 169.252 154.013 169.578 154.115C170.736 154.481 171.739 154.887 172.558 155.325C173.401 155.776 174.049 156.262 174.47 156.773C174.776 157.146 174.961 157.532 175.011 157.929C175.023 158.004 175.027 158.079 175.027 158.153Z" fill="#C6D7FF"/>
<path opacity="0.3" d="M174.469 156.774L149.089 164.047C147.198 163.927 145.403 163.735 143.74 163.482L172.557 155.326C173.4 155.778 174.048 156.263 174.469 156.774Z" fill="white"/>
<path opacity="0.3" d="M163.15 152.733L134.652 160.807C134.457 160.694 134.273 160.58 134.104 160.463L161.748 152.555C162.224 152.609 162.692 152.669 163.15 152.733Z" fill="white"/>
<path opacity="0.3" d="M169.577 154.116L139.629 162.667C139.248 162.571 138.879 162.471 138.523 162.367L168.564 153.817C168.913 153.914 169.251 154.014 169.577 154.116Z" fill="white"/>
<path d="M170.758 158.154C170.758 158.228 170.751 158.303 170.741 158.376C170.331 160.935 162.873 162.982 153.76 162.982C144.648 162.982 137.189 160.935 136.779 158.376C136.77 158.303 136.763 158.229 136.763 158.154C136.763 155.493 144.388 153.327 153.76 153.327C163.134 153.327 170.758 155.492 170.758 158.154Z" fill="#3362CC"/>
<path d="M170.742 158.375C170.332 160.935 162.873 162.981 153.76 162.981C153.557 162.981 153.355 162.979 153.153 162.978C151.121 162.957 149.178 162.836 147.385 162.628C145.592 162.422 143.951 162.131 142.524 161.772C142.161 161.681 141.812 161.586 141.475 161.486C139.953 161.033 138.734 160.497 137.92 159.903C137.723 159.761 137.55 159.615 137.403 159.467C137.052 159.117 136.841 158.751 136.78 158.375C137.19 155.815 144.649 153.768 153.761 153.768C154.914 153.768 156.04 153.801 157.131 153.864C157.686 153.895 158.234 153.935 158.77 153.982C160.959 154.174 162.961 154.489 164.675 154.898C165.045 154.986 165.404 155.079 165.747 155.177C167.082 155.554 168.2 155.993 169.037 156.479C169.853 156.953 170.403 157.469 170.635 158.013C170.687 158.132 170.723 158.253 170.742 158.375Z" fill="#407BFF"/>
<path opacity="0.2" d="M170.635 158.013L153.153 162.978C151.121 162.958 149.178 162.836 147.386 162.629L169.037 156.48C169.852 156.954 170.403 157.469 170.635 158.013Z" fill="white"/>
<path opacity="0.2" d="M158.77 153.983L137.921 159.904C137.724 159.762 137.551 159.616 137.404 159.467L157.131 153.865C157.686 153.897 158.234 153.936 158.77 153.983Z" fill="white"/>
<path opacity="0.2" d="M165.746 155.178L142.523 161.774C142.16 161.682 141.812 161.587 141.475 161.488L164.674 154.899C165.045 154.987 165.403 155.08 165.746 155.178Z" fill="white"/>
<path d="M156.124 160.892V161.694H152.537V160.928C149.992 160.885 147.524 160.69 145.998 160.422L147.932 159.179C149.611 159.461 151.85 159.642 153.809 159.642C155.513 159.642 156.124 159.54 156.124 159.367C156.124 158.732 146.278 159.244 146.278 157.359C146.278 156.542 148.364 155.856 152.537 155.689V154.902H156.124V155.675C158.007 155.726 159.838 155.863 161.289 156.094L159.483 157.33C157.727 157.077 156.073 156.954 154.522 156.954C152.766 156.954 152.207 157.098 152.207 157.271C152.207 157.878 162.053 157.373 162.053 159.237C162.052 160.018 160.068 160.697 156.124 160.892Z" fill="#3362CC"/>
<path d="M156.02 160.626V161.428H152.433V160.662C149.889 160.619 147.421 160.423 145.895 160.156L147.828 158.913C149.507 159.194 151.746 159.375 153.705 159.375C155.41 159.375 156.021 159.274 156.021 159.101C156.021 158.464 146.175 158.978 146.175 157.092C146.175 156.275 148.261 155.589 152.433 155.423V154.635H156.02V155.408C157.903 155.459 159.735 155.596 161.185 155.828L159.379 157.063C157.623 156.81 155.97 156.687 154.418 156.687C152.662 156.687 152.103 156.831 152.103 157.005C152.103 157.612 161.949 157.106 161.949 158.97C161.948 159.752 159.964 160.431 156.02 160.626Z" fill="#C6D7FF"/>
<path d="M174.836 155.358C174.836 155.378 174.836 155.398 174.836 155.418C174.836 156.156 174.443 156.865 173.718 157.526C173.541 157.688 173.344 157.846 173.128 158.002C172.525 158.438 171.774 158.848 170.895 159.229C170.705 159.312 170.508 159.393 170.305 159.472C169.624 159.741 168.877 159.991 168.072 160.223C167.879 160.279 167.683 160.334 167.482 160.387C166.777 160.577 166.031 160.751 165.248 160.91C165.054 160.95 164.858 160.988 164.659 161.026C163.942 161.162 163.196 161.285 162.425 161.394C162.23 161.422 162.034 161.448 161.835 161.474C161.11 161.568 160.365 161.651 159.602 161.721C159.406 161.739 159.21 161.756 159.012 161.772C158.282 161.832 157.537 161.88 156.779 161.915C156.583 161.924 156.387 161.932 156.189 161.939C155.456 161.967 154.711 161.984 153.956 161.988C153.825 161.989 153.693 161.989 153.561 161.989C153.497 161.989 153.431 161.989 153.367 161.989C152.612 161.987 151.867 161.973 151.133 161.947C150.935 161.941 150.739 161.932 150.543 161.924C149.985 161.9 149.433 161.868 148.888 161.831C148.694 161.817 148.501 161.803 148.31 161.787C148.112 161.772 147.916 161.756 147.72 161.738C146.957 161.671 146.212 161.591 145.487 161.499C145.289 161.474 145.093 161.449 144.897 161.421C144.436 161.357 143.982 161.289 143.538 161.216C143.243 161.166 142.951 161.116 142.664 161.063C142.465 161.026 142.268 160.988 142.074 160.95C141.293 160.795 140.547 160.624 139.84 160.44C139.701 160.404 139.563 160.366 139.426 160.329C139.367 160.314 139.309 160.297 139.251 160.28C138.931 160.191 138.62 160.098 138.319 160.002C137.864 159.857 137.429 159.706 137.018 159.55C136.815 159.472 136.619 159.394 136.428 159.314C135.674 158.998 135.01 158.661 134.447 158.306C134.361 158.251 134.276 158.196 134.195 158.14C134.092 158.071 133.994 158.001 133.9 157.931C133.797 157.855 133.699 157.777 133.606 157.699C132.754 156.989 132.288 156.22 132.288 155.418C132.288 155.362 132.291 155.306 132.296 155.249L132.298 150.709L133.606 150.707L134.195 150.706L136.429 150.703L137.018 150.702L138.761 150.699L139.252 150.699L139.841 150.698L142.075 150.695L142.665 150.694L144.898 150.69L145.488 150.69L147.72 150.686L148.31 150.685L150.544 150.682L151.133 150.681L153.367 150.678L153.957 150.677L156.19 150.674L156.78 150.673L159.013 150.669L159.603 150.669L161.837 150.665L162.426 150.664L164.66 150.661L165.249 150.66L167.483 150.657L168.073 150.656H168.219L170.306 150.652L170.896 150.652L173.13 150.648L173.719 150.648L174.829 150.646L174.838 155.359L174.836 155.358Z" fill="#407BFF"/>
<path d="M134.198 150.706V158.14C134.095 158.071 133.997 158.001 133.903 157.931C133.8 157.854 133.702 157.777 133.608 157.698V150.707L134.198 150.706Z" fill="#3362CC"/>
<path d="M137.02 150.702V159.55C136.818 159.472 136.622 159.394 136.431 159.314V150.703L137.02 150.702Z" fill="#3362CC"/>
<path d="M139.843 150.697V160.439C139.703 160.403 139.565 160.366 139.428 160.329C139.369 160.313 139.311 160.296 139.253 160.28V150.698L139.843 150.697Z" fill="#3362CC"/>
<path d="M142.667 150.693V161.062C142.468 161.026 142.271 160.987 142.077 160.949V150.694L142.667 150.693Z" fill="#3362CC"/>
<path d="M145.49 150.689V161.5C145.291 161.475 145.095 161.449 144.9 161.421V150.69L145.49 150.689Z" fill="#3362CC"/>
<path d="M148.313 150.685V161.787C148.115 161.772 147.919 161.755 147.723 161.737V150.685L148.313 150.685Z" fill="#3362CC"/>
<path d="M151.135 150.681V161.948C150.937 161.941 150.741 161.933 150.545 161.924V150.682L151.135 150.681Z" fill="#3362CC"/>
<path d="M153.958 150.676V161.988C153.827 161.988 153.695 161.989 153.564 161.989C153.499 161.989 153.434 161.989 153.369 161.988V150.677L153.958 150.676Z" fill="#3362CC"/>
<path d="M156.781 150.672V161.915C156.585 161.924 156.389 161.932 156.191 161.939V150.673L156.781 150.672Z" fill="#3362CC"/>
<path d="M159.604 150.668V161.72C159.408 161.738 159.212 161.755 159.014 161.771V150.668L159.604 150.668Z" fill="#3362CC"/>
<path d="M162.427 150.664V161.393C162.231 161.421 162.035 161.447 161.837 161.474V150.664L162.427 150.664Z" fill="#3362CC"/>
<path d="M165.25 150.659V160.91C165.056 160.949 164.859 160.988 164.66 161.025V150.661L165.25 150.659Z" fill="#3362CC"/>
<path d="M168.073 150.655V160.224C167.88 160.279 167.684 160.334 167.483 160.388V150.656L168.073 150.655Z" fill="#3362CC"/>
<path d="M170.895 150.652V159.23C170.704 159.312 170.507 159.393 170.305 159.472V150.652L170.895 150.652Z" fill="#3362CC"/>
<path d="M173.719 150.648V157.526C173.542 157.688 173.344 157.847 173.129 158.002V150.648H173.719Z" fill="#3362CC"/>
<path d="M174.832 150.704C174.832 154.039 165.312 156.743 153.565 156.743C151.96 156.743 150.397 156.693 148.894 156.597C147.003 156.477 145.208 156.285 143.545 156.032C142.061 155.807 140.682 155.532 139.435 155.217C139.053 155.121 138.684 155.02 138.329 154.916C136.765 154.461 135.453 153.935 134.457 153.357C134.263 153.245 134.08 153.13 133.91 153.013C132.872 152.301 132.299 151.521 132.299 150.704C132.299 150.629 132.304 150.554 132.316 150.48C132.728 147.248 142.085 144.664 153.566 144.664C156.391 144.664 159.087 144.821 161.553 145.104C162.03 145.159 162.497 145.219 162.956 145.283C164.959 145.564 166.784 145.931 168.369 146.368C168.719 146.464 169.056 146.564 169.382 146.666C170.541 147.032 171.543 147.438 172.362 147.876C173.206 148.327 173.855 148.813 174.274 149.324C174.581 149.697 174.766 150.083 174.816 150.48C174.827 150.554 174.832 150.629 174.832 150.704Z" fill="#C6D7FF"/>
<path opacity="0.3" d="M174.274 149.324L148.894 156.597C147.003 156.476 145.208 156.285 143.545 156.032L172.362 147.875C173.205 148.327 173.853 148.813 174.274 149.324Z" fill="white"/>
<path opacity="0.3" d="M162.955 145.283L134.457 153.357C134.262 153.244 134.079 153.129 133.91 153.012L161.553 145.104C162.029 145.159 162.497 145.218 162.955 145.283Z" fill="white"/>
<path opacity="0.3" d="M169.382 146.666L139.435 155.217C139.053 155.121 138.684 155.02 138.329 154.916L168.369 146.367C168.718 146.464 169.056 146.563 169.382 146.666Z" fill="white"/>
<path d="M170.563 150.704C170.563 150.778 170.556 150.852 170.547 150.925C170.137 153.485 162.678 155.531 153.565 155.531C144.454 155.531 136.995 153.485 136.584 150.925C136.574 150.852 136.567 150.778 136.567 150.704C136.567 148.042 144.192 145.876 153.565 145.876C162.937 145.876 170.563 148.042 170.563 150.704Z" fill="#3362CC"/>
<path d="M170.546 150.925C170.136 153.484 162.678 155.531 153.565 155.531C153.361 155.531 153.159 155.529 152.958 155.527C150.926 155.507 148.983 155.385 147.191 155.178C145.397 154.972 143.756 154.68 142.329 154.322C141.966 154.231 141.617 154.137 141.281 154.037C139.758 153.584 138.539 153.047 137.725 152.453C137.529 152.311 137.355 152.165 137.209 152.017C136.857 151.667 136.646 151.302 136.585 150.925C136.996 148.366 144.454 146.318 153.566 146.318C154.719 146.318 155.846 146.351 156.936 146.414C157.491 146.446 158.039 146.485 158.575 146.533C160.765 146.725 162.766 147.039 164.481 147.448C164.851 147.536 165.209 147.629 165.553 147.727C166.888 148.104 168.005 148.544 168.842 149.03C169.658 149.503 170.208 150.019 170.441 150.563C170.492 150.682 170.528 150.803 170.546 150.925Z" fill="#407BFF"/>
<path opacity="0.2" d="M170.44 150.562L152.959 155.527C150.926 155.507 148.984 155.385 147.191 155.178L168.842 149.029C169.658 149.502 170.208 150.019 170.44 150.562Z" fill="white"/>
<path opacity="0.2" d="M158.574 146.532L137.725 152.453C137.528 152.31 137.355 152.164 137.208 152.016L156.935 146.414C157.49 146.446 158.038 146.485 158.574 146.532Z" fill="white"/>
<path opacity="0.2" d="M165.552 147.727L142.328 154.322C141.965 154.232 141.616 154.137 141.28 154.037L164.48 147.448C164.85 147.537 165.208 147.63 165.552 147.727Z" fill="white"/>
<path d="M155.929 153.442V154.244H152.341V153.478C149.797 153.435 147.329 153.24 145.803 152.972L147.736 151.729C149.416 152.011 151.654 152.192 153.613 152.192C155.318 152.192 155.929 152.09 155.929 151.917C155.929 151.281 146.083 151.794 146.083 149.908C146.083 149.092 148.169 148.405 152.341 148.239V147.452H155.929V148.225C157.812 148.275 159.644 148.412 161.094 148.644L159.287 149.879C157.532 149.626 155.878 149.503 154.326 149.503C152.571 149.503 152.011 149.648 152.011 149.821C152.011 150.428 161.857 149.922 161.857 151.786C161.857 152.568 159.872 153.247 155.929 153.442Z" fill="#3362CC"/>
<path d="M155.825 153.175V153.978H152.238V153.212C149.694 153.168 147.225 152.973 145.699 152.706L147.633 151.463C149.312 151.745 151.551 151.925 153.51 151.925C155.215 151.925 155.825 151.824 155.825 151.65C155.825 151.014 145.979 151.527 145.979 149.642C145.979 148.826 148.065 148.139 152.237 147.973V147.185H155.824V147.958C157.707 148.009 159.539 148.146 160.989 148.377L159.183 149.613C157.428 149.36 155.773 149.237 154.221 149.237C152.466 149.237 151.906 149.382 151.906 149.555C151.906 150.162 161.752 149.656 161.752 151.52C161.753 152.301 159.768 152.981 155.825 153.175Z" fill="#C6D7FF"/>
<path d="M173.777 148.695C173.778 148.715 173.778 148.735 173.778 148.755C173.778 149.492 173.385 150.201 172.66 150.863C172.483 151.025 172.286 151.183 172.07 151.338C171.467 151.774 170.716 152.184 169.836 152.566C169.646 152.648 169.449 152.729 169.247 152.808C168.565 153.077 167.819 153.328 167.013 153.56C166.82 153.616 166.624 153.671 166.424 153.724C165.719 153.913 164.972 154.088 164.19 154.246C163.995 154.286 163.799 154.324 163.6 154.362C162.883 154.498 162.137 154.621 161.367 154.73C161.172 154.758 160.975 154.785 160.777 154.811C160.052 154.905 159.307 154.988 158.543 155.058C158.348 155.075 158.152 155.093 157.954 155.108C157.224 155.168 156.479 155.216 155.72 155.251C155.524 155.26 155.329 155.269 155.131 155.276C154.397 155.304 153.652 155.32 152.897 155.325C152.766 155.325 152.634 155.326 152.503 155.326C152.438 155.326 152.373 155.326 152.308 155.325C151.553 155.324 150.808 155.309 150.074 155.284C149.877 155.277 149.68 155.269 149.484 155.26C148.926 155.236 148.374 155.204 147.83 155.167C147.636 155.153 147.443 155.139 147.252 155.124C147.054 155.108 146.858 155.092 146.662 155.074C145.899 155.007 145.154 154.928 144.428 154.836C144.23 154.81 144.034 154.785 143.839 154.758C143.377 154.694 142.924 154.625 142.48 154.552C142.184 154.503 141.893 154.452 141.605 154.399C141.407 154.362 141.21 154.324 141.016 154.286C140.235 154.131 139.488 153.96 138.782 153.776C138.643 153.74 138.504 153.702 138.367 153.665C138.309 153.649 138.25 153.633 138.192 153.616C137.873 153.527 137.562 153.434 137.261 153.338C136.805 153.193 136.371 153.042 135.959 152.886C135.757 152.808 135.56 152.73 135.369 152.65C134.616 152.334 133.952 151.997 133.388 151.642C133.302 151.587 133.217 151.532 133.136 151.476C133.034 151.407 132.935 151.338 132.841 151.267C132.738 151.191 132.64 151.113 132.547 151.035C131.695 150.325 131.229 149.556 131.229 148.754C131.229 148.698 131.232 148.641 131.238 148.585L131.24 144.045L132.547 144.042L133.137 144.041L135.37 144.038L135.96 144.037L137.703 144.035L138.193 144.034L138.783 144.033L141.017 144.03L141.606 144.029L143.84 144.026L144.43 144.025L146.663 144.021L147.253 144.021L149.486 144.018L150.076 144.017L152.31 144.013L152.899 144.012L155.133 144.009L155.722 144.008L157.956 144.005L158.546 144.004L160.779 144L161.369 144L163.602 143.997L164.192 143.995L166.426 143.992L167.015 143.991H167.161L169.248 143.988L169.838 143.987L172.071 143.984L172.661 143.983L173.771 143.981L173.779 148.694H173.777V148.695Z" fill="#407BFF"/>
<path d="M133.139 144.042V151.477C133.036 151.408 132.938 151.338 132.844 151.268C132.741 151.191 132.643 151.113 132.55 151.035V144.044L133.139 144.042Z" fill="#3362CC"/>
<path d="M135.962 144.038V152.886C135.76 152.808 135.564 152.73 135.373 152.65V144.039L135.962 144.038Z" fill="#3362CC"/>
<path d="M138.784 144.034V153.776C138.645 153.74 138.507 153.703 138.37 153.666C138.311 153.65 138.253 153.633 138.195 153.616V144.035L138.784 144.034Z" fill="#3362CC"/>
<path d="M141.608 144.03V154.399C141.41 154.362 141.213 154.324 141.019 154.285V144.03H141.608Z" fill="#3362CC"/>
<path d="M144.43 144.026V154.836C144.232 154.811 144.036 154.785 143.841 154.758V144.026L144.43 144.026Z" fill="#3362CC"/>
<path d="M147.254 144.021V155.124C147.057 155.108 146.86 155.092 146.665 155.074V144.022L147.254 144.021Z" fill="#3362CC"/>
<path d="M150.076 144.017V155.283C149.879 155.276 149.683 155.269 149.487 155.26V144.018L150.076 144.017Z" fill="#3362CC"/>
<path d="M152.9 144.013V155.325C152.769 155.326 152.637 155.326 152.506 155.326C152.441 155.326 152.376 155.326 152.311 155.326V144.015L152.9 144.013Z" fill="#3362CC"/>
<path d="M155.723 144.009V155.252C155.527 155.261 155.331 155.269 155.133 155.276V144.01L155.723 144.009Z" fill="#3362CC"/>
<path d="M158.545 144.005V155.057C158.349 155.075 158.153 155.092 157.955 155.108V144.005L158.545 144.005Z" fill="#3362CC"/>
<path d="M161.368 144.001V154.73C161.173 154.758 160.977 154.785 160.778 154.811V144.002L161.368 144.001Z" fill="#3362CC"/>
<path d="M164.191 143.996V154.246C163.997 154.286 163.801 154.324 163.602 154.362V143.998L164.191 143.996Z" fill="#3362CC"/>
<path d="M167.015 143.992V153.56C166.822 153.616 166.625 153.671 166.425 153.724V143.993L167.015 143.992Z" fill="#3362CC"/>
<path d="M169.837 143.988V152.566C169.646 152.649 169.449 152.73 169.247 152.809V143.989L169.837 143.988Z" fill="#3362CC"/>
<path d="M172.659 143.984V150.862C172.483 151.025 172.286 151.183 172.07 151.338V143.984H172.659Z" fill="#3362CC"/>
<path d="M173.773 144.039C173.773 147.375 164.253 150.08 152.506 150.08C150.901 150.08 149.338 150.029 147.835 149.933C145.944 149.813 144.15 149.622 142.486 149.368C141.002 149.143 139.623 148.869 138.375 148.553C137.994 148.457 137.625 148.357 137.27 148.253C135.706 147.797 134.394 147.271 133.398 146.694C133.203 146.581 133.02 146.466 132.851 146.35C131.813 145.638 131.24 144.858 131.24 144.04C131.24 143.966 131.245 143.891 131.257 143.816C131.669 140.584 141.026 138 152.507 138C155.332 138 158.028 138.156 160.494 138.44C160.971 138.495 161.438 138.555 161.897 138.619C163.9 138.899 165.724 139.266 167.31 139.703C167.66 139.799 167.997 139.899 168.323 140.001C169.481 140.367 170.484 140.773 171.303 141.211C172.146 141.663 172.794 142.149 173.215 142.66C173.521 143.032 173.706 143.419 173.756 143.815C173.769 143.89 173.773 143.965 173.773 144.039Z" fill="#C6D7FF"/>
<path opacity="0.3" d="M173.215 142.66L147.835 149.933C145.944 149.813 144.15 149.621 142.486 149.368L171.303 141.212C172.146 141.664 172.795 142.15 173.215 142.66Z" fill="white"/>
<path opacity="0.3" d="M161.897 138.62L133.398 146.694C133.203 146.582 133.02 146.467 132.851 146.35L160.494 138.441C160.97 138.496 161.438 138.555 161.897 138.62Z" fill="white"/>
<path opacity="0.3" d="M168.323 140.002L138.375 148.553C137.994 148.457 137.625 148.356 137.27 148.252L167.31 139.703C167.66 139.8 167.997 139.899 168.323 140.002Z" fill="white"/>
<path d="M169.505 144.039C169.505 144.113 169.498 144.188 169.488 144.261C169.077 146.82 161.619 148.866 152.507 148.866C143.395 148.866 135.936 146.82 135.526 144.261C135.516 144.188 135.509 144.114 135.509 144.039C135.509 141.377 143.134 139.212 152.506 139.212C161.88 139.212 169.505 141.377 169.505 144.039Z" fill="#3362CC"/>
<path d="M169.487 144.261C169.077 146.821 161.618 148.867 152.506 148.867C152.302 148.867 152.1 148.865 151.899 148.864C149.866 148.843 147.924 148.722 146.132 148.515C144.338 148.308 142.697 148.017 141.27 147.659C140.907 147.567 140.558 147.473 140.222 147.373C138.699 146.92 137.48 146.384 136.666 145.79C136.469 145.647 136.296 145.502 136.15 145.353C135.798 145.004 135.587 144.638 135.526 144.261C135.936 141.702 143.395 139.655 152.507 139.655C153.66 139.655 154.786 139.688 155.877 139.75C156.432 139.782 156.98 139.821 157.516 139.869C159.705 140.061 161.707 140.376 163.421 140.784C163.791 140.873 164.15 140.966 164.493 141.063C165.829 141.44 166.945 141.881 167.783 142.366C168.598 142.84 169.149 143.356 169.381 143.899C169.433 144.019 169.468 144.139 169.487 144.261Z" fill="#407BFF"/>
<path opacity="0.2" d="M169.381 143.899L151.9 148.864C149.867 148.843 147.925 148.722 146.132 148.515L167.783 142.366C168.599 142.84 169.149 143.356 169.381 143.899Z" fill="white"/>
<path opacity="0.2" d="M157.516 139.87L136.666 145.79C136.469 145.648 136.296 145.502 136.149 145.353L155.877 139.751C156.432 139.783 156.979 139.822 157.516 139.87Z" fill="white"/>
<path opacity="0.2" d="M164.493 141.064L141.27 147.659C140.907 147.568 140.558 147.473 140.222 147.373L163.422 140.785C163.791 140.873 164.149 140.966 164.493 141.064Z" fill="white"/>
<path d="M154.87 146.779V147.581H151.283V146.815C148.739 146.771 146.271 146.577 144.745 146.309L146.678 145.066C148.358 145.348 150.596 145.528 152.555 145.528C154.26 145.528 154.871 145.428 154.871 145.254C154.871 144.618 145.025 145.131 145.025 143.245C145.025 142.429 147.111 141.742 151.283 141.576V140.789H154.87V141.562C156.753 141.612 158.584 141.749 160.035 141.981L158.229 143.216C156.473 142.963 154.82 142.841 153.268 142.841C151.512 142.841 150.952 142.985 150.952 143.159C150.952 143.765 160.799 143.26 160.799 145.124C160.798 145.904 158.813 146.584 154.87 146.779Z" fill="#3362CC"/>
<path d="M154.767 146.513V147.315H151.18V146.548C148.635 146.505 146.167 146.31 144.641 146.043L146.575 144.8C148.254 145.082 150.493 145.262 152.452 145.262C154.156 145.262 154.767 145.161 154.767 144.988C154.767 144.352 144.921 144.865 144.921 142.979C144.921 142.163 147.007 141.476 151.179 141.31V140.522H154.766V141.296C156.649 141.346 158.48 141.483 159.931 141.715L158.124 142.95C156.369 142.697 154.715 142.574 153.163 142.574C151.408 142.574 150.848 142.719 150.848 142.892C150.848 143.499 160.694 142.993 160.694 144.857C160.695 145.638 158.71 146.318 154.767 146.513Z" fill="#C6D7FF"/>
<path d="M211.289 170.259C211.29 170.279 211.29 170.299 211.29 170.319C211.29 171.056 210.897 171.766 210.172 172.427C209.995 172.589 209.798 172.747 209.582 172.903C208.979 173.339 208.228 173.749 207.349 174.13C207.159 174.213 206.962 174.294 206.759 174.373C206.078 174.642 205.331 174.892 204.526 175.124C204.333 175.18 204.136 175.235 203.936 175.288C203.231 175.477 202.485 175.652 201.702 175.811C201.508 175.851 201.312 175.889 201.113 175.926C200.396 176.062 199.65 176.185 198.879 176.294C198.684 176.322 198.488 176.348 198.289 176.375C197.564 176.469 196.819 176.552 196.057 176.621C195.861 176.639 195.664 176.657 195.467 176.672C194.737 176.732 193.992 176.78 193.233 176.816C193.038 176.825 192.841 176.833 192.644 176.84C191.91 176.868 191.166 176.885 190.41 176.889C190.279 176.89 190.148 176.89 190.016 176.89C189.951 176.89 189.886 176.89 189.821 176.89C189.067 176.888 188.321 176.874 187.587 176.848C187.39 176.841 187.193 176.833 186.998 176.825C186.439 176.801 185.887 176.769 185.344 176.732C185.149 176.718 184.956 176.704 184.765 176.689C184.567 176.674 184.371 176.657 184.175 176.639C183.412 176.572 182.667 176.493 181.942 176.401C181.744 176.375 181.548 176.35 181.352 176.323C180.891 176.259 180.438 176.19 179.994 176.117C179.698 176.068 179.407 176.017 179.119 175.964C178.92 175.927 178.724 175.889 178.529 175.851C177.748 175.696 177.002 175.525 176.295 175.341C176.156 175.305 176.018 175.267 175.881 175.23C175.822 175.214 175.764 175.198 175.706 175.181C175.386 175.092 175.075 174.999 174.775 174.903C174.319 174.758 173.884 174.607 173.473 174.451C173.27 174.373 173.074 174.295 172.883 174.215C172.129 173.899 171.465 173.562 170.902 173.207C170.816 173.152 170.731 173.097 170.65 173.041C170.547 172.972 170.449 172.903 170.355 172.832C170.252 172.756 170.154 172.678 170.061 172.6C169.209 171.89 168.743 171.121 168.743 170.319C168.743 170.263 168.746 170.207 168.751 170.15L168.753 165.61L170.061 165.608L170.65 165.607L172.884 165.604L173.473 165.603L175.216 165.6L175.707 165.599L176.296 165.598L178.53 165.595L179.12 165.594L181.353 165.591L181.943 165.59L184.176 165.586L184.765 165.586L186.998 165.583L187.588 165.582L189.822 165.578L190.411 165.577L192.645 165.574L193.235 165.573L195.468 165.57L196.058 165.569L198.291 165.565L198.88 165.565L201.114 165.562L201.703 165.56L203.937 165.557L204.527 165.556H204.673L206.76 165.553L207.35 165.552L209.583 165.549L210.173 165.548L211.283 165.546L211.291 170.259H211.289V170.259Z" fill="#407BFF"/>
<path d="M170.651 165.606V173.041C170.548 172.971 170.45 172.902 170.356 172.831C170.253 172.755 170.155 172.677 170.062 172.599V165.607L170.651 165.606Z" fill="#3362CC"/>
<path d="M173.473 165.603V174.451C173.271 174.373 173.075 174.295 172.884 174.215V165.604L173.473 165.603Z" fill="#3362CC"/>
<path d="M176.296 165.598V175.34C176.157 175.304 176.018 175.267 175.881 175.23C175.823 175.213 175.764 175.197 175.706 175.18V165.599L176.296 165.598Z" fill="#3362CC"/>
<path d="M179.119 165.594V175.963C178.921 175.926 178.724 175.888 178.53 175.849V165.594H179.119Z" fill="#3362CC"/>
<path d="M181.943 165.59V176.4C181.744 176.375 181.548 176.35 181.353 176.322V165.591L181.943 165.59Z" fill="#3362CC"/>
<path d="M184.765 165.586V176.688C184.568 176.673 184.372 176.657 184.176 176.639V165.586L184.765 165.586Z" fill="#3362CC"/>
<path d="M187.588 165.582V176.848C187.39 176.841 187.194 176.834 186.998 176.825V165.583L187.588 165.582Z" fill="#3362CC"/>
<path d="M190.411 165.577V176.889C190.28 176.89 190.148 176.89 190.017 176.89C189.952 176.89 189.887 176.89 189.822 176.89V165.578L190.411 165.577Z" fill="#3362CC"/>
<path d="M193.234 165.573V176.815C193.038 176.825 192.841 176.833 192.644 176.84V165.574L193.234 165.573Z" fill="#3362CC"/>
<path d="M196.056 165.569V176.622C195.861 176.639 195.664 176.657 195.467 176.672V165.57L196.056 165.569Z" fill="#3362CC"/>
<path d="M198.88 165.565V176.294C198.685 176.322 198.489 176.349 198.29 176.375V165.565L198.88 165.565Z" fill="#3362CC"/>
<path d="M201.702 165.561V175.811C201.508 175.851 201.312 175.889 201.113 175.926V165.562L201.702 165.561Z" fill="#3362CC"/>
<path d="M204.526 165.557V175.125C204.333 175.18 204.136 175.235 203.936 175.289V165.558L204.526 165.557Z" fill="#3362CC"/>
<path d="M207.348 165.553V174.13C207.158 174.213 206.961 174.294 206.759 174.373V165.553L207.348 165.553Z" fill="#3362CC"/>
<path d="M210.171 165.548V172.427C209.994 172.589 209.797 172.747 209.582 172.903V165.548H210.171Z" fill="#3362CC"/>
<path d="M211.285 165.604C211.285 168.939 201.766 171.643 190.018 171.643C188.413 171.643 186.85 171.592 185.347 171.497C183.457 171.376 181.661 171.185 179.999 170.932C178.514 170.706 177.135 170.432 175.888 170.117C175.506 170.021 175.137 169.92 174.782 169.816C173.218 169.36 171.906 168.834 170.91 168.257C170.716 168.144 170.533 168.03 170.363 167.913C169.325 167.201 168.752 166.421 168.752 165.604C168.752 165.529 168.757 165.454 168.769 165.379C169.181 162.148 178.538 159.563 190.019 159.563C192.844 159.563 195.54 159.72 198.006 160.004C198.483 160.059 198.951 160.119 199.409 160.183C201.412 160.463 203.237 160.83 204.822 161.267C205.172 161.363 205.51 161.463 205.835 161.565C206.993 161.931 207.996 162.337 208.815 162.775C209.659 163.227 210.307 163.713 210.727 164.223C211.033 164.596 211.218 164.982 211.268 165.379C211.28 165.454 211.285 165.529 211.285 165.604Z" fill="#C6D7FF"/>
<path opacity="0.3" d="M210.727 164.224L185.347 171.497C183.457 171.377 181.661 171.185 179.999 170.932L208.815 162.776C209.658 163.228 210.307 163.713 210.727 164.224Z" fill="white"/>
<path opacity="0.3" d="M199.408 160.184L170.909 168.257C170.715 168.145 170.532 168.03 170.362 167.913L198.005 160.004C198.482 160.059 198.949 160.119 199.408 160.184Z" fill="white"/>
<path opacity="0.3" d="M205.834 161.566L175.887 170.117C175.506 170.021 175.137 169.921 174.781 169.817L204.822 161.268C205.171 161.364 205.508 161.464 205.834 161.566Z" fill="white"/>
<path d="M207.016 165.605C207.016 165.679 207.009 165.753 207 165.826C206.59 168.386 199.13 170.432 190.018 170.432C180.907 170.432 173.448 168.386 173.037 165.826C173.028 165.753 173.021 165.679 173.021 165.605C173.021 162.943 180.646 160.777 190.018 160.777C199.391 160.777 207.016 162.943 207.016 165.605Z" fill="#3362CC"/>
<path d="M206.999 165.826C206.589 168.386 199.13 170.432 190.018 170.432C189.814 170.432 189.612 170.431 189.411 170.429C187.379 170.409 185.436 170.287 183.643 170.08C181.85 169.873 180.209 169.582 178.781 169.224C178.418 169.132 178.07 169.037 177.733 168.938C176.211 168.484 174.992 167.948 174.178 167.354C173.981 167.212 173.808 167.066 173.661 166.918C173.31 166.568 173.099 166.202 173.038 165.826C173.448 163.266 180.907 161.219 190.019 161.219C191.172 161.219 192.298 161.252 193.389 161.315C193.944 161.347 194.492 161.386 195.028 161.433C197.217 161.625 199.219 161.94 200.934 162.349C201.304 162.437 201.662 162.53 202.006 162.628C203.341 163.005 204.458 163.445 205.295 163.931C206.111 164.404 206.661 164.92 206.894 165.464C206.945 165.583 206.98 165.704 206.999 165.826Z" fill="#407BFF"/>
<path opacity="0.2" d="M206.894 165.464L189.412 170.429C187.379 170.409 185.437 170.287 183.644 170.08L205.295 163.931C206.111 164.404 206.661 164.92 206.894 165.464Z" fill="white"/>
<path opacity="0.2" d="M195.027 161.434L174.178 167.354C173.981 167.213 173.808 167.066 173.661 166.918L193.389 161.315C193.943 161.347 194.492 161.387 195.027 161.434Z" fill="white"/>
<path opacity="0.2" d="M202.005 162.629L178.781 169.225C178.418 169.134 178.07 169.039 177.733 168.939L200.933 162.35C201.303 162.438 201.661 162.531 202.005 162.629Z" fill="white"/>
<path d="M192.382 168.343V169.145H188.794V168.379C186.25 168.336 183.783 168.141 182.256 167.874L184.189 166.631C185.869 166.912 188.108 167.093 190.066 167.093C191.771 167.093 192.382 166.991 192.382 166.818C192.382 166.183 182.536 166.695 182.536 164.81C182.536 163.994 184.622 163.307 188.794 163.141V162.353H192.382V163.126C194.265 163.177 196.096 163.314 197.546 163.545L195.74 164.781C193.985 164.528 192.331 164.405 190.779 164.405C189.024 164.405 188.464 164.55 188.464 164.723C188.464 165.33 198.31 164.824 198.31 166.688C198.31 167.469 196.326 168.148 192.382 168.343Z" fill="#3362CC"/>
<path d="M192.277 168.076V168.878H188.69V168.112C186.146 168.069 183.678 167.874 182.151 167.606L184.085 166.363C185.764 166.645 188.003 166.825 189.962 166.825C191.667 166.825 192.277 166.724 192.277 166.551C192.277 165.915 182.431 166.428 182.431 164.542C182.431 163.725 184.518 163.039 188.69 162.873V162.085H192.277V162.859C194.16 162.909 195.992 163.046 197.442 163.278L195.636 164.513C193.881 164.26 192.227 164.137 190.675 164.137C188.92 164.137 188.36 164.282 188.36 164.455C188.36 165.062 198.206 164.556 198.206 166.42C198.206 167.201 196.221 167.881 192.277 168.076Z" fill="#C6D7FF"/>
<path d="M212.626 162.809C212.626 162.829 212.626 162.849 212.626 162.869C212.626 163.606 212.233 164.315 211.508 164.976C211.331 165.138 211.134 165.297 210.918 165.452C210.315 165.887 209.564 166.298 208.685 166.679C208.495 166.762 208.298 166.843 208.095 166.922C207.414 167.191 206.667 167.442 205.862 167.674C205.669 167.729 205.472 167.784 205.272 167.838C204.567 168.027 203.821 168.201 203.038 168.36C202.844 168.4 202.648 168.439 202.449 168.476C201.732 168.612 200.986 168.735 200.215 168.844C200.02 168.872 199.824 168.898 199.625 168.925C198.9 169.019 198.155 169.102 197.392 169.171C197.196 169.189 197 169.206 196.802 169.222C196.073 169.282 195.327 169.329 194.569 169.365C194.373 169.375 194.177 169.383 193.979 169.39C193.246 169.418 192.501 169.435 191.746 169.439C191.615 169.439 191.483 169.44 191.351 169.44C191.287 169.44 191.221 169.44 191.157 169.439C190.402 169.438 189.657 169.424 188.923 169.398C188.725 169.391 188.529 169.383 188.333 169.375C187.775 169.35 187.223 169.319 186.679 169.281C186.485 169.267 186.292 169.253 186.1 169.238C185.903 169.223 185.706 169.206 185.51 169.189C184.748 169.122 184.002 169.042 183.278 168.95C183.079 168.925 182.883 168.899 182.688 168.872C182.226 168.808 181.773 168.74 181.329 168.666C181.033 168.617 180.742 168.566 180.454 168.513C180.256 168.476 180.059 168.438 179.865 168.4C179.084 168.245 178.338 168.074 177.631 167.89C177.492 167.854 177.354 167.817 177.216 167.779C177.158 167.763 177.099 167.747 177.042 167.73C176.722 167.641 176.411 167.548 176.111 167.452C175.655 167.307 175.22 167.156 174.808 167C174.606 166.922 174.41 166.844 174.219 166.764C173.465 166.449 172.801 166.111 172.238 165.756C172.151 165.701 172.067 165.646 171.985 165.591C171.883 165.522 171.784 165.452 171.691 165.381C171.588 165.305 171.489 165.227 171.396 165.149C170.544 164.439 170.079 163.67 170.079 162.869C170.079 162.812 170.081 162.756 170.087 162.7L170.089 158.159L171.396 158.157L171.986 158.156L174.219 158.153L174.809 158.152L176.552 158.149L177.042 158.149L177.631 158.147L179.865 158.144L180.455 158.144L182.688 158.14L183.278 158.139L185.511 158.136L186.101 158.135L188.334 158.132L188.924 158.131L191.158 158.128L191.747 158.126L193.981 158.123L194.571 158.123L196.804 158.119L197.394 158.118L199.627 158.115L200.217 158.114L202.45 158.111L203.04 158.11L205.274 158.107L205.863 158.105H206.009L208.097 158.102L208.687 158.102L210.92 158.098L211.51 158.097L212.62 158.096L212.628 162.809H212.626Z" fill="#407BFF"/>
<path d="M171.987 158.156V165.591C171.884 165.522 171.786 165.452 171.692 165.382C171.589 165.305 171.491 165.227 171.397 165.149V158.157L171.987 158.156Z" fill="#3362CC"/>
<path d="M174.809 158.151V166.999C174.607 166.922 174.411 166.844 174.22 166.764V158.152L174.809 158.151Z" fill="#3362CC"/>
<path d="M177.632 158.147V167.889C177.493 167.853 177.355 167.816 177.218 167.779C177.159 167.763 177.101 167.747 177.043 167.73V158.148L177.632 158.147Z" fill="#3362CC"/>
<path d="M180.456 158.144V168.513C180.258 168.477 180.061 168.438 179.867 168.4V158.145L180.456 158.144Z" fill="#3362CC"/>
<path d="M183.279 158.14V168.95C183.08 168.924 182.884 168.899 182.689 168.872V158.14L183.279 158.14Z" fill="#3362CC"/>
<path d="M186.101 158.135V169.238C185.904 169.223 185.708 169.206 185.512 169.188V158.136L186.101 158.135Z" fill="#3362CC"/>
<path d="M188.925 158.131V169.397C188.728 169.39 188.531 169.383 188.335 169.374V158.132L188.925 158.131Z" fill="#3362CC"/>
<path d="M191.748 158.126V169.438C191.617 169.439 191.485 169.439 191.353 169.439C191.289 169.439 191.223 169.439 191.159 169.439V158.128L191.748 158.126Z" fill="#3362CC"/>
<path d="M194.571 158.124V169.366C194.375 169.375 194.178 169.384 193.981 169.391V158.124L194.571 158.124Z" fill="#3362CC"/>
<path d="M197.393 158.119V169.171C197.198 169.189 197.001 169.206 196.804 169.222V158.119L197.393 158.119Z" fill="#3362CC"/>
<path d="M200.217 158.115V168.844C200.022 168.872 199.826 168.898 199.627 168.925V158.115L200.217 158.115Z" fill="#3362CC"/>
<path d="M203.039 158.11V168.361C202.845 168.401 202.648 168.439 202.449 168.476V158.112L203.039 158.11Z" fill="#3362CC"/>
<path d="M205.862 158.106V167.674C205.669 167.73 205.473 167.785 205.272 167.838V158.107L205.862 158.106Z" fill="#3362CC"/>
<path d="M208.685 158.103V166.68C208.495 166.763 208.298 166.844 208.096 166.923V158.103L208.685 158.103Z" fill="#3362CC"/>
<path d="M211.507 158.098V164.976C211.33 165.138 211.133 165.297 210.917 165.452V158.098H211.507Z" fill="#3362CC"/>
<path d="M212.621 158.153C212.621 161.488 203.101 164.193 191.354 164.193C189.749 164.193 188.186 164.142 186.683 164.047C184.793 163.926 182.998 163.735 181.334 163.482C179.85 163.256 178.471 162.982 177.224 162.667C176.843 162.571 176.473 162.47 176.118 162.366C174.554 161.91 173.242 161.384 172.246 160.807C172.052 160.694 171.868 160.58 171.699 160.463C170.661 159.752 170.088 158.972 170.088 158.154C170.088 158.079 170.093 158.004 170.105 157.929C170.517 154.698 179.874 152.114 191.355 152.114C194.18 152.114 196.876 152.27 199.342 152.554C199.819 152.609 200.286 152.668 200.745 152.733C202.749 153.013 204.573 153.38 206.158 153.817C206.508 153.913 206.845 154.013 207.171 154.115C208.33 154.481 209.332 154.887 210.151 155.325C210.995 155.776 211.644 156.262 212.063 156.773C212.37 157.146 212.555 157.532 212.605 157.929C212.617 158.004 212.621 158.079 212.621 158.153Z" fill="#C6D7FF"/>
<path opacity="0.3" d="M212.063 156.774L186.683 164.047C184.793 163.927 182.998 163.735 181.334 163.482L210.151 155.326C210.995 155.778 211.643 156.263 212.063 156.774Z" fill="white"/>
<path opacity="0.3" d="M200.745 152.733L172.246 160.807C172.052 160.694 171.868 160.58 171.699 160.463L199.342 152.555C199.819 152.609 200.286 152.669 200.745 152.733Z" fill="white"/>
<path opacity="0.3" d="M207.171 154.116L177.224 162.667C176.843 162.571 176.474 162.471 176.118 162.367L206.159 153.817C206.508 153.914 206.845 154.014 207.171 154.116Z" fill="white"/>
<path d="M208.353 158.154C208.353 158.228 208.346 158.303 208.336 158.376C207.926 160.935 200.467 162.982 191.355 162.982C182.243 162.982 174.784 160.935 174.374 158.376C174.364 158.303 174.357 158.229 174.357 158.154C174.357 155.493 181.982 153.327 191.355 153.327C200.728 153.327 208.353 155.492 208.353 158.154Z" fill="#3362CC"/>
<path d="M208.336 158.375C207.926 160.935 200.467 162.981 191.355 162.981C191.151 162.981 190.949 162.979 190.747 162.978C188.715 162.957 186.772 162.836 184.98 162.628C183.186 162.422 181.545 162.131 180.118 161.772C179.755 161.681 179.406 161.586 179.07 161.486C177.547 161.033 176.328 160.497 175.514 159.903C175.318 159.761 175.144 159.615 174.998 159.467C174.646 159.117 174.436 158.751 174.374 158.375C174.785 155.815 182.243 153.768 191.355 153.768C192.508 153.768 193.635 153.801 194.725 153.864C195.281 153.895 195.828 153.935 196.364 153.982C198.554 154.174 200.555 154.489 202.27 154.898C202.64 154.986 202.998 155.079 203.341 155.177C204.677 155.554 205.794 155.993 206.631 156.479C207.447 156.953 207.997 157.469 208.23 158.013C208.282 158.132 208.317 158.253 208.336 158.375Z" fill="#407BFF"/>
<path opacity="0.2" d="M208.229 158.013L190.748 162.978C188.715 162.958 186.773 162.836 184.98 162.629L206.631 156.48C207.447 156.954 207.997 157.469 208.229 158.013Z" fill="white"/>
<path opacity="0.2" d="M196.365 153.983L175.515 159.904C175.318 159.762 175.145 159.616 174.999 159.467L194.726 153.865C195.281 153.897 195.828 153.936 196.365 153.983Z" fill="white"/>
<path opacity="0.2" d="M203.341 155.178L180.118 161.774C179.754 161.682 179.406 161.587 179.069 161.488L202.269 154.899C202.639 154.987 202.997 155.08 203.341 155.178Z" fill="white"/>
<path d="M193.718 160.892V161.694H190.13V160.928C187.586 160.885 185.118 160.69 183.592 160.422L185.525 159.179C187.205 159.461 189.444 159.642 191.402 159.642C193.107 159.642 193.718 159.54 193.718 159.367C193.718 158.732 183.872 159.244 183.872 157.359C183.872 156.542 185.958 155.856 190.13 155.689V154.902H193.718V155.675C195.601 155.726 197.432 155.863 198.882 156.094L197.076 157.33C195.321 157.077 193.667 156.954 192.115 156.954C190.36 156.954 189.8 157.098 189.8 157.271C189.8 157.878 199.646 157.373 199.646 159.237C199.646 160.018 197.661 160.697 193.718 160.892Z" fill="#3362CC"/>
<path d="M193.614 160.626V161.428H190.027V160.662C187.483 160.619 185.015 160.423 183.489 160.156L185.422 158.913C187.102 159.194 189.341 159.375 191.299 159.375C193.004 159.375 193.615 159.274 193.615 159.101C193.615 158.464 183.769 158.978 183.769 157.092C183.769 156.275 185.855 155.589 190.027 155.423V154.635H193.614V155.408C195.497 155.459 197.329 155.596 198.779 155.828L196.973 157.063C195.218 156.81 193.564 156.687 192.012 156.687C190.257 156.687 189.697 156.831 189.697 157.005C189.697 157.612 199.543 157.106 199.543 158.97C199.542 159.752 197.558 160.431 193.614 160.626Z" fill="#C6D7FF"/>
</svg>
